<svg width="92" height="93" viewBox="0 0 92 93" fill="none" xmlns="http://www.w3.org/2000/svg">
<rect x="18" y="18" width="62" height="62.0001" fill="#FE6C2D"/>
<path d="M12 12H74V74.0001H12V12Z" fill="white"/>
<path fill-rule="evenodd" clip-rule="evenodd" d="M73 13H13V73.0001H73V13ZM12 12V74.0001H74V12H12Z" fill="black"/>
<path d="M24.0263 31.9177C25.5293 30.0417 28.1097 29.1037 31.7674 29.1037C34.1483 29.1037 36.2631 29.5662 38.1119 30.4911C39.9608 31.4161 40.8852 33.1618 40.8852 35.7283V45.4991C40.8852 46.1765 40.8985 46.9973 40.9251 47.9613C40.9925 49.1939 41.6916 50.9121 41.6916 50.9121H36.5089C36.5089 50.9121 36.1533 49.4875 36.0715 48.4996C33.8071 50.9054 31.7569 51.4488 28.5353 51.4488C26.5668 51.4488 24.9455 50.7262 23.6553 49.6318C22.3784 48.5245 21.5721 47.299 21.5721 45.2797C21.5721 42.6611 22.7628 40.7309 24.8244 39.5584C25.955 38.9201 27.576 38.6162 29.7706 38.3427C30.9339 38.2017 32.9914 38.155 33.9824 37.956C34.9734 37.7571 35.8904 37.2431 35.8904 36.0003C35.8904 33.5086 33.9694 33.1399 31.9779 33.1399C30.6345 33.1399 29.2786 33.4966 28.5994 34.2886C27.9845 35.0055 27.8766 35.6892 27.7436 36.51H22.4302C22.5499 34.647 23.082 33.1162 24.0263 31.9177ZM30.2033 47.5712C31.427 47.5712 32.7606 47.3695 33.7848 46.666C35.681 45.3802 35.8904 42.7716 35.8904 40.7624C33.9244 41.9748 30.3799 41.3184 28.4125 42.4548C27.5347 42.9628 27.035 43.807 27.035 44.8752C27.035 46.5223 28.5705 47.5712 30.2033 47.5712Z" fill="black"/>
<rect x="44.881" y="53.7448" width="20.3154" height="4.15352" fill="black"/>
</svg>
