<?xml version="1.0" encoding="utf-8"?>
<svg version="1.1" id="Layer_1" xmlns="http://www.w3.org/2000/svg" xmlns:xlink="http://www.w3.org/1999/xlink" x="0px" y="0px"
	 viewBox="0 0 1780 408" style="enable-background:new 0 0 1780 408;" xml:space="preserve">
<path d="M867.5,108.6c-35.9,0-71.4,15.4-98.4,45.8V4.8h-53.5v251.9l0,0c0,81.8,66.3,148.1,148.1,148.1s148.1-66.3,148.1-148.1
	S949.3,108.6,867.5,108.6z M863.6,347.7c-50.3,0-91-40.8-91-91s40.8-91,91-91c50.3,0,91,40.8,91,91S913.9,347.7,863.6,347.7z"/>
<path d="M1199.2,108.6c-35.9,0-71.4,15.4-98.4,45.8V4.8h-53.5v251.9l0,0c0,81.8,66.3,148.1,148.1,148.1
	c81.8,0,148.1-66.3,148.1-148.1S1280.9,108.6,1199.2,108.6z M1195.3,347.7c-50.3,0-91-40.8-91-91s40.8-91,91-91
	c50.3,0,91,40.8,91,91S1245.6,347.7,1195.3,347.7z"/>
<path d="M414.4,282.6v-166h57.4v165.5c0,42.3,24.5,69.4,65.8,69.4c41.8,0,65.8-26.1,65.8-69.4V116.6h57.9v166
	c0,76.7-46.5,122.1-123.7,122.1C462.4,404.8,414.4,357.8,414.4,282.6z"/>
<path d="M1447,398h-57.4V4.8h57.4V398z"/>
<path d="M1772,279.5h-219.7c8.4,43.8,39.1,73.6,93.4,73.6c31.8,0,70.5-12,95.5-30.3l24,42.3c-28.7,21.4-74.1,39.1-121.6,39.1
	c-105.4,0-150.8-73.6-150.8-147.7c0-42.3,13-77.2,39.7-104.9c26.6-27.7,61.6-41.8,103.9-41.8c40.2,0,73.6,12.5,99.2,38.1
	s38.6,60,38.6,103.9C1774,259.7,1773.5,269.1,1772,279.5z M1552.2,232.5h163.9c-4.7-44.4-37.6-73.1-79.9-73.1
	C1592.9,159.4,1560.6,188.7,1552.2,232.5z"/>
<path d="M232.1,108.6c-35.9,0-71.4,15.4-98.4,45.8V4.8H80.1v251.9l0,0c0,81.8,66.3,148.1,148.1,148.1s148.1-66.3,148.1-148.1
	S313.8,108.6,232.1,108.6z M228.2,347.7c-50.3,0-91-40.8-91-91s40.8-91,91-91c50.3,0,91,40.8,91,91S278.5,347.7,228.2,347.7z"/>
<g>
	<ellipse fill="#0000FF" cx="41.2" cy="368.1" rx="36.6" ry="36.6"/>
</g>
</svg>
