<svg width="174" height="46" fill="none" xmlns="http://www.w3.org/2000/svg"><path d="M26.134 16.038 14.003 9v4.87l12.13 7.007v-4.84Z" fill="#FF6492"/><path d="M26.133 20.877 22.494 23 14 18.081l-4.853 2.8-3.64-1.967 8.495-5.044 12.131 7.007Z" fill="#141446"/><path d="m9.147 20.88-3.64-1.967v4.086l3.64-2.119Z" fill="#A14474"/><path d="M1.866 29.962 14 23l12.133 6.962L14 36.999 1.866 29.962Z" fill="#141446"/><path d="M26.133 25.132 14 18.007V23l12.133 6.963v-4.832Z" fill="#FF6492"/><path d="M5.506 23v-4.087l8.496-5.043V9L1.866 16.038v13.924L14 23v-4.995L5.506 23Z" fill="#7A77FF"/><path d="M41.11 31.25c2.658 0 4.737-1.316 5.98-3.333l-2.138-1.667c-.953 1.316-2.138 2.164-3.813 2.164-2.6 0-4.448-2.018-4.448-4.678 0-2.602 1.848-4.649 4.448-4.649 1.704 0 2.889.877 3.813 2.193l2.137-1.696c-1.213-2.017-3.292-3.333-5.979-3.333-4.188 0-7.51 3.275-7.51 7.485 0 4.24 3.322 7.514 7.51 7.514ZM55.921 31.25c3.467 0 6.153-2.456 6.153-6.345v-8.332h-3.033v8.566c0 2.018-1.386 3.275-3.12 3.275-1.79 0-3.206-1.257-3.206-3.275v-8.566h-3.004v8.332c0 3.889 2.686 6.345 6.21 6.345ZM73.522 16.251c-1.965 0-3.669.76-4.738 2.076V9h-3.033v21.928h2.831V28.94c1.069 1.462 2.889 2.31 4.969 2.31 4.015 0 6.932-3.216 6.932-7.485s-2.917-7.514-6.961-7.514Zm-.491 12.192c-2.11 0-4.276-1.403-4.276-4.678 0-3.245 2.138-4.707 4.276-4.707 2.426 0 4.332 1.9 4.332 4.678 0 2.777-1.877 4.707-4.332 4.707ZM96.395 22.83c0-3.772-2.773-6.579-6.557-6.579-4.13 0-7.337 3.304-7.337 7.514 0 4.24 3.235 7.485 7.626 7.485 2.253 0 4.16-.877 5.661-2.31l-1.444-2.105c-1.184 1.053-2.484 1.696-4.13 1.696-2.427 0-4.218-1.403-4.622-3.772h10.572c.086-.38.23-1.14.23-1.93Zm-6.673-3.977c1.936 0 3.582 1.257 3.64 3.509h-7.713c.463-2.135 2.08-3.509 4.073-3.509ZM111.114 31.25c2.658 0 4.738-1.316 5.98-3.333l-2.138-1.667c-.953 1.316-2.137 2.164-3.813 2.164-2.599 0-4.448-2.018-4.448-4.678 0-2.602 1.849-4.649 4.448-4.649 1.704 0 2.889.877 3.813 2.193l2.138-1.696c-1.214-2.017-3.293-3.333-5.98-3.333-4.188 0-7.51 3.275-7.51 7.485 0 4.24 3.322 7.514 7.51 7.514ZM119.86 30.928h3.033V9h-3.033v21.928ZM133.287 31.25c4.217 0 7.539-3.333 7.539-7.514s-3.322-7.485-7.539-7.485c-4.189 0-7.482 3.275-7.482 7.485 0 4.18 3.293 7.514 7.482 7.514Zm0-2.836c-2.513 0-4.391-1.988-4.391-4.649 0-2.69 1.878-4.707 4.419-4.707 2.485 0 4.391 2.017 4.391 4.707 0 2.631-1.906 4.649-4.419 4.649ZM149.791 31.25c3.466 0 6.153-2.456 6.153-6.345v-8.332h-3.033v8.566c0 2.018-1.387 3.275-3.12 3.275-1.791 0-3.206-1.257-3.206-3.275v-8.566h-3.004v8.332c0 3.889 2.686 6.345 6.21 6.345ZM170.395 9v9.327c-1.068-1.316-2.773-2.076-4.737-2.076-4.015 0-6.932 3.245-6.932 7.514s2.888 7.485 6.932 7.485c2.109 0 3.928-.877 4.968-2.368v2.046h2.831V9h-3.062Zm-4.217 19.443c-2.484 0-4.362-1.93-4.362-4.707 0-2.778 1.907-4.678 4.362-4.678 2.109 0 4.275 1.462 4.275 4.707 0 3.275-2.166 4.678-4.275 4.678Z" fill="#141446"/></svg>