<?xml version="1.0" encoding="utf-8"?>
<!-- Generator: Adobe Illustrator 26.0.2, SVG Export Plug-In . SVG Version: 6.00 Build 0)  -->
<svg version="1.1" id="Layer_1" xmlns="http://www.w3.org/2000/svg" xmlns:xlink="http://www.w3.org/1999/xlink" x="0px" y="0px"
	 viewBox="0 0 694.2 120" style="enable-background:new 0 0 694.2 120;" xml:space="preserve">
<style type="text/css">
	.st0{fill:#012447;}
	.st1{fill-rule:evenodd;clip-rule:evenodd;fill:#3793EF;}
	.st2{fill-rule:evenodd;clip-rule:evenodd;fill:#012447;}
	.st3{fill-rule:evenodd;clip-rule:evenodd;fill:#1560AB;}
</style>
<g>
	<path class="st0" d="M160.2,19.96h32.4c27.48,0,40.1,13.96,40.1,39.23s-15.14,40.56-40.1,40.56h-32.4V19.96z M175.33,32.59v54.65
		h16.07c18.72,0,26.15-10.11,26.15-28.06c0-18.75-7.83-26.6-26.95-26.6H175.33z"/>
	<path class="st0" d="M240.25,69.29c0-21.14,11.95-33.64,31.47-33.64c18.85,0,28.01,11.44,28.01,28.59c0,2.39,0,5.19-0.26,8.38
		h-45.01c1.06,11.3,6.77,17.02,17.39,17.02c9.96,0,13.41-4.79,15.13-10.77l12.22,3.46c-2.92,11.3-10.75,19.02-27.48,19.02
		C252.6,101.34,240.25,90.17,240.25,69.29z M254.59,63.04h32c-0.53-10.77-5.31-16.36-15.27-16.36
		C261.63,46.69,255.92,51.87,254.59,63.04z"/>
	<path class="st0" d="M307.7,69.29c0-21.14,11.95-33.64,31.47-33.64c18.85,0,28.01,11.44,28.01,28.59c0,2.39,0,5.19-0.26,8.38
		h-45.01c1.06,11.3,6.77,17.02,17.39,17.02c9.96,0,13.41-4.79,15.13-10.77l12.22,3.46c-2.92,11.3-10.75,19.02-27.48,19.02
		C320.05,101.34,307.7,90.17,307.7,69.29z M322.04,63.04h32c-0.53-10.77-5.31-16.36-15.27-16.36
		C329.08,46.69,323.37,51.87,322.04,63.04z"/>
	<path class="st0" d="M415.64,101.47c-11.42,0-18.72-7.45-21.77-18.35h-0.93v36.83h-14.21V37.25h14.21v16.22h0.93
		c3.32-10.77,10.22-17.82,21.51-17.82c14.74,0,22.97,11.7,22.97,32.98S429.72,101.47,415.64,101.47z M424.27,68.63
		c0-13.56-4.78-20.08-15.27-20.08c-9.82,0-16.06,6.92-16.06,17.82v4.79c0,10.51,6.37,17.69,15.93,17.69
		C419.36,88.84,424.27,82.06,424.27,68.63z"/>
	<path class="st0" d="M463.84,99.74h-14.21v-62.5h13.94v16.49h1.2c3.45-11.57,11.42-18.09,21.91-18.09
		c13.01,0,19.25,8.78,19.25,22.34v41.76h-14.21V61.71c0-7.58-3.32-13.17-11.95-13.17c-9.56,0-15.93,6.38-15.93,15.82V99.74z"/>
	<path class="st0" d="M516.55,68.36c0-20.61,12.35-32.71,31.73-32.71c19.12,0,31.47,12.1,31.47,32.71
		c0,20.48-11.68,33.11-31.47,33.11C528.23,101.47,516.55,88.84,516.55,68.36z M530.89,68.23c0,12.9,5.31,20.88,17.26,20.88
		c11.82,0,17.39-7.98,17.39-20.88s-5.84-20.48-17.39-20.48S530.89,55.33,530.89,68.23z"/>
	<path class="st0" d="M594.62,48.81h-8.76V37.25h8.76V20.36h14.34v16.89h18.32v11.57h-18.32v29.92c0,6.12,2.26,9.31,8.5,9.31
		c3.19,0,5.97-0.66,9.03-1.6l1.73,12.77c-4.65,1.46-7.83,2.26-14.07,2.26c-13.67,0-19.52-9.04-19.52-20.74V48.81z"/>
	<path class="st0" d="M634.72,69.29c0-21.14,11.95-33.64,31.47-33.64c18.85,0,28.01,11.44,28.01,28.59c0,2.39,0,5.19-0.26,8.38
		h-45.01c1.06,11.3,6.77,17.02,17.39,17.02c9.96,0,13.41-4.79,15.13-10.77l12.22,3.46c-2.92,11.3-10.75,19.02-27.48,19.02
		C647.06,101.34,634.72,90.17,634.72,69.29z M649.06,63.04h32c-0.53-10.77-5.31-16.36-15.27-16.36
		C656.09,46.69,650.38,51.87,649.06,63.04z"/>
</g>
<g>
	<path class="st1" d="M42.35,0c-2.18,0.01-3.14,0-3.14,0C23.9,22.23,15.31,34.69,0,56.92c0,0,19.14,0,36.08,0
		c3.07,0,6.44,0.11,9.91,0.45L35.29,72.31c0,0,0,0,0,0l0,0L0,120h50.2l0,0l0,0c0,0,0.03-0.01,0.05-0.01c-0.02,0-0.05,0.01-0.05,0.01
		s69.8-2.14,69.8-63.4C120,2.93,57.73-0.06,42.35,0z"/>
	<polygon class="st2" points="50.2,120 50.2,120 50.2,120 	"/>
	<path class="st3" d="M50.2,120c0,0,29.15-5.48,29.15-32.64c0-22.25-17.66-28.47-33.36-29.99L35.29,72.31c0,0,0,0,0,0l0,0L0,120
		H50.2L50.2,120 M65.43,105.99c0.03-0.05,0.06-0.09,0.09-0.13C65.49,105.9,65.46,105.95,65.43,105.99z"/>
	<g>
		<path class="st2" d="M35.29,72.31c22.15,0,36.64,10.38,33.71,24.93C66.06,111.79,50.2,120,50.2,120c0,0,29.15-5.48,29.15-32.64
			c0-22.25-17.66-28.47-33.36-29.99L35.29,72.31z"/>
		<polygon class="st2" points="50.2,120 50.2,120 50.2,120 		"/>
	</g>
	<path class="st1" d="M0,56.92C15.31,34.69,23.9,22.23,39.22,0c0,0,0.96,0.01,3.14,0C57.73-0.06,120,2.93,120,56.6
		c0,61.27-69.8,63.4-69.8,63.4s29.15-5.47,29.15-32.64c0-27.17-26.33-30.44-43.27-30.44S0,56.92,0,56.92z"/>
</g>
</svg>
