<svg width="15" height="16" viewBox="0 0 15 16" fill="none" xmlns="http://www.w3.org/2000/svg">
<path d="M14.3238 7.61631C14.3881 7.40202 14.4202 7.18059 14.4202 6.9556C14.4202 6.45024 14.2541 5.96452 13.9542 5.5681C14.0184 5.35381 14.0506 5.13238 14.0506 4.90738C14.0506 4.40202 13.8845 3.91631 13.5845 3.51988C13.6488 3.3056 13.6809 3.08417 13.6809 2.85917C13.6809 1.93774 13.1327 1.10738 12.2827 0.744881C12.1333 0.680468 11.9722 0.647638 11.8095 0.648452H1.07558C0.759508 0.648452 0.50415 0.90381 0.50415 1.21988V7.71988C0.50415 8.03595 0.759508 8.29131 1.07558 8.29131H3.38451L4.91665 13.8413C5.16308 14.736 5.98451 15.361 6.91308 15.361C7.44344 15.361 7.93808 15.1502 8.30415 14.7645C8.67022 14.3806 8.85772 13.877 8.83094 13.3467L8.72379 11.152H13.0077C13.2238 11.152 13.4345 11.0949 13.6202 10.986C14.3417 10.5663 14.7899 9.8056 14.7899 9.00381C14.7899 8.49845 14.6238 8.01274 14.3238 7.61631ZM1.78986 7.00381V1.93238H3.23629V7.00381H1.78986ZM12.9899 9.8681H7.37558L7.54701 13.411C7.55772 13.6235 7.46308 13.8235 7.28629 13.9556C7.17736 14.036 7.04344 14.077 6.90951 14.0752C6.7384 14.0736 6.57245 14.0165 6.43658 13.9125C6.3007 13.8085 6.20222 13.6632 6.15594 13.4985L4.37915 7.06095V1.93238H11.797C11.9755 2.01237 12.1271 2.14223 12.2335 2.30633C12.34 2.47043 12.3967 2.66178 12.397 2.85738C12.397 3.0306 12.3559 3.19488 12.2738 3.34488L12.0256 3.79845L12.4166 4.13774C12.5267 4.23307 12.615 4.35101 12.6754 4.48351C12.7358 4.61601 12.7669 4.75998 12.7667 4.9056C12.7667 5.07881 12.7256 5.24309 12.6434 5.3931L12.3952 5.84667L12.7863 6.18595C12.8964 6.28129 12.9846 6.39922 13.045 6.53172C13.1054 6.66423 13.1365 6.80819 13.1363 6.95381C13.1363 7.12702 13.0952 7.29131 13.0131 7.44131L12.7631 7.89667L13.1542 8.23595C13.2642 8.33129 13.3525 8.44922 13.4129 8.58172C13.4733 8.71423 13.5044 8.85819 13.5041 9.00381C13.5041 9.34488 13.3077 9.67345 12.9899 9.8681Z" fill="currentColor"/>
</svg>
