<svg width="92" height="92" viewBox="0 0 92 92" fill="none" xmlns="http://www.w3.org/2000/svg">
<path d="M74.8683 43.3274L48.6719 17.1318C47.1636 15.6227 44.7169 15.6227 43.2073 17.1318L37.7681 22.5724L44.668 29.4724C46.2716 28.9305 48.1104 29.2942 49.3882 30.5727C50.6739 31.8591 51.0344 33.7135 50.4787 35.3231L57.1298 41.9737C58.7394 41.4187 60.5951 41.7778 61.8801 43.0649C63.6758 44.8606 63.6758 47.7702 61.8801 49.5672C60.0832 51.3636 57.1735 51.3636 55.3759 49.5672C54.0256 48.2156 53.6913 46.2305 54.3762 44.5667L48.1731 38.3641V54.6866C48.6106 54.9034 49.0239 55.192 49.3882 55.5564C51.1839 57.352 51.1839 60.2617 49.3882 62.0594C47.5926 63.8544 44.681 63.8544 42.8867 62.0594C41.091 60.2611 41.091 57.3514 42.8867 55.5564C43.3307 55.113 43.8446 54.7773 44.3931 54.5527V38.0781C43.8446 37.8534 43.332 37.5211 42.8867 37.0744C41.5265 35.7149 41.1994 33.7181 41.8968 32.0478L35.0948 25.2444L17.1318 43.2059C15.6227 44.7162 15.6227 47.163 17.1318 48.672L43.3294 74.8682C44.8377 76.3773 47.2837 76.3773 48.794 74.8682L74.8683 48.7934C76.3773 47.2844 76.3773 44.8364 74.8683 43.3274V43.3274Z" fill="#9592FF"/>
</svg>
