<svg width="92" height="92" viewBox="0 0 92 92" fill="none" xmlns="http://www.w3.org/2000/svg">
<path d="M45.6351 18.5C50.6773 18.5 55.3215 19.676 59.6339 21.9627C63.9463 24.2494 67.2636 27.4508 69.7183 31.4362C72.2394 35.6176 73.5 40.1257 73.5 45.0911C73.5 51.1019 71.775 56.5247 68.3251 61.2941C64.8752 66.0635 60.43 69.3302 54.8571 71.1596C54.26 71.2902 53.7955 71.2249 53.4638 70.9636C53.1321 70.7022 52.9331 70.3102 52.9331 69.8529V60.7061C52.9331 58.354 52.3359 56.7207 51.0754 55.6753C53.7955 55.414 55.8522 55.022 57.1791 54.5646C59.2358 53.8459 60.8281 52.7353 61.956 51.2979C63.2165 49.4032 63.8136 46.7898 63.8136 43.5231C63.8136 42.1511 63.5483 40.9097 63.0175 39.9297C62.6194 39.211 61.956 38.2963 60.8945 37.1857C61.1598 36.467 61.3589 35.5523 61.4252 34.5723C61.4916 32.9389 61.2262 31.3709 60.6291 29.7375C60.032 29.6069 58.9704 29.8029 57.6435 30.3255C56.7811 30.7175 55.7195 31.1749 54.5253 31.8282L53.0657 32.8082C50.7437 32.1549 48.4216 31.8282 46.0332 31.8282C43.6448 31.8282 41.3227 32.1549 39.1333 32.8082L37.6737 31.8282C36.4795 31.1749 35.418 30.6522 34.4891 30.3255C33.1622 29.8029 32.1671 29.6722 31.5036 29.8682C30.8402 31.5016 30.5748 33.0696 30.7075 34.7029C30.7075 35.7483 30.8402 36.5323 31.1719 37.1857C30.3094 38.2963 29.646 39.2764 29.2479 40.191C28.8498 41.1057 28.6508 42.2164 28.6508 43.6538C28.6508 46.9205 29.2479 49.4685 30.4421 51.2979C31.5036 52.8006 33.0296 53.9766 35.0862 54.6953C36.4131 55.1526 38.4035 55.4793 41.0573 55.806C40.1285 56.6553 39.5314 57.8967 39.266 59.53C38.0054 60.118 36.8112 60.3141 35.617 60.1834C33.693 60.0527 32.2334 59.0727 31.1719 57.2433C30.7075 56.4593 30.1104 55.806 29.3806 55.2833C28.8498 55.022 28.3191 54.7606 27.722 54.4993L26.9258 54.3686C26.1297 54.3686 25.6653 54.4993 25.6653 54.7606C25.5989 55.022 25.7979 55.2833 26.196 55.61L26.7268 56.0673C27.2575 56.3287 27.7883 56.8513 28.2527 57.5047C28.7171 58.0273 29.0489 58.6154 29.3806 59.2687L29.845 60.118C30.2431 61.2287 30.9065 62.0781 31.968 62.6008C32.8305 63.1234 33.9584 63.4501 35.1526 63.5808C36.0151 63.6461 36.9439 63.6461 37.9391 63.4501L39.1333 63.3194L39.266 69.9836C39.266 70.4409 39.0669 70.7676 38.7352 71.0942C38.4035 71.3556 37.9391 71.4862 37.342 71.2902C31.7027 69.4609 27.1912 66.1942 23.6749 61.4247C20.225 56.59 18.5 51.1672 18.5 45.1565C18.5 40.191 19.6942 35.683 22.0163 31.6322C24.4047 27.5815 27.6556 24.3801 31.769 22.0281C35.9487 19.676 40.5929 18.5 45.6351 18.5ZM28.0537 55.2833C28.1864 55.1526 28.3854 55.0873 28.5844 55.218C28.7835 55.3486 28.8498 55.4793 28.7835 55.6753C28.7171 55.8713 28.5181 55.8713 28.2527 55.7406C27.9873 55.61 27.9873 55.414 28.0537 55.2833ZM29.2479 56.198C29.3806 56.0673 29.5796 56.0673 29.7786 56.3287C29.9777 56.5247 30.044 56.7207 29.9113 56.8513C29.7786 56.982 29.5796 56.982 29.3806 56.7207C29.1152 56.5247 29.1152 56.3287 29.2479 56.198ZM30.3758 57.57C30.5084 57.5047 30.6411 57.5047 30.7738 57.5047C30.9065 57.57 30.9729 57.6353 31.0392 57.766C31.2382 58.0273 31.2382 58.2887 31.0392 58.4194C30.9729 58.4847 30.8402 58.4847 30.7738 58.4194C30.7075 58.354 30.5084 58.2887 30.3758 58.2233C30.2431 57.8967 30.2431 57.6353 30.3758 57.57ZM31.7027 59.138C31.769 59.0727 31.9017 59.0727 32.0344 59.0727C32.1671 59.138 32.2998 59.2034 32.4324 59.2687C32.5651 59.3994 32.6315 59.53 32.6315 59.6607C32.6978 59.7914 32.6315 59.922 32.5651 59.9874C32.3661 60.1834 32.1007 60.1834 31.769 59.8567C31.6363 59.726 31.57 59.5954 31.57 59.3994C31.57 59.2034 31.6363 59.2034 31.7027 59.138ZM33.494 60.5101C33.5603 60.2487 33.7593 60.1181 34.1574 60.2487C34.5555 60.3794 34.6882 60.5101 34.6882 60.7061C34.6218 60.9021 34.5555 61.0327 34.4228 61.0981C34.2901 61.1634 34.1574 61.1634 33.9584 61.0981C33.7593 61.0327 33.693 60.9021 33.5603 60.8367C33.4276 60.7061 33.4276 60.6407 33.494 60.5101ZM36.8776 60.9674C36.8776 60.9021 36.8112 60.8367 36.6785 60.7714C36.5458 60.7061 36.4131 60.6407 36.1478 60.6407C35.7497 60.6407 35.617 60.7714 35.617 61.0981C35.617 61.3594 35.816 61.4901 36.2141 61.4901C36.6785 61.4247 36.8776 61.2941 36.8776 60.9674ZM38.3372 60.3141C38.7352 60.3141 38.9343 60.4447 38.9343 60.6407C39.0006 60.8367 38.8016 61.0327 38.4035 61.1634C38.2708 61.1634 38.1381 61.1634 38.0054 61.0981C37.8727 61.0327 37.8064 60.9021 37.8064 60.7061C37.8064 60.5101 38.0054 60.3794 38.3372 60.3141Z" fill="#9592FF"/>
</svg>
