<svg width="93" height="92" viewBox="0 0 93 92" fill="none" xmlns="http://www.w3.org/2000/svg">
<path d="M73.1405 40.3743L73.0649 40.1727L65.4329 20.2649C65.2784 19.874 65.0036 19.5424 64.6481 19.3181C64.3829 19.1483 64.0816 19.043 63.7683 19.0107C63.4551 18.9783 63.1386 19.0198 62.8443 19.1318C62.5499 19.2438 62.286 19.4232 62.0734 19.6556C61.8609 19.888 61.7058 20.1669 61.6205 20.4701L56.469 36.2416H35.6072L30.4556 20.4701C30.3697 20.1674 30.2142 19.889 30.0016 19.657C29.789 19.425 29.5251 19.246 29.231 19.1341C28.9369 19.0222 28.6207 18.9805 28.3077 19.0125C27.9947 19.0444 27.6934 19.1491 27.428 19.3181C27.0726 19.5424 26.7977 19.874 26.6432 20.2649L19.0149 40.1763L18.9357 40.3743C17.8374 43.2446 17.7021 46.3941 18.5502 49.348C19.3982 52.3019 21.1837 54.9 23.6372 56.7506L23.666 56.7722L23.7308 56.8226L35.3408 65.5237L41.1007 69.8761L44.5999 72.5221C45.0104 72.8322 45.5109 73 46.0255 73C46.54 73 47.0405 72.8322 47.4511 72.5221L50.9502 69.8761L56.7102 65.5237L68.4029 56.7722L68.4353 56.747C70.8887 54.8971 72.6744 52.2999 73.5231 49.3467C74.3717 46.3935 74.2375 43.2445 73.1405 40.3743V40.3743Z" fill="#9592FF"/>
<path d="M73.1404 40.3744L73.0648 40.1729C69.3463 40.9359 65.8427 42.5119 62.8049 44.788L46.047 57.4599L56.7173 65.5239L68.41 56.7723L68.4424 56.7471C70.8946 54.8963 72.6788 52.2986 73.5262 49.3455C74.3736 46.3924 74.2381 43.2439 73.1404 40.3744V40.3744Z" fill="#AFADFF"/>
<path d="M35.3408 65.5234L41.1008 69.8758L44.5999 72.5218C45.0105 72.8319 45.511 72.9997 46.0255 72.9997C46.5401 72.9997 47.0406 72.8319 47.4511 72.5218L50.9503 69.8758L56.7102 65.5234L46.0399 57.4595L35.3408 65.5234Z" fill="#CAC9FF"/>
<path d="M29.2712 44.7878C26.2345 42.5129 22.732 40.938 19.0149 40.1763L18.9357 40.3743C17.8374 43.2445 17.7021 46.3941 18.5502 49.348C19.3982 52.3019 21.1837 54.9 23.6372 56.7505L23.666 56.7721L23.7308 56.8225L35.3408 65.5237L46.0183 57.4597L29.2712 44.7878Z" fill="#AFADFF"/>
</svg>
