<svg width="93" height="92" viewBox="0 0 93 92" fill="none" xmlns="http://www.w3.org/2000/svg">
<path d="M54.345 71.8C50.665 71.8 47.905 71.26 46.065 70.18C44.225 69.14 43.305 67.1199 43.305 64.1199C43.305 61.8799 43.385 59.8 43.545 57.88C43.745 55.92 43.845 53.8799 43.845 51.7599C43.845 51.1599 43.725 50.58 43.485 50.02C43.245 49.42 42.805 48.8999 42.165 48.4599C41.525 48.0199 40.605 47.6599 39.405 47.3799C38.245 47.0999 36.745 46.9599 34.905 46.9599V45.04C36.745 45.04 38.245 44.9 39.405 44.6199C40.605 44.3399 41.525 43.98 42.165 43.54C42.805 43.1 43.245 42.6 43.485 42.04C43.725 41.44 43.845 40.8399 43.845 40.2399C43.845 38.3199 43.745 36.2999 43.545 34.1799C43.385 32.0199 43.305 29.9199 43.305 27.8799C43.305 24.8799 44.225 22.8599 46.065 21.8199C47.905 20.74 50.665 20.2 54.345 20.2H57.465V21.9399H53.985C52.305 21.9399 50.925 22.06 49.845 22.2999C48.765 22.5399 47.925 22.9199 47.325 23.4399C46.725 23.96 46.305 24.6 46.065 25.36C45.865 26.1199 45.765 27.0399 45.765 28.12C45.765 29.92 45.825 31.8199 45.945 33.8199C46.105 35.78 46.185 37.7199 46.185 39.6399C46.185 41.3999 45.825 42.8 45.105 43.84C44.425 44.84 43.085 45.52 41.085 45.88V46.1199C43.085 46.4799 44.425 47.18 45.105 48.22C45.825 49.22 46.185 50.6 46.185 52.36C46.185 54.52 46.105 56.48 45.945 58.24C45.825 60 45.765 61.88 45.765 63.88C45.765 64.96 45.865 65.8799 46.065 66.6399C46.305 67.3999 46.725 68.04 47.325 68.56C47.925 69.08 48.765 69.46 49.845 69.7C50.925 69.94 52.305 70.06 53.985 70.06H57.465V71.8H54.345Z" fill="#141446"/>
</svg>
