<svg width="93" height="92" viewBox="0 0 93 92" fill="none" xmlns="http://www.w3.org/2000/svg">
<path d="M54.7609 59.6247C54.6324 59.1553 54.3525 58.7414 53.9646 58.4474C53.5767 58.1534 53.1026 57.9957 52.6159 57.9988H22.2556V65.9997H53.6026C53.9422 66.0035 54.2781 65.9286 54.5838 65.7808C54.8895 65.633 55.1569 65.4163 55.3647 65.1477C55.5726 64.8792 55.7153 64.5661 55.7818 64.233C55.8482 63.9 55.8365 63.5561 55.7476 63.2283L54.7609 59.6247Z" fill="#F5C0C0"/>
<path d="M60.5309 60.7701L61.5005 64.3694C61.6269 64.8404 61.9061 65.256 62.2944 65.5511C62.6826 65.8462 63.1579 66.0039 63.6455 65.9996H70.089V57.9988H62.6545C62.317 57.9991 61.9841 58.077 61.6815 58.2265C61.379 58.376 61.1148 58.5931 60.9096 58.861C60.7043 59.1289 60.5634 59.4404 60.4977 59.7714C60.4321 60.1025 60.4434 60.4442 60.5309 60.7701V60.7701Z" fill="#F5C0C0"/>
<path d="M41.9252 31.221L40.96 27.6345C40.8331 27.1635 40.5538 26.7477 40.1658 26.452C39.7778 26.1564 39.3028 25.9974 38.815 26H22.2556V34.0009H39.7931C40.1317 34.0005 40.4657 33.9224 40.7693 33.7724C41.0728 33.6225 41.3379 33.4048 41.5439 33.1361C41.75 32.8674 41.8915 32.555 41.9577 32.2229C42.0238 31.8909 42.0127 31.5481 41.9252 31.221Z" fill="#F5C0C0"/>
<path d="M46.7301 28.7799L47.6954 32.3664C47.8223 32.8374 48.1015 33.2532 48.4895 33.5488C48.8776 33.8445 49.3525 34.0034 49.8404 34.0008H70.0891V26H48.8537C48.5158 26.0017 48.1828 26.0808 47.8803 26.2313C47.5778 26.3818 47.3139 26.5997 47.1088 26.8682C46.9037 27.1366 46.7629 27.4486 46.6973 27.78C46.6316 28.1114 46.6428 28.4535 46.7301 28.7799V28.7799Z" fill="#F5C0C0"/>
<path d="M35.1728 47.2181L34.2075 43.6317C34.0798 43.1615 33.8002 42.7467 33.4123 42.4518C33.0243 42.157 32.5498 41.9987 32.0625 42.0015H22.2556V49.9981H33.0407C33.3792 49.9977 33.7132 49.9195 34.0168 49.7696C34.3204 49.6197 34.5854 49.4019 34.7915 49.1333C34.9975 48.8646 35.1391 48.5522 35.2052 48.2201C35.2713 47.8881 35.2602 47.5452 35.1728 47.2181V47.2181Z" fill="#F5C0C0"/>
<path d="M39.9776 44.7771L40.9429 48.3678C41.0706 48.838 41.3502 49.2529 41.7381 49.5477C42.1261 49.8425 42.6006 50.0009 43.0879 49.998H70.1148V42.0015H42.1097C41.7716 42.002 41.4381 42.0801 41.135 42.2298C40.8318 42.3795 40.567 42.5968 40.3611 42.8649C40.1551 43.1331 40.0134 43.4449 39.9469 43.7764C39.8805 44.1079 39.891 44.4503 39.9776 44.7771V44.7771Z" fill="#F5C0C0"/>
</svg>
