<svg width="93" height="92" viewBox="0 0 93 92" fill="none" xmlns="http://www.w3.org/2000/svg">
<path d="M16.5125 47.7295C16.5125 50.087 16.3238 50.8548 15.8384 51.4206C15.2983 51.9066 14.597 52.1754 13.8701 52.175L14.0589 53.5221C15.1858 53.5373 16.2793 53.1396 17.1326 52.404C17.5918 51.8445 17.9335 51.1983 18.1373 50.504C18.3412 49.8096 18.403 49.0814 18.319 48.3627V39.4448H16.5125V47.6757V47.7295Z" fill="#4E4E4E"/>
<path d="M29.985 46.6667C29.985 47.6771 29.985 48.5796 30.0659 49.361H28.4616L28.3538 47.7579C28.0182 48.3251 27.5383 48.7934 26.9629 49.1152C26.3875 49.437 25.7371 49.6008 25.0777 49.59C23.5139 49.59 21.6534 48.7413 21.6534 45.2792V39.5271H23.46V44.9155C23.46 46.788 24.0397 48.0408 25.6709 48.0408C26.0066 48.0444 26.3395 47.981 26.6503 47.8543C26.961 47.7277 27.2434 47.5403 27.4807 47.3031C27.718 47.066 27.9056 46.7839 28.0323 46.4733C28.1591 46.1628 28.2226 45.8301 28.219 45.4948V39.4597H30.0255V46.6129L29.985 46.6667Z" fill="#4E4E4E"/>
<path d="M33.4094 42.7319C33.4094 41.4791 33.4094 40.4553 33.3285 39.5258H34.9463L35.0272 41.2097C35.3876 40.6013 35.9065 40.1021 36.5285 39.7652C37.1506 39.4284 37.8524 39.2665 38.5593 39.2968C40.959 39.2968 42.7656 41.304 42.7656 44.2946C42.7656 47.824 40.595 49.5753 38.2492 49.5753C37.6488 49.602 37.0517 49.4735 36.5156 49.2021C35.9794 48.9307 35.5225 48.5256 35.1889 48.0261V53.4145H33.4094V42.7724V42.7319ZM35.1889 45.3588C35.1938 45.6032 35.2209 45.8467 35.2698 46.0862C35.4228 46.6844 35.771 47.2145 36.2593 47.5927C36.7477 47.9708 37.3483 48.1755 37.9661 48.1743C39.867 48.1743 40.986 46.6251 40.986 44.3754C40.986 42.4086 39.9344 40.7247 38.0336 40.7247C37.2813 40.7863 36.5773 41.1199 36.0537 41.663C35.53 42.2061 35.2225 42.9215 35.1889 43.6749V45.3588Z" fill="#4E4E4E"/>
<path d="M45.9843 39.5169L48.1548 45.323C48.384 45.9696 48.6267 46.7509 48.7884 47.3302C48.9772 46.7374 49.1794 45.983 49.4221 45.2826L51.3904 39.5169H53.2913L50.595 46.5219C49.2468 49.8897 48.4244 51.6274 47.1841 52.6782C46.5594 53.2483 45.7978 53.6474 44.9732 53.8367L44.5283 52.3279C45.1049 52.1386 45.6401 51.8415 46.1056 51.4523C46.7633 50.9167 47.2853 50.2337 47.629 49.4586C47.7026 49.3244 47.7528 49.1786 47.7773 49.0275C47.762 48.8649 47.721 48.7058 47.656 48.556L43.989 39.49H45.9573L45.9843 39.5169Z" fill="#4E4E4E"/>
<path d="M58.0871 36.6909V39.5198H60.6755V40.8669H58.0871V46.1746C58.0871 47.387 58.4376 48.0874 59.4352 48.0874C59.7896 48.0932 60.1431 48.0525 60.4868 47.9662L60.5677 49.3133C60.0523 49.4917 59.5085 49.5739 58.9634 49.5558C58.6024 49.5784 58.2408 49.5226 57.9033 49.3924C57.5659 49.2622 57.2607 49.0606 57.0086 48.8014C56.4594 48.0675 56.2089 47.153 56.3075 46.2419V40.8535H54.7706V39.5064H56.3345V37.1085L58.0871 36.6909Z" fill="#4E4E4E"/>
<path d="M64.0034 44.7542C63.9668 45.2111 64.0299 45.6704 64.1884 46.1005C64.3468 46.5306 64.5969 46.9212 64.9212 47.2453C65.2455 47.5694 65.6364 47.8192 66.0669 47.9776C66.4973 48.1359 66.957 48.199 67.4142 48.1624C68.339 48.1831 69.2577 48.0087 70.1105 47.6505L70.4206 48.9976C69.3741 49.4284 68.2489 49.6349 67.1176 49.6038C66.4581 49.6489 65.7966 49.551 65.1785 49.3167C64.5605 49.0823 64.0004 48.7172 63.5368 48.2463C63.0733 47.7754 62.7171 47.2099 62.4928 46.5885C62.2685 45.9671 62.1813 45.3047 62.2373 44.6465C62.2373 41.6828 64.0034 39.3389 66.8884 39.3389C70.124 39.3389 70.9329 42.1678 70.9329 43.9729C70.9502 44.2511 70.9502 44.53 70.9329 44.8081H63.9629L64.0034 44.7542ZM69.2881 43.4071C69.3402 43.047 69.3143 42.6799 69.2124 42.3305C69.1104 41.9812 68.9347 41.6578 68.6971 41.382C68.4594 41.1063 68.1654 40.8846 67.8348 40.732C67.5042 40.5794 67.1447 40.4994 66.7806 40.4974C66.0398 40.551 65.3458 40.879 64.8346 41.4173C64.3233 41.9555 64.0317 42.6652 64.0169 43.4071H69.2881Z" fill="#4E4E4E"/>
<path d="M73.6738 42.5801C73.6738 41.4216 73.6738 40.4247 73.5929 39.5087H75.2107V41.435H75.2916C75.4614 40.8405 75.8122 40.3135 76.2954 39.9273C76.7786 39.541 77.3701 39.3147 77.9879 39.2797C78.1579 39.2574 78.3301 39.2574 78.5002 39.2797V40.9636C78.2941 40.9397 78.086 40.9397 77.88 40.9636C77.268 40.9872 76.6856 41.2327 76.2415 41.6542C75.7974 42.0756 75.5221 42.6441 75.4668 43.2536C75.4164 43.5293 75.3894 43.8087 75.3859 44.0888V49.3291H73.6064V42.5935L73.6738 42.5801Z" fill="#4E4E4E"/>
<path d="M72.8822 12.4593C72.9376 13.3643 72.7221 14.2653 72.2632 15.0475C71.8043 15.8297 71.1228 16.4577 70.3054 16.8515C69.4881 17.2452 68.5719 17.387 67.6737 17.2587C66.7754 17.1304 65.9357 16.7378 65.2616 16.1309C64.5874 15.5241 64.1093 14.7304 63.8881 13.8511C63.6669 12.9717 63.7127 12.0465 64.0196 11.1933C64.3266 10.34 64.8807 9.5974 65.6115 9.05997C66.3423 8.52254 67.2167 8.21465 68.1232 8.17552C68.7176 8.14284 69.3126 8.22789 69.8739 8.42577C70.4353 8.62366 70.9519 8.93048 71.3942 9.32858C71.8365 9.72669 72.1956 10.2082 72.451 10.7455C72.7064 11.2828 72.8529 11.8652 72.8822 12.4593Z" fill="#767677"/>
<path d="M46.2242 65.2163C34.091 65.2163 23.427 60.8652 17.9131 54.4395C20.0525 60.2201 23.9129 65.2071 28.9745 68.7292C34.0362 72.2514 40.0563 74.1394 46.2242 74.1394C52.3923 74.1394 58.4123 72.2514 63.4741 68.7292C68.5357 65.2071 72.396 60.2201 74.5356 54.4395C69.0351 60.8652 58.4116 65.2163 46.2242 65.2163Z" fill="#F37726"/>
<path d="M46.2242 23.4317C58.3577 23.4317 69.0216 27.7828 74.5356 34.2085C72.396 28.4279 68.5357 23.4409 63.4741 19.9188C58.4123 16.3967 52.3923 14.5085 46.2242 14.5085C40.0563 14.5085 34.0362 16.3967 28.9745 19.9188C23.9129 23.4409 20.0525 28.4279 17.9131 34.2085C23.427 27.7694 34.0371 23.4317 46.2242 23.4317Z" fill="#F37726"/>
<path d="M29.5212 77.721C29.5924 78.8609 29.3223 79.9962 28.7455 80.9822C28.1686 81.9682 27.311 82.7603 26.282 83.2575C25.253 83.7548 24.0992 83.9347 22.9675 83.7743C21.8358 83.614 20.7775 83.1206 19.9275 82.3571C19.0774 81.5936 18.474 80.5945 18.1943 79.4871C17.9145 78.3797 17.971 77.2142 18.3565 76.139C18.742 75.0638 19.4392 74.1276 20.3591 73.4497C21.279 72.7719 22.38 72.383 23.5219 72.3326C24.27 72.2926 25.0186 72.4003 25.725 72.6495C26.4313 72.8987 27.0817 73.2845 27.6388 73.7849C28.1959 74.2853 28.6489 74.8904 28.9719 75.5658C29.2949 76.2412 29.4816 76.9736 29.5212 77.721Z" fill="#9E9E9E"/>
<path d="M19.2921 21.9673C18.6383 21.9854 17.9937 21.8098 17.4395 21.4628C16.8853 21.1158 16.4461 20.6128 16.1773 20.0171C15.9084 19.4213 15.8218 18.7594 15.9284 18.1146C16.035 17.4699 16.33 16.8709 16.7763 16.3932C17.2226 15.9155 17.8003 15.5804 18.4368 15.4299C19.0733 15.2794 19.74 15.3203 20.3533 15.5475C20.9666 15.7746 21.4989 16.1779 21.8834 16.7066C22.2679 17.2353 22.4873 17.8658 22.5142 18.5187C22.5397 19.4017 22.2157 20.2591 21.6124 20.9047C21.0092 21.5504 20.1754 21.9322 19.2921 21.9673Z" fill="#616262"/>
</svg>
