<?xml version="1.0" standalone="no"?>
<!DOCTYPE svg PUBLIC "-//W3C//DTD SVG 20010904//EN"
 "http://www.w3.org/TR/2001/REC-SVG-20010904/DTD/svg10.dtd">
<svg version="1.0" xmlns="http://www.w3.org/2000/svg"
 width="512.000000pt" height="512.000000pt" viewBox="0 0 512.000000 512.000000"
 preserveAspectRatio="xMidYMid meet">

<g transform="translate(0.000000,512.000000) scale(0.100000,-0.100000)"
fill="#000000" stroke="none">
<path d="M2365 5114 c-108 -9 -326 -46 -435 -73 -172 -44 -335 -105 -509 -192
-503 -249 -900 -646 -1150 -1150 -126 -252 -198 -480 -243 -764 -32 -201 -32
-549 0 -750 45 -284 117 -512 243 -764 249 -503 646 -900 1150 -1150 252 -126
480 -198 764 -243 201 -32 549 -32 750 0 284 45 512 117 764 243 504 250 901
647 1150 1150 126 252 198 480 243 764 32 201 32 549 0 750 -45 284 -117 512
-243 764 -249 503 -646 900 -1150 1150 -357 178 -685 258 -1084 265 -110 2
-222 2 -250 0z m440 -749 c308 -47 571 -202 738 -437 118 -165 240 -472 291
-731 46 -231 51 -297 50 -622 0 -269 -3 -329 -22 -450 -80 -509 -291 -917
-579 -1116 -224 -155 -509 -225 -810 -199 -298 26 -534 130 -724 320 -207 207
-361 573 -431 1025 -18 117 -21 186 -22 425 -1 281 7 398 39 573 65 351 210
676 390 874 165 183 424 310 700 346 77 10 290 5 380 -8z"/>
<path d="M2495 3220 c-160 -24 -297 -101 -394 -224 -99 -124 -141 -243 -141
-402 0 -183 59 -326 189 -454 125 -123 264 -180 441 -180 178 0 318 57 440
180 118 118 175 233 189 380 16 158 -18 302 -101 425 -138 207 -376 312 -623
275z"/>
</g>
</svg>
