<svg class="okta-icon" id="OktaLogo" width="72" height="26" viewBox="0 0 72 26" fill="none"
     xmlns="http://www.w3.org/2000/svg">
    <path d="M59.8399 22.2849C56.3752 22.2849 53.9255 19.587 53.9255 16.0481C53.9255 12.5093 56.3752 9.81139 59.8399 9.81139C63.3046 9.81139 65.6837 12.5093 65.6837 16.0481C65.6837 19.587 63.2688 22.2849 59.8399 22.2849ZM59.2797 25.9991C62.0797 25.9991 64.4588 24.9131 65.9633 22.6356C66.243 24.8433 67.8529 25.6493 69.8827 25.6493H71.4927V22.1454H70.7932C69.638 22.1454 69.3583 21.5845 69.3583 20.2883V6.44792H65.6489V9.28632C64.3892 7.28879 62.0091 6.09818 59.2797 6.09818C54.416 6.09818 49.9364 10.163 49.9364 16.0491C49.9364 21.9352 54.416 26 59.2797 26V25.9991ZM40.1732 21.1989C40.1732 24.3522 42.1324 25.6484 44.4777 25.6484H48.9921V22.1444H45.7026C44.3374 22.1444 44.0578 21.6184 44.0578 20.2874V9.95091H48.9921V6.44697H44.0578V0H40.1732V21.198V21.1989ZM22.5015 25.6484H26.3861V17.4141H27.6806L34.2946 25.6484H39.1941L30.7602 15.2073L37.2339 6.44792H32.8597L27.5761 13.8413H26.3861V0.000943599H22.5015V25.6493V25.6484ZM9.90349 6.09724C4.47959 6.09724 0 10.1621 0 16.0481C0 21.9342 4.47959 25.9991 9.90349 25.9991C15.3274 25.9991 19.807 21.9342 19.807 16.0481C19.807 10.1621 15.3274 6.09724 9.90349 6.09724ZM9.90349 22.2849C6.43882 22.2849 3.98908 19.587 3.98908 16.0481C3.98908 12.5093 6.43882 9.81139 9.90349 9.81139C13.3682 9.81139 15.8179 12.5093 15.8179 16.0481C15.8179 19.587 13.3682 22.2849 9.90349 22.2849Z"
          fill="black"></path>
</svg>
