<svg width="93" height="92" viewBox="0 0 93 92" fill="none" xmlns="http://www.w3.org/2000/svg">
<path d="M82.6798 46.0074C82.6798 41.1722 76.6246 36.59 67.341 33.7483C69.4834 24.2862 68.5312 16.7582 64.3358 14.348C63.3687 13.7827 62.238 13.5149 61.0032 13.5149V16.8326C61.6876 16.8326 62.238 16.9665 62.6992 17.2194C64.7226 18.3798 65.6004 22.7985 64.916 28.4817C64.7523 29.8802 64.4845 31.3531 64.1572 32.8557C61.2412 32.1416 58.0574 31.5911 54.71 31.234C52.7015 28.4817 50.6187 25.9823 48.5209 23.7953C53.371 19.2874 57.9235 16.8177 61.0181 16.8177V13.5C56.9268 13.5 51.5708 16.416 46.1554 21.4744C40.74 16.4458 35.3841 13.5595 31.2927 13.5595V16.8772C34.3724 16.8772 38.9398 19.332 43.7899 23.8101C41.707 25.9971 39.6242 28.4817 37.6455 31.234C34.2831 31.5911 31.0993 32.1416 28.1833 32.8706C27.8412 31.3828 27.5882 29.9397 27.4097 28.5561C26.7105 22.8729 27.5734 18.4542 29.5818 17.2789C30.0282 17.0111 30.6084 16.8921 31.2927 16.8921V13.5744C30.043 13.5744 28.9123 13.8422 27.9304 14.4075C23.7498 16.8177 22.8125 24.3309 24.9698 33.7632C15.716 36.6197 9.69055 41.1871 9.69055 46.0074C9.69055 50.8426 15.7457 55.4249 25.0293 58.2665C22.8869 67.7287 23.8391 75.2567 28.0346 77.6669C29.0016 78.2322 30.1323 78.5 31.382 78.5C35.4733 78.5 40.8292 75.584 46.2447 70.5256C51.6601 75.5542 57.016 78.4405 61.1073 78.4405C62.357 78.4405 63.4877 78.1727 64.4697 77.6073C68.6503 75.1972 69.5875 67.684 67.4303 58.2517C76.6544 55.41 82.6798 50.8278 82.6798 46.0074ZM63.3092 36.0841C62.7587 38.0033 62.0744 39.982 61.3007 41.9607C60.6908 40.7705 60.051 39.5803 59.3518 38.3901C58.6674 37.1999 57.9384 36.0395 57.2094 34.9088C59.322 35.2212 61.3603 35.608 63.3092 36.0841ZM56.4953 51.9287C55.3348 53.9372 54.1446 55.8415 52.9098 57.6119C50.6931 57.8053 48.4466 57.9095 46.1852 57.9095C43.9387 57.9095 41.6921 57.8053 39.4903 57.6268C38.2554 55.8564 37.0504 53.9669 35.8899 51.9733C34.7592 50.0244 33.7327 48.0457 32.7954 46.0521C33.7178 44.0585 34.7592 42.0649 35.875 40.1159C37.0355 38.1075 38.2257 36.2031 39.4605 34.4327C41.6773 34.2393 43.9238 34.1352 46.1852 34.1352C48.4317 34.1352 50.6782 34.2393 52.8801 34.4178C54.1149 36.1883 55.32 38.0777 56.4804 40.0713C57.6111 42.0203 58.6377 43.999 59.575 45.9926C58.6377 47.9862 57.6111 49.9797 56.4953 51.9287ZM61.3007 49.9946C62.1041 51.9882 62.7885 53.9818 63.3539 55.9159C61.4049 56.392 59.3518 56.7937 57.2243 57.1061C57.9533 55.9605 58.6823 54.7852 59.3667 53.5801C60.051 52.3899 60.6908 51.1848 61.3007 49.9946ZM46.2149 65.869C44.8313 64.4407 43.4477 62.8488 42.079 61.1081C43.4179 61.1677 44.7867 61.2123 46.1703 61.2123C47.5688 61.2123 48.9524 61.1825 50.3062 61.1081C48.9673 62.8488 47.5837 64.4407 46.2149 65.869ZM35.146 57.1061C33.0334 56.7937 30.9952 56.4068 29.0462 55.9308C29.5967 54.0116 30.2811 52.0328 31.0547 50.0541C31.6647 51.2443 32.3044 52.4345 33.0037 53.6247C33.7029 54.8149 34.417 55.9754 35.146 57.1061ZM46.1405 26.1459C47.5241 27.5742 48.9078 29.1661 50.2765 30.9067C48.9375 30.8472 47.5688 30.8026 46.1852 30.8026C44.7867 30.8026 43.4031 30.8323 42.0492 30.9067C43.3882 29.1661 44.7718 27.5742 46.1405 26.1459ZM35.1312 34.9088C34.4022 36.0544 33.6731 37.2297 32.9888 38.4348C32.3044 39.625 31.6647 40.8152 31.0547 42.0054C30.2513 40.0118 29.5669 38.0182 29.0016 36.0841C30.9506 35.6229 33.0037 35.2212 35.1312 34.9088ZM21.667 53.5355C16.4003 51.289 12.9934 48.3432 12.9934 46.0074C12.9934 43.6717 16.4003 40.711 21.667 38.4794C22.9464 37.9289 24.3449 37.438 25.7881 36.9768C26.6361 39.8928 27.7519 42.9278 29.1355 46.0372C27.7668 49.1317 26.6658 52.1519 25.8327 55.053C24.3598 54.5918 22.9613 54.0859 21.667 53.5355ZM29.6711 74.7955C27.6477 73.635 26.77 69.2164 27.4543 63.5332C27.618 62.1347 27.8858 60.6618 28.2131 59.1592C31.1291 59.8733 34.3129 60.4238 37.6603 60.7808C39.6688 63.5332 41.7517 66.0326 43.8494 68.2196C38.9993 72.7275 34.4468 75.1972 31.3523 75.1972C30.6828 75.1823 30.1174 75.0484 29.6711 74.7955ZM64.9606 63.4588C65.6599 69.142 64.797 73.5607 62.7885 74.736C62.3422 75.0038 61.7619 75.1228 61.0776 75.1228C57.9979 75.1228 53.4305 72.668 48.5805 68.1899C50.6633 66.0029 52.7462 63.5183 54.7249 60.766C58.0872 60.4089 61.271 59.8584 64.187 59.1294C64.5292 60.6321 64.797 62.0752 64.9606 63.4588ZM70.6885 53.5355C69.409 54.0859 68.0105 54.5769 66.5674 55.0381C65.7194 52.1221 64.6036 49.0871 63.2199 45.9777C64.5887 42.8832 65.6896 39.863 66.5228 36.9619C67.9956 37.4231 69.3941 37.9289 70.7034 38.4794C75.97 40.7259 79.377 43.6717 79.377 46.0074C79.3621 48.3432 75.9551 51.3038 70.6885 53.5355Z" fill="#61DAFB"/>
<path d="M46.1618 52.8073C49.9168 52.8073 52.9609 49.7633 52.9609 46.0083C52.9609 42.2533 49.9168 39.2092 46.1618 39.2092C42.4068 39.2092 39.3628 42.2533 39.3628 46.0083C39.3628 49.7633 42.4068 52.8073 46.1618 52.8073Z" fill="#61DAFB"/>
</svg>
