<svg width="93" height="92" viewBox="0 0 93 92" fill="none" xmlns="http://www.w3.org/2000/svg">
<path d="M46.1838 51.0442L32.9014 44.0232L9.84522 31.8374C9.824 31.8164 9.78208 31.8164 9.76087 31.8164C8.9191 31.4164 8.05612 32.2584 8.37182 33.1002L20.1199 63.0637L20.1219 63.0701C20.1345 63.0996 20.1452 63.1289 20.1578 63.1585C20.6399 64.276 21.692 64.9662 22.8371 65.2377C22.9339 65.2589 23.0031 65.2779 23.1192 65.3011C23.2352 65.3269 23.397 65.362 23.5359 65.3726C23.5587 65.3746 23.5799 65.3746 23.6031 65.3766H23.62C23.6367 65.3789 23.6536 65.3789 23.6706 65.3809H23.6935C23.7084 65.383 23.7251 65.383 23.74 65.383H23.7673C23.7842 65.3852 23.8009 65.3852 23.8178 65.3852C38.6962 67.0074 53.7069 67.0074 68.5854 65.3852C68.7642 65.3852 68.9389 65.3766 69.1071 65.36L69.2673 65.341C69.2736 65.3388 69.2819 65.3388 69.2882 65.3367C69.3241 65.3324 69.3597 65.3261 69.3956 65.3198C69.4481 65.3135 69.5009 65.3031 69.5534 65.2925C69.6587 65.2693 69.7065 65.2526 69.8494 65.2034C69.9921 65.1544 70.2292 65.0685 70.3775 64.9971C70.526 64.9256 70.6288 64.8569 70.753 64.7791C70.9065 64.6828 71.0559 64.5804 71.2011 64.472C71.265 64.423 71.3087 64.3917 71.3549 64.3475L71.3296 64.3328L46.1838 51.0442Z" fill="#FF4B4B"/>
<path d="M82.554 31.8388H82.5331L59.4683 44.0246L72.2897 63.12L84.0082 33.1016V33.0594C84.303 32.1755 83.3981 31.3759 82.554 31.8388" fill="#7D353B"/>
<path d="M47.4173 26.0437C46.8278 25.1827 45.5441 25.1827 44.9758 26.0437L32.9058 44.0235L46.1881 51.0445L71.3595 64.3476C71.5176 64.1928 71.6443 64.042 71.7782 63.8826C71.9741 63.6437 72.1488 63.3881 72.3002 63.1187L59.4788 44.0235L47.4173 26.0437Z" fill="#BD4043"/>
</svg>
