<svg width="93" height="92" viewBox="0 0 93 92" fill="none" xmlns="http://www.w3.org/2000/svg">
<g clip-path="url(#clip0_3005_13674)">
<path fill-rule="evenodd" clip-rule="evenodd" d="M54.5466 30.7764C53.7671 30.6875 52.9681 30.6418 52.1517 30.6418C46.1552 30.6418 40.6314 34.0154 35.2929 39.91C30.0471 33.9228 24.4307 30.6418 18.1561 30.6418C7.76653 30.6418 0.185181 38.0564 0.185181 48.0381C0.185181 58.0199 7.76653 65.3418 18.1561 65.3418C24.5419 65.3418 29.4911 62.3482 35.0149 56.3795C36.9735 58.5761 38.9445 60.3697 40.9697 61.7605L45.3245 51.8224C44.1571 50.7747 43 49.5136 41.8177 48.1308C44.5571 44.8646 46.9849 42.405 49.8056 41.5957L54.5466 30.7764ZM11.205 48.1308C11.205 51.9678 13.8279 54.8688 18.2303 54.8688C21.8819 54.8688 25.1536 52.0605 28.2491 48.3162C24.9682 44.2938 21.9375 41.3095 18.2303 41.3095C13.8279 41.3095 11.205 44.2938 11.205 48.1308Z" fill="#484848"/>
<path d="M35.2821 39.9016C33.0698 37.2806 30.4423 35.0386 27.5061 33.2656L20.5087 41.6996C23.1686 42.6264 25.5227 45.0176 28.0251 48.0668L28.3032 48.2615L35.2821 39.9016Z" fill="#20A7C9"/>
<path fill-rule="evenodd" clip-rule="evenodd" d="M76.692 30.4768H69.5452L66.7158 36.6063H76.692C81.8814 36.6063 86.088 40.833 86.088 46.0472C86.088 51.2624 81.8814 55.489 76.692 55.489H72.7966L69.9591 61.6041C70.0556 61.6134 70.1532 61.6185 70.2507 61.6185H76.692C85.25 61.6165 92.1873 54.6439 92.1852 46.0451C92.1842 37.4473 85.2479 30.4778 76.692 30.4768ZM76.692 42.9845H65.1764L54.8109 65.5078H61.4977L69.0697 49.114H76.692C78.3763 49.0665 79.7042 47.6549 79.6559 45.9625C79.6107 44.3373 78.3095 43.0299 76.692 42.9845Z" fill="#2FC096"/>
<path fill-rule="evenodd" clip-rule="evenodd" d="M29.1156 89.9697L66.1755 2.42356L67.3543 2.42331L30.2624 89.9697L29.1156 89.9697Z" fill="#484848"/>
</g>
<defs>
<clipPath id="clip0_3005_13674">
<rect width="92" height="92" fill="white" transform="translate(0.185181)"/>
</clipPath>
</defs>
</svg>
