<?xml version="1.0" encoding="utf-8"?>
<!-- Generator: Adobe Illustrator 25.0.0, SVG Export Plug-In . SVG Version: 6.00 Build 0)  -->
<svg version="1.1" id="Layer_1" xmlns="http://www.w3.org/2000/svg" xmlns:xlink="http://www.w3.org/1999/xlink" x="0px" y="0px"
	 viewBox="0 0 404.4 78.6" style="enable-background:new 0 0 404.4 78.6;" xml:space="preserve">
<g id="BG">
</g>
<g id="Art">
	<g>
		<g>
			<path d="M392.4,35.3v-4.9h-5.8v-7.1h-4.9v7.1H377v4.9h4.6v14.2c0,4.1,3.4,7.5,7.5,7.5h3.3v-4.9h-3.3c-1.4,0-2.6-1.1-2.6-2.6V35.3
				H392.4z"/>
			<path d="M363.7,29.9c5.3,0,9.5,4.3,9.5,9.6v8c0,5.2-4.3,9.6-9.5,9.6h-1.9c-5.2,0-9.5-4.3-9.5-9.6v-8c0-5.3,4.3-9.6,9.5-9.6H363.7
				z M357.3,39.5v8c0,2.6,2.1,4.6,4.6,4.6h1.9c2.6,0,4.6-2.1,4.6-4.6v-8c0-2.6-2-4.6-4.6-4.6h-1.9C359.4,34.8,357.3,36.9,357.3,39.5
				z"/>
			<path d="M346.9,39.5v8c0,5.3-4.3,9.6-9.5,9.6h-0.6c-2.2,0-4.3-0.8-5.9-2.1v10.6H326V30.4h4.9V32c1.6-1.3,3.6-2.1,5.9-2.1h0.6
				C342.6,29.9,346.9,34.2,346.9,39.5z M342,39.5c0-2.5-2-4.6-4.6-4.6h-1.9c-2.5,0-4.6,2.1-4.6,4.6v8c0,2.6,2.1,4.6,4.6,4.6h1.9
				c2.6,0,4.6-2.1,4.6-4.6V39.5z"/>
			<path d="M303,48.4c0.5,2.1,2.3,3.7,4.6,3.7h3.4c2.5,0,4.6-2.1,4.6-4.6c0-2.9-1.8-4.6-4.4-5.6l-4.5-1.7c-4.2-1.6-7.7-4.4-7.7-9.7
				c0-5.3,4.3-9.6,9.5-9.6h2.4c4.4,0,8.2,3,9.2,7.2l-4.8,1.4c-0.4-2.1-2.3-3.6-4.5-3.6h-2.4c-2.6,0-4.6,2.1-4.6,4.6
				c0,2,0.7,3.5,4.7,5.1l4.5,1.8c4.6,1.9,7.5,5.3,7.5,10.1c0,5.3-4.3,9.5-9.5,9.5h-3.4c-4.5,0-8.2-3.1-9.3-7.2L303,48.4z"/>
			<path d="M293.6,35.3v-4.9h-5.8v-7.1h-4.9v7.1h-4.6v4.9h4.6v14.2c0,4.1,3.4,7.5,7.5,7.5h3.3v-4.9h-3.3c-1.4,0-2.6-1.1-2.6-2.6
				V35.3H293.6z"/>
			<path d="M273.9,39.5v17.1H269V39.5c0-2.6-2-4.6-4.6-4.6h-1.9c-2.5,0-4.6,2.1-4.6,4.6v17.1H253V21.4h4.9V32
				c1.6-1.3,3.6-2.1,5.9-2.1h0.6C269.7,29.9,273.9,34.2,273.9,39.5z"/>
			<path d="M246.6,30.4v26c0,5.3-4.2,9.5-9.5,9.5h-2c-4.5,0-8.2-3.1-9.2-7.2l4.7-1.4c0.5,2,2.3,3.6,4.5,3.6h2c2.5,0,4.6-2.1,4.6-4.6
				v-3.1c-1.6,1.3-3.6,2.1-5.9,2.1h-0.6c-5.2,0-9.5-4.3-9.5-9.6v-6.4c0-5.3,4.3-9.6,9.5-9.6h0.6c2.2,0,4.3,0.8,5.9,2.1v-1.6
				L246.6,30.4L246.6,30.4z M241.7,45.9v-6.4c0-2.6-2-4.6-4.6-4.6h-1.9c-2.5,0-4.6,2.1-4.6,4.6v6.4c0,2.5,2.1,4.6,4.6,4.6h1.9
				C239.6,50.5,241.7,48.4,241.7,45.9z"/>
			<path d="M204.1,30.4v17.1c0,2.6,2,4.6,4.6,4.6h1.9c2.6,0,4.6-2.1,4.6-4.6V30.4h4.9v17.1c0,5.3-4.3,9.5-9.5,9.5h-1.9
				c-5.3,0-9.5-4.3-9.5-9.6V30.4L204.1,30.4L204.1,30.4z"/>
			<path d="M183.9,29.9c5.3,0,9.5,4.3,9.5,9.6v8c0,5.2-4.3,9.6-9.5,9.6H182c-5.2,0-9.5-4.3-9.5-9.6v-8c0-5.3,4.3-9.6,9.5-9.6H183.9z
				 M177.4,39.5v8c0,2.6,2.1,4.6,4.6,4.6h1.9c2.6,0,4.6-2.1,4.6-4.6v-8c0-2.6-2-4.6-4.6-4.6H182C179.5,34.8,177.4,36.9,177.4,39.5z"
				/>
			<path d="M166.8,39.5v17.1h-4.9V39.5c0-2.6-2-4.6-4.6-4.6h-1.9c-2.5,0-4.6,2.1-4.6,4.6v17.1h-4.9V21.4h4.9V32
				c1.6-1.3,3.6-2.1,5.9-2.1h0.6C162.5,29.9,166.8,34.2,166.8,39.5z"/>
			<path d="M140.6,21.4v4.9h-9.9v30.2h-4.9V26.4h-9.9v-4.9L140.6,21.4L140.6,21.4z"/>
			<circle cx="68.9" cy="68.8" r="9.8"/>
			<polygon points="78,19.5 0,19.5 0,24.4 26.8,24.4 26.8,78 31.7,78 31.7,24.4 36.6,24.4 36.6,78 41.4,78 41.4,24.4 46.3,24.4 
				46.3,78 51.2,78 51.2,24.4 78,24.4 			"/>
			<rect y="9.8" width="78" height="4.9"/>
			<rect width="78" height="4.9"/>
		</g>
		<path id="_xAE_" d="M400.4,57.1c2.2,0,4-1.8,4-4c0-2.2-1.8-4-4-4c-2.3,0-4,1.8-4,4C396.4,55.3,398.1,57.1,400.4,57.1z M400.4,56.4
			c-1.8,0-3.2-1.5-3.2-3.3c0-1.8,1.4-3.3,3.2-3.3c1.8,0,3.2,1.5,3.2,3.3C403.6,54.9,402.2,56.4,400.4,56.4z M399.7,55.4v-1.8h0.5
			l1.1,1.8h0.9l-1.1-1.9c0.6-0.2,1.1-0.6,1.1-1.3c0-0.4-0.2-0.8-0.5-1.1c-0.3-0.2-0.7-0.3-1.2-0.3h-1.6v4.5H399.7z M400.4,52.9h-0.7
			v-1.4h0.7c0.6,0,1,0.2,1,0.7C401.4,52.7,401,52.9,400.4,52.9z"/>
	</g>
</g>
</svg>
