<svg width="197" height="28" viewBox="0 0 197 28" fill="none" xmlns="http://www.w3.org/2000/svg">
<path d="M97.4464 23.18V9.576H98.8904L99.0424 11.134C99.3464 10.678 99.777 10.2663 100.334 9.899C100.904 9.53167 101.626 9.348 102.5 9.348C103.438 9.348 104.255 9.56333 104.951 9.994C105.648 10.4247 106.186 11.0137 106.566 11.761C106.959 12.5083 107.155 13.357 107.155 14.307C107.155 15.257 106.959 16.1057 106.566 16.853C106.186 17.5877 105.642 18.1703 104.932 18.601C104.236 19.019 103.419 19.228 102.481 19.228C101.709 19.228 101.018 19.0697 100.41 18.753C99.815 18.4363 99.359 17.993 99.0424 17.423V23.18H97.4464ZM102.31 17.841C102.944 17.841 103.501 17.6953 103.982 17.404C104.464 17.1 104.844 16.682 105.122 16.15C105.401 15.618 105.54 14.9973 105.54 14.288C105.54 13.5787 105.401 12.958 105.122 12.426C104.844 11.894 104.464 11.4823 103.982 11.191C103.501 10.887 102.944 10.735 102.31 10.735C101.677 10.735 101.12 10.887 100.638 11.191C100.157 11.4823 99.777 11.894 99.4984 12.426C99.2197 12.958 99.0804 13.5787 99.0804 14.288C99.0804 14.9973 99.2197 15.618 99.4984 16.15C99.777 16.682 100.157 17.1 100.638 17.404C101.12 17.6953 101.677 17.841 102.31 17.841ZM109.377 19V5.32H110.973V19H109.377ZM116.724 19.228C115.939 19.228 115.286 19.095 114.767 18.829C114.248 18.563 113.861 18.2083 113.608 17.765C113.355 17.3217 113.228 16.8403 113.228 16.321C113.228 15.3583 113.595 14.6173 114.33 14.098C115.065 13.5787 116.065 13.319 117.332 13.319H119.878V13.205C119.878 12.3817 119.663 11.761 119.232 11.343C118.801 10.9123 118.225 10.697 117.503 10.697C116.882 10.697 116.344 10.8553 115.888 11.172C115.445 11.476 115.166 11.9257 115.052 12.521H113.418C113.481 11.837 113.709 11.2607 114.102 10.792C114.507 10.3233 115.008 9.96867 115.603 9.728C116.198 9.47467 116.832 9.348 117.503 9.348C118.82 9.348 119.808 9.70267 120.467 10.412C121.138 11.1087 121.474 12.0397 121.474 13.205V19H120.049L119.954 17.309C119.688 17.841 119.295 18.297 118.776 18.677C118.269 19.0443 117.585 19.228 116.724 19.228ZM116.971 17.879C117.579 17.879 118.098 17.7207 118.529 17.404C118.972 17.0873 119.308 16.6757 119.536 16.169C119.764 15.6623 119.878 15.1303 119.878 14.573V14.554H117.465C116.528 14.554 115.863 14.7187 115.47 15.048C115.09 15.3647 114.9 15.7637 114.9 16.245C114.9 16.739 115.077 17.138 115.432 17.442C115.799 17.7333 116.312 17.879 116.971 17.879ZM124.616 23.18L126.953 18.088H126.402L122.659 9.576H124.388L127.504 16.91L130.81 9.576H132.463L126.288 23.18H124.616ZM138.137 23.408C137.313 23.408 136.56 23.2623 135.876 22.971C135.192 22.6923 134.622 22.287 134.166 21.755C133.722 21.223 133.431 20.577 133.292 19.817H134.869C135.071 20.4757 135.458 21.0077 136.028 21.413C136.61 21.8183 137.307 22.021 138.118 22.021C139.042 22.021 139.821 21.7233 140.455 21.128C141.088 20.5327 141.405 19.646 141.405 18.468V17.1C141.101 17.632 140.645 18.1133 140.037 18.544C139.429 18.9747 138.662 19.19 137.738 19.19C136.851 19.19 136.047 18.9747 135.325 18.544C134.615 18.1133 134.045 17.5243 133.615 16.777C133.197 16.0297 132.988 15.1873 132.988 14.25C132.988 13.3127 133.197 12.4767 133.615 11.742C134.045 10.9947 134.622 10.412 135.344 9.994C136.066 9.56333 136.87 9.348 137.757 9.348C138.593 9.348 139.327 9.538 139.961 9.918C140.594 10.2853 141.075 10.735 141.405 11.267L141.557 9.576H143.001V18.449C143.001 19.475 142.792 20.3553 142.374 21.09C141.956 21.8373 141.379 22.4073 140.645 22.8C139.91 23.2053 139.074 23.408 138.137 23.408ZM137.985 17.803C138.631 17.803 139.201 17.651 139.695 17.347C140.201 17.043 140.6 16.625 140.892 16.093C141.196 15.561 141.348 14.9467 141.348 14.25C141.348 13.5533 141.196 12.939 140.892 12.407C140.6 11.875 140.201 11.4633 139.695 11.172C139.201 10.8807 138.631 10.735 137.985 10.735C137.351 10.735 136.781 10.8807 136.275 11.172C135.768 11.4633 135.363 11.875 135.059 12.407C134.767 12.939 134.622 13.5533 134.622 14.25C134.622 14.9467 134.767 15.561 135.059 16.093C135.363 16.625 135.768 17.043 136.275 17.347C136.781 17.651 137.351 17.803 137.985 17.803ZM145.614 19V9.576H147.058L147.191 11.381C147.483 10.7603 147.926 10.2663 148.521 9.899C149.117 9.53167 149.851 9.348 150.725 9.348V11.02H150.288C149.731 11.02 149.218 11.1213 148.749 11.324C148.281 11.514 147.907 11.8433 147.628 12.312C147.35 12.7807 147.21 13.4267 147.21 14.25V19H145.614ZM156.458 19.228C155.571 19.228 154.773 19.0253 154.064 18.62C153.355 18.2147 152.791 17.6447 152.373 16.91C151.968 16.1627 151.765 15.2887 151.765 14.288C151.765 13.2873 151.974 12.4197 152.392 11.685C152.81 10.9377 153.374 10.3613 154.083 9.956C154.805 9.55067 155.609 9.348 156.496 9.348C157.383 9.348 158.181 9.55067 158.89 9.956C159.599 10.3613 160.157 10.9377 160.562 11.685C160.98 12.4197 161.189 13.2873 161.189 14.288C161.189 15.2887 160.98 16.1627 160.562 16.91C160.144 17.6447 159.574 18.2147 158.852 18.62C158.143 19.0253 157.345 19.228 156.458 19.228ZM156.458 17.86C157.003 17.86 157.509 17.727 157.978 17.461C158.447 17.195 158.827 16.796 159.118 16.264C159.409 15.732 159.555 15.0733 159.555 14.288C159.555 13.5027 159.409 12.844 159.118 12.312C158.839 11.78 158.466 11.381 157.997 11.115C157.528 10.849 157.028 10.716 156.496 10.716C155.951 10.716 155.445 10.849 154.976 11.115C154.507 11.381 154.127 11.78 153.836 12.312C153.545 12.844 153.399 13.5027 153.399 14.288C153.399 15.0733 153.545 15.732 153.836 16.264C154.127 16.796 154.501 17.195 154.957 17.461C155.426 17.727 155.926 17.86 156.458 17.86ZM166.847 19.228C165.733 19.228 164.846 18.8923 164.187 18.221C163.529 17.537 163.199 16.492 163.199 15.086V9.576H164.795V14.915C164.795 16.8783 165.6 17.86 167.208 17.86C168.032 17.86 168.709 17.5687 169.241 16.986C169.786 16.3907 170.058 15.5483 170.058 14.459V9.576H171.654V19H170.21L170.096 17.309C169.805 17.9043 169.368 18.373 168.785 18.715C168.215 19.057 167.569 19.228 166.847 19.228ZM174.281 19V9.576H175.725L175.82 11.267C176.124 10.6717 176.561 10.203 177.131 9.861C177.701 9.519 178.347 9.348 179.069 9.348C180.184 9.348 181.071 9.69 181.729 10.374C182.401 11.0453 182.736 12.084 182.736 13.49V19H181.14V13.661C181.14 11.6977 180.33 10.716 178.708 10.716C177.898 10.716 177.22 11.0137 176.675 11.609C176.143 12.1917 175.877 13.0277 175.877 14.117V19H174.281ZM189.429 19.228C188.492 19.228 187.669 19.0127 186.959 18.582C186.263 18.1513 185.718 17.5623 185.325 16.815C184.945 16.0677 184.755 15.219 184.755 14.269C184.755 13.319 184.952 12.4767 185.344 11.742C185.737 10.9947 186.282 10.412 186.978 9.994C187.675 9.56333 188.498 9.348 189.448 9.348C190.221 9.348 190.905 9.50633 191.5 9.823C192.096 10.1397 192.558 10.583 192.887 11.153V5.32H194.483V19H193.039L192.887 17.442C192.583 17.898 192.146 18.3097 191.576 18.677C191.006 19.0443 190.291 19.228 189.429 19.228ZM189.6 17.841C190.234 17.841 190.791 17.6953 191.272 17.404C191.766 17.1 192.146 16.682 192.412 16.15C192.691 15.618 192.83 14.9973 192.83 14.288C192.83 13.5787 192.691 12.958 192.412 12.426C192.146 11.894 191.766 11.4823 191.272 11.191C190.791 10.887 190.234 10.735 189.6 10.735C188.98 10.735 188.422 10.887 187.928 11.191C187.447 11.4823 187.067 11.894 186.788 12.426C186.522 12.958 186.389 13.5787 186.389 14.288C186.389 14.9973 186.522 15.618 186.788 16.15C187.067 16.682 187.447 17.1 187.928 17.404C188.422 17.6953 188.98 17.841 189.6 17.841Z" fill="white" fill-opacity="0.3"/>
<path d="M23.9418 7L11.9731 0V4.84338L23.9418 11.8133L23.9418 7Z" fill="#FF6492"/>
<path d="M23.9417 11.8134L20.3512 13.9249L11.9709 9.03238L7.18256 11.8173L3.59131 9.86034L11.9731 4.84351L23.9417 11.8134Z" fill="#141446"/>
<path d="M7.18256 11.8173L3.59131 9.86035V13.9249L7.18256 11.8173Z" fill="#A14474"/>
<path d="M0 20.8495L11.9708 13.9248L23.9417 20.8495L11.9708 27.8495L0 20.8495Z" fill="#141446"/>
<path d="M23.9418 16.0438L11.9709 8.95703V13.9248L23.9418 20.8495L23.9418 16.0438Z" fill="#FF6492"/>
<path d="M3.59126 13.9247V9.86021L11.9731 4.84338V0L0 7V20.8495L11.9708 13.9247V8.95699L3.59126 13.9247Z" fill="#7A77FF"/>
<path d="M29.4783 14.4008C29.4783 11.7058 31.6101 9.60889 34.2969 9.60889C36.0206 9.60889 37.3543 10.4513 38.1332 11.7422L36.7621 12.8278C36.1687 11.9854 35.4091 11.4237 34.3162 11.4237C32.6477 11.4237 31.4621 12.7342 31.4621 14.3995C31.4621 16.1026 32.6477 17.3935 34.3162 17.3935C35.3911 17.3935 36.1506 16.8514 36.7621 16.009L38.1332 17.0763C37.3363 18.3672 36.0013 19.2097 34.2969 19.2097C31.6101 19.211 29.4783 17.114 29.4783 14.4008Z" fill="white"/>
<path d="M39.8196 15.1497V9.81567H41.7468V15.2992C41.7468 16.5902 42.6543 17.3949 43.804 17.3949C44.9162 17.3949 45.8058 16.5902 45.8058 15.2992V9.81567H47.7523V15.1497C47.7523 17.6393 46.0285 19.211 43.8052 19.211C41.5433 19.211 39.8196 17.6393 39.8196 15.1497Z" fill="white"/>
<path d="M59.5586 14.419C59.5586 17.1517 57.6868 19.211 55.1108 19.211C53.7758 19.211 52.6081 18.6689 51.9233 17.7328V19.0056H50.1068V4.96777H52.0533V10.9388C52.7395 10.0964 53.8324 9.61021 55.0927 9.61021C57.6868 9.60891 59.5586 11.6864 59.5586 14.419ZM57.5567 14.4008C57.5567 12.6224 56.3338 11.4069 54.7761 11.4069C53.405 11.4069 52.0327 12.3429 52.0327 14.4203C52.0327 16.516 53.423 17.4143 54.7761 17.4143C56.3518 17.4143 57.5567 16.1793 57.5567 14.4008Z" fill="white"/>
<path d="M69.6219 15.056H62.8388C63.0988 16.5719 64.2472 17.4702 65.8036 17.4702C66.8605 17.4702 67.6934 17.0581 68.4543 16.3847L69.3812 17.7328C68.4169 18.6493 67.1939 19.211 65.7482 19.211C62.9315 19.211 60.855 17.1335 60.855 14.419C60.855 11.724 62.9122 9.60889 65.5628 9.60889C67.9908 9.60889 69.7699 11.4055 69.7699 13.8197C69.7699 14.3254 69.6773 14.8129 69.6219 15.056ZM62.8761 13.5207H67.8247C67.7874 12.079 66.7318 11.2742 65.4895 11.2742C64.2098 11.2755 63.1722 12.1544 62.8761 13.5207Z" fill="white"/>
<path d="M71.3638 17.7693C71.3638 16.9268 72.0126 16.3093 72.8275 16.3093C73.6244 16.3093 74.2552 16.9268 74.2552 17.7693C74.2552 18.6117 73.6257 19.211 72.8275 19.211C72.0126 19.211 71.3638 18.6117 71.3638 17.7693Z" fill="white"/>
<path d="M75.0146 22.4117V20.7463C75.3107 20.784 75.5335 20.8022 75.8115 20.8022C76.9045 20.8022 77.5533 20.4096 77.5533 19.211V9.81563H79.4998V19.38C79.4998 21.607 78.1841 22.5807 76.275 22.5807C75.7381 22.5794 75.3481 22.5235 75.0146 22.4117ZM77.2019 6.39003C77.2019 5.66071 77.7953 5.07959 78.5369 5.07959C79.2591 5.07959 79.8525 5.65941 79.8525 6.39003C79.8525 7.11935 79.2591 7.68096 78.5369 7.68096C77.7953 7.68226 77.2019 7.12065 77.2019 6.39003Z" fill="white"/>
<path d="M81.0936 17.4324L82.2059 16.1974C82.9281 16.9644 83.7263 17.5078 84.7639 17.5078C85.5607 17.5078 86.2276 17.1711 86.2276 16.4782C86.2276 15.8789 85.6908 15.6358 84.9493 15.3368L84.0224 14.9442C82.5586 14.3266 81.6498 13.6532 81.6498 12.2674C81.6498 10.5643 83.0581 9.61011 84.8566 9.61011C86.1722 9.61011 87.2472 10.1158 88.0067 11.0323L86.9498 12.2492C86.3756 11.6499 85.6148 11.3132 84.8179 11.3132C84.0957 11.3132 83.5756 11.594 83.5756 12.1933C83.5756 12.6795 83.9464 12.9226 84.7806 13.2788L85.6521 13.635C87.3012 14.3279 88.1355 15.0573 88.1355 16.4054C88.1355 18.258 86.579 19.2122 84.7626 19.2122C83.1508 19.2109 81.8725 18.4621 81.0936 17.4324Z" fill="white"/>
</svg>
