<svg width="186" height="28" viewBox="0 0 186 28" fill="none" xmlns="http://www.w3.org/2000/svg">
<path d="M99.2395 9.285C97.9095 9.285 96.6845 9.8625 96.0195 10.8425V9.4775H94.7595V21.15H96.107V16.775C96.807 17.6675 97.997 18.1925 99.2395 18.1925C101.672 18.1925 103.457 16.25 103.457 13.73C103.457 11.2275 101.689 9.285 99.2395 9.285ZM99.047 16.95C97.5595 16.95 96.0895 15.97 96.0895 13.73C96.0895 11.49 97.577 10.5275 99.047 10.5275C100.797 10.5275 102.074 11.8925 102.074 13.7475C102.074 15.6025 100.779 16.95 99.047 16.95ZM105.817 18H107.164V4.875H105.817V18ZM113.186 9.285C111.821 9.285 110.526 9.8625 109.721 11.1575L110.613 11.8925C111.278 11.035 112.031 10.5275 113.098 10.5275C114.358 10.5275 115.163 11.245 115.163 12.68V13.415H112.468C110.613 13.415 109.406 14.36 109.406 15.795C109.406 17.2825 110.666 18.1925 112.381 18.1925C113.641 18.1925 114.638 17.72 115.251 16.8975V18H116.511V12.75C116.511 10.4575 115.128 9.285 113.186 9.285ZM112.556 17.0725C111.611 17.0725 110.788 16.635 110.788 15.725C110.788 14.92 111.436 14.5175 112.626 14.5175H115.163V14.7275C115.163 16.0575 113.956 17.0725 112.556 17.0725ZM125.424 9.4775L122.606 16.2675L119.789 9.4775H118.336L121.871 17.7375L121.416 18.7525C120.944 19.8375 120.314 20.1175 119.491 20.1175C119.194 20.1175 118.861 20.0825 118.459 20.03V21.1675C118.861 21.2725 119.351 21.3425 119.771 21.3425C121.066 21.3425 121.994 20.7125 122.659 19.19L126.859 9.4775H125.424ZM135.373 9.4775V10.8425C134.708 9.8625 133.483 9.285 132.136 9.285C129.738 9.285 127.953 11.14 127.953 13.6075C127.953 16.0925 129.738 17.9125 132.136 17.9125C133.413 17.9125 134.621 17.3875 135.303 16.495V17.2475C135.303 19.1375 134.201 20.1 132.468 20.1C131.068 20.1 130.106 19.47 129.283 18.7525L128.496 19.6975C129.336 20.5375 130.718 21.3425 132.503 21.3425C134.988 21.3425 136.651 19.8025 136.651 17.1775V9.4775H135.373ZM132.346 16.67C130.613 16.67 129.318 15.4275 129.318 13.625C129.318 11.8225 130.613 10.5625 132.346 10.5625C133.816 10.5625 135.321 11.4725 135.321 13.6075C135.321 15.7425 133.833 16.67 132.346 16.67ZM143.506 9.4075C142.491 9.4075 141.493 9.845 140.863 10.685V9.4775H139.603V18H140.951V13.17C140.951 11.5425 142.246 10.6675 143.628 10.6675H144.136V9.4775C143.961 9.4425 143.786 9.4075 143.506 9.4075ZM149.605 18.175C152.108 18.175 154.085 16.1975 154.085 13.73C154.085 11.245 152.108 9.285 149.623 9.285C147.12 9.285 145.16 11.2275 145.16 13.73C145.16 16.1975 147.12 18.175 149.605 18.175ZM149.605 16.9325C147.855 16.9325 146.543 15.5675 146.543 13.7475C146.543 11.91 147.855 10.5275 149.623 10.5275C151.373 10.5275 152.703 11.91 152.703 13.7475C152.703 15.55 151.355 16.9325 149.605 16.9325ZM159.884 18.1925C161.844 18.1925 163.401 16.7925 163.401 14.605V9.4775H162.054V14.6925C162.054 16.0925 161.074 16.95 159.884 16.95C158.659 16.95 157.679 16.0925 157.679 14.6925V9.4775H156.349V14.605C156.349 16.7925 157.889 18.1925 159.884 18.1925ZM170.131 9.285C169.029 9.285 168.119 9.705 167.506 10.3875V9.4775H166.246V18H167.594V12.8025C167.594 11.4725 168.521 10.5275 169.834 10.5275C171.146 10.5275 171.951 11.455 171.951 12.8025V18H173.299V12.645C173.299 10.6675 172.144 9.285 170.131 9.285ZM182.913 4.875V10.7375C182.231 9.8275 181.041 9.285 179.763 9.285C177.331 9.285 175.546 11.2275 175.546 13.7475C175.546 16.25 177.331 18.1925 179.763 18.1925C181.093 18.1925 182.318 17.615 182.983 16.6525V18H184.261V4.875H182.913ZM179.956 16.95C178.206 16.95 176.928 15.585 176.928 13.73C176.928 11.875 178.223 10.5275 179.956 10.5275C181.426 10.5275 182.931 11.5075 182.931 13.7475C182.931 15.9875 181.426 16.95 179.956 16.95Z" fill="#43436B"/>
<path d="M23.9418 7L11.9731 0V4.84338L23.9418 11.8133L23.9418 7Z" fill="#FF6492"/>
<path d="M23.9417 11.8133L20.3512 13.9247L11.9709 9.03226L7.18256 11.8172L3.59131 9.86021L11.9731 4.84338L23.9417 11.8133Z" fill="#141446"/>
<path d="M7.18256 11.8172L3.59131 9.86023V13.9247L7.18256 11.8172Z" fill="#A14474"/>
<path d="M0 20.8495L11.9708 13.9248L23.9417 20.8495L11.9708 27.8495L0 20.8495Z" fill="#141446"/>
<path d="M23.9415 16.0438L11.9707 8.95703V13.9248L23.9415 20.8495L23.9415 16.0438Z" fill="#FF6492"/>
<path d="M3.59126 13.9247V9.86021L11.9731 4.84338V0L0 7V20.8495L11.9708 13.9247V8.95699L3.59126 13.9247Z" fill="#7A77FF"/>
<path d="M29.478 14.4008C29.478 11.7058 31.6099 9.60889 34.2966 9.60889C36.0204 9.60889 37.3541 10.4513 38.1329 11.7422L36.7619 12.8278C36.1684 11.9854 35.4089 11.4237 34.3159 11.4237C32.6475 11.4237 31.4618 12.7342 31.4618 14.3995C31.4618 16.1026 32.6475 17.3935 34.3159 17.3935C35.3909 17.3935 36.1504 16.8514 36.7619 16.009L38.1329 17.0763C37.3361 18.3672 36.0011 19.2097 34.2966 19.2097C31.6099 19.211 29.478 17.114 29.478 14.4008Z" fill="#141446"/>
<path d="M39.8193 15.1497V9.81567H41.7465V15.2992C41.7465 16.5902 42.6541 17.3949 43.8037 17.3949C44.916 17.3949 45.8055 16.5902 45.8055 15.2992V9.81567H47.752V15.1497C47.752 17.6393 46.0283 19.211 43.805 19.211C41.5431 19.211 39.8193 17.6393 39.8193 15.1497Z" fill="#141446"/>
<path d="M59.5582 14.419C59.5582 17.1517 57.6864 19.211 55.1104 19.211C53.7754 19.211 52.6078 18.6689 51.9229 17.7328V19.0056H50.1064V4.96777H52.0529V10.9388C52.7391 10.0964 53.8321 9.61021 55.0924 9.61021C57.6864 9.60891 59.5582 11.6864 59.5582 14.419ZM57.5564 14.4008C57.5564 12.6224 56.3334 11.4069 54.7757 11.4069C53.4047 11.4069 52.0323 12.3429 52.0323 14.4203C52.0323 16.516 53.4227 17.4143 54.7757 17.4143C56.3514 17.4143 57.5564 16.1793 57.5564 14.4008Z" fill="#141446"/>
<path d="M69.6219 15.056H62.8388C63.0988 16.5719 64.2472 17.4702 65.8036 17.4702C66.8605 17.4702 67.6934 17.0581 68.4543 16.3847L69.3812 17.7328C68.4169 18.6493 67.1939 19.211 65.7482 19.211C62.9315 19.211 60.855 17.1335 60.855 14.419C60.855 11.724 62.9122 9.60889 65.5628 9.60889C67.9908 9.60889 69.7699 11.4055 69.7699 13.8197C69.7699 14.3254 69.6773 14.8129 69.6219 15.056ZM62.8761 13.5207H67.8247C67.7874 12.079 66.7318 11.2742 65.4895 11.2742C64.2098 11.2755 63.1722 12.1544 62.8761 13.5207Z" fill="#141446"/>
<path d="M71.3633 17.7693C71.3633 16.9268 72.0121 16.3093 72.827 16.3093C73.6239 16.3093 74.2547 16.9268 74.2547 17.7693C74.2547 18.6117 73.6252 19.211 72.827 19.211C72.0121 19.211 71.3633 18.6117 71.3633 17.7693Z" fill="#141446"/>
<path d="M75.0146 22.4116V20.7462C75.3107 20.7839 75.5335 20.8021 75.8115 20.8021C76.9045 20.8021 77.5533 20.4095 77.5533 19.2109V9.8155H79.4998V19.3799C79.4998 21.6068 78.1841 22.5806 76.275 22.5806C75.7381 22.5793 75.3481 22.5234 75.0146 22.4116ZM77.2019 6.38991C77.2019 5.66058 77.7953 5.07947 78.5369 5.07947C79.2591 5.07947 79.8525 5.65928 79.8525 6.38991C79.8525 7.11923 79.2591 7.68084 78.5369 7.68084C77.7953 7.68214 77.2019 7.12053 77.2019 6.38991Z" fill="#141446"/>
<path d="M81.0933 17.4326L82.2055 16.1975C82.9277 16.9645 83.7259 17.508 84.7635 17.508C85.5604 17.508 86.2272 17.1712 86.2272 16.4783C86.2272 15.879 85.6904 15.6359 84.9489 15.3369L84.022 14.9443C82.5583 14.3268 81.6494 13.6533 81.6494 12.2675C81.6494 10.5645 83.0578 9.61023 84.8562 9.61023C86.1719 9.61023 87.2468 10.1159 88.0064 11.0325L86.9494 12.2493C86.3753 11.65 85.6144 11.3133 84.8176 11.3133C84.0954 11.3133 83.5753 11.5941 83.5753 12.1934C83.5753 12.6796 83.946 12.9227 84.7802 13.2789L85.6518 13.6351C87.3009 14.3281 88.1351 15.0574 88.1351 16.4055C88.1351 18.2581 86.5787 19.2123 84.7622 19.2123C83.1505 19.211 81.8721 18.4622 81.0933 17.4326Z" fill="#141446"/>
</svg>
