<svg width="516" height="417" viewBox="230 0 130 280" fill="none" xmlns="http://www.w3.org/2000/svg">
<path d="M362.648 61.0724L257.361 0V42.2568L362.648 103.067L362.648 61.0724Z" fill="#FF6492"/>
<path d="M362.648 103.067L331.062 121.488L257.342 78.8032L215.219 103.101L183.627 86.0268L257.361 42.2568L362.648 103.067Z" fill="#141446"/>
<path d="M215.219 103.101L183.627 86.0269V121.488L215.219 103.101Z" fill="#A14474"/>
<path d="M152.036 181.904L257.342 121.488L362.648 181.904L257.342 242.976L152.036 181.904Z" fill="#141446"/>
<path d="M362.648 139.976L257.342 78.1465V121.488L362.648 181.904L362.648 139.976Z" fill="#FF6492"/>
<path d="M183.627 121.488V86.0268L257.361 42.2568V0L152.036 61.0724V181.904L257.342 121.488V78.1465L183.627 121.488Z" fill="#7A77FF"/>
</svg>
