<svg width="671" height="252" viewBox="0 0 671 252" fill="none" xmlns="http://www.w3.org/2000/svg">
<path d="M182.004 53L91.0188 0V36.6713L182.003 89.4437L182.004 53Z" fill="#FF6492"/>
<path d="M182.003 89.4437L154.708 105.43L91.0018 68.3871L54.6012 89.4731L27.3007 74.6559L91.0188 36.6713L182.003 89.4437Z" fill="#141446"/>
<path d="M54.6012 89.4731L27.3007 74.6559V105.43L54.6012 89.4731Z" fill="#A14474"/>
<path d="M0 157.86L91.0017 105.43L182.003 157.86L91.0017 210.86L0 157.86Z" fill="#141446"/>
<path d="M182.003 121.474L91.0018 67.8172V105.43L182.004 157.86L182.003 121.474Z" fill="#FF6492"/>
<path d="M27.3005 105.43V74.6559L91.0187 36.6713V0L0 53V157.86L91.0017 105.43V67.8172L27.3005 105.43Z" fill="#7A77FF"/>
<path d="M224.092 109.035C224.092 88.6299 240.298 72.7529 260.722 72.7529C273.826 72.7529 283.965 79.1312 289.886 88.9055L279.463 97.1245C274.952 90.7461 269.178 86.4939 260.869 86.4939C248.186 86.4939 239.173 96.4158 239.173 109.025C239.173 121.919 248.186 131.694 260.869 131.694C269.041 131.694 274.815 127.589 279.463 121.211L289.886 129.292C283.828 139.066 273.679 145.444 260.722 145.444C240.298 145.454 224.092 129.577 224.092 109.035Z" fill="#141446"/>
<path d="M302.706 114.704V74.3179H317.356V115.836C317.356 125.611 324.256 131.703 332.995 131.703C341.45 131.703 348.213 125.611 348.213 115.836V74.3179H363.01V114.704C363.01 133.554 349.906 145.454 333.005 145.454C315.81 145.454 302.706 133.554 302.706 114.704Z" fill="#141446"/>
<path d="M452.761 109.173C452.761 129.863 438.532 145.454 418.949 145.454C408.8 145.454 399.924 141.35 394.718 134.263V143.899H380.909V37.6129H395.706V82.8225C400.922 76.4441 409.231 72.7628 418.812 72.7628C438.532 72.7529 452.761 88.4823 452.761 109.173ZM437.543 109.035C437.543 95.5693 428.246 86.366 416.405 86.366C405.982 86.366 395.55 93.453 395.55 109.182C395.55 125.05 406.119 131.851 416.405 131.851C428.383 131.851 437.543 122.5 437.543 109.035Z" fill="#141446"/>
<path d="M529.262 113.996H477.697C479.674 125.473 488.403 132.274 500.235 132.274C508.27 132.274 514.601 129.154 520.385 124.055L527.431 134.263C520.101 141.202 510.804 145.454 499.814 145.454C478.402 145.454 462.616 129.725 462.616 109.172C462.616 88.7677 478.255 72.7529 498.405 72.7529C516.862 72.7529 530.387 86.3561 530.387 104.635C530.387 108.464 529.682 112.155 529.262 113.996ZM477.981 102.371H515.6C515.316 91.4548 507.291 85.3619 497.847 85.3619C488.119 85.3718 480.232 92.0257 477.981 102.371Z" fill="#141446"/>
<path d="M542.503 134.538C542.503 128.16 547.435 123.484 553.63 123.484C559.687 123.484 564.483 128.16 564.483 134.538C564.483 140.917 559.697 145.454 553.63 145.454C547.435 145.454 542.503 140.917 542.503 134.538Z" fill="#141446"/>
<path d="M570.257 169.688V157.079C572.508 157.365 574.201 157.502 576.315 157.502C584.623 157.502 589.556 154.53 589.556 145.454V74.3179H604.353V146.734C604.353 163.595 594.351 170.968 579.838 170.968C575.757 170.958 572.791 170.535 570.257 169.688ZM586.884 48.3813C586.884 42.8593 591.395 38.4594 597.032 38.4594C602.523 38.4594 607.034 42.8494 607.034 48.3813C607.034 53.9033 602.523 58.1555 597.032 58.1555C591.395 58.1654 586.884 53.9131 586.884 48.3813Z" fill="#141446"/>
<path d="M616.468 131.989L624.924 122.638C630.414 128.445 636.481 132.56 644.369 132.56C650.427 132.56 655.497 130.01 655.497 124.764C655.497 120.226 651.416 118.386 645.779 116.122L638.732 113.149C627.605 108.474 620.696 103.375 620.696 92.8821C620.696 79.9876 631.402 72.7627 645.074 72.7627C655.076 72.7627 663.247 76.5917 669.021 83.5311L660.987 92.7443C656.622 88.2066 650.838 85.6573 644.78 85.6573C639.29 85.6573 635.336 87.7834 635.336 92.3211C635.336 96.0024 638.155 97.8431 644.497 100.54L651.122 103.237C663.658 108.483 670 114.005 670 124.213C670 138.239 658.168 145.464 644.36 145.464C632.107 145.454 622.389 139.785 616.468 131.989Z" fill="#141446"/>
<path d="M341.824 232H346.816V214.336H356.672C364.992 214.336 370.176 209.152 370.176 201.984C370.176 194.88 364.992 189.76 356.672 189.76H341.824V232ZM346.816 209.856V194.24H356.544C362.112 194.24 364.992 197.568 364.992 202.048C364.992 206.592 362.112 209.856 356.544 209.856H346.816ZM378.128 232H383.056V184H378.128V232ZM405.078 200.128C400.086 200.128 395.35 202.24 392.406 206.976L395.67 209.664C398.102 206.528 400.854 204.672 404.758 204.672C409.366 204.672 412.31 207.296 412.31 212.544V215.232H402.454C395.67 215.232 391.254 218.688 391.254 223.936C391.254 229.376 395.862 232.704 402.134 232.704C406.742 232.704 410.39 230.976 412.63 227.968V232H417.238V212.8C417.238 204.416 412.182 200.128 405.078 200.128ZM402.774 228.608C399.318 228.608 396.31 227.008 396.31 223.68C396.31 220.736 398.678 219.264 403.03 219.264H412.31V220.032C412.31 224.896 407.894 228.608 402.774 228.608ZM449.834 200.832L439.53 225.664L429.226 200.832H423.914L436.842 231.04L435.178 234.752C433.45 238.72 431.146 239.744 428.138 239.744C427.05 239.744 425.834 239.616 424.362 239.424V243.584C425.834 243.968 427.626 244.224 429.162 244.224C433.898 244.224 437.29 241.92 439.722 236.352L455.082 200.832H449.834ZM486.22 200.832V205.824C483.788 202.24 479.308 200.128 474.38 200.128C465.612 200.128 459.084 206.912 459.084 215.936C459.084 225.024 465.612 231.68 474.38 231.68C479.052 231.68 483.468 229.76 485.964 226.496V229.248C485.964 236.16 481.932 239.68 475.596 239.68C470.476 239.68 466.956 237.376 463.948 234.752L461.068 238.208C464.14 241.28 469.196 244.224 475.724 244.224C484.812 244.224 490.892 238.592 490.892 228.992V200.832H486.22ZM475.148 227.136C468.812 227.136 464.076 222.592 464.076 216C464.076 209.408 468.812 204.8 475.148 204.8C480.524 204.8 486.028 208.128 486.028 215.936C486.028 223.744 480.588 227.136 475.148 227.136ZM515.962 200.576C512.25 200.576 508.602 202.176 506.298 205.248V200.832H501.69V232H506.618V214.336C506.618 208.384 511.354 205.184 516.41 205.184H518.266V200.832C517.626 200.704 516.986 200.576 515.962 200.576ZM538.269 232.64C547.421 232.64 554.653 225.408 554.653 216.384C554.653 207.296 547.421 200.128 538.333 200.128C529.181 200.128 522.013 207.232 522.013 216.384C522.013 225.408 529.181 232.64 538.269 232.64ZM538.269 228.096C531.869 228.096 527.069 223.104 527.069 216.448C527.069 209.728 531.869 204.672 538.333 204.672C544.733 204.672 549.597 209.728 549.597 216.448C549.597 223.04 544.669 228.096 538.269 228.096ZM575.859 232.704C583.027 232.704 588.723 227.584 588.723 219.584V200.832H583.795V219.904C583.795 225.024 580.211 228.16 575.859 228.16C571.379 228.16 567.795 225.024 567.795 219.904V200.832H562.931V219.584C562.931 227.584 568.563 232.704 575.859 232.704ZM613.336 200.128C609.304 200.128 605.976 201.664 603.736 204.16V200.832H599.128V232H604.056V212.992C604.056 208.128 607.448 204.672 612.248 204.672C617.048 204.672 619.992 208.064 619.992 212.992V232H624.92V212.416C624.92 205.184 620.696 200.128 613.336 200.128ZM660.082 184V205.44C657.586 202.112 653.234 200.128 648.562 200.128C639.666 200.128 633.138 207.232 633.138 216.448C633.138 225.6 639.666 232.704 648.562 232.704C653.426 232.704 657.906 230.592 660.338 227.072V232H665.01V184H660.082ZM649.266 228.16C642.866 228.16 638.194 223.168 638.194 216.384C638.194 209.6 642.93 204.672 649.266 204.672C654.642 204.672 660.146 208.256 660.146 216.448C660.146 224.64 654.642 228.16 649.266 228.16Z" fill="#141446"/>
</svg>
