<svg width="699" height="121" viewBox="0 0 699 121" fill="none" xmlns="http://www.w3.org/2000/svg">
<path d="M112.069 31.1622L60.0465 1V21.8696L112.069 51.9022L112.069 31.1622Z" fill="#FF6492"/>
<path d="M39.2241 51.9189L23.6145 43.4865V61L39.2241 51.9189Z" fill="#A14474"/>
<path d="M112.069 90.8384L60.0366 121L8.00439 90.8384L60.0366 61.0005L112.069 90.8384ZM112.069 51.9019L96.4624 61.0005L60.0366 39.9194L39.2241 51.9194L23.6147 43.4868L60.0464 21.8696L112.069 51.9019Z" fill="url(#paint0_linear_1485_779)"/>
<path d="M112.069 70.1305L60.0369 39.5946V61L112.069 90.8379L112.069 70.1305Z" fill="#FF6492"/>
<path d="M23.6145 61V43.4865L60.0466 21.8696V1L8.00488 31.1622V90.8378L60.0368 61V39.5946L23.6145 61Z" fill="#7A77FF"/>
<path fill-rule="evenodd" clip-rule="evenodd" d="M346.366 63.8123C346.366 82.1047 333.795 95.8893 316.495 95.8893C307.529 95.8893 299.687 92.2604 295.087 85.9947V94.5143H282.888V0.545898H295.961V40.516C300.569 34.8768 307.909 31.6221 316.374 31.6221C333.795 31.6134 346.366 45.5199 346.366 63.8123ZM332.922 63.6905C332.922 51.7856 324.708 43.6488 314.247 43.6488C305.039 43.6488 295.822 49.9146 295.822 63.821C295.822 77.8492 305.16 83.8626 314.247 83.8626C324.829 83.8626 332.922 75.5953 332.922 63.6905ZM176.708 31.6141C158.663 31.6141 144.346 45.651 144.346 63.6911C144.346 81.853 158.663 95.89 176.708 95.8812C188.155 95.8812 197.121 90.2421 202.472 81.6006L193.265 74.456C189.158 80.0951 184.057 83.724 176.837 83.724C165.632 83.724 157.669 75.0825 157.669 63.6824C157.669 52.5346 165.632 43.7626 176.837 43.7626C184.178 43.7626 189.279 47.522 193.265 53.1612L202.472 45.8947C197.242 37.2532 188.284 31.6141 176.708 31.6141ZM213.799 32.9979V68.7038C213.799 85.3688 225.376 95.89 240.566 95.89C255.498 95.89 267.075 85.3688 267.075 68.7038V32.9979H254.002V69.7045C254.002 78.346 248.028 83.7328 240.558 83.7328C232.837 83.7328 226.742 78.346 226.742 69.7045V32.9979H213.799ZM368.397 68.0771H413.952C414.324 66.4497 414.946 63.1863 414.946 59.8011C414.946 43.6408 402.998 31.6141 386.692 31.6141C368.89 31.6141 355.073 45.7729 355.073 63.8129C355.073 81.9835 369.019 95.8899 387.937 95.8899C397.646 95.8899 405.86 92.1305 412.335 85.9953L406.11 76.9709C401.001 81.4788 395.407 84.2374 388.308 84.2374C377.855 84.2374 370.143 78.2241 368.397 68.0771ZM401.882 57.7996H368.647C370.636 48.6533 377.605 42.7705 386.199 42.7618C394.542 42.7618 401.632 48.1486 401.882 57.7996Z" fill="white"/>
<path d="M474.034 95.3671C485.475 95.3671 494.429 89.7742 499.777 81.1985L490.574 74.1142C486.47 79.7071 481.371 83.3114 474.158 83.3114C462.965 83.3114 455.006 74.7357 455.006 63.4257C455.006 52.3642 462.965 43.6642 474.158 43.6642C481.495 43.6642 486.594 47.3928 490.574 52.9857L499.777 45.7771C494.553 37.2014 485.599 31.6085 474.034 31.6085C456.001 31.6085 441.699 45.5285 441.699 63.4257C441.699 81.4471 456.001 95.3671 474.034 95.3671Z" fill="white"/>
<path d="M538.825 95.3671C556.982 95.3671 571.284 81.1985 571.284 63.4257C571.284 45.6528 556.982 31.6085 538.825 31.6085C520.793 31.6085 506.615 45.5285 506.615 63.4257C506.615 81.1985 520.793 95.3671 538.825 95.3671ZM538.825 83.3114C528.006 83.3114 519.922 74.8599 519.922 63.55C519.922 52.1157 528.006 43.54 538.95 43.54C549.645 43.54 557.853 52.1157 557.853 63.55C557.853 74.7357 549.645 83.3114 538.825 83.3114Z" fill="white"/>
<path d="M613.738 32.3542C606.773 32.3542 600.307 35.3371 595.954 40.93V32.9757H583.766V93.9999H596.825V61.4371C596.825 50.1271 605.032 44.5342 614.733 44.5342H618.712V32.9757C617.344 32.6028 615.852 32.3542 613.738 32.3542Z" fill="white"/>
<path d="M682.663 59.5728C682.663 43.54 670.725 31.6085 654.433 31.6085C636.649 31.6085 622.845 45.6528 622.845 63.55C622.845 81.5714 636.774 95.3671 655.677 95.3671C665.377 95.3671 673.585 91.6385 680.052 85.5485L673.834 76.6C668.735 81.0742 663.139 83.8085 656.05 83.8085C645.604 83.8085 637.893 77.8428 636.152 67.7757H681.669C682.042 66.16 682.663 62.9285 682.663 59.5728ZM653.936 42.67C662.268 42.67 669.357 48.0142 669.605 57.5842H636.401C638.391 48.5114 645.355 42.67 653.936 42.67Z" fill="white"/>
<defs>
<linearGradient id="paint0_linear_1485_779" x1="18.8787" y1="21.8696" x2="86.3836" y2="103.113" gradientUnits="userSpaceOnUse">
<stop stop-color="#17173A"/>
<stop offset="1" stop-color="#303062"/>
</linearGradient>
</defs>
</svg>
