<svg width="70" height="28" viewBox="0 0 70 28" fill="none" xmlns="http://www.w3.org/2000/svg">
    <g clip-path="url(#clip0_2_2)">
        <path d="M23.9418 7L11.9731 0V4.84338L23.9418 11.8133V7Z" fill="#FF6492"/>
        <path d="M23.9417 11.8134L20.3512 13.9249L11.9709 9.03238L7.18256 11.8173L3.59131 9.86034L11.9731 4.84351L23.9417 11.8134Z" fill="#141446"/>
        <path d="M7.18256 11.8173L3.59131 9.86035V13.9249L7.18256 11.8173Z" fill="#A14474"/>
        <path d="M0 20.8495L11.9708 13.9248L23.9417 20.8495L11.9708 27.8495L0 20.8495Z" fill="#141446"/>
        <path d="M23.9418 16.0438L11.9709 8.95703V13.9248L23.9418 20.8495V16.0438Z" fill="#FF6492"/>
        <path d="M3.59126 13.9247V9.86021L11.9731 4.84338V0L0 7V20.8495L11.9708 13.9247V8.95699L3.59126 13.9247Z" fill="#7A77FF"/>
        <path d="M29.4783 14.4008C29.4783 11.7058 31.6101 9.60889 34.2969 9.60889C36.0206 9.60889 37.3543 10.4513 38.1332 11.7422L36.7621 12.8278C36.1687 11.9854 35.4091 11.4237 34.3162 11.4237C32.6477 11.4237 31.4621 12.7342 31.4621 14.3995C31.4621 16.1026 32.6477 17.3935 34.3162 17.3935C35.3911 17.3935 36.1506 16.8514 36.7621 16.009L38.1332 17.0763C37.3363 18.3672 36.0013 19.2097 34.2969 19.2097C31.6101 19.211 29.4783 17.114 29.4783 14.4008Z" fill="white"/>
        <path d="M39.8196 15.1497V9.81567H41.7468V15.2992C41.7468 16.5902 42.6543 17.3949 43.804 17.3949C44.9162 17.3949 45.8058 16.5902 45.8058 15.2992V9.81567H47.7523V15.1497C47.7523 17.6393 46.0285 19.211 43.8052 19.211C41.5433 19.211 39.8196 17.6393 39.8196 15.1497Z" fill="white"/>
        <path d="M59.5586 14.419C59.5586 17.1517 57.6868 19.211 55.1108 19.211C53.7758 19.211 52.6081 18.6689 51.9233 17.7328V19.0056H50.1068V4.96777H52.0533V10.9388C52.7395 10.0964 53.8324 9.61021 55.0927 9.61021C57.6868 9.60891 59.5586 11.6864 59.5586 14.419ZM57.5567 14.4008C57.5567 12.6224 56.3338 11.4069 54.7761 11.4069C53.405 11.4069 52.0327 12.3429 52.0327 14.4203C52.0327 16.516 53.423 17.4143 54.7761 17.4143C56.3518 17.4143 57.5567 16.1793 57.5567 14.4008Z" fill="white"/>
        <path d="M69.6219 15.056H62.8388C63.0988 16.5719 64.2472 17.4702 65.8036 17.4702C66.8605 17.4702 67.6934 17.0581 68.4543 16.3847L69.3812 17.7328C68.4169 18.6493 67.1939 19.211 65.7482 19.211C62.9315 19.211 60.855 17.1335 60.855 14.419C60.855 11.724 62.9122 9.60889 65.5628 9.60889C67.9908 9.60889 69.7699 11.4055 69.7699 13.8197C69.7699 14.3254 69.6773 14.8129 69.6219 15.056ZM62.8761 13.5207H67.8247C67.7874 12.079 66.7318 11.2742 65.4895 11.2742C64.2098 11.2755 63.1722 12.1544 62.8761 13.5207Z" fill="white"/>
    </g>
    <defs>
        <clipPath id="clip0_2_2">
            <rect width="70" height="28" fill="white"/>
        </clipPath>
    </defs>
</svg>
