<svg width="14" height="14" viewBox="0 0 14 14" fill="none" xmlns="http://www.w3.org/2000/svg">
<path d="M5.39663 1.00146C4.73413 1.00146 4.19819 1.53896 4.19819 2.20147C4.19819 2.51865 4.32476 2.8249 4.54819 3.0499C4.65958 3.16138 4.79184 3.24981 4.93742 3.31013C5.083 3.37046 5.23905 3.40149 5.39663 3.40147H6.59507V2.20147C6.59507 1.54053 6.05913 1.00303 5.39663 1.00146ZM5.39663 4.20147H2.19819C1.53569 4.20147 0.999756 4.73897 0.999756 5.40147C0.999756 6.06397 1.53726 6.60147 2.19819 6.60147H5.39507C6.05757 6.60147 6.59351 6.06397 6.59351 5.40147C6.59507 4.73897 6.05757 4.20147 5.39663 4.20147ZM8.59351 6.60147C9.25601 6.60147 9.79351 6.06397 9.79195 5.40147V2.20147C9.79195 1.53896 9.25601 1.00146 8.59351 1.00146C7.93101 1.00146 7.39507 1.53896 7.39507 2.20147V5.40147C7.39507 6.06553 7.93101 6.60147 8.59351 6.60147ZM12.9904 5.40147C12.9904 4.73897 12.4529 4.20147 11.7919 4.20147C11.131 4.20147 10.5935 4.73897 10.5935 5.40147V6.60147H11.7919C12.4529 6.60147 12.9904 6.06397 12.9904 5.40147ZM11.7904 7.40147H8.59351C7.93101 7.40147 7.39507 7.93897 7.39507 8.60147C7.39507 8.91865 7.52163 9.2249 7.74507 9.4499C7.85645 9.56138 7.98871 9.64981 8.1343 9.71013C8.27988 9.77046 8.43592 9.80149 8.59351 9.80147H11.7904C12.4529 9.80147 12.9888 9.26397 12.9888 8.60147C12.9904 7.93897 12.4529 7.40303 11.7904 7.40147ZM8.59351 10.6015H7.39507V11.8015C7.39507 12.464 7.93257 13.0015 8.59351 13.0015C9.25601 13.0015 9.79351 12.464 9.79195 11.8015C9.79351 11.139 9.25601 10.603 8.59351 10.6015ZM5.39663 7.40147C4.73413 7.40147 4.19819 7.93897 4.19819 8.60147V11.8015C4.19819 12.464 4.73569 13.0015 5.39663 13.0015C6.05913 13.0015 6.59663 12.464 6.59507 11.8015V8.60147C6.59507 8.28428 6.46851 7.97803 6.24507 7.75303C6.01995 7.52815 5.71483 7.40172 5.39663 7.40147ZM0.999756 8.60147C0.999756 8.91865 1.12632 9.2249 1.34976 9.4499C1.46114 9.56138 1.5934 9.64981 1.73898 9.71013C1.88456 9.77046 2.04061 9.80149 2.19819 9.80147C2.86069 9.80147 3.39819 9.26397 3.39663 8.60147V7.40147H2.19819C1.53726 7.40147 0.999756 7.93897 0.999756 8.60147Z" fill="white"/>
</svg>
