<svg width="380" height="220" viewBox="0 0 380 220" fill="none" xmlns="http://www.w3.org/2000/svg">
<path d="M365.124 103.53L201.114 8.80027C194.64 5.06658 184.204 5.06658 177.764 8.80027L14.8096 103.53C8.36938 107.264 8.4024 113.311 14.8756 117.077L178.887 211.808C185.36 215.541 195.796 215.541 202.236 211.808L365.19 117.077C371.631 113.311 371.598 107.264 365.124 103.53Z" fill="#F6F6FC"/>
<path d="M93.9363 70.6281L94.2401 101.296C94.2401 115.513 103.556 129.73 122.189 140.596C159.657 162.429 220.719 162.429 258.389 140.596C277.528 129.628 286.945 115.208 286.945 100.788L286.642 70.1204C286.642 84.5403 277.224 98.9603 258.186 109.928C220.415 131.761 159.454 131.761 121.986 109.928C103.354 99.0619 94.0376 84.845 93.9363 70.6281Z" fill="url(#paint0_linear)"/>
<path d="M93.936 70.6289L94.2398 101.297C94.2398 112.467 100.113 123.739 111.657 133.285L111.353 102.617C99.8094 93.0713 94.0373 81.7993 93.936 70.6289Z" fill="url(#paint1_linear)"/>
<path d="M111.354 102.616L111.658 133.284C113.38 134.705 115.101 136.025 117.126 137.346L116.823 106.678C114.899 105.358 113.076 103.936 111.354 102.616Z" fill="url(#paint2_linear)"/>
<path d="M116.822 106.678L117.126 137.346C118.645 138.362 120.164 139.377 121.784 140.291L121.48 109.623C119.86 108.608 118.24 107.694 116.822 106.678Z" fill="url(#paint3_linear)"/>
<path d="M121.481 109.623L121.785 140.291C121.987 140.392 122.088 140.494 122.291 140.595C123.506 141.306 124.822 142.017 126.139 142.728L125.835 112.06C124.519 111.349 123.202 110.638 121.987 109.927C121.785 109.826 121.683 109.724 121.481 109.623Z" fill="url(#paint4_linear)"/>
<path d="M125.834 112.061L126.138 142.729C127.455 143.439 128.872 144.15 130.29 144.76L129.986 114.092C128.569 113.381 127.151 112.772 125.834 112.061Z" fill="url(#paint5_linear)"/>
<path d="M129.986 114.092L130.29 144.76C131.606 145.369 132.923 145.979 134.341 146.588L134.037 115.92C132.619 115.311 131.303 114.701 129.986 114.092Z" fill="url(#paint6_linear)"/>
<path d="M134.038 115.817L134.341 146.485C135.658 146.993 136.873 147.501 138.189 148.008L137.886 117.341C136.569 116.934 135.253 116.427 134.038 115.817Z" fill="url(#paint7_linear)"/>
<path d="M137.885 117.341L138.189 148.009C139.505 148.516 140.822 148.923 142.037 149.43L141.733 118.763C140.417 118.356 139.201 117.849 137.885 117.341Z" fill="url(#paint8_linear)"/>
<path d="M141.732 118.762L142.036 149.43C143.352 149.836 144.567 150.242 145.884 150.649L145.58 119.981C144.365 119.575 143.048 119.168 141.732 118.762Z" fill="url(#paint9_linear)"/>
<path d="M145.681 119.981L145.985 150.649C147.301 151.055 148.618 151.359 149.934 151.766L149.63 121.098C148.213 120.793 146.896 120.387 145.681 119.981Z" fill="url(#paint10_linear)"/>
<path d="M149.53 121.097L149.833 151.765C151.15 152.07 152.466 152.476 153.783 152.781L153.479 122.113C152.163 121.808 150.846 121.504 149.53 121.097Z" fill="url(#paint11_linear)"/>
<path d="M153.479 122.115L153.782 152.783C155.099 153.087 156.415 153.392 157.833 153.697L157.529 123.029C156.112 122.724 154.795 122.419 153.479 122.115Z" fill="url(#paint12_linear)"/>
<path d="M157.53 123.027L157.834 153.695C159.15 154 160.568 154.203 161.884 154.508L161.58 123.84C160.264 123.535 158.846 123.332 157.53 123.027Z" fill="url(#paint13_linear)"/>
<path d="M161.581 123.839L161.885 154.507C163.302 154.71 164.72 155.015 166.036 155.218L165.733 124.55C164.416 124.245 162.998 124.042 161.581 123.839Z" fill="url(#paint14_linear)"/>
<path d="M165.834 124.45L166.138 155.118C167.555 155.321 168.973 155.524 170.492 155.727L170.188 125.059C168.669 124.958 167.251 124.755 165.834 124.45Z" fill="url(#paint15_linear)"/>
<path d="M170.088 125.059L170.391 155.727C171.809 155.93 173.328 156.032 174.847 156.235L174.543 125.567C173.024 125.465 171.606 125.262 170.088 125.059Z" fill="url(#paint16_linear)"/>
<path d="M174.542 125.567L174.846 156.235C176.365 156.337 177.884 156.54 179.403 156.641L179.099 125.974C177.58 125.872 176.061 125.669 174.542 125.567Z" fill="url(#paint17_linear)"/>
<path d="M179.099 125.972L179.403 156.64C180.922 156.742 182.542 156.843 184.163 156.843L183.859 126.175C182.239 126.074 180.618 126.074 179.099 125.972Z" fill="url(#paint18_linear)"/>
<path d="M183.757 126.176L184.061 156.844C185.681 156.945 187.402 156.945 189.023 156.945L188.719 126.277C187.099 126.277 185.478 126.277 183.757 126.176Z" fill="url(#paint19_linear)"/>
<path d="M188.719 126.278L189.022 156.945C190.845 156.945 192.567 156.945 194.389 156.945L194.086 126.278C192.364 126.278 190.541 126.278 188.719 126.278Z" fill="url(#paint20_linear)"/>
<path d="M194.087 126.277L194.391 156.945C196.416 156.945 198.441 156.843 200.365 156.64L200.061 125.972C198.137 126.074 196.112 126.175 194.087 126.277Z" fill="url(#paint21_linear)"/>
<path d="M200.162 125.972L200.466 156.64C202.998 156.437 205.631 156.234 208.162 156.031L207.858 125.363C205.225 125.566 202.694 125.769 200.162 125.972Z" fill="url(#paint22_linear)"/>
<path d="M207.857 125.363L208.161 156.031C219.3 154.812 230.135 152.477 240.16 148.922L239.857 118.255C229.831 121.707 218.996 124.144 207.857 125.363Z" fill="url(#paint23_linear)"/>
<path d="M239.756 118.254L240.059 148.922C242.895 147.906 245.629 146.891 248.262 145.672L247.958 115.004C245.325 116.223 242.591 117.238 239.756 118.254Z" fill="url(#paint24_linear)"/>
<path d="M248.06 115.006L248.364 145.674C250.389 144.76 252.414 143.846 254.44 142.83L254.136 112.162C252.111 113.178 250.085 114.092 248.06 115.006Z" fill="url(#paint25_linear)"/>
<path d="M254.035 112.162L254.339 142.829C255.757 142.119 257.174 141.306 258.491 140.595C258.693 140.494 258.997 140.291 259.2 140.189L258.896 109.521C258.693 109.623 258.39 109.826 258.187 109.927C256.871 110.638 255.453 111.451 254.035 112.162Z" fill="url(#paint26_linear)"/>
<path d="M258.895 109.523L259.199 140.19C260.616 139.378 261.933 138.566 263.148 137.652L262.844 106.984C261.629 107.796 260.313 108.609 258.895 109.523Z" fill="url(#paint27_linear)"/>
<path d="M262.946 106.983L263.25 137.651C264.364 136.838 265.579 136.127 266.592 135.315L266.288 104.647C265.174 105.46 264.06 106.17 262.946 106.983Z" fill="url(#paint28_linear)"/>
<path d="M266.288 104.647L266.592 135.315C267.605 134.503 268.617 133.792 269.529 132.979L269.225 102.312C268.313 103.022 267.301 103.835 266.288 104.647Z" fill="url(#paint29_linear)"/>
<path d="M269.224 102.311L269.528 132.979C270.44 132.268 271.25 131.456 272.161 130.745L271.857 100.077C270.946 100.788 270.136 101.499 269.224 102.311Z" fill="url(#paint30_linear)"/>
<path d="M271.856 99.9753L272.16 130.643C272.97 129.932 273.78 129.12 274.489 128.409L274.185 97.7412C273.375 98.5536 272.666 99.2645 271.856 99.9753Z" fill="url(#paint31_linear)"/>
<path d="M274.186 97.7412L274.49 128.409C275.199 127.698 275.908 126.886 276.617 126.175L276.313 95.5071C275.604 96.2179 274.895 97.0303 274.186 97.7412Z" fill="url(#paint32_linear)"/>
<path d="M276.211 95.5083L276.515 126.176C277.122 125.465 277.831 124.653 278.337 123.942L278.034 93.2742C277.527 93.985 276.92 94.6959 276.211 95.5083Z" fill="url(#paint33_linear)"/>
<path d="M278.135 93.1718L278.439 123.84C279.046 123.027 279.553 122.316 280.16 121.504L279.857 90.8362C279.249 91.6486 278.743 92.461 278.135 93.1718Z" fill="url(#paint34_linear)"/>
<path d="M279.756 90.9377L280.06 121.606C280.566 120.793 281.072 120.082 281.579 119.27L281.275 88.6021C280.87 89.3129 280.363 90.1253 279.756 90.9377Z" fill="url(#paint35_linear)"/>
<path d="M281.274 88.6025L281.578 119.27C282.084 118.458 282.489 117.646 282.895 116.833L282.591 86.1653C282.186 86.9777 281.781 87.7901 281.274 88.6025Z" fill="url(#paint36_linear)"/>
<path d="M282.692 86.1647L282.996 116.833C283.401 116.02 283.806 115.208 284.211 114.294L283.907 83.626C283.502 84.4384 283.097 85.3523 282.692 86.1647Z" fill="url(#paint37_linear)"/>
<path d="M283.806 83.6269L284.11 114.396C284.515 113.482 284.819 112.67 285.123 111.756L284.819 81.0881C284.515 81.9005 284.211 82.8145 283.806 83.6269Z" fill="url(#paint38_linear)"/>
<path d="M284.82 80.9867L285.123 111.756C285.427 110.842 285.731 109.928 285.934 109.014L285.63 78.3464C285.427 79.2604 285.123 80.0728 284.82 80.9867Z" fill="url(#paint39_linear)"/>
<path d="M285.629 78.3465L285.933 109.014C286.136 107.999 286.338 107.085 286.541 106.069L286.237 75.4016C286.034 76.3156 285.832 77.331 285.629 78.3465Z" fill="url(#paint40_linear)"/>
<path d="M286.236 75.401L286.54 106.069C286.743 105.053 286.844 103.936 286.945 102.921L286.54 72.2529C286.54 73.2684 286.439 74.2839 286.236 75.401Z" fill="url(#paint41_linear)"/>
<path d="M286.54 72.2529L286.844 102.921C286.945 102.21 286.945 101.499 286.945 100.788L286.642 70.1204C286.642 70.7297 286.642 71.4405 286.54 72.2529Z" fill="url(#paint42_linear)"/>
<path d="M122.593 30.7193C84.8211 52.5524 84.6186 87.9931 122.187 109.826C159.756 131.659 220.717 131.659 258.387 109.826C296.058 87.9931 296.26 52.6539 258.792 30.7193C221.325 8.78468 160.263 8.88623 122.593 30.7193Z" fill="white"/>
<path d="M218.895 27.21C204.49 23.657 188.729 22.6418 173.316 24.3012C157.516 26.0192 143.17 30.4312 131.79 37.0883C124.248 41.5003 118.413 46.6542 114.458 52.3937C110.639 57.938 108.719 63.7947 108.739 69.8076C108.777 75.8204 110.755 81.6771 114.652 87.2214C118.684 92.961 124.578 98.1148 132.158 102.527C139.758 106.939 148.598 110.355 158.466 112.698C167.985 114.943 178.027 116.095 188.322 116.095L188.225 99.13C174.809 99.13 162.169 96.0845 152.65 90.5402C143.131 84.9959 137.858 77.636 137.819 69.8076C137.78 61.9791 142.957 54.6192 152.417 49.0749C159.61 44.8581 168.702 42.0664 178.706 40.9732C188.477 39.919 198.481 40.5437 207.612 42.8083L218.895 27.21Z" fill="#7A77FF"/>
<path d="M244.001 37.088C236.731 32.8516 228.278 29.5329 218.895 27.2097L207.612 42.8275C213.544 44.2917 218.895 46.4001 223.509 49.0746C233.028 54.619 238.301 61.9789 238.34 69.8073H267.421C267.382 63.7944 265.404 57.9377 261.508 52.3934C257.475 46.6539 251.582 41.5 244.001 37.088Z" fill="#F6F6FC"/>
<path d="M204.064 48.2991C183.631 65.5372 183.126 65.342 180.277 69.3831C178.978 71.2377 179.792 73.3071 182.099 74.6346C182.855 75.0641 183.747 75.435 184.794 75.6693C189.02 76.6844 193.847 75.5131 195.573 73.0533C198.423 69.0122 197.802 68.9536 204.064 48.2991Z" fill="#727290"/>
<defs>
<linearGradient id="paint0_linear" x1="296.482" y1="113.518" x2="88.1752" y2="113.518" gradientUnits="userSpaceOnUse">
<stop stop-color="#E5E5F6"/>
<stop offset="1" stop-color="#C0C0EA"/>
</linearGradient>
<linearGradient id="paint1_linear" x1="296.481" y1="101.942" x2="88.1749" y2="101.942" gradientUnits="userSpaceOnUse">
<stop stop-color="#E5E5F6"/>
<stop offset="1" stop-color="#C0C0EA"/>
</linearGradient>
<linearGradient id="paint2_linear" x1="296.482" y1="119.958" x2="88.176" y2="119.958" gradientUnits="userSpaceOnUse">
<stop stop-color="#E5E5F6"/>
<stop offset="1" stop-color="#C0C0EA"/>
</linearGradient>
<linearGradient id="paint3_linear" x1="296.482" y1="123.476" x2="88.1753" y2="123.476" gradientUnits="userSpaceOnUse">
<stop stop-color="#E5E5F6"/>
<stop offset="1" stop-color="#C0C0EA"/>
</linearGradient>
<linearGradient id="paint4_linear" x1="296.481" y1="126.163" x2="88.1761" y2="126.163" gradientUnits="userSpaceOnUse">
<stop stop-color="#E5E5F6"/>
<stop offset="1" stop-color="#C0C0EA"/>
</linearGradient>
<linearGradient id="paint5_linear" x1="296.483" y1="128.39" x2="88.1749" y2="128.39" gradientUnits="userSpaceOnUse">
<stop stop-color="#E5E5F6"/>
<stop offset="1" stop-color="#C0C0EA"/>
</linearGradient>
<linearGradient id="paint6_linear" x1="296.483" y1="130.31" x2="88.1749" y2="130.31" gradientUnits="userSpaceOnUse">
<stop stop-color="#E5E5F6"/>
<stop offset="1" stop-color="#C0C0EA"/>
</linearGradient>
<linearGradient id="paint7_linear" x1="296.482" y1="131.97" x2="88.1761" y2="131.97" gradientUnits="userSpaceOnUse">
<stop stop-color="#E5E5F6"/>
<stop offset="1" stop-color="#C0C0EA"/>
</linearGradient>
<linearGradient id="paint8_linear" x1="296.481" y1="133.431" x2="88.1755" y2="133.431" gradientUnits="userSpaceOnUse">
<stop stop-color="#E5E5F6"/>
<stop offset="1" stop-color="#C0C0EA"/>
</linearGradient>
<linearGradient id="paint9_linear" x1="296.48" y1="134.743" x2="88.1746" y2="134.743" gradientUnits="userSpaceOnUse">
<stop stop-color="#E5E5F6"/>
<stop offset="1" stop-color="#C0C0EA"/>
</linearGradient>
<linearGradient id="paint10_linear" x1="296.48" y1="135.918" x2="88.1743" y2="135.918" gradientUnits="userSpaceOnUse">
<stop stop-color="#E5E5F6"/>
<stop offset="1" stop-color="#C0C0EA"/>
</linearGradient>
<linearGradient id="paint11_linear" x1="296.479" y1="136.974" x2="88.1754" y2="136.974" gradientUnits="userSpaceOnUse">
<stop stop-color="#E5E5F6"/>
<stop offset="1" stop-color="#C0C0EA"/>
</linearGradient>
<linearGradient id="paint12_linear" x1="296.481" y1="137.922" x2="88.1744" y2="137.922" gradientUnits="userSpaceOnUse">
<stop stop-color="#E5E5F6"/>
<stop offset="1" stop-color="#C0C0EA"/>
</linearGradient>
<linearGradient id="paint13_linear" x1="296.481" y1="138.762" x2="88.1751" y2="138.762" gradientUnits="userSpaceOnUse">
<stop stop-color="#E5E5F6"/>
<stop offset="1" stop-color="#C0C0EA"/>
</linearGradient>
<linearGradient id="paint14_linear" x1="296.482" y1="139.501" x2="88.175" y2="139.501" gradientUnits="userSpaceOnUse">
<stop stop-color="#E5E5F6"/>
<stop offset="1" stop-color="#C0C0EA"/>
</linearGradient>
<linearGradient id="paint15_linear" x1="296.482" y1="140.141" x2="88.1752" y2="140.141" gradientUnits="userSpaceOnUse">
<stop stop-color="#E5E5F6"/>
<stop offset="1" stop-color="#C0C0EA"/>
</linearGradient>
<linearGradient id="paint16_linear" x1="296.482" y1="140.673" x2="88.1759" y2="140.673" gradientUnits="userSpaceOnUse">
<stop stop-color="#E5E5F6"/>
<stop offset="1" stop-color="#C0C0EA"/>
</linearGradient>
<linearGradient id="paint17_linear" x1="296.482" y1="141.095" x2="88.1752" y2="141.095" gradientUnits="userSpaceOnUse">
<stop stop-color="#E5E5F6"/>
<stop offset="1" stop-color="#C0C0EA"/>
</linearGradient>
<linearGradient id="paint18_linear" x1="296.482" y1="141.398" x2="88.1755" y2="141.398" gradientUnits="userSpaceOnUse">
<stop stop-color="#E5E5F6"/>
<stop offset="1" stop-color="#C0C0EA"/>
</linearGradient>
<linearGradient id="paint19_linear" x1="296.481" y1="141.575" x2="88.1749" y2="141.575" gradientUnits="userSpaceOnUse">
<stop stop-color="#E5E5F6"/>
<stop offset="1" stop-color="#C0C0EA"/>
</linearGradient>
<linearGradient id="paint20_linear" x1="296.481" y1="141.609" x2="88.1746" y2="141.609" gradientUnits="userSpaceOnUse">
<stop stop-color="#E5E5F6"/>
<stop offset="1" stop-color="#C0C0EA"/>
</linearGradient>
<linearGradient id="paint21_linear" x1="296.482" y1="141.454" x2="88.1758" y2="141.454" gradientUnits="userSpaceOnUse">
<stop stop-color="#E5E5F6"/>
<stop offset="1" stop-color="#C0C0EA"/>
</linearGradient>
<linearGradient id="paint22_linear" x1="296.482" y1="140.999" x2="88.1752" y2="140.999" gradientUnits="userSpaceOnUse">
<stop stop-color="#E5E5F6"/>
<stop offset="1" stop-color="#C0C0EA"/>
</linearGradient>
<linearGradient id="paint23_linear" x1="296.481" y1="137.139" x2="88.1742" y2="137.139" gradientUnits="userSpaceOnUse">
<stop stop-color="#E5E5F6"/>
<stop offset="1" stop-color="#C0C0EA"/>
</linearGradient>
<linearGradient id="paint24_linear" x1="296.481" y1="131.993" x2="88.1746" y2="131.993" gradientUnits="userSpaceOnUse">
<stop stop-color="#E5E5F6"/>
<stop offset="1" stop-color="#C0C0EA"/>
</linearGradient>
<linearGradient id="paint25_linear" x1="296.482" y1="128.946" x2="88.1752" y2="128.946" gradientUnits="userSpaceOnUse">
<stop stop-color="#E5E5F6"/>
<stop offset="1" stop-color="#C0C0EA"/>
</linearGradient>
<linearGradient id="paint26_linear" x1="296.482" y1="126.165" x2="88.1757" y2="126.165" gradientUnits="userSpaceOnUse">
<stop stop-color="#E5E5F6"/>
<stop offset="1" stop-color="#C0C0EA"/>
</linearGradient>
<linearGradient id="paint27_linear" x1="296.481" y1="123.575" x2="88.1749" y2="123.575" gradientUnits="userSpaceOnUse">
<stop stop-color="#E5E5F6"/>
<stop offset="1" stop-color="#C0C0EA"/>
</linearGradient>
<linearGradient id="paint28_linear" x1="296.482" y1="121.144" x2="88.1758" y2="121.144" gradientUnits="userSpaceOnUse">
<stop stop-color="#E5E5F6"/>
<stop offset="1" stop-color="#C0C0EA"/>
</linearGradient>
<linearGradient id="paint29_linear" x1="296.482" y1="118.796" x2="88.1759" y2="118.796" gradientUnits="userSpaceOnUse">
<stop stop-color="#E5E5F6"/>
<stop offset="1" stop-color="#C0C0EA"/>
</linearGradient>
<linearGradient id="paint30_linear" x1="296.482" y1="116.495" x2="88.1757" y2="116.495" gradientUnits="userSpaceOnUse">
<stop stop-color="#E5E5F6"/>
<stop offset="1" stop-color="#C0C0EA"/>
</linearGradient>
<linearGradient id="paint31_linear" x1="296.481" y1="114.233" x2="88.1745" y2="114.233" gradientUnits="userSpaceOnUse">
<stop stop-color="#E5E5F6"/>
<stop offset="1" stop-color="#C0C0EA"/>
</linearGradient>
<linearGradient id="paint32_linear" x1="296.482" y1="111.973" x2="88.1755" y2="111.973" gradientUnits="userSpaceOnUse">
<stop stop-color="#E5E5F6"/>
<stop offset="1" stop-color="#C0C0EA"/>
</linearGradient>
<linearGradient id="paint33_linear" x1="296.481" y1="109.707" x2="88.1748" y2="109.707" gradientUnits="userSpaceOnUse">
<stop stop-color="#E5E5F6"/>
<stop offset="1" stop-color="#C0C0EA"/>
</linearGradient>
<linearGradient id="paint34_linear" x1="296.481" y1="107.417" x2="88.1751" y2="107.417" gradientUnits="userSpaceOnUse">
<stop stop-color="#E5E5F6"/>
<stop offset="1" stop-color="#C0C0EA"/>
</linearGradient>
<linearGradient id="paint35_linear" x1="296.482" y1="105.085" x2="88.1755" y2="105.085" gradientUnits="userSpaceOnUse">
<stop stop-color="#E5E5F6"/>
<stop offset="1" stop-color="#C0C0EA"/>
</linearGradient>
<linearGradient id="paint36_linear" x1="296.481" y1="102.697" x2="88.175" y2="102.697" gradientUnits="userSpaceOnUse">
<stop stop-color="#E5E5F6"/>
<stop offset="1" stop-color="#C0C0EA"/>
</linearGradient>
<linearGradient id="paint37_linear" x1="296.481" y1="100.241" x2="88.1748" y2="100.241" gradientUnits="userSpaceOnUse">
<stop stop-color="#E5E5F6"/>
<stop offset="1" stop-color="#C0C0EA"/>
</linearGradient>
<linearGradient id="paint38_linear" x1="296.482" y1="97.6854" x2="88.1753" y2="97.6854" gradientUnits="userSpaceOnUse">
<stop stop-color="#E5E5F6"/>
<stop offset="1" stop-color="#C0C0EA"/>
</linearGradient>
<linearGradient id="paint39_linear" x1="296.482" y1="95.0125" x2="88.1762" y2="95.0125" gradientUnits="userSpaceOnUse">
<stop stop-color="#E5E5F6"/>
<stop offset="1" stop-color="#C0C0EA"/>
</linearGradient>
<linearGradient id="paint40_linear" x1="296.482" y1="92.1934" x2="88.1757" y2="92.1934" gradientUnits="userSpaceOnUse">
<stop stop-color="#E5E5F6"/>
<stop offset="1" stop-color="#C0C0EA"/>
</linearGradient>
<linearGradient id="paint41_linear" x1="296.482" y1="89.1437" x2="88.1752" y2="89.1437" gradientUnits="userSpaceOnUse">
<stop stop-color="#E5E5F6"/>
<stop offset="1" stop-color="#C0C0EA"/>
</linearGradient>
<linearGradient id="paint42_linear" x1="296.482" y1="86.4778" x2="88.1752" y2="86.4778" gradientUnits="userSpaceOnUse">
<stop stop-color="#E5E5F6"/>
<stop offset="1" stop-color="#C0C0EA"/>
</linearGradient>
</defs>
</svg>
