<svg width="450" height="270" viewBox="0 0 450 270" fill="none" xmlns="http://www.w3.org/2000/svg">
<path d="M223.966 149.686L121.915 90.7424C117.887 88.4192 111.393 88.4192 107.386 90.7424L5.99264 149.686C1.98539 152.009 2.00594 155.771 6.03374 158.115L108.085 217.058C112.113 219.381 118.607 219.381 122.614 217.058L224.007 158.115C228.015 155.771 227.994 152.009 223.966 149.686Z" fill="#FF6492"/>
<path d="M88.7954 175.664C88.0737 175.236 87.2109 174.935 86.301 174.761L85.9088 178.343L82.7712 178.216L83.1634 174.634C81.9397 174.761 80.7788 175.109 79.8375 175.664C77.3745 177.122 77.3902 179.468 79.8689 180.91C82.3476 182.352 86.3637 182.352 88.8267 180.91C91.2898 179.468 91.2741 177.122 88.7954 175.664Z" fill="white"/>
<path d="M126.933 121.475L123.89 121.935L125.443 125.422L138.589 154.791L139.546 156.914L135.828 156.582L93.4391 152.73L85.6892 152.017L85.1715 156.597L83.1634 174.65L82.7712 178.232L85.9088 178.359L86.301 174.777L88.3091 156.724L88.5915 154.141L92.9685 154.537L135.358 158.388L143.782 159.165L141.633 154.331L128.486 124.962L126.933 121.475Z" fill="#FFC1D3"/>
<path d="M92.9683 154.537L88.5914 154.141L88.309 156.724C89.5327 156.597 90.6936 156.249 91.6349 155.694C92.231 155.361 92.6703 154.965 92.9683 154.537ZM91.6035 150.464C89.1248 149.021 85.1086 149.021 82.6456 150.464C80.1826 151.906 80.1983 154.252 82.677 155.71C83.3986 156.138 84.2615 156.439 85.1714 156.613L85.6891 152.033L93.439 152.73C93.2978 151.906 92.6859 151.098 91.6035 150.464Z" fill="white"/>
<path d="M138.589 154.791C138.087 154.949 137.601 155.171 137.177 155.425C136.597 155.773 136.142 156.169 135.844 156.582L139.546 156.914L138.589 154.791ZM146.135 155.425C144.896 154.695 143.264 154.331 141.633 154.347L143.798 159.181L135.373 158.42C135.514 159.244 136.126 160.053 137.209 160.687C139.687 162.129 143.703 162.129 146.166 160.687C148.629 159.213 148.614 156.867 146.135 155.425Z" fill="white"/>
<path d="M129.867 119.082C127.388 117.639 123.372 117.639 120.909 119.082C118.446 120.524 118.461 122.87 120.94 124.328C122.18 125.057 123.811 125.421 125.443 125.421L123.89 121.95L126.917 121.491L128.47 124.962C128.972 124.803 129.459 124.581 129.898 124.328C132.361 122.886 132.361 120.54 129.867 119.082Z" fill="white"/>
<ellipse cx="126" cy="121" rx="9" ry="5" fill="white"/>
<ellipse cx="142" cy="158" rx="9" ry="5" fill="white"/>
<ellipse cx="87" cy="152" rx="9" ry="5" fill="white"/>
<ellipse cx="84" cy="178" rx="9" ry="5" fill="white"/>
<path d="M443.966 196.686L341.915 137.742C337.887 135.419 331.393 135.419 327.386 137.742L225.993 196.686C221.985 199.009 222.006 202.771 226.034 205.115L328.085 264.058C332.113 266.381 338.607 266.381 342.614 264.058L444.007 205.115C448.015 202.771 447.994 199.009 443.966 196.686Z" fill="#7A77FF"/>
<path d="M388.529 210.201L388.647 210.319L388.529 210.201ZM344.53 124.219C340.379 121.847 337.177 139.636 329.705 135.248C314.881 126.709 314.999 167.625 314.999 167.625L315.118 167.506L388.647 210.082C388.647 210.082 383.547 178.298 376.313 174.148C370.621 170.827 365.402 174.622 359.235 171.064C348.206 164.897 352.001 128.607 344.53 124.219Z" fill="#CAC9FF"/>
<path d="M323.538 161.102C319.268 158.612 312.746 164.423 308.713 162.17C301.953 158.256 294.008 179.959 294.008 179.959L367.774 222.535L367.655 222.416C367.655 222.416 360.302 184.94 355.321 182.094C350.696 179.366 342.869 190.158 338.244 187.905C338.244 187.905 338.125 187.905 338.125 187.786C332.907 184.821 328.875 164.186 323.538 161.102Z" fill="#F3F3FB"/>
<path d="M344.885 235.699L344.766 235.58C344.766 235.817 344.766 235.817 344.885 235.699ZM330.061 187.786C322.708 183.517 322.47 200.713 315.236 196.443C309.069 192.886 306.697 206.643 300.412 202.966C294.245 199.408 289.619 174.978 283.453 171.42C277.76 168.218 271 193.123 271 193.123L271.119 193.004L344.648 235.461C344.411 232.971 339.311 193.123 330.061 187.786Z" fill="white"/>
<path d="M374.966 64.6856L272.915 5.74239C268.887 3.4192 262.393 3.4192 258.386 5.74239L156.993 64.6856C152.985 67.0088 153.006 70.7711 157.034 73.1149L259.085 132.058C263.113 134.381 269.607 134.381 273.614 132.058L375.007 73.1149C379.015 70.7711 378.994 67.0088 374.966 64.6856Z" fill="#F6F6FC"/>
<path d="M301.234 33.2318L301.119 49.7118L286.022 58.4703V41.9904L301.234 33.2318Z" fill="#C0C0EA"/>
<path d="M301.235 33.232L286.138 41.9906C274.728 35.4216 256.405 35.4216 245.111 41.9906C244.073 42.5668 243.267 43.143 242.46 43.8345L225.404 36.6893C241.538 23.7819 272.885 20.9008 295.242 30.2356C297.201 31.1576 299.391 32.1948 301.235 33.232Z" fill="#CAC9FF"/>
<path d="M286.022 41.9904V58.3551C274.613 51.7862 256.289 51.7862 244.995 58.3551C243.958 58.9313 243.151 59.5076 242.344 60.199V43.8343C243.151 43.2581 244.073 42.5666 244.995 41.9904C256.404 35.5367 274.728 35.5367 286.022 41.9904Z" fill="#C0C0EA"/>
<path d="M242.344 43.8343V60.199L225.288 53.1691L225.403 36.6891L242.344 43.8343Z" fill="#C0C0EA"/>
<path d="M290.862 45.6785V62.0432C289.595 60.7755 287.981 59.5078 286.022 58.3554V41.9907C287.981 43.1432 289.595 44.4108 290.862 45.6785Z" fill="#7A77FF"/>
<path d="M301.234 33.2318C304.807 35.3062 307.227 37.1501 309.647 39.6855L290.977 45.6782C289.71 44.4105 288.096 43.1428 286.137 41.9904L301.234 33.2318Z" fill="#7A77FF"/>
<path d="M309.647 39.6858L309.532 56.0505L290.862 62.1585V45.6785L309.647 39.6858Z" fill="#7A77FF"/>
<path d="M236.582 70.2257V53.861C236.582 50.2884 238.541 46.8311 242.345 43.8347V60.1995C238.541 63.1958 236.582 66.7684 236.582 70.2257Z" fill="white"/>
<path d="M294.665 53.9757V70.3404C294.665 67.4593 293.397 64.5782 290.977 62.0428V45.6781C293.397 48.3287 294.665 51.0946 294.665 53.9757Z" fill="#151446"/>
<path d="M315.87 55.8195L315.755 72.1843L294.55 71.2623V54.8976L315.87 55.8195Z" fill="#151446"/>
<path d="M309.647 39.6858C314.487 44.7565 316.562 49.9425 315.87 55.7048L294.55 54.8981C294.896 51.7865 293.628 48.5596 290.862 45.6785L309.647 39.6858Z" fill="#43436B"/>
<path d="M315.986 53.6304V69.9951C315.986 70.6866 315.986 71.378 315.871 72.0695V55.7048C315.871 55.0133 315.986 54.3218 315.986 53.6304Z" fill="#151446"/>
<path d="M236.582 70.2257V53.861C236.582 50.2884 238.541 46.8311 242.345 43.8347V60.1995C238.541 63.1958 236.582 66.7684 236.582 70.2257Z" fill="#C0C0EA"/>
<path d="M315.871 55.8195C314.488 67.4592 302.733 76.6788 284.063 80.8276L276.572 69.5336C280.145 68.7269 283.487 67.4592 286.253 65.8458C291.439 62.8494 294.205 58.9311 294.666 54.8976L315.871 55.8195Z" fill="#FF6492"/>
<path d="M315.87 55.8198V72.1845C314.487 83.8242 302.733 93.0438 284.063 97.1926V80.8278C302.733 76.6791 314.487 67.3443 315.87 55.8198Z" fill="#FF6492"/>
<path d="M284.063 80.8279L283.947 97.1926L276.457 85.8986V69.5339L284.063 80.8279Z" fill="#FF6492"/>
<path d="M215.723 69.7645V53.3998C215.723 56.9724 216.875 60.5449 219.295 64.1175C221.946 68.0358 225.864 71.3779 230.705 74.259C244.303 82.0957 265.047 85.092 284.063 80.828V97.1927C265.047 101.457 244.303 98.4604 230.705 90.6237C225.864 87.8579 221.946 84.4006 219.295 80.4822C216.875 76.9097 215.608 73.3371 215.723 69.7645Z" fill="white"/>
<path d="M242.344 43.8344C233.816 50.4033 234.854 59.7381 245.226 65.7308C253.754 70.5711 266.085 71.8388 276.457 69.4186L283.948 80.7126C264.932 84.9766 244.188 81.9803 230.59 74.1437C225.749 71.3778 221.831 67.9205 219.18 64.0021C212.842 54.5521 215.032 44.8716 225.288 36.574L242.344 43.8344Z" fill="white"/>
<path d="M315.87 55.8198V72.1845C314.487 83.8242 302.733 93.0438 284.063 97.1926V80.8278C302.733 76.6791 314.487 67.3443 315.87 55.8198Z" fill="#CF3A74"/>
<path d="M215.723 69.7645V53.3998C215.723 56.9724 216.875 60.5449 219.295 64.1175C221.946 68.0358 225.864 71.3779 230.705 74.259C244.303 82.0957 265.047 85.092 284.063 80.828V97.1927C265.047 101.457 244.303 98.4604 230.705 90.6237C225.864 87.8579 221.946 84.4006 219.295 80.4822C216.875 76.9097 215.608 73.3371 215.723 69.7645Z" fill="#DFDFF4"/>
<path d="M286.022 41.9904V58.3551C274.613 51.7862 256.289 51.7862 244.995 58.3551C243.958 58.9313 243.151 59.5076 242.344 60.199V43.8343C243.151 43.2581 244.073 42.5666 244.995 41.9904C256.404 35.5367 274.728 35.5367 286.022 41.9904Z" fill="#8E8CEC"/>
<path d="M290.862 45.6785V62.0432C289.595 60.7755 287.981 59.5078 286.022 58.3554V41.9907C287.981 43.1432 289.595 44.4108 290.862 45.6785Z" fill="#5C5AEA"/>
</svg>
