<svg width="114" height="36" viewBox="0 0 114 36" fill="none" xmlns="http://www.w3.org/2000/svg">
<path d="M31.2001 9.04865L15.603 0V6.26087L31.2001 15.2707L31.2001 9.04865Z" fill="#FF6492"/>
<path d="M31.2002 15.2707L26.521 18L15.6002 11.6757L9.36018 15.2757L4.68018 12.746L15.6031 6.26089L31.2002 15.2707Z" fill="#141446"/>
<path d="M9.36017 15.2757L4.68018 12.7459V18L9.36017 15.2757Z" fill="#A14474"/>
<path d="M0 26.9514L15.6 18L31.2 26.9514L15.6 36L0 26.9514Z" fill="#141446"/>
<path d="M31.2001 20.7392L15.6001 11.5784V18L31.2001 26.9514L31.2001 20.7392Z" fill="#FF6492"/>
<path d="M4.68 18V12.7459L15.6029 6.26087V0L0 9.04865V26.9514L15.6 18V11.5784L4.68 18Z" fill="#7A77FF"/>
<path d="M38 18.6112C38 15.1225 40.7622 12.408 44.2433 12.408C46.4767 12.408 48.2047 13.4985 49.2139 15.1696L47.4375 16.5748C46.6685 15.4843 45.6844 14.7573 44.2683 14.7573C42.1066 14.7573 40.5704 16.4537 40.5704 18.6095C40.5704 20.8141 42.1066 22.4852 44.2683 22.4852C45.661 22.4852 46.6452 21.7834 47.4375 20.6929L49.2139 22.0746C48.1814 23.7457 46.4517 24.8362 44.2433 24.8362C40.7622 24.8379 38 22.1234 38 18.6112Z" fill="white"/>
<path d="M51.3989 19.5805V12.6755H53.8959V19.774C53.8959 21.4452 55.0718 22.4869 56.5613 22.4869C58.0025 22.4869 59.155 21.4452 59.155 19.774V12.6755H61.677V19.5805C61.677 22.8033 59.4436 24.8379 56.563 24.8379C53.6324 24.8379 51.3989 22.8033 51.3989 19.5805Z" fill="white"/>
<path d="M76.9739 18.6347C76.9739 22.1722 74.5486 24.8379 71.211 24.8379C69.4813 24.8379 67.9684 24.1361 67.0811 22.9244V24.572H64.7275V6.39999H67.2495V14.1296C68.1386 13.0391 69.5547 12.4096 71.1876 12.4096C74.5486 12.408 76.9739 15.0972 76.9739 18.6347ZM74.3802 18.6112C74.3802 16.3089 72.7956 14.7354 70.7773 14.7354C69.0009 14.7354 67.2228 15.9471 67.2228 18.6364C67.2228 21.3492 69.0243 22.5121 70.7773 22.5121C72.8189 22.5121 74.3802 20.9134 74.3802 18.6112Z" fill="white"/>
<path d="M90.0128 19.4593H81.2242C81.5611 21.4216 83.0489 22.5845 85.0655 22.5845C86.435 22.5845 87.5141 22.051 88.4999 21.1793L89.7009 22.9244C88.4515 24.1109 86.867 24.8379 84.9938 24.8379C81.3443 24.8379 78.6538 22.1486 78.6538 18.6347C78.6538 15.146 81.3192 12.408 84.7536 12.408C87.8994 12.408 90.2046 14.7337 90.2046 17.8589C90.2046 18.5135 90.0845 19.1446 90.0128 19.4593ZM81.2725 17.4718H87.6843C87.6359 15.6055 86.2682 14.5638 84.6586 14.5638C83.0006 14.5654 81.6562 15.7031 81.2725 17.4718Z" fill="white"/>
<path d="M92.2695 22.9715C92.2695 21.881 93.1102 21.0816 94.166 21.0816C95.1985 21.0816 96.0158 21.881 96.0158 22.9715C96.0158 24.0621 95.2002 24.8379 94.166 24.8379C93.1102 24.8379 92.2695 24.0621 92.2695 22.9715Z" fill="white"/>
<path d="M97 28.9812V26.8254C97.3836 26.8742 97.6722 26.8978 98.0325 26.8978C99.4486 26.8978 100.289 26.3896 100.289 24.8379V12.6756H102.811V25.0567C102.811 27.9395 101.107 29.2 98.6329 29.2C97.9374 29.1983 97.432 29.126 97 28.9812ZM99.8339 8.24111C99.8339 7.297 100.603 6.54474 101.564 6.54474C102.499 6.54474 103.268 7.29531 103.268 8.24111C103.268 9.18522 102.499 9.91223 101.564 9.91223C100.603 9.91391 99.8339 9.1869 99.8339 8.24111Z" fill="white"/>
<path d="M104.876 22.5356L106.317 20.9369C107.253 21.9298 108.287 22.6333 109.631 22.6333C110.664 22.6333 111.528 22.1974 111.528 21.3004C111.528 20.5246 110.832 20.2099 109.872 19.8228L108.671 19.3146C106.774 18.5152 105.597 17.6434 105.597 15.8495C105.597 13.6449 107.421 12.4096 109.752 12.4096C111.456 12.4096 112.849 13.0643 113.833 14.2507L112.464 15.8259C111.72 15.0501 110.734 14.6142 109.701 14.6142C108.766 14.6142 108.092 14.9777 108.092 15.7535C108.092 16.3829 108.572 16.6976 109.653 17.1588L110.782 17.6199C112.919 18.5169 114 19.461 114 21.2061C114 23.6043 111.983 24.8395 109.63 24.8395C107.541 24.8379 105.885 23.8685 104.876 22.5356Z" fill="white"/>
</svg>
