<svg viewBox="0 0 22 26" fill="none" xmlns="http://www.w3.org/2000/svg">
    <path d="M22.533 6.535L11.27 0v4.522l11.264 6.507V6.535z" fill="#FF6492"/>
    <path d="M22.533 11.029L19.154 13l-7.887-4.567-4.507 2.6-3.38-1.827 7.889-4.684 11.264 6.507z" fill="#141446"/>
    <path d="M6.76 11.033L3.38 9.206V13l3.38-1.967z" fill="#A14474"/>
    <path d="M0 19.465L11.267 13l11.266 6.465L11.267 26 0 19.465z" fill="#141446"/>
    <path d="M22.533 14.978L11.267 8.362V13l11.266 6.465v-4.487z" fill="#FF6492"/>
    <path d="M3.38 13V9.205l7.889-4.683V0L0 6.535v12.93L11.267 13V8.362L3.38 13z" fill="#7A77FF"/>
</svg>