<svg width="50" height="50" viewBox="0 0 50 50" version="1.1" xmlns="http://www.w3.org/2000/svg" xmlns:xlink="http://www.w3.org/1999/xlink">
<title>Group 8</title>
<desc>Created using Figma</desc>
<g id="Canvas" transform="translate(6208 2071)">
<rect x="-6208" y="-2071" width="50" height="50" fill="#31334D"/>
<clipPath id="clip-0" clip-rule="evenodd">
<path d="M -6738 -2379L -5375 -2379L -5375 -1553L -6738 -1553L -6738 -2379Z" fill="#FFFFFF"/>
</clipPath>
<g id="Main" clip-path="url(#clip-0)">
<path d="M -6738 -2379L -5375 -2379L -5375 -1553L -6738 -1553L -6738 -2379Z" fill="#FFFFFF"/>
<g id="Component 2">
<g id="Rectangle 74">
<use xlink:href="#path0_fill" transform="translate(-6228 -2106)" fill="#FFFFFF"/>
<mask id="mask0_outline_ins">
<use xlink:href="#path0_fill" fill="white" transform="translate(-6228 -2106)"/>
</mask>
<g mask="url(#mask0_outline_ins)">
<use xlink:href="#path1_stroke_2x" transform="translate(-6228 -2106)" fill="#ECECF0"/>
</g>
</g>
</g>
<g id="Group 8">
<clipPath id="clip-1" clip-rule="evenodd">
<path d="M -6208 -2071L -6158 -2071L -6158 -2021L -6208 -2021L -6208 -2071Z" fill="#FFFFFF"/>
</clipPath>
<g id="Frame" clip-path="url(#clip-1)">
<path d="M -6208 -2071L -6158 -2071L -6158 -2021L -6208 -2021L -6208 -2071Z" fill="#FFFFFF"/>
</g>
<g id="Group 2">
<g id="Vector">
<use xlink:href="#path2_fill" transform="matrix(0.705999 -0.708213 0.705999 0.708213 -6189.26 -2044.59)" fill="#31334D"/>
<use xlink:href="#path3_stroke" transform="matrix(0.705999 -0.708213 0.705999 0.708213 -6189.26 -2044.59)" fill="#31334D"/>
</g>
<g id="Group" opacity="0.7">
<g id="Vector 2">
<use xlink:href="#path4_stroke" transform="translate(-6186.06 -2061)" fill="#6F76D9"/>
</g>
<g id="Vector 2.3">
<use xlink:href="#path5_stroke" transform="matrix(6.1041e-17 1 -1 6.14243e-17 -6196.24 -2050.02)" fill="#6F76D9"/>
</g>
<g id="Vector 2.5">
<use xlink:href="#path6_stroke" transform="matrix(-0.705999 0.708213 -0.705999 -0.708213 -6191.84 -2055.83)" fill="#6F76D9"/>
</g>
<g id="Vector 2.6">
<use xlink:href="#path6_stroke" transform="matrix(0.705999 0.708213 -0.705999 0.708213 -6178.32 -2057.78)" fill="#6F76D9"/>
</g>
<g id="Vector 2.7">
<use xlink:href="#path6_stroke" transform="matrix(0.705999 0.708213 -0.705999 0.708213 -6191.84 -2044.22)" fill="#6F76D9"/>
</g>
</g>
</g>
</g>
</g>
</g>
<defs>
<path id="path0_fill" d="M 0 4C 0 1.79086 1.79086 0 4 0L 330 0C 332.209 0 334 1.79086 334 4L 334 116C 334 118.209 332.209 120 330 120L 4 120C 1.79086 120 0 118.209 0 116L 0 4Z"/>
<path id="path1_stroke_2x" d="M 4 1L 330 1L 330 -1L 4 -1L 4 1ZM 333 4L 333 116L 335 116L 335 4L 333 4ZM 330 119L 4 119L 4 121L 330 121L 330 119ZM 1 116L 1 4L -1 4L -1 116L 1 116ZM 4 119C 2.34315 119 1 117.657 1 116L -1 116C -1 118.761 1.23858 121 4 121L 4 119ZM 333 116C 333 117.657 331.657 119 330 119L 330 121C 332.761 121 335 118.761 335 116L 333 116ZM 330 1C 331.657 1 333 2.34315 333 4L 335 4C 335 1.23858 332.761 -1 330 -1L 330 1ZM 4 -1C 1.23858 -1 -1 1.23858 -1 4L 1 4C 1 2.34315 2.34315 1 4 1L 4 -1Z"/>
<path id="path2_fill" d="M 0 13.8478L 6.18081 0L 12.3528 13.8478L 6.17638 12.0721L 0 13.8478Z"/>
<path id="path3_stroke" d="M 6.18081 0L 8.10165 -0.856118C 7.76373 -1.6143 7.01145 -2.10277 6.18137 -2.10299C 5.3513 -2.10321 4.59875 -1.61514 4.26043 -0.857142L 6.18081 0ZM 0 13.8478L -1.92038 12.9907C -2.25375 13.7375 -2.12383 14.61 -1.5873 15.2273C -1.05078 15.8446 -0.204991 16.0949 0.581072 15.8689L 0 13.8478ZM 4.07339 23.4212C 4.07339 24.5826 5.01493 25.5242 6.17638 25.5242C 7.33783 25.5242 8.27937 24.5826 8.27937 23.4212L 4.07339 23.4212ZM 12.3528 13.8478L 11.7717 15.8689C 12.5576 16.0949 13.4031 15.8448 13.9397 15.2277C 14.4763 14.6107 14.6065 13.7386 14.2736 12.9917L 12.3528 13.8478ZM 4.26043 -0.857142L -1.92038 12.9907L 1.92038 14.7049L 8.10119 0.857142L 4.26043 -0.857142ZM 4.07782 -0.000771187L 4.07339 12.0713L 8.27937 12.0729L 8.2838 0.000771187L 4.07782 -0.000771187ZM 4.07339 12.0721L 4.07339 23.4212L 8.27937 23.4212L 8.27937 12.0721L 4.07339 12.0721ZM 0.581072 15.8689L 6.75746 14.0932L 5.59531 10.051L -0.581072 11.8267L 0.581072 15.8689ZM 14.2736 12.9917L 8.10165 -0.856118L 4.25997 0.856118L 10.4319 14.7039L 14.2736 12.9917ZM 5.59531 14.0932L 11.7717 15.8689L 12.9338 11.8267L 6.75746 10.051L 5.59531 14.0932Z"/>
<path id="path4_stroke" d="M 2.10298 0C 2.10298 -1.16145 1.16145 -2.10298 0 -2.10298C -1.16145 -2.10298 -2.10298 -1.16145 -2.10298 0L 2.10298 0ZM -2.10298 0.77C -2.10298 1.93145 -1.16145 2.87298 0 2.87298C 1.16145 2.87298 2.10298 1.93145 2.10298 0.77L -2.10298 0.77ZM -2.10298 0L -2.10298 0.77L 2.10298 0.77L 2.10298 0L -2.10298 0Z"/>
<path id="path5_stroke" d="M 2.10298 0C 2.10298 -1.16145 1.16145 -2.10298 0 -2.10298C -1.16145 -2.10298 -2.10298 -1.16145 -2.10298 0L 2.10298 0ZM -2.10298 0.76C -2.10298 1.92145 -1.16145 2.86298 0 2.86298C 1.16145 2.86298 2.10298 1.92145 2.10298 0.76L -2.10298 0.76ZM -2.10298 0L -2.10298 0.76L 2.10298 0.76L 2.10298 0L -2.10298 0Z"/>
<path id="path6_stroke" d="M 2.10299 0C 2.10299 -1.16145 1.16145 -2.10299 0 -2.10299C -1.16145 -2.10299 -2.10299 -1.16145 -2.10299 0L 2.10299 0ZM -2.10299 2.76643C -2.10299 3.92788 -1.16145 4.86942 0 4.86942C 1.16145 4.86942 2.10299 3.92788 2.10299 2.76643L -2.10299 2.76643ZM -2.10299 0L -2.10299 2.76643L 2.10299 2.76643L 2.10299 0L -2.10299 0Z"/>
</defs>
</svg>
