<svg width="98" height="29" viewBox="0 0 98 29" fill="none" xmlns="http://www.w3.org/2000/svg">
<path d="M26.1334 8.03784L14.0023 1V5.86957L26.1334 12.8772L26.1334 8.03784Z" fill="#FF6492"/>
<path d="M26.1334 12.8767L22.494 14.9996L14 10.0807L9.14671 12.8807L5.50671 10.9131L14.0023 5.86914L26.1334 12.8767Z" fill="#141446"/>
<path d="M9.14671 12.8807L5.50671 10.9131V14.9996L9.14671 12.8807Z" fill="#A14474"/>
<path d="M1.8667 21.9622L14 15L26.1334 21.9622L14 29L1.8667 21.9622Z" fill="#141446"/>
<path d="M26.1333 17.1309L14 10.0059V15.0005L26.1333 21.9626L26.1333 17.1309Z" fill="#FF6492"/>
<path d="M5.5067 15V10.9135L14.0023 5.86956V1L1.8667 8.03784V21.9622L14 15V10.0054L5.5067 15Z" fill="#7A77FF"/>
<path d="M52.874 17.0312C52.8741 19.0475 54.2953 20.3047 56.0957 20.3047C57.8376 20.3047 59.2304 19.0475 59.2305 17.0312V8.46582H62.2793V16.7979C62.2792 20.6862 59.5794 23.1406 56.0977 23.1406C52.5554 23.1406 49.8556 20.6862 49.8555 16.7979V8.46582H52.874V17.0312ZM69.0146 10.2207C70.0893 8.9049 71.8016 8.14551 73.7754 8.14551C77.8379 8.14355 80.7695 11.3881 80.7695 15.6562C80.7695 19.9244 77.8379 23.1405 73.8037 23.1406C71.713 23.1406 69.8841 22.294 68.8115 20.832V22.8203H65.9668V0.893555H69.0146V10.2207ZM90.1729 8.14355C93.9752 8.14365 96.7617 10.95 96.7617 14.7207C96.7617 15.5104 96.616 16.2717 96.5293 16.6514H85.9062C86.3135 19.019 88.1123 20.4219 90.5498 20.4219C92.205 20.4218 93.5097 19.7784 94.7012 18.7266L96.1523 20.832C94.6422 22.2636 92.727 23.1406 90.4629 23.1406C86.0516 23.1406 82.7998 19.896 82.7998 15.6562C82.7999 11.447 86.0216 8.14355 90.1729 8.14355ZM41.2061 8.14355C43.9057 8.14355 45.9951 9.45924 47.2148 11.4756L45.0674 13.1709C44.1379 11.8551 42.948 10.9775 41.2363 10.9775C38.6236 10.9777 36.7666 13.0249 36.7666 15.626C36.7666 18.2858 38.6236 20.3026 41.2363 20.3027C42.9198 20.3027 44.1097 19.4555 45.0674 18.1396L47.2148 19.8066C45.9668 21.823 43.8754 23.1387 41.2061 23.1387C36.9985 23.1405 33.6602 19.8656 33.6602 15.6279C33.6602 11.4187 36.9985 8.14376 41.2061 8.14355ZM73.2793 10.9512C71.1321 10.9512 68.9824 12.4134 68.9824 15.6582C68.9824 18.9315 71.1603 20.335 73.2793 20.335C75.747 20.3349 77.6337 18.4056 77.6338 15.6279C77.6338 12.8501 75.7188 10.9512 73.2793 10.9512ZM90.0576 10.7441C88.0537 10.7462 86.4286 12.119 85.9648 14.2529H93.7148C93.6562 12.0012 92.0031 10.7441 90.0576 10.7441Z" fill="#141446"/>
</svg>
