<svg width="1244" height="40" viewBox="0 0 1244 40" fill="none" xmlns="http://www.w3.org/2000/svg">
<rect x="523" width="40" height="40" rx="2" fill="#43436B" fill-opacity="0.05"/>
<rect x="576" width="40" height="40" rx="2" fill="#43436B" fill-opacity="0.05"/>
<rect x="628" width="40" height="40" rx="2" fill="#43436B" fill-opacity="0.05"/>
<rect x="681" width="40" height="40" rx="2" fill="#43436B" fill-opacity="0.05"/>
<rect x="733" width="40" height="40" rx="2" fill="#43436B" fill-opacity="0.05"/>
<rect x="785" width="40" height="40" rx="2" fill="#43436B" fill-opacity="0.05"/>
<rect x="838" width="40" height="40" rx="2" fill="#43436B" fill-opacity="0.05"/>
<rect x="890" width="40" height="40" rx="2" fill="#43436B" fill-opacity="0.05"/>
<rect x="942" width="40" height="40" rx="2" fill="#43436B" fill-opacity="0.05"/>
<rect x="995" width="40" height="40" rx="2" fill="#43436B" fill-opacity="0.05"/>
<rect x="1047" width="40" height="40" rx="2" fill="#43436B" fill-opacity="0.05"/>
<rect x="1099" width="40" height="40" rx="2" fill="#43436B" fill-opacity="0.05"/>
<rect x="1152" width="40" height="40" rx="2" fill="#43436B" fill-opacity="0.05"/>
<rect width="40" height="40" rx="2" fill="#43436B" fill-opacity="0.05"/>
<rect x="52" width="40" height="40" rx="2" fill="#43436B" fill-opacity="0.05"/>
<rect x="105" width="40" height="40" rx="2" fill="#43436B" fill-opacity="0.05"/>
<rect x="157" width="40" height="40" rx="2" fill="#43436B" fill-opacity="0.05"/>
<rect x="209" width="40" height="40" rx="2" fill="#43436B" fill-opacity="0.05"/>
<rect x="262" width="40" height="40" rx="2" fill="#43436B" fill-opacity="0.05"/>
<rect x="314" width="40" height="40" rx="2" fill="#43436B" fill-opacity="0.05"/>
<rect x="366" width="40" height="40" rx="2" fill="#43436B" fill-opacity="0.05"/>
<rect x="419" width="40" height="40" rx="2" fill="#43436B" fill-opacity="0.05"/>
<rect x="471" width="40" height="40" rx="2" fill="#43436B" fill-opacity="0.05"/>
<rect x="1204" width="40" height="40" rx="2" fill="#43436B" fill-opacity="0.05"/>
</svg>
