<svg width="89" height="28" viewBox="0 0 89 28" fill="none" xmlns="http://www.w3.org/2000/svg">
<path d="M23.9418 7L11.9731 0V4.84338L23.9418 11.8133L23.9418 7Z" fill="#FF6492"/>
<path d="M23.9417 11.8133L20.3512 13.9247L11.9709 9.03226L7.18256 11.8172L3.59131 9.86021L11.9731 4.84338L23.9417 11.8133Z" fill="#141446"/>
<path d="M7.18256 11.8172L3.59131 9.86023V13.9247L7.18256 11.8172Z" fill="#A14474"/>
<path d="M0 20.8495L11.9708 13.9248L23.9417 20.8495L11.9708 27.8495L0 20.8495Z" fill="#141446"/>
<path d="M23.9418 16.0438L11.9709 8.95703V13.9248L23.9418 20.8495L23.9418 16.0438Z" fill="#FF6492"/>
<path d="M3.59126 13.9247V9.86021L11.9731 4.84338V0L0 7V20.8495L11.9708 13.9247V8.95699L3.59126 13.9247Z" fill="#7A77FF"/>
<path d="M29.4783 14.4008C29.4783 11.7058 31.6101 9.60889 34.2969 9.60889C36.0206 9.60889 37.3543 10.4513 38.1332 11.7422L36.7621 12.8278C36.1687 11.9854 35.4091 11.4237 34.3162 11.4237C32.6477 11.4237 31.4621 12.7342 31.4621 14.3995C31.4621 16.1026 32.6477 17.3935 34.3162 17.3935C35.3911 17.3935 36.1506 16.8514 36.7621 16.009L38.1332 17.0763C37.3363 18.3672 36.0013 19.2097 34.2969 19.2097C31.6101 19.211 29.4783 17.114 29.4783 14.4008Z" fill="white"/>
<path d="M39.8196 15.1497V9.81567H41.7468V15.2992C41.7468 16.5902 42.6543 17.3949 43.804 17.3949C44.9162 17.3949 45.8058 16.5902 45.8058 15.2992V9.81567H47.7523V15.1497C47.7523 17.6393 46.0285 19.211 43.8052 19.211C41.5433 19.211 39.8196 17.6393 39.8196 15.1497Z" fill="white"/>
<path d="M59.5587 14.419C59.5587 17.1517 57.6869 19.211 55.1109 19.211C53.7759 19.211 52.6083 18.6689 51.9234 17.7328V19.0056H50.1069V4.96777H52.0534V10.9388C52.7396 10.0964 53.8325 9.61021 55.0929 9.61021C57.6869 9.60891 59.5587 11.6864 59.5587 14.419ZM57.5569 14.4008C57.5569 12.6224 56.3339 11.4069 54.7762 11.4069C53.4051 11.4069 52.0328 12.3429 52.0328 14.4203C52.0328 16.516 53.4232 17.4143 54.7762 17.4143C56.3519 17.4143 57.5569 16.1793 57.5569 14.4008Z" fill="white"/>
<path d="M69.6219 15.056H62.8388C63.0988 16.5719 64.2472 17.4702 65.8036 17.4702C66.8605 17.4702 67.6934 17.0581 68.4543 16.3847L69.3812 17.7328C68.4169 18.6493 67.1939 19.211 65.7482 19.211C62.9315 19.211 60.855 17.1335 60.855 14.419C60.855 11.724 62.9122 9.60889 65.5628 9.60889C67.9908 9.60889 69.7699 11.4055 69.7699 13.8197C69.7699 14.3254 69.6772 14.8129 69.6219 15.056ZM62.8761 13.5207H67.8247C67.7874 12.079 66.7318 11.2742 65.4895 11.2742C64.2098 11.2755 63.1722 12.1544 62.8761 13.5207Z" fill="white"/>
<path d="M71.3638 17.7693C71.3638 16.9268 72.0126 16.3093 72.8275 16.3093C73.6244 16.3093 74.2552 16.9268 74.2552 17.7693C74.2552 18.6117 73.6257 19.211 72.8275 19.211C72.0126 19.211 71.3638 18.6117 71.3638 17.7693Z" fill="white"/>
<path d="M75.0146 22.4116V20.7462C75.3107 20.7839 75.5335 20.8021 75.8115 20.8021C76.9045 20.8021 77.5533 20.4095 77.5533 19.2109V9.8155H79.4998V19.3799C79.4998 21.6068 78.1841 22.5806 76.275 22.5806C75.7381 22.5793 75.3481 22.5234 75.0146 22.4116ZM77.2019 6.38991C77.2019 5.66058 77.7953 5.07947 78.5369 5.07947C79.2591 5.07947 79.8525 5.65928 79.8525 6.38991C79.8525 7.11923 79.2591 7.68084 78.5369 7.68084C77.7953 7.68214 77.2019 7.12053 77.2019 6.38991Z" fill="white"/>
<path d="M81.0935 17.4326L82.2058 16.1975C82.928 16.9645 83.7261 17.508 84.7637 17.508C85.5606 17.508 86.2275 17.1712 86.2275 16.4783C86.2275 15.879 85.6907 15.6359 84.9491 15.3369L84.0222 14.9443C82.5585 14.3268 81.6496 13.6533 81.6496 12.2675C81.6496 10.5645 83.058 9.61023 84.8564 9.61023C86.1721 9.61023 87.2471 10.1159 88.0066 11.0325L86.9497 12.2493C86.3755 11.65 85.6147 11.3133 84.8178 11.3133C84.0956 11.3133 83.5755 11.5941 83.5755 12.1934C83.5755 12.6796 83.9463 12.9227 84.7805 13.2789L85.652 13.6351C87.3011 14.3281 88.1353 15.0574 88.1353 16.4055C88.1353 18.2581 86.5789 19.2123 84.7625 19.2123C83.1507 19.211 81.8724 18.4622 81.0935 17.4326Z" fill="white"/>
</svg>
