<svg width="360" height="420" viewBox="0 0 360 420" fill="none" xmlns="http://www.w3.org/2000/svg">
<path d="M355.124 304.53L191.114 209.8C184.64 206.067 174.204 206.067 167.764 209.8L4.80959 304.53C-1.63062 308.264 -1.5976 314.311 4.87565 318.077L168.887 412.808C175.36 416.541 185.796 416.541 192.236 412.808L355.19 318.077C361.631 314.311 361.598 308.264 355.124 304.53Z" fill="#F6F6FC"/>
<path d="M262.598 258.529L232.867 275.799L202.945 258.529L232.677 241.26L262.598 258.529Z" fill="white"/>
<path d="M262.599 258.53L262.494 292.9L232.783 310.17L232.868 275.799L262.599 258.53Z" fill="#E2E1F7"/>
<path d="M232.867 275.799L232.783 310.17L202.861 292.9L202.946 258.53L232.867 275.799Z" fill="#F3F3FB"/>
<path d="M262.747 224.158L233.015 241.428L203.093 224.158L232.825 206.868L262.747 224.158Z" fill="white"/>
<path d="M262.747 224.158L262.641 258.529L232.909 275.799L233.015 241.428L262.747 224.158Z" fill="#E2E1F7"/>
<path d="M233.015 241.428L232.91 275.799L203.009 258.529L203.093 224.158L233.015 241.428Z" fill="#F3F3FB"/>
<path d="M232.91 172.497L203.199 189.767L173.278 172.497L203.01 155.227L232.91 172.497Z" fill="white"/>
<path d="M232.91 172.497L232.826 206.868L203.094 224.158L203.199 189.767L232.91 172.497Z" fill="#E2E1F7"/>
<path d="M203.199 189.767L203.093 224.158L173.172 206.889L173.277 172.497L203.199 189.767Z" fill="#F3F3FB"/>
<path d="M262.831 189.767L233.121 207.036L203.199 189.767L232.91 172.497L262.831 189.767Z" fill="white"/>
<path d="M262.832 189.767L262.747 224.159L233.015 241.428L233.121 207.036L262.832 189.767Z" fill="#E2E1F7"/>
<path d="M233.121 207.036L233.015 241.428L203.094 224.159L203.199 189.767L233.121 207.036Z" fill="#F3F3FB"/>
<path d="M202.947 258.53L173.236 275.799L143.314 258.53L173.046 241.26L202.947 258.53Z" fill="white"/>
<path d="M202.946 258.53L202.861 292.9L173.129 310.191L173.235 275.799L202.946 258.53Z" fill="#C0C0EA"/>
<path d="M173.235 275.799L173.13 310.191L143.208 292.9L143.313 258.53L173.235 275.799Z" fill="#F3F3FB"/>
<path d="M203.093 224.158L173.383 241.428L143.461 224.158L173.172 206.889L203.093 224.158Z" fill="white"/>
<path d="M203.094 224.158L203.009 258.529L173.277 275.799L173.383 241.428L203.094 224.158Z" fill="#C0C0EA"/>
<path d="M173.382 241.428L173.277 275.799L143.355 258.529L143.461 224.158L173.382 241.428Z" fill="#F3F3FB"/>
<path d="M203.198 189.767L173.467 207.057L143.545 189.767L173.277 172.497L203.198 189.767Z" fill="white"/>
<path d="M203.199 189.766L203.094 224.158L173.383 241.428L173.467 207.057L203.199 189.766Z" fill="#C0C0EA"/>
<path d="M173.467 207.057L173.383 241.428L143.461 224.158L143.546 189.766L173.467 207.057Z" fill="#F3F3FB"/>
<path d="M173.234 275.799L143.502 293.069L113.581 275.799L143.313 258.529L173.234 275.799Z" fill="white"/>
<path d="M173.235 275.799L173.129 310.191L143.397 327.461L143.503 293.069L173.235 275.799Z" fill="#C0C0EA"/>
<path d="M143.503 293.069L143.398 327.461L113.497 310.191L113.581 275.799L143.503 293.069Z" fill="#F3F3FB"/>
<path d="M173.382 241.428L143.65 258.698L113.729 241.428L143.46 224.158L173.382 241.428Z" fill="white"/>
<path d="M173.383 241.428L173.277 275.799L143.546 293.069L143.651 258.698L173.383 241.428Z" fill="#C0C0EA"/>
<path d="M143.651 258.698L143.545 293.069L113.645 275.799L113.729 241.428L143.651 258.698Z" fill="#F3F3FB"/>
<path d="M143.503 293.069L113.772 310.36L83.8711 293.069L113.582 275.799L143.503 293.069Z" fill="white"/>
<path d="M143.503 293.069L143.398 327.461L113.687 344.731L113.772 310.36L143.503 293.069Z" fill="#C0C0EA"/>
<path d="M113.771 310.36L113.687 344.731L83.7654 327.461L83.8708 293.069L113.771 310.36Z" fill="#F3F3FB"/>
<path d="M232.868 275.799L203.157 293.069L173.235 275.799L202.946 258.529L232.868 275.799Z" fill="white"/>
<path d="M232.867 275.799L232.783 310.17L203.051 327.461L203.156 293.069L232.867 275.799Z" fill="#E2E1F7"/>
<path d="M203.156 293.069L203.051 327.461L173.129 310.191L173.235 275.799L203.156 293.069Z" fill="#F3F3FB"/>
<path d="M233.015 241.428L203.284 258.698L173.383 241.428L203.094 224.158L233.015 241.428Z" fill="white"/>
<path d="M233.015 241.428L232.91 275.799L203.199 293.069L203.284 258.698L233.015 241.428Z" fill="#E2E1F7"/>
<path d="M203.283 258.698L203.199 293.069L173.277 275.799L173.383 241.428L203.283 258.698Z" fill="#F3F3FB"/>
<path d="M233.12 207.036L203.388 224.327L173.466 207.058L203.198 189.767L233.12 207.036Z" fill="white"/>
<path d="M233.12 207.036L233.015 241.428L203.283 258.698L203.388 224.327L233.12 207.036Z" fill="#E2E1F7"/>
<path d="M203.389 224.327L203.283 258.698L173.383 241.428L173.467 207.057L203.389 224.327Z" fill="#F3F3FB"/>
<path d="M203.157 293.069L173.426 310.36L143.504 293.069L173.236 275.799L203.157 293.069Z" fill="white"/>
<path d="M203.157 293.069L203.052 327.461L173.32 344.731L173.425 310.36L203.157 293.069Z" fill="#E2E1F7"/>
<path d="M173.425 310.36L173.32 344.731L143.398 327.461L143.503 293.069L173.425 310.36Z" fill="#F3F3FB"/>
<path d="M203.283 258.698L173.572 275.968L143.651 258.698L173.382 241.428L203.283 258.698Z" fill="white"/>
<path d="M203.283 258.698L203.199 293.069L173.467 310.36L173.573 275.968L203.283 258.698Z" fill="#E2E1F7"/>
<path d="M173.572 275.968L173.467 310.36L143.545 293.069L143.651 258.698L173.572 275.968Z" fill="#F3F3FB"/>
<path d="M173.425 310.359L143.694 327.629L113.772 310.359L143.504 293.069L173.425 310.359Z" fill="white"/>
<path d="M173.425 310.359L173.32 344.73L143.609 362L143.693 327.629L173.425 310.359Z" fill="#E2E1F7"/>
<path d="M143.693 327.629L143.609 362L113.687 344.73L113.772 310.359L143.693 327.629Z" fill="#F3F3FB"/>
<path d="M155.712 300.09L126.002 317.36L96.0801 300.09L125.791 282.821L155.712 300.09Z" fill="#FFDFE8"/>
<path d="M126.001 317.36L125.896 351.731L95.9744 334.462L96.0798 300.091L126.001 317.36Z" fill="#FF6492"/>
<path d="M185.548 248.429L155.817 265.72L125.895 248.429L155.627 231.159L185.548 248.429Z" fill="#FFDFE8"/>
<path d="M155.817 265.72L155.712 300.091L125.812 282.821L125.896 248.429L155.817 265.72Z" fill="#FF6492"/>
<path d="M185.592 214.184L185.486 248.555L155.586 231.285L155.67 196.894L185.592 214.184Z" fill="#FF6492"/>
<path d="M208.534 183.525L164.548 183.082L172.012 187.405L155.67 196.894L185.592 214.185L201.934 204.675L209.419 208.997L208.534 183.525Z" fill="#FFDFE8"/>
<path d="M209.763 112.51C207.885 113.596 206.34 112.719 206.299 110.548L206.257 97.7745C206.257 95.6038 207.801 92.9321 209.68 91.8468C211.6 90.7614 213.103 91.6381 213.145 93.8088L213.187 106.583C213.187 108.753 211.684 111.425 209.763 112.51ZM230.218 100.697C228.34 101.782 226.795 100.905 226.754 98.7347L226.712 79.2399C226.712 77.0691 228.256 74.3975 230.135 73.3121C232.055 72.2267 233.558 73.1034 233.6 75.2741L233.641 94.7689C233.683 96.9396 232.139 99.6113 230.218 100.697ZM178.163 130.753C176.242 131.838 174.74 130.962 174.698 128.791L174.614 100.196C174.614 98.025 176.159 95.3533 178.037 94.268C179.916 93.1826 181.46 94.0592 181.502 96.23L181.586 124.825C181.627 126.996 180.083 129.668 178.163 130.753ZM198.659 118.939C196.739 120.024 195.236 119.148 195.195 116.977L195.069 78.3215C195.069 76.1507 196.614 73.4791 198.492 72.3937C200.371 71.3083 201.915 72.185 201.957 74.3557L202.082 113.011C202.082 115.182 200.538 117.812 198.659 118.939ZM241.364 94.268C239.486 95.3533 237.941 94.4767 237.899 92.306L237.774 50.269C237.774 48.0983 239.319 45.4266 241.197 44.3412C243.076 43.2559 244.62 44.1325 244.662 46.3032L244.787 88.3402C244.787 90.5109 243.243 93.1826 241.364 94.268ZM167.059 137.182C165.138 138.267 163.635 137.39 163.594 135.22L163.427 82.2037C163.427 80.033 164.971 77.3614 166.85 76.276C168.728 75.1906 170.273 76.0673 170.315 78.238L170.482 131.254C170.482 133.425 168.979 136.054 167.059 137.182ZM257.519 5.81082L150.444 67.5931C147.23 69.4716 144.6 73.98 144.6 77.6953L144.85 161.394C144.85 165.109 147.48 166.612 150.736 164.733L195.821 138.684L195.111 136.138L213.353 125.618L212.686 128.958L257.77 102.909C260.984 101.031 263.614 96.5222 263.614 92.8069L263.364 9.10865C263.364 5.43511 260.734 3.9323 257.519 5.81082Z" fill="#7A77FF"/>
<path d="M213.354 125.618L195.153 136.138L195.821 138.685L204.378 169.492L212.686 128.958L213.354 125.618Z" fill="#7A77FF"/>
<path d="M166.892 76.2761C164.972 77.3614 163.469 80.0331 163.469 82.2038L163.636 135.22C163.636 137.39 165.18 138.267 167.101 137.182C168.979 136.096 170.524 133.425 170.524 131.254L170.357 78.2381C170.357 76.0256 168.812 75.149 166.892 76.2761Z" fill="#F3F3FB"/>
<path d="M178.079 94.268C176.159 95.3534 174.656 98.0251 174.656 100.196L174.74 128.791C174.74 130.962 176.284 131.838 178.204 130.753C180.083 129.668 181.627 126.996 181.627 124.825L181.544 96.23C181.502 94.0593 179.958 93.1827 178.079 94.268Z" fill="white"/>
<path d="M198.534 72.3519C196.614 73.4373 195.111 76.1089 195.111 78.2797L195.236 116.935C195.236 119.106 196.781 119.983 198.701 118.897C200.58 117.812 202.124 115.14 202.124 112.97L201.999 74.3139C201.957 72.1432 200.413 71.2665 198.534 72.3519Z" fill="#F3F3FB"/>
<path d="M209.722 91.8049C207.843 92.8903 206.299 95.5619 206.299 97.7327L206.34 110.507C206.34 112.677 207.885 113.554 209.805 112.469C211.725 111.383 213.228 108.712 213.228 106.541L213.186 93.7669C213.145 91.5962 211.6 90.7195 209.722 91.8049Z" fill="white"/>
<path d="M230.176 73.2705C228.298 74.3558 226.753 77.0275 226.753 79.1982L226.795 98.693C226.795 100.864 228.34 101.74 230.26 100.655C232.18 99.5697 233.683 96.898 233.683 94.7273L233.641 75.2325C233.6 73.0618 232.055 72.1851 230.176 73.2705Z" fill="#F3F3FB"/>
<path d="M241.197 44.3412C239.319 45.4265 237.774 48.0982 237.774 50.2689L237.899 92.3059C237.899 94.4766 239.444 95.3533 241.364 94.2679C243.284 93.1825 244.787 90.5109 244.787 88.3401L244.662 46.3032C244.662 44.1324 243.118 43.2558 241.197 44.3412Z" fill="white"/>
</svg>
