<svg width="231" height="29" fill="none" xmlns="http://www.w3.org/2000/svg">
  <path d="M26.1801 8.0378 14.0273 1v4.8696l12.1528 7.0076V8.0378Z" fill="#FF6492"/>
  <path d="m26.1791 12.8772-3.6458 2.1229-8.5092-4.919-4.862 2.8001-3.6465-1.9676 8.5108-5.044 12.1527 7.0076Z" fill="#141446"/>
  <path d="m9.1621 12.8811-3.6465-1.9675v4.0865l3.6465-2.119Z" fill="#A14474"/>
  <path d="M1.8691 21.9622 14.0241 15l12.1551 6.9622L14.0241 29l-12.155-7.0378Z" fill="#141446"/>
  <path d="m26.1804 17.1304-12.155-7.125V15l12.155 6.9621v-4.8317Z" fill="#FF6492"/>
  <path d="M5.5156 15v-4.0865l8.5108-5.044V1L1.8691 8.0378v13.9244L14.0241 15v-4.9946L5.5156 15Z" fill="#7A77FF"/>
  <path d="M119.149 15.0224c0-3.7152-2.765-6.48-6.538-6.48-4.118 0-7.315 3.2544-7.315 7.4016 0 4.176 3.226 7.3728 7.603 7.3728 2.247 0 4.147-.864 5.645-2.2752l-1.44-2.0736c-1.181 1.0368-2.477 1.6704-4.118 1.6704-2.42 0-4.205-1.3824-4.608-3.7152h10.54c.087-.3744.231-1.1232.231-1.9008Zm-6.653-3.9168c1.93 0 3.571 1.2384 3.629 3.456h-7.69c.461-2.1024 2.074-3.456 4.061-3.456ZM134.515 23l-5.27-7.3152 4.896-6.8256h-3.456l-3.14 4.6656-3.168-4.6656h-3.456l4.868 6.7968L120.547 23h3.456l3.514-5.184L131.059 23h3.456Zm7.773-14.4576c-2.39 0-4.493.9504-5.961 3.024l1.756 1.7856c1.124-1.3248 2.276-2.1024 3.917-2.1024 1.93 0 3.024 1.0656 3.024 3.024v.9216h-4.003c-3.168 0-5.213 1.5552-5.213 4.032 0 2.448 1.959 4.0896 4.925 4.0896 1.958 0 3.514-.6912 4.522-1.9008V23h2.822v-8.5536c0-3.9168-2.39-5.904-5.789-5.904Zm-.921 12.4416c-1.383 0-2.477-.6336-2.477-1.872 0-1.152.893-1.728 2.505-1.728h3.629v.2592c0 1.9296-1.67 3.3408-3.657 3.3408ZM168.27 8.5424c-2.074 0-3.773.9216-4.781 2.2176-.835-1.3536-2.275-2.2176-4.291-2.2176-1.7 0-3.111.6048-4.09 1.6416V8.8592h-2.822V23h3.024v-8.4096c0-1.9584 1.267-3.2832 3.11-3.2832 1.814 0 2.966 1.3248 2.966 3.2832V23h3.024v-8.5536c0-1.7856 1.268-3.1392 3.111-3.1392 1.843 0 2.937 1.3248 2.937 3.2832V23h3.053v-8.8416c0-3.312-1.901-5.616-5.241-5.616Zm17.188 0c-2.074 0-3.888.8352-4.925 2.304V8.8592h-2.822V28.184h3.024v-6.912c1.094 1.296 2.793 2.0448 4.723 2.0448 4.032 0 6.941-3.168 6.941-7.4016 0-4.2048-2.909-7.3728-6.941-7.3728Zm-.49 12.0096c-2.131 0-4.262-1.44-4.262-4.6368 0-3.2256 2.16-4.608 4.262-4.608 2.448 0 4.32 1.9008 4.32 4.6368 0 2.736-1.901 4.608-4.32 4.608ZM195.879 23h3.024V1.4h-3.024V23Zm20.357-7.9776c0-3.7152-2.765-6.48-6.537-6.48-4.119 0-7.316 3.2544-7.316 7.4016 0 4.176 3.226 7.3728 7.604 7.3728 2.246 0 4.147-.864 5.644-2.2752l-1.44-2.0736c-1.18 1.0368-2.476 1.6704-4.118 1.6704-2.419 0-4.205-1.3824-4.608-3.7152h10.541c.086-.3744.23-1.1232.23-1.9008Zm-6.653-3.9168c1.93 0 3.572 1.2384 3.629 3.456h-7.689c.46-2.1024 2.073-3.456 4.06-3.456Zm14.496 12.2112c2.822 0 5.241-1.4688 5.241-4.32 0-2.0736-1.296-3.1968-3.859-4.2624l-1.353-.5472c-1.296-.5472-1.872-.9216-1.872-1.6704 0-.9216.806-1.3536 1.929-1.3536 1.239 0 2.419.5184 3.312 1.44l1.642-1.872c-1.181-1.4112-2.851-2.1888-4.896-2.1888-2.794 0-4.983 1.4688-4.983 4.0896 0 2.1312 1.412 3.168 3.687 4.1184l1.44.6048c1.152.4608 1.987.8352 1.987 1.7568 0 1.0656-1.037 1.584-2.275 1.584-1.613 0-2.851-.8352-3.975-2.016l-1.728 1.9008c1.21 1.584 3.197 2.736 5.703 2.736Z" fill="#141446" fill-opacity=".3"/>
  <path d="M33.6602 15.6282c0-4.2094 3.3387-7.4847 7.5464-7.4847 2.6996 0 4.7883 1.3159 6.0081 3.3322l-2.1472 1.6955c-.9294-1.3158-2.119-2.193-3.8307-2.193-2.6129 0-4.4698 2.0468-4.4698 4.648 0 2.66 1.8569 4.6763 4.4698 4.6763 1.6835 0 2.873-.8467 3.8307-2.1625l2.1472 1.6671c-1.248 2.0163-3.3387 3.3321-6.0081 3.3321-4.2077.0021-7.5464-3.2732-7.5464-7.511ZM49.8555 16.7982V8.4668h3.0181v8.5649c0 2.0163 1.4214 3.2732 3.2218 3.2732 1.742 0 3.1352-1.2569 3.1352-3.2732V8.4668h3.0484v8.3314c0 3.8885-2.6997 6.3434-6.1815 6.3434-3.5424 0-6.242-2.4549-6.242-6.3434ZM80.7693 15.6567c0 4.2682-2.9314 7.4846-6.9657 7.4846-2.0908 0-3.9194-.8467-4.992-2.3087v1.9879h-2.8448V.8945h3.0484v9.3264c1.0746-1.3158 2.7863-2.0753 4.7601-2.0753 4.0626-.002 6.994 3.2429 6.994 7.5111Zm-3.1351-.0284c0-2.7778-1.9153-4.6764-4.3548-4.6764-2.1472 0-4.2964 1.462-4.2964 4.7068 0 3.2733 2.1774 4.6764 4.2964 4.6764 2.4677 0 4.3548-1.929 4.3548-4.7068ZM96.5308 16.6516H85.9077c.4072 2.3676 2.2056 3.7707 4.6432 3.7707 1.6552 0 2.9597-.6436 4.1512-1.6955l1.4516 2.1057c-1.5101 1.4316-3.4254 2.3088-5.6895 2.3088-4.4114 0-7.6634-3.2449-7.6634-7.4847 0-4.2093 3.2218-7.513 7.373-7.513 3.8025 0 6.5888 2.8062 6.5888 6.5769 0 .7899-.1451 1.5514-.2318 1.9311Zm-10.5647-2.3981h7.7501c-.0585-2.2519-1.7117-3.5088-3.6573-3.5088-2.004.002-3.629 1.3747-4.0928 3.5088Z" fill="#141446"/>
</svg>
