<svg width="25" height="21" viewBox="0 0 25 21" fill="none" xmlns="http://www.w3.org/2000/svg">
<path d="M21.7137 6.21504C21.7137 8.45402 21.1847 10.6158 20.1266 12.7003C19.0307 14.9007 17.4813 16.6764 15.5162 17.9889C13.3622 19.4559 10.8681 20.1893 8.07164 20.1893C5.38857 20.1893 2.93223 19.4559 0.702637 17.9889C1.04274 18.0275 1.42064 18.0275 1.83633 18.0275C4.06593 18.0275 6.06878 17.3327 7.8449 15.943C6.78679 15.943 5.84205 15.6342 5.04846 14.9779C4.25488 14.3217 3.68803 13.5496 3.38571 12.5845C3.68803 12.6231 3.99035 12.6231 4.25488 12.6231C4.67056 12.6231 5.12404 12.5845 5.53973 12.4687C4.44383 12.2371 3.53687 11.6581 2.78107 10.7316C2.02528 9.80512 1.68517 8.80144 1.68517 7.64335V7.56615C2.36539 7.95218 3.08339 8.18379 3.83919 8.2224C3.19676 7.75916 2.66771 7.18012 2.28981 6.44666C1.91191 5.71321 1.60959 4.94115 1.60959 4.09188C1.60959 3.24262 1.83633 2.43196 2.28981 1.62129C3.46129 3.16541 4.93509 4.3621 6.67342 5.24997C8.41175 6.13784 10.2257 6.63968 12.1907 6.75549C12.1151 6.36946 12.1151 6.02203 12.1151 5.636C12.1151 4.74813 12.3419 3.93747 12.7576 3.16541C13.1733 2.39335 13.7779 1.81431 14.4959 1.35107C15.2139 0.887839 16.0075 0.694824 16.8767 0.694824C17.5947 0.694824 18.2371 0.849236 18.8039 1.11946C19.3708 1.38968 19.9376 1.77571 20.3911 2.23894C21.487 2.00732 22.5073 1.62129 23.4521 1.08085C23.0742 2.23894 22.394 3.12681 21.3359 3.78306C22.2428 3.66725 23.1498 3.39703 24.0945 2.9724C23.4143 3.97607 22.6207 4.82534 21.676 5.55879C21.676 5.75181 21.7137 5.94482 21.7137 6.21504Z" fill="white"/>
</svg>
