<svg width="30" height="29" viewBox="0 0 30 29" fill="none" xmlns="http://www.w3.org/2000/svg">
<path d="M14.801 0C17.5513 0 20.0844 0.644887 22.4367 1.89883C24.7889 3.15278 26.5983 4.9083 27.9373 7.09375C29.3124 9.38668 30 11.8588 30 14.5816C30 17.8777 29.0591 20.8513 27.1773 23.4667C25.2955 26.0821 22.8709 27.8734 19.8311 28.8766C19.5054 28.9482 19.2521 28.9124 19.0712 28.7691C18.8902 28.6258 18.7817 28.4108 18.7817 28.1601V23.1443C18.7817 21.8545 18.456 20.9588 17.7684 20.3856C19.2521 20.2423 20.3739 20.0273 21.0977 19.7765C22.2195 19.3824 23.0881 18.7734 23.7033 17.9852C24.3908 16.9462 24.7165 15.5131 24.7165 13.7218C24.7165 12.9694 24.5718 12.2887 24.2823 11.7513C24.0651 11.3572 23.7033 10.8556 23.1242 10.2465C23.269 9.85244 23.3776 9.35086 23.4138 8.81345C23.4499 7.91778 23.3052 7.05793 22.9795 6.16225C22.6538 6.0906 22.0748 6.19808 21.351 6.48469C20.8806 6.69966 20.3016 6.95045 19.6502 7.30872L18.854 7.84612C17.5875 7.48785 16.3209 7.30872 15.0181 7.30872C13.7153 7.30872 12.4487 7.48785 11.2545 7.84612L10.4584 7.30872C9.807 6.95045 9.22799 6.66383 8.72135 6.48469C7.99759 6.19808 7.45476 6.12642 7.09288 6.2339C6.731 7.12958 6.58625 7.98943 6.65862 8.88511C6.65862 9.45834 6.731 9.88826 6.91194 10.2465C6.4415 10.8556 6.07961 11.393 5.86249 11.8946C5.64536 12.3962 5.53679 13.0052 5.53679 13.7934C5.53679 15.5848 5.86248 16.982 6.51387 17.9852C7.09288 18.8092 7.92521 19.4541 9.04704 19.8482C9.77081 20.099 10.8565 20.2781 12.304 20.4572C11.7973 20.923 11.4717 21.6037 11.3269 22.4994C10.6393 22.8218 9.98794 22.9293 9.33655 22.8577C8.28709 22.786 7.49095 22.2486 6.91194 21.2454C6.65863 20.8155 6.33293 20.4572 5.93486 20.1706C5.64536 20.0273 5.35585 19.884 5.03016 19.7407L4.5959 19.669C4.16164 19.669 3.90832 19.7407 3.90832 19.884C3.87214 20.0273 3.9807 20.1706 4.19783 20.3498L4.48733 20.6005C4.77684 20.7439 5.06635 21.0305 5.31966 21.3887C5.57298 21.6754 5.75392 21.9978 5.93486 22.3561L6.18818 22.8218C6.40531 23.4309 6.76719 23.8966 7.3462 24.1833C7.81665 24.4699 8.43185 24.649 9.08323 24.7207C9.55368 24.7565 10.0603 24.7565 10.6031 24.649L11.2545 24.5773L11.3269 28.2317C11.3269 28.4825 11.2183 28.6616 11.0374 28.8408C10.8565 28.9841 10.6031 29.0557 10.2774 28.9482C7.20145 27.9451 4.74065 26.1537 2.82268 23.5384C0.940893 20.8872 0 17.9135 0 14.6174C0 11.8946 0.651387 9.42251 1.91797 7.20124C3.22075 4.97996 4.99397 3.22443 7.23764 1.93466C9.51749 0.644887 12.0507 0 14.801 0ZM5.2111 20.1706C5.28347 20.099 5.39204 20.0631 5.5006 20.1348C5.60917 20.2065 5.64536 20.2781 5.60917 20.3856C5.57298 20.4931 5.46442 20.4931 5.31966 20.4214C5.17491 20.3498 5.17491 20.2423 5.2111 20.1706ZM5.86249 20.6722C5.93486 20.6005 6.04343 20.6005 6.15199 20.7439C6.26055 20.8513 6.29674 20.9588 6.22437 21.0305C6.15199 21.1021 6.04343 21.1021 5.93486 20.9588C5.79011 20.8513 5.79011 20.7439 5.86249 20.6722ZM6.47768 21.4246C6.55006 21.3887 6.62244 21.3887 6.69481 21.3887C6.76719 21.4246 6.80338 21.4604 6.83957 21.5321C6.94813 21.6754 6.94813 21.8187 6.83957 21.8903C6.80338 21.9261 6.731 21.9261 6.69481 21.8903C6.65863 21.8545 6.55006 21.8187 6.47768 21.7828C6.40531 21.6037 6.40531 21.4604 6.47768 21.4246ZM7.20145 22.2844C7.23764 22.2486 7.31001 22.2486 7.38239 22.2486C7.45476 22.2844 7.52714 22.3202 7.59952 22.3561C7.67189 22.4277 7.70808 22.4994 7.70808 22.571C7.74427 22.6427 7.70808 22.7143 7.67189 22.7502C7.56333 22.8577 7.41858 22.8577 7.23764 22.6785C7.16526 22.6069 7.12907 22.5352 7.12907 22.4277C7.12907 22.3202 7.16526 22.3202 7.20145 22.2844ZM8.17853 23.0368C8.21472 22.8935 8.32328 22.8218 8.54041 22.8935C8.75754 22.9651 8.82992 23.0368 8.82992 23.1443C8.79373 23.2517 8.75754 23.3234 8.68516 23.3592C8.61279 23.3951 8.54041 23.3951 8.43185 23.3592C8.32328 23.3234 8.28709 23.2518 8.21472 23.2159C8.14234 23.1443 8.14234 23.1084 8.17853 23.0368ZM10.0241 23.2876C10.0241 23.2517 9.98794 23.2159 9.91556 23.1801C9.84318 23.1443 9.77081 23.1084 9.62606 23.1084C9.40893 23.1084 9.33655 23.1801 9.33655 23.3592C9.33655 23.5025 9.44512 23.5742 9.66224 23.5742C9.91556 23.5384 10.0241 23.4667 10.0241 23.2876ZM10.8203 22.9293C11.0374 22.9293 11.146 23.001 11.146 23.1084C11.1821 23.2159 11.0736 23.3234 10.8565 23.3951C10.7841 23.3951 10.7117 23.3951 10.6393 23.3592C10.5669 23.3234 10.5308 23.2517 10.5308 23.1443C10.5308 23.0368 10.6393 22.9651 10.8203 22.9293Z" fill="#727290"/>
</svg>
