<svg width="158" height="50" viewBox="0 0 158 50" fill="none" xmlns="http://www.w3.org/2000/svg">
<path d="M42.753 12.5L21.3805 0V8.6489L42.753 21.0952L42.753 12.5Z" fill="#FF6492"/>
<path d="M42.753 21.0952L36.3413 24.8656L21.3765 16.1291L12.8259 21.1022L6.41296 17.6075L21.3805 8.64893L42.753 21.0952Z" fill="#141446"/>
<path d="M12.8259 21.1022L6.41296 17.6076V24.8656L12.8259 21.1022Z" fill="#A14474"/>
<path d="M0 37.2312L21.3765 24.8656L42.753 37.2312L21.3765 49.7312L0 37.2312Z" fill="#141446"/>
<path d="M42.753 28.6496L21.3765 15.9947V24.8657L42.753 37.2313L42.753 28.6496Z" fill="#FF6492"/>
<path d="M6.41296 24.8656V17.6075L21.3805 8.6489V0L0 12.5V37.2312L21.3765 24.8656V15.9946L6.41296 24.8656Z" fill="#7A77FF"/>
<path d="M52.6396 25.7158C52.6396 20.9034 56.4465 17.1588 61.2443 17.1588C64.3224 17.1588 66.704 18.6631 68.0948 20.9684L65.6466 22.9068C64.5868 21.4025 63.2305 20.3996 61.2787 20.3996C58.2994 20.3996 56.1822 22.7397 56.1822 25.7135C56.1822 28.7547 58.2994 31.0599 61.2787 31.0599C63.1983 31.0599 64.5546 30.0918 65.6466 28.5875L68.0948 30.4935C66.6718 32.7987 64.2879 34.303 61.2443 34.303C56.4465 34.3053 52.6396 30.5608 52.6396 25.7158Z" fill="#141446"/>
<path d="M71.1063 27.0529V17.5278H74.5477V27.3199C74.5477 29.6251 76.1684 31.0622 78.2213 31.0622C80.2075 31.0622 81.796 29.6251 81.796 27.3199V17.5278H85.2719V27.0529C85.2719 31.4986 82.1937 34.3053 78.2236 34.3053C74.1845 34.3053 71.1063 31.4986 71.1063 27.0529Z" fill="#141446"/>
<path d="M106.355 25.7482C106.355 30.628 103.012 34.3053 98.4121 34.3053C96.0282 34.3053 93.9431 33.3372 92.7201 31.6657V33.9385H89.4764V8.87097H92.9523V19.5336C94.1776 18.0293 96.1293 17.161 98.3799 17.161C103.012 17.1587 106.355 20.8685 106.355 25.7482ZM102.78 25.7157C102.78 22.5399 100.596 20.3693 97.8144 20.3693C95.3661 20.3693 92.9155 22.0408 92.9155 25.7506C92.9155 29.4928 95.3983 31.097 97.8144 31.097C100.628 31.097 102.78 28.8915 102.78 25.7157Z" fill="#141446"/>
<path d="M124.325 26.8858H112.212C112.676 29.5927 114.727 31.1969 117.506 31.1969C119.394 31.1969 120.881 30.461 122.24 29.2584L123.895 31.6658C122.173 33.3025 119.989 34.3053 117.408 34.3053C112.378 34.3053 108.67 30.5956 108.67 25.7483C108.67 20.9359 112.343 17.1588 117.076 17.1588C121.412 17.1588 124.589 20.3671 124.589 24.6781C124.589 25.5812 124.424 26.4517 124.325 26.8858ZM112.279 24.1442H121.116C121.049 21.5696 119.164 20.1326 116.945 20.1326C114.66 20.1349 112.807 21.7043 112.279 24.1442Z" fill="#141446"/>
<path d="M127.435 31.7307C127.435 30.2264 128.594 29.1237 130.049 29.1237C131.472 29.1237 132.598 30.2264 132.598 31.7307C132.598 33.2351 131.474 34.3053 130.049 34.3053C128.594 34.3053 127.435 33.2351 127.435 31.7307Z" fill="#141446"/>
<path d="M133.955 40.0207V37.0469C134.483 37.1142 134.881 37.1467 135.378 37.1467C137.329 37.1467 138.488 36.4456 138.488 34.3052V17.5277H141.964V34.607C141.964 38.5837 139.614 40.3225 136.205 40.3225C135.247 40.3202 134.55 40.2203 133.955 40.0207ZM137.86 11.4106C137.86 10.1082 138.92 9.07053 140.244 9.07053C141.534 9.07053 142.594 10.1059 142.594 11.4106C142.594 12.713 141.534 13.7158 140.244 13.7158C138.92 13.7182 137.86 12.7153 137.86 11.4106Z" fill="#141446"/>
<path d="M144.81 31.1295L146.796 28.9241C148.086 30.2938 149.511 31.2642 151.364 31.2642C152.787 31.2642 153.978 30.6629 153.978 29.4256C153.978 28.3554 153.019 27.9212 151.695 27.3873L150.04 26.6862C147.426 25.5835 145.803 24.381 145.803 21.9062C145.803 18.8651 148.318 17.1611 151.529 17.1611C153.879 17.1611 155.798 18.0642 157.155 19.7008L155.267 21.8737C154.242 20.8035 152.883 20.2023 151.46 20.2023C150.171 20.2023 149.242 20.7037 149.242 21.7739C149.242 22.6422 149.904 23.0763 151.394 23.7124L152.95 24.3485C155.895 25.5858 157.385 26.8882 157.385 29.2956C157.385 32.6037 154.605 34.3077 151.362 34.3077C148.483 34.3053 146.201 32.9682 144.81 31.1295Z" fill="#141446"/>
</svg>
