<svg width="24" height="24" viewBox="0 0 24 24" fill="none" xmlns="http://www.w3.org/2000/svg">
<path d="M5.0423 15.1662C5.0423 16.5538 3.90876 17.6873 2.52115 17.6873C1.13354 17.6873 0 16.5538 0 15.1662C0 13.7786 1.13354 12.645 2.52115 12.645H5.0423V15.1662Z" fill="#E01E5A"/>
<path d="M6.3125 15.1662C6.3125 13.7786 7.44604 12.645 8.83365 12.645C10.2213 12.645 11.3548 13.7786 11.3548 15.1662V21.4788C11.3548 22.8665 10.2213 24 8.83365 24C7.44604 24 6.3125 22.8665 6.3125 21.4788V15.1662Z" fill="#E01E5A"/>
<path d="M8.83365 5.0423C7.44604 5.0423 6.3125 3.90876 6.3125 2.52115C6.3125 1.13354 7.44604 0 8.83365 0C10.2213 0 11.3548 1.13354 11.3548 2.52115V5.0423H8.83365Z" fill="#36C5F0"/>
<path d="M8.83383 6.3125C10.2214 6.3125 11.355 7.44604 11.355 8.83365C11.355 10.2213 10.2214 11.3548 8.83383 11.3548H2.52116C1.13354 11.3548 0 10.2213 0 8.83365C0 7.44604 1.13354 6.3125 2.52116 6.3125H8.83383Z" fill="#36C5F0"/>
<path d="M18.9575 8.83365C18.9575 7.44604 20.0911 6.3125 21.4787 6.3125C22.8663 6.3125 23.9998 7.44604 23.9998 8.83365C23.9998 10.2213 22.8663 11.3548 21.4787 11.3548H18.9575V8.83365Z" fill="#2EB67D"/>
<path d="M17.6873 8.83383C17.6873 10.2214 16.5538 11.355 15.1662 11.355C13.7786 11.355 12.645 10.2214 12.645 8.83383V2.52116C12.645 1.13354 13.7786 0 15.1662 0C16.5538 0 17.6873 1.13354 17.6873 2.52116V8.83383Z" fill="#2EB67D"/>
<path d="M15.1662 18.9575C16.5538 18.9575 17.6873 20.0911 17.6873 21.4787C17.6873 22.8663 16.5538 23.9998 15.1662 23.9998C13.7786 23.9998 12.645 22.8663 12.645 21.4787V18.9575H15.1662Z" fill="#ECB22E"/>
<path d="M15.1662 17.6873C13.7786 17.6873 12.645 16.5538 12.645 15.1662C12.645 13.7786 13.7786 12.645 15.1662 12.645H21.4788C22.8665 12.645 24 13.7786 24 15.1662C24 16.5538 22.8665 17.6873 21.4788 17.6873H15.1662Z" fill="#ECB22E"/>
</svg>
