<svg width="93" height="92" viewBox="0 0 93 92" fill="none" xmlns="http://www.w3.org/2000/svg">
<path d="M19.8042 21.0001C19.5443 20.9968 19.2867 21.0504 19.0497 21.1572C18.8127 21.2639 18.6019 21.4213 18.4321 21.6182C18.2624 21.8151 18.1378 22.0468 18.0671 22.297C17.9964 22.5472 17.9814 22.8098 18.023 23.0664L25.5844 68.9694C25.6786 69.5311 25.9677 70.0417 26.401 70.4114C26.8343 70.7812 27.3839 70.9864 27.9535 70.9911H64.2288C64.6557 70.9966 65.0705 70.8486 65.3974 70.5739C65.7244 70.2993 65.9418 69.9164 66.01 69.4949L73.5893 23.0842C73.6309 22.8276 73.6159 22.565 73.5452 22.3148C73.4745 22.0646 73.3499 21.8329 73.1802 21.636C73.0104 21.4391 72.7996 21.2817 72.5626 21.175C72.3255 21.0682 72.068 21.0146 71.808 21.018L19.8042 21.0001ZM51.6442 54.1761H40.066L36.931 37.8063H54.4497L51.6442 54.1761Z" fill="#AFADFF"/>
<path d="M71.1668 37.8062H54.4497L51.6442 54.1759H40.066L26.3949 70.4121C26.8282 70.7868 27.3807 70.9951 27.9535 70.9999H64.2377C64.6647 71.0054 65.0794 70.8573 65.4063 70.5827C65.7333 70.3081 65.9507 69.9251 66.019 69.5036L71.1668 37.8062Z" fill="url(#paint0_linear_3201_14551)"/>
<defs>
<linearGradient id="paint0_linear_3201_14551" x1="75.0321" y1="42.384" x2="47.4048" y2="63.955" gradientUnits="userSpaceOnUse">
<stop offset="0.18" stop-color="#7A77FF"/>
<stop offset="1" stop-color="#AFADFF"/>
</linearGradient>
</defs>
</svg>
