<svg width="25" height="25" viewBox="0 0 25 25" fill="none" xmlns="http://www.w3.org/2000/svg">
<path d="M7.57128 12.9771H11.6427V17.0485C11.6427 17.1663 11.7391 17.2628 11.857 17.2628H13.1427C13.2606 17.2628 13.357 17.1663 13.357 17.0485V12.9771H17.4284C17.5463 12.9771 17.6427 12.8806 17.6427 12.7628V11.4771C17.6427 11.3592 17.5463 11.2628 17.4284 11.2628H13.357V7.19134C13.357 7.07348 13.2606 6.97705 13.1427 6.97705H11.857C11.7391 6.97705 11.6427 7.07348 11.6427 7.19134V11.2628H7.57128C7.45342 11.2628 7.35699 11.3592 7.35699 11.4771V12.7628C7.35699 12.8806 7.45342 12.9771 7.57128 12.9771Z" fill="#7A77FF"/>
<path d="M22.3576 1.40479H2.64334C2.16923 1.40479 1.78619 1.78782 1.78619 2.26193V21.9762C1.78619 22.4503 2.16923 22.8334 2.64334 22.8334H22.3576C22.8317 22.8334 23.2148 22.4503 23.2148 21.9762V2.26193C23.2148 1.78782 22.8317 1.40479 22.3576 1.40479ZM21.2862 20.9048H3.71477V3.33336H21.2862V20.9048Z" fill="#7A77FF"/>
</svg>
