<svg width="24" height="25" viewBox="0 0 24 25" fill="none" xmlns="http://www.w3.org/2000/svg">
<path d="M12.1068 16.4344C12.1068 16.5522 12.1979 16.6487 12.3077 16.6487H17.2631C17.3729 16.6487 17.464 16.5522 17.464 16.4344V15.1487C17.464 15.0308 17.3729 14.9344 17.2631 14.9344H12.3077C12.1979 14.9344 12.1068 15.0308 12.1068 15.1487V16.4344ZM6.88629 16.5978L12.0291 12.2853C12.1309 12.1996 12.1309 12.0415 12.0291 11.9558L6.88629 7.64599C6.85525 7.61958 6.81728 7.60265 6.77689 7.59718C6.7365 7.59172 6.6954 7.59796 6.65845 7.61516C6.62151 7.63237 6.59028 7.65981 6.56846 7.69424C6.54665 7.72866 6.53518 7.76863 6.5354 7.80938V9.48884C6.5354 9.55313 6.56219 9.61206 6.61308 9.65224L9.55415 12.1219L6.61308 14.5915C6.58914 14.6116 6.5698 14.6365 6.5564 14.6647C6.54299 14.6929 6.53583 14.7237 6.5354 14.7549V16.4344C6.5354 16.6165 6.74701 16.7156 6.88629 16.5978ZM21.8568 1.40759H2.14254C1.66844 1.40759 1.2854 1.79063 1.2854 2.26474V21.979C1.2854 22.4531 1.66844 22.8362 2.14254 22.8362H21.8568C22.3309 22.8362 22.714 22.4531 22.714 21.979V2.26474C22.714 1.79063 22.3309 1.40759 21.8568 1.40759ZM20.7854 20.9076H3.21397V3.33616H20.7854V20.9076Z" fill="#7A77FF"/>
</svg>
