<svg width="56" height="56" viewBox="0 0 56 56" fill="none" xmlns="http://www.w3.org/2000/svg">
<path d="M27.5605 46.7953C27.4104 46.6666 27.2501 46.5505 27.0813 46.4481C21.0586 43.4114 15.0348 40.3783 9.00978 37.3488C8.80963 37.248 8.61418 37.1402 8.3999 37.0264V31.5756L8.69425 31.5566C8.73545 31.5934 8.7696 31.6491 8.81198 31.6621C10.1353 32.0555 11.4622 32.4359 12.7833 32.8352C14.8378 33.4573 16.8864 34.0972 18.9397 34.7217C21.8439 35.6057 24.752 36.4869 27.6641 37.3653C27.6641 37.7042 27.6641 38.0431 27.6641 38.3832C27.6688 41.1537 27.6727 43.9241 27.6758 46.6946C27.6666 46.7285 27.6627 46.7637 27.6641 46.7989L27.5605 46.7953Z" fill="#A0512B"/>
<path d="M46.9884 28.833L46.8706 28.8247C46.8706 28.5984 46.8836 28.3721 46.8836 28.1457C46.8836 22.1917 46.8836 16.2372 46.8836 10.2824C46.8836 10.056 46.893 9.82969 46.8977 9.60218C46.9131 9.59728 46.9294 9.59634 46.9453 9.59945C46.9611 9.60255 46.9759 9.6096 46.9884 9.61995V28.833Z" fill="white"/>
<path d="M46.8848 31.5581C46.9196 31.5444 46.9582 31.5444 46.9931 31.5581V37.0149L46.9507 37.0362H46.9024L46.8848 31.5581Z" fill="white"/>
<path d="M37.9682 30.4121C38.7923 30.5247 39.6165 30.6432 40.4407 30.7463C41.1765 30.8387 41.9159 30.9039 42.6529 30.9951C43.39 31.0864 44.1553 31.2049 44.9088 31.3008C45.3691 31.3601 45.8318 31.3956 46.2922 31.4501C46.4124 31.4732 46.5305 31.5061 46.6454 31.5485C46.6077 31.5864 46.5771 31.648 46.5277 31.667C45.176 32.0711 43.8197 32.4633 42.4704 32.8709C41.1906 33.2572 39.9179 33.6637 38.6381 34.0559C36.887 34.5844 35.1307 35.1085 33.3694 35.6283C32.4275 35.9092 31.4785 36.1734 30.5366 36.4578C29.5947 36.7422 28.6246 37.0586 27.6685 37.3608C24.7644 36.4791 21.8562 35.5979 18.9442 34.7171C16.8909 34.0926 14.8423 33.4527 12.7877 32.8306C11.4667 32.4313 10.1398 32.0509 8.81647 31.6575C8.76937 31.6445 8.73523 31.5888 8.69873 31.552C9.03546 31.4833 9.36865 31.3944 9.70892 31.3506C10.4448 31.2558 11.1842 31.1906 11.9212 31.0994C12.6582 31.0081 13.4247 30.8932 14.177 30.7972C14.8952 30.7048 15.6134 30.623 16.3305 30.5365L17.3807 30.418C17.4607 30.4986 17.529 30.6313 17.622 30.655C18.3803 30.8221 19.1408 30.975 19.9038 31.1183C20.5737 31.2368 21.2483 31.3494 21.9218 31.4632C22.2515 31.4276 22.5811 31.398 22.9096 31.3553C23.4747 31.2842 24.0387 31.2037 24.6038 31.1278V32.0758L27.665 32.6813L30.7262 32.0782V31.1124C30.8557 31.1243 30.9864 31.1302 31.1147 31.1492L33.4282 31.4798C33.4577 31.4999 33.4906 31.5426 33.5154 31.5378C34.4726 31.3542 35.4298 31.1693 36.3846 30.9738C36.8355 30.8825 37.283 30.7771 37.7256 30.6538C37.8198 30.6266 37.8893 30.4951 37.9682 30.4121Z" fill="#FEC198"/>
<path d="M37.9699 30.4127C37.891 30.4956 37.8251 30.6272 37.7344 30.6497C37.2917 30.7682 36.8443 30.8784 36.3934 30.9696C35.4386 31.1651 34.4813 31.35 33.5241 31.5337C33.4994 31.5337 33.4664 31.4958 33.437 31.4756V15.123C34.4574 15.3198 35.4778 15.5172 36.4982 15.7155C36.59 15.7333 36.683 15.7369 36.7749 15.7475L37.9628 16.0509V30.0525L37.9699 30.4127Z" fill="#F98740"/>
<path d="M27.6662 32.6805L24.605 32.075V31.127C24.612 30.9184 24.625 30.7111 24.625 30.5037C24.625 27.0041 24.625 23.5045 24.625 20.0049C24.625 19.7975 24.612 19.5901 24.6062 19.3816V10.1756L27.6756 9.29395V32.4541C27.6756 32.53 27.6685 32.6046 27.6662 32.6805Z" fill="#A0512B"/>
<path d="M27.666 32.6805C27.666 32.6046 27.6754 32.53 27.6754 32.4541V9.29395L30.7437 10.1661V15.5055C30.7437 20.7076 30.7409 25.9096 30.7354 31.1116V32.0773L27.666 32.6805Z" fill="#F98740"/>
<path d="M43.0577 29.2055V29.5894C42.2512 29.7553 41.4553 29.9236 40.657 30.08C40.365 30.138 40.0683 30.1653 39.774 30.2068L39.7681 9.51367L41.1868 10.0102C41.3446 10.0659 41.5035 10.1168 41.6578 10.169L43.04 10.8242V11.4914C43.04 17.169 43.04 22.8465 43.04 28.5241C43.0447 28.7516 43.053 28.978 43.0577 29.2055Z" fill="#F98740"/>
<path d="M21.9181 31.4584C21.2446 31.3399 20.57 31.238 19.9001 31.1136C19.1371 30.9702 18.3765 30.8174 17.6183 30.6503C17.5253 30.6289 17.457 30.4962 17.377 30.4133L17.3911 30.0732C17.3911 26.5977 17.3911 23.1234 17.3993 19.6893L18.5272 19.5057L21.9098 19.2236C21.9122 23.3031 21.9149 27.3813 21.9181 31.4584Z" fill="#A0512B"/>
<path d="M46.8998 9.60209C46.8998 9.82961 46.8857 10.0559 46.8857 10.2823C46.8857 16.2371 46.8857 22.1916 46.8857 28.1457C46.8857 28.372 46.8774 28.5983 46.8727 28.8246L44.4956 29.2797V8.40527L46.8998 9.60209Z" fill="#F98740"/>
<path d="M39.7666 9.51367L39.7725 30.2068L37.9546 30.0527V16.0523L36.7667 15.749L36.749 10.8124V10.1867L39.7666 9.51367Z" fill="#A0512B"/>
<path d="M30.731 31.1118C30.731 25.9098 30.7337 20.7077 30.7392 15.5057L33.4295 15.1289V31.4815L31.116 31.1509C30.9923 31.1295 30.8605 31.1236 30.731 31.1118Z" fill="#A0512B"/>
<path d="M15.4809 30.2039L12.3138 29.6245L12.2679 29.2145C12.2859 29.1226 12.2977 29.0295 12.3032 28.936C12.3032 27.1325 12.3032 25.3286 12.3032 23.5242C12.2905 23.437 12.2655 23.352 12.229 23.2718V17.0342L15.4821 16.4346L15.4809 30.2039Z" fill="#A0512B"/>
<path d="M44.4921 8.39941V29.2738L43.0534 29.2051C43.0534 28.9776 43.0404 28.7513 43.0404 28.5237C43.0404 22.8462 43.0404 17.1686 43.0404 11.491V10.8239L41.6582 10.1686V8.99546L44.4921 8.39941Z" fill="#A0512B"/>
<path d="M21.9184 31.458C21.9184 27.3809 21.9157 23.3035 21.9102 19.2256L24.6016 19.3773C24.6016 19.5858 24.6205 19.7932 24.6205 20.0006C24.6205 23.5002 24.6205 26.9998 24.6205 30.4994C24.6205 30.7067 24.6075 30.9141 24.6004 31.1227C24.0353 31.1985 23.4714 31.2791 22.9062 31.3502C22.5777 31.3928 22.2481 31.4225 21.9184 31.458Z" fill="#F98740"/>
<path d="M15.481 30.2039V16.4346C16.1309 16.4879 16.782 16.5353 17.4307 16.5969C17.7839 16.6301 18.1277 16.6858 18.528 16.7379V19.5072L17.4001 19.6909C17.4001 23.1273 17.3942 26.5992 17.3918 30.0747L15.481 30.2039Z" fill="#F98740"/>
<path d="M10.8479 29.2797L8.41895 28.8354V23.3027H10.842C10.8443 25.2951 10.8463 27.2874 10.8479 29.2797Z" fill="#A0512B"/>
<path d="M10.8462 29.28C10.8462 27.2877 10.8443 25.2958 10.8403 23.3042L12.2273 23.2734C12.2638 23.3536 12.2888 23.4386 12.3014 23.5258C12.3062 25.3294 12.3062 27.1333 12.3014 28.9376C12.296 29.0311 12.2842 29.1241 12.2661 29.216L10.8462 29.28Z" fill="#F98740"/>
<path d="M27.6699 37.362C28.6259 37.0598 29.5796 36.7506 30.538 36.4591C31.4964 36.1676 32.4277 35.9092 33.3708 35.6296C35.1321 35.1058 36.8923 34.5781 38.6513 34.0465C39.9311 33.659 41.2038 33.2525 42.4836 32.8615C43.834 32.4539 45.1916 32.0616 46.5408 31.6576C46.5856 31.6445 46.6162 31.5829 46.6586 31.5391L46.887 31.5474L46.9046 37.0267C45.2492 37.868 43.5974 38.7152 41.9385 39.5506C37.3624 41.8566 32.784 44.1594 28.2033 46.459C28.0373 46.5431 27.8618 46.6083 27.6911 46.6818C27.6911 43.9113 27.6872 41.1409 27.6793 38.3704C27.6746 38.0398 27.6723 37.7009 27.6699 37.362Z" fill="#F98740"/>
</svg>
