<svg width="56" height="56" viewBox="0 0 56 56" fill="none" xmlns="http://www.w3.org/2000/svg">
<path d="M37.6089 8.40039H18.3923C17.8331 8.40083 17.2839 8.54853 16.8 8.82863C16.316 9.10873 15.9144 9.51135 15.6355 9.99597L6.02712 26.6388C5.74769 27.1228 5.60059 27.6718 5.60059 28.2307C5.60059 28.7895 5.74769 29.3385 6.02712 29.8225L15.6355 46.4629C15.9147 46.947 16.3165 47.349 16.8004 47.6284C17.2844 47.9079 17.8334 48.0549 18.3923 48.0547H37.6089C38.1678 48.0549 38.7168 47.9079 39.2008 47.6284C39.6847 47.349 40.0865 46.947 40.3657 46.4629L49.9741 29.8213C50.2535 29.3373 50.4006 28.7883 50.4006 28.2294C50.4006 27.6706 50.2535 27.1216 49.9741 26.6376L40.3657 9.99597C40.0868 9.51135 39.6852 9.10873 39.2012 8.82863C38.7173 8.54853 38.1681 8.40083 37.6089 8.40039Z" fill="#468AF9"/>
<path d="M31.2861 28.8262H30.2904C30.2244 28.8262 30.1611 28.8524 30.1144 28.8991C30.0677 28.9458 30.0415 29.0091 30.0415 29.0751V32.3559C30.6206 32.0314 31.1285 31.5938 31.535 31.069V29.0776C31.5354 29.0447 31.5292 29.012 31.5168 28.9816C31.5044 28.9511 31.4862 28.9233 31.463 28.9C31.4399 28.8766 31.4123 28.858 31.3819 28.8454C31.3516 28.8327 31.319 28.8262 31.2861 28.8262Z" fill="white"/>
<path d="M25.2386 32.0583V27.9511C25.2386 27.8851 25.2124 27.8217 25.1657 27.7751C25.1191 27.7284 25.0557 27.7021 24.9897 27.7021H23.994C23.928 27.7021 23.8647 27.7284 23.818 27.7751C23.7713 27.8217 23.7451 27.8851 23.7451 27.9511V30.9879C24.1229 31.4978 24.5958 31.9298 25.1378 32.2599C25.1693 32.2366 25.1949 32.2062 25.2124 32.1711C25.2299 32.1361 25.2389 32.0974 25.2386 32.0583Z" fill="white"/>
<path d="M28.3856 26.0634C28.3856 25.9974 28.3594 25.934 28.3127 25.8874C28.266 25.8407 28.2027 25.8145 28.1367 25.8145H27.141C27.075 25.8145 27.0117 25.8407 26.965 25.8874C26.9183 25.934 26.8921 25.9974 26.8921 26.0634V32.8813C26.8914 32.8908 26.8914 32.9004 26.8921 32.9099C27.1481 32.9509 27.4069 32.9717 27.6662 32.9722C27.9049 32.9717 28.1432 32.9543 28.3794 32.9199C28.3794 32.9062 28.3794 32.8938 28.3794 32.8813L28.3856 26.0634Z" fill="white"/>
<path d="M37.5053 36.4363L34.1449 33.0758C35.4208 31.4218 36.0175 29.3433 35.8133 27.2644C35.6091 25.1855 34.6194 23.2628 33.046 21.8887C31.4727 20.5145 29.4343 19.7925 27.3468 19.8699C25.2593 19.9473 23.28 20.8183 21.8127 22.3051C20.3454 23.792 19.5008 25.7827 19.4511 27.871C19.4013 29.9594 20.1503 31.988 21.5452 33.543C22.9401 35.098 24.8757 36.0621 26.9572 36.2388C29.0386 36.4154 31.109 35.7912 32.746 34.4934L36.094 37.8402C36.1171 37.8633 36.1445 37.8817 36.1747 37.8942C36.205 37.9067 36.2374 37.9132 36.2701 37.9132C36.3028 37.9132 36.3352 37.9067 36.3654 37.8942C36.3956 37.8817 36.4231 37.8633 36.4462 37.8402L37.5016 36.7848C37.5477 36.7387 37.5739 36.6764 37.5746 36.6113C37.5753 36.5461 37.5504 36.4833 37.5053 36.4363ZM27.673 34.2806C26.4483 34.2806 25.2512 33.9175 24.2329 33.2371C23.2147 32.5567 22.421 31.5897 21.9524 30.4583C21.4837 29.3268 21.3611 28.0819 21.6 26.8807C21.839 25.6796 22.4287 24.5763 23.2946 23.7104C24.1606 22.8444 25.2639 22.2547 26.465 22.0158C27.6661 21.7769 28.9111 21.8995 30.0425 22.3682C31.1739 22.8368 32.141 23.6304 32.8213 24.6487C33.5017 25.6669 33.8649 26.8641 33.8649 28.0887C33.8629 29.7307 33.2096 31.3049 32.0482 32.4658C30.8869 33.6266 29.3125 34.2793 27.6705 34.2806H27.673Z" fill="white"/>
</svg>
