<svg width="56" height="56" viewBox="0 0 56 56" fill="none" xmlns="http://www.w3.org/2000/svg">
<path d="M28.5112 12.1406C31.2535 12.1406 33.9957 12.1266 36.7367 12.1406C41.9878 12.1733 46.8059 15.5246 48.6392 20.4163C49.4291 22.5284 49.6007 24.714 49.3755 26.9579C49.0452 30.2533 48.0615 33.3117 46.198 36.0528C43.3227 40.284 39.2701 42.6353 34.2512 43.4183C32.5499 43.6832 30.8427 43.6516 29.1332 43.6516C28.4237 43.6516 28.0445 43.3273 28.0025 42.7403C27.957 42.1113 28.3525 41.6282 29.0527 41.5862C29.8275 41.5384 30.6082 41.5781 31.3865 41.5571C36.1113 41.4287 40.2024 39.8009 43.4429 36.306C45.7137 33.8555 46.8643 30.8706 47.254 27.5811C47.5248 25.2986 47.4956 23.0301 46.5936 20.8679C45.2096 17.5597 42.73 15.5316 39.3156 14.5911C37.99 14.2258 36.6317 14.157 35.2723 14.1488C30.1974 14.1185 25.1202 14.1372 20.0465 14.136C19.833 14.136 19.6171 14.1442 19.4047 14.1255C19.1612 14.103 18.9338 13.9937 18.764 13.8177C18.5941 13.6417 18.4931 13.4105 18.4794 13.1663C18.4758 12.9306 18.5559 12.7012 18.7054 12.519C18.855 12.3367 19.0643 12.2134 19.2962 12.1709C19.5281 12.1388 19.7624 12.1275 19.9963 12.1371C22.835 12.1371 25.6745 12.1371 28.5147 12.1371L28.5112 12.1406Z" fill="#29F1FB"/>
<path d="M23.3141 36.4119H14.2122C14.0176 36.4205 13.8227 36.4163 13.6288 36.3991C13.1025 36.3279 12.7711 36.0257 12.7197 35.4936C12.6684 34.9615 12.9181 34.5974 13.4199 34.4107C13.7384 34.294 14.0722 34.3185 14.4012 34.3185C20.3886 34.3185 26.3772 34.3278 32.3646 34.308C34.465 34.301 36.2784 33.5227 37.7195 31.9824C38.9552 30.6614 39.6029 29.0651 39.7954 27.2681C39.9471 25.8585 39.7464 24.562 38.8712 23.4115C37.898 22.1279 36.5829 21.4837 35.0018 21.4767C29.3446 21.4522 23.6828 21.4674 18.0303 21.4592C17.4294 21.4592 16.8272 21.4102 16.2286 21.3542C15.7117 21.3064 15.4258 20.9948 15.3908 20.4744C15.3523 19.9072 15.6428 19.4988 16.1574 19.3996C16.3298 19.3752 16.504 19.367 16.6779 19.3751C22.7458 19.3751 28.8137 19.3751 34.8816 19.3751C37.94 19.381 40.5842 21.2305 41.5481 24.1221C42.2319 26.1747 41.988 28.2436 41.2214 30.2332C39.7487 34.0525 36.2819 36.4014 32.179 36.4119C29.2244 36.4201 26.2687 36.4119 23.3141 36.4119Z" fill="#29F1FB"/>
<path d="M9.7404 21.3591C9.04026 21.3591 8.34011 21.3684 7.63997 21.3591C7.05652 21.3486 6.60843 20.9647 6.54192 20.4419C6.4754 19.9191 6.8033 19.4699 7.4346 19.3415C7.77937 19.2856 8.12868 19.2625 8.47781 19.2727C9.43 19.2645 10.3834 19.2622 11.3356 19.2727C11.6263 19.2722 11.9161 19.3059 12.1991 19.373C12.7137 19.5037 12.9949 19.9425 12.9342 20.4757C12.8735 21.009 12.5515 21.3299 12.0124 21.3474C11.255 21.3731 10.4954 21.3544 9.73806 21.3544L9.7404 21.3591Z" fill="#29F1FB"/>
<path d="M22.5123 43.6468C21.8519 43.6468 21.1914 43.6585 20.5286 43.6468C19.9008 43.6328 19.4784 43.2769 19.4142 42.7518C19.3899 42.4756 19.4757 42.2011 19.653 41.9879C19.8302 41.7748 20.0846 41.6404 20.3606 41.6141C21.7734 41.503 23.1927 41.5011 24.6058 41.6082C24.7391 41.6139 24.8699 41.6468 24.99 41.7048C25.1102 41.7628 25.2173 41.8447 25.3047 41.9456C25.3921 42.0464 25.458 42.164 25.4983 42.2912C25.5387 42.4184 25.5526 42.5525 25.5393 42.6853C25.4961 43.2687 25.0854 43.6258 24.4366 43.6515H22.5123V43.6468Z" fill="#29F1FB"/>
</svg>
