<svg width="72" height="72" viewBox="0 0 72 72" fill="none" xmlns="http://www.w3.org/2000/svg">
  <path d="M1.48131 32.625H13.125L0.375 0.375C0.375 0.375 23.7498 0.375 36 0.375C55.6751 0.375 71.625 16.3249 71.625 36C71.625 55.6751 55.6751 71.625 36 71.625C32.2036 71.625 16.875 71.625 16.875 71.625L1.48131 32.625Z" fill="#F72A30"/>
  <path d="M36.3885 24.4166V32.2084C36.3885 32.4386 36.5908 32.625 36.838 32.625H47.5497C47.7969 32.625 47.9992 32.8114 47.9992 33.0416V40.4584C47.9992 40.6886 47.7969 40.875 47.5497 40.875H36.8324C36.5852 40.875 36.3829 41.0614 36.3829 41.2916V57.3334C36.3829 57.5636 36.1806 57.75 35.9333 57.75H27.8246C27.5773 57.75 27.375 57.5636 27.375 57.3334V16.1666C27.375 15.9364 27.5773 15.75 27.8246 15.75H49.4254C49.6727 15.75 49.875 15.9364 49.875 16.1666V23.5834C49.875 23.8136 49.6727 24 49.4254 24H36.838C36.5852 24 36.3885 24.1864 36.3885 24.4166Z" fill="white"/>
  <path d="M36.3885 24.4166V32.2084C36.3885 32.4386 36.5908 32.625 36.838 32.625H47.5497C47.7969 32.625 47.9992 32.8114 47.9992 33.0416V40.4584C47.9992 40.6886 47.7969 40.875 47.5497 40.875H36.8324C36.5852 40.875 36.3829 41.0614 36.3829 41.2916V57.3334C36.3829 57.5636 36.1806 57.75 35.9333 57.75H27.8246C27.5773 57.75 27.375 57.5636 27.375 57.3334V16.1666C27.375 15.9364 27.5773 15.75 27.8246 15.75H49.4254C49.6727 15.75 49.875 15.9364 49.875 16.1666V23.5834C49.875 23.8136 49.6727 24 49.4254 24H36.838C36.5852 24 36.3885 24.1864 36.3885 24.4166Z" fill="url(#paint0_linear_197_4577)"/>
  <defs>
    <linearGradient id="paint0_linear_197_4577" x1="38.625" y1="15.75" x2="38.625" y2="57.75" gradientUnits="userSpaceOnUse">
      <stop stop-color="white"/>
      <stop offset="1" stop-color="white" stop-opacity="0"/>
    </linearGradient>
  </defs>
</svg>
