<svg width="56" height="56" viewBox="0 0 56 56" fill="none" xmlns="http://www.w3.org/2000/svg">
<g clip-path="url(#clip0)">
<path fill-rule="evenodd" clip-rule="evenodd" d="M28.4477 13.6162C28.1119 12.6966 16.5605 8.20577 16.4128 8.69882C14.2917 9.25176 13.4284 11.6966 11.9693 13.2452L8.72908 13.0596C7.30172 14.8951 6.55274 16.7705 7.06273 18.7196C8.89215 21.1982 11.0158 23.3073 12.3395 26.4207C12.4441 27.8881 18.6908 26.5745 20.0297 26.2841C18.2007 27.5933 16.6079 29.6226 17.2924 35.4673C17.9172 38.2119 18.3446 41.2763 23.8867 44.3805C24.6162 44.7891 26.1257 45.2607 27.0592 45.6043C27.9518 46.0138 28.9957 46.1821 31.9404 45.2815C33.6445 44.547 35.4843 44.1045 37.1519 43.3718L35.1476 43.4659C32.3875 43.526 30.2567 43.7318 29.5995 42.9607L27.0593 38.5755L28.5402 35.6991C30.5897 35.9093 31.27 37.5714 33.0765 38.2043L35.2057 36.6269C41.3902 40.2776 43.8506 34.3133 44.5558 29.6681C44.4805 27.7781 40.4637 30.2609 40.7071 29.3772C40.8015 27.3456 39.1455 24.6875 38.0755 22.6165L39.3138 17.8249C39.8757 17.3245 36.7126 11.9946 34.1298 11.3299C31.8636 10.7467 28.4475 13.6162 28.4475 13.6162L28.4477 13.6162Z" fill="#FDEE21"/>
<path fill-rule="evenodd" clip-rule="evenodd" d="M38.6074 23.7998C38.6296 24.3145 38.6271 24.9404 38.6768 25.3308C38.6683 25.6287 38.445 25.6396 38.2603 25.702L39.4637 26.1427C39.7027 26.5448 39.8947 26.9469 40.0886 27.3489C40.3136 28.338 40.1457 28.3663 39.9961 28.4392C39.5593 28.4436 39.1239 28.4444 38.7174 28.358C38.8995 28.4541 38.9395 28.5242 38.9588 28.6473C38.9943 28.8743 38.8481 29.1843 38.6074 29.483C38.9634 29.6805 39.6123 29.8737 40.0944 30.0571L40.6441 28.8335C40.3952 27.0359 39.6404 25.3792 38.6074 23.7998L38.6074 23.7998Z" fill="#C8C037"/>
<path fill-rule="evenodd" clip-rule="evenodd" d="M40.8535 29.829C41.521 30.1072 42.4431 30.0256 43.7216 29.3667C43.9117 29.2315 44.0888 29.3124 43.7485 29.5348C42.0717 31.0395 41.2691 30.2867 40.8535 29.829L40.8535 29.829Z" fill="#C8C037"/>
<path fill-rule="evenodd" clip-rule="evenodd" d="M43.8497 29.1699C44.0479 29.5496 43.9278 29.8583 43.8612 30.179C43.6542 31.8101 43.1459 33.0996 42.1486 34.4472C38.9047 39.6625 35.6296 36.3992 33.0185 34.2753L31.9384 36.9817C31.8811 37.2189 31.6426 37.4037 33.3294 38.1463L35.0478 36.9325C41.6011 41.9188 46.245 29.9532 43.8495 29.1701L43.8497 29.1699Z" fill="#C8C037"/>
<path fill-rule="evenodd" clip-rule="evenodd" d="M33.809 33.83C33.3668 33.8616 32.051 34.309 31.9924 34.5681L32.5979 33.666L33.809 33.83Z" fill="#C8C037"/>
<path fill-rule="evenodd" clip-rule="evenodd" d="M32.949 28.3002C33.03 28.3002 33.4189 28.4046 33.3771 28.3814C33.3175 28.3482 33.3705 28.9267 33.4929 29.2281L33.0184 30.2604C33.9272 29.2123 35.3642 29.282 36.6982 29.1469L36.0618 28.7526C36.1724 28.3838 36.0422 28.0921 35.9808 27.7783L32.949 28.3002Z" fill="#C8C037"/>
<path fill-rule="evenodd" clip-rule="evenodd" d="M35.182 25.1918C34.207 25.4907 33.2736 25.979 32.647 27.0201C33.125 25.3042 33.2225 25.3693 33.3768 25.2845C34.0455 24.9855 34.593 25.1719 35.182 25.1918V25.1918Z" fill="#C8C037"/>
<path fill-rule="evenodd" clip-rule="evenodd" d="M29.975 45.303C28.796 46.604 26.1652 45.2046 23.9805 44.4911C18.4289 40.961 17.3444 37.6377 17.269 34.3775C16.9836 29.7075 18.4176 26.994 20.2314 26.3516C19.031 28.6656 18.4713 32.8196 19.0279 35.9085C19.4772 37.627 19.4865 40.5254 22.3619 42.0769C23.7699 42.8695 23.3885 43.4867 24.3407 44.2291C25.384 45.0426 28.2932 45.8161 29.975 45.3031L29.975 45.303Z" fill="#FCF6A0"/>
<path fill-rule="evenodd" clip-rule="evenodd" d="M31.7365 23.7203C29.7403 20.8896 26.9327 19.827 23.7667 19.7109C24.4012 19.5041 25.0357 19.3964 25.6702 19.0904C25.8256 18.9271 25.7748 18.6399 25.7165 18.3481C22.669 17.5524 20.7455 16.5689 18.3108 15.6572L24.8838 17.2346C29.3225 17.4033 28.9413 18.4991 31.7368 23.7204L31.7365 23.7203Z" fill="#FCF6A0"/>
<path fill-rule="evenodd" clip-rule="evenodd" d="M33.8737 22.3555C32.3985 20.2496 30.9677 17.6937 29.0256 16.0682C24.3373 13.9521 19.6995 12.3806 14.2642 10.9505L15.9988 8.71973C21.7665 10.0363 27.1839 12.2394 32.0364 15.8711C32.8574 17.947 33.4049 20.0256 33.8733 22.3552L33.8737 22.3555Z" fill="#FCF6A0"/>
<path fill-rule="evenodd" clip-rule="evenodd" d="M36.8475 18.6343C36.8475 18.6343 36.0205 16.7788 35.6178 16.0703C34.6837 15.0352 34.2114 13.1062 32.2983 12.1973C32.9034 12.3607 33.3175 12.166 34.5527 13.2858L36.4983 16.9764L36.8475 18.6343Z" fill="#FCF6A0"/>
<path fill-rule="evenodd" clip-rule="evenodd" d="M37.8763 21.8484C38.067 20.2408 38.4292 17.6623 38.0136 16.6435C36.8572 15.0919 35.6925 13.4881 34.5274 11.9992C34.3344 11.8196 34.1955 11.5759 34.0435 11.3857C35.6816 11.8101 37.3911 12.9491 39.6966 17.4456L37.8763 21.8484Z" fill="#FCF6A0"/>
<path fill-rule="evenodd" clip-rule="evenodd" d="M30.9894 22.0378C30.337 21.5243 29.7555 19.708 28.7668 19.3304C27.8517 19.2538 27.5161 18.9659 26.3127 19.2111C26.7492 18.9924 27.1613 18.7126 27.6252 18.5628C27.9395 18.4886 28.2342 18.5708 28.5341 18.6121C28.6081 18.5771 28.6566 18.5336 28.6385 18.4678C27.4272 17.7192 24.9421 17.7086 23.2646 17.2812C25.2115 17.3464 27.3657 17.2385 28.8289 17.7077C30.0054 18.7519 30.3877 20.7182 30.9895 22.0378L30.9894 22.0378Z" fill="black"/>
<path fill-rule="evenodd" clip-rule="evenodd" d="M34.5569 13.2793C34.827 13.3038 36.2806 15.6031 36.3489 15.9857C36.4698 16.8221 36.7679 17.7596 36.848 18.6347C36.6086 17.7954 36.3477 16.9562 36.0216 16.1169C35.9262 15.8858 35.6852 15.3633 35.0151 14.6243C34.7032 14.1035 34.6358 13.694 34.5569 13.2793L34.5569 13.2793Z" fill="black"/>
<path fill-rule="evenodd" clip-rule="evenodd" d="M39.4827 25.8027H38.8608L39.5482 25.9832L39.4827 25.8027Z" fill="black"/>
<path fill-rule="evenodd" clip-rule="evenodd" d="M35.2396 25.1819C34.6143 25.105 33.9726 25.0948 33.3472 25.2322C33.0923 25.5746 33.0748 25.9229 32.9634 26.2447C33.7236 25.4069 34.0253 25.3556 35.2396 25.1819V25.1819Z" fill="black"/>
<path fill-rule="evenodd" clip-rule="evenodd" d="M43.7686 29.5049C43.4206 29.7826 43.3858 30.0441 42.3568 30.3574C41.6065 30.5348 41.1825 30.234 40.8293 29.8296C41.3648 29.983 41.4504 30.3876 42.8863 29.934L43.7686 29.5049Z" fill="black"/>
<path fill-rule="evenodd" clip-rule="evenodd" d="M40.65 29.6797C40.3996 30.3684 40.1296 31.0644 39.8573 31.7094C39.2091 32.4696 39.4854 32.0364 38.515 33.2171C38.8255 32.7381 39.2293 32.2778 39.4407 31.7789C39.5892 31.4504 39.7741 31.102 39.8559 30.8101C39.5986 30.6816 39.072 30.6714 39.0005 30.7175C38.1378 31.2264 37.9821 31.7649 37.4735 32.2893C37.8421 31.7 38.157 31.0568 38.5844 30.5263C38.6331 30.4575 38.9495 30.4442 39.144 30.4036C38.8418 30.3517 38.2822 30.2431 38.2372 30.248C37.6744 30.3832 37.359 30.8735 36.9412 31.1991C37.2458 30.7592 37.5264 30.3013 37.9132 29.9232C37.9515 29.8788 38.997 29.9704 39.5389 30.1866L39.5496 30.4021L39.8573 30.5263L40.0887 29.9464L40.65 29.6797Z" fill="black"/>
<path fill-rule="evenodd" clip-rule="evenodd" d="M33.8227 33.832C33.6838 33.7845 32.4572 33.6268 32.4572 33.6638C31.9863 33.999 31.9148 34.3197 31.9249 34.5974C32.7085 33.8266 32.6793 33.8245 33.8228 33.8319L33.8227 33.832Z" fill="black"/>
<path fill-rule="evenodd" clip-rule="evenodd" d="M32.8909 28.2876C32.8909 28.2876 33.776 28.1586 33.7588 28.2412C33.6947 28.5483 33.8671 29.2967 33.8861 29.1923L33.3885 29.5982C34.4306 29.0743 35.5277 29.1796 36.6402 29.0995C36.6402 29.0995 35.7034 28.8409 35.7607 28.8327C35.9697 28.8031 35.7051 27.8558 35.6334 27.8353C35.8116 27.775 35.9857 27.7295 36.1657 27.6845C34.8261 27.334 34.0515 27.5405 32.8909 28.2876L32.8909 28.2876Z" fill="black"/>
<path fill-rule="evenodd" clip-rule="evenodd" d="M40.5516 28.9494L40.3549 29.048C40.327 28.4717 39.7081 28.514 39.1862 28.5087L38.758 28.4043C38.8882 28.5248 39.2906 28.5153 39.1283 28.7754C38.9917 28.8485 38.9288 29.1618 38.8506 29.4249L38.6191 29.4365C39.028 29.5963 39.4073 29.7363 39.8573 29.9237L40.1235 29.9642L40.7599 29.6221L40.5516 28.9494Z" fill="black"/>
<path fill-rule="evenodd" clip-rule="evenodd" d="M34.6847 28.5605C34.5851 28.3635 34.0839 28.3914 33.9758 28.519C33.888 28.6226 33.9704 29.2874 34.083 29.1753C34.2457 29.0322 34.4583 28.9723 34.7137 28.9839C34.7459 28.8611 34.7345 28.7284 34.6847 28.5605L34.6847 28.5605Z" fill="white"/>
<path fill-rule="evenodd" clip-rule="evenodd" d="M39.4911 29.5512C39.5382 29.5167 39.6378 29.1834 39.6057 29.0837C39.5398 28.8484 39.0738 28.8979 39.0738 28.8979C38.9601 28.9648 38.8604 29.3317 38.902 29.4528C38.9218 29.5552 39.4163 29.5879 39.4911 29.5512L39.4911 29.5512Z" fill="white"/>
<path fill-rule="evenodd" clip-rule="evenodd" d="M19.561 41.0508L19.8555 41.0796C21.6008 41.9365 24.4745 43.2071 28.6349 42.5244L29.2878 43.5516C27.4555 44.4419 25.4848 44.237 23.6382 44.2995L19.561 41.0508Z" fill="black"/>
<path fill-rule="evenodd" clip-rule="evenodd" d="M17.0554 34.2767L17.9297 37.947C20.2704 39.4102 24.2688 41.0861 27.6017 40.9508L26.8651 39.2609C19.908 37.7835 19.3196 35.9158 17.0556 34.2764L17.0554 34.2767Z" fill="black"/>
<path fill-rule="evenodd" clip-rule="evenodd" d="M19.2308 26.7588C19.6581 29.6031 20.2286 31.7594 22.7018 33.5657C24.2177 34.6558 25.7224 35.7414 27.5525 36.6374C27.5525 36.6374 27.3921 37.4724 27.258 37.4575C21.8114 36.8525 17.8239 32.3362 17.3408 30.2734C17.8087 28.6911 18.4798 27.7027 19.2307 26.7588H19.2308Z" fill="black"/>
<path fill-rule="evenodd" clip-rule="evenodd" d="M21.8492 25.1468C22.575 28.2992 24.3056 31.492 26.0257 34.3885C26.6563 35.1885 26.8213 35.5416 27.7932 36.0287C29.1068 36.4446 30.0357 36.3385 30.9891 36.2759C30.7279 35.7924 30.4957 35.287 30.1957 34.8325C28.0607 33.1441 29.0474 31.6068 29.6145 30.6335C28.4273 30.3335 26.8544 29.6959 26.6377 28.8574C26.2893 26.1451 26.4662 25.2847 26.8149 23.8916C25.2073 24.2306 23.5783 24.5665 21.8491 25.1469L21.8492 25.1468Z" fill="black"/>
<path fill-rule="evenodd" clip-rule="evenodd" d="M15.9522 8.40332C15.4239 8.74849 14.9148 9.24203 14.3672 9.80298C13.4594 10.7427 12.8559 11.6594 11.9318 12.339C11.747 12.4983 11.2283 12.755 10.5763 12.793C10.2692 12.8084 10.0691 12.8592 9.50467 12.7883C9.00691 12.5188 8.53403 12.6941 8.07252 13.2461C7.56645 13.9739 6.92553 15.3558 6.65901 16.2257C6.10973 18.4443 7.51013 20.2723 8.85308 21.6811C10.0478 22.8482 10.7365 23.5776 11.2271 24.6475C11.5985 25.3415 11.8736 26.2939 12.1715 26.9616C12.2789 27.1733 12.2566 27.1722 12.5457 27.236C13.17 27.3692 14.0359 27.3703 14.8069 27.4365C15.1404 27.4412 15.5985 27.4288 16.0325 27.3835C16.6306 27.2706 17.3332 27.16 17.9221 26.9563C18.4976 26.8146 19.0104 26.6183 19.4726 26.4377C19.413 26.6399 18.9727 26.8347 18.8076 27.0911C17.2409 29.3337 16.8117 31.3294 17.0845 34.4781C17.2388 35.8737 17.5591 37.0307 18.0424 38.3544C18.2635 38.9602 18.7341 39.9195 19.1851 40.5568C20.5262 42.4517 23.5263 44.8851 27.7028 45.8218C28.4314 45.9214 29.2584 45.8683 30.0361 45.6611C32.0974 45.0363 36.2985 43.5585 36.2985 43.5585C36.2985 43.5585 32.5693 43.867 30.8615 43.6981C30.4661 43.6363 30.0304 43.6153 29.755 43.3459C29.7088 43.2862 29.5409 42.9482 29.6493 42.9451C29.7972 42.941 30.2217 42.7648 30.8772 42.7063C29.4778 42.5557 29.4977 42.5575 29.3956 42.3026C29.2367 41.9069 28.9936 41.366 28.7433 40.8928C29.3582 40.9447 30.7196 41.0211 31.1817 40.5442C31.1817 40.5442 30.376 40.6373 29.6641 40.5537C29.4242 40.5256 29.0155 40.3798 28.8927 40.3347C28.5731 40.2102 28.3099 40.1715 28.2486 40.0904C28.1376 39.8079 28.0624 39.7129 27.9284 39.3344C27.747 38.8334 27.7326 38.2744 27.6981 37.7628C28.1638 38.3369 28.7572 38.8201 29.5429 39.0669C29.553 39.0457 30.5621 39.5056 31.295 39.2691L31.4469 39.2201C31.4469 39.2336 30.9614 39.2626 30.7833 39.1744C29.2928 38.5409 29.0685 37.9864 28.8278 37.711L28.1842 36.747C28.38 36.3567 28.4906 36.3419 28.75 36.3383C29.5344 36.4254 29.8758 36.4925 30.3531 36.3773C30.6756 37.0411 30.7628 37.7088 31.4971 38.1919C33.9434 38.9181 34.4749 37.9763 35.0675 37.1441C36.8276 38.4359 39.6931 38.8342 41.6831 37.1665C44.2131 34.2391 45.0141 29.624 44.7897 29.3605C44.4737 28.8244 44.0592 28.2716 43.7032 28.348C42.4345 28.6944 41.9666 29.3381 40.7094 29.1912C40.8592 29.1828 41.111 29.1787 41.1129 29.1644C41.2097 28.0999 41.1051 27.5848 41.0584 27.4964C40.6769 26.655 40.1759 25.7696 39.8267 25.106C39.7367 24.9684 39.4723 23.9228 39.0293 23.5098C38.8393 23.3476 38.3742 22.9198 38.3742 22.9198L38.3348 23.3745C38.3348 23.3745 38.5166 23.4019 38.5858 23.6836C38.8481 24.7514 40.1837 27.2763 40.2818 27.3973C40.7551 28.1615 40.3299 29.1134 40.6898 29.6475C40.7244 29.7153 41.424 29.6415 41.9663 29.6749C42.858 29.4831 42.8204 29.0901 43.5906 29.031C44.1095 28.9912 44.1616 29.9657 44.1547 30.0413C44.058 31.1173 43.7307 32.3684 43.2298 33.5109C42.1883 35.5174 41.0219 37.3196 39.3677 37.571C37.3499 37.9235 36.3014 37.0414 35.2076 36.4797L34.7892 36.8365C33.3677 38.2521 31.6798 38.1264 30.9894 36.2768C30.6458 35.5593 30.198 35.1196 29.8145 34.5041L27.781 35.9687C27.6117 36.3159 27.4036 36.8634 27.1507 37.4749C26.9749 37.9 26.8275 38.6302 26.8371 39.237C26.5765 39.681 27.74 41.4819 28.4752 42.5773C28.6922 42.9006 29.0972 43.4652 29.1107 43.5004C29.2565 43.8786 29.5758 44.2125 29.5952 44.2532C30.9601 46.0334 27.8734 45.6235 27.2359 45.5159C25.9782 45.3155 24.748 44.7902 23.5916 44.0877C23.5245 44.0469 23.4577 44.0056 23.3911 43.9636C22.0169 43.0983 20.7524 41.9913 19.6774 40.8963C19.0363 40.1704 18.4259 38.6825 17.9751 37.6277C17.2994 35.0916 16.3297 30.6958 18.9565 27.3647C19.123 27.1743 19.3026 26.8573 19.4556 26.7945C20.2361 26.2667 21.0835 25.9069 21.9948 25.7071L21.9028 25.1164C21.4477 25.2198 19.9153 25.7803 19.482 26.0149C18.4966 26.3005 17.6793 26.5988 16.4235 26.9132C16.0153 26.9632 15.6137 26.9641 15.2223 26.9109C14.3189 26.7882 12.7791 26.8978 12.6809 26.8066C12.0692 25.9535 11.9017 24.4251 11.3436 23.6071L11.337 23.599L11.3299 23.5912C11.0046 23.1539 10.6253 22.7972 10.2518 22.4261C8.91432 21.0972 7.76955 19.8123 7.44911 18.4508C7.36854 18.0488 7.16104 17.6324 7.27132 16.4429L7.27335 16.4371L7.27529 16.4312C7.59708 15.32 8.12057 14.4142 9.00906 13.5064C9.93366 13.5213 10.8488 13.5416 11.5617 13.6778C11.8888 13.7325 12.5689 13.8213 13.2714 14.083C15.0494 14.7454 17.3987 15.8343 17.3987 15.8343C15.6352 14.8658 13.6633 13.608 12.4181 13.3542C12.2328 13.3279 12.119 13.2434 12.064 13.0959C13.9368 11.9955 14.2794 10.6999 15.5112 9.53799C16.0742 9.29294 16.2937 9.16784 16.7721 9.11586C21.196 9.81536 23.9809 11.5774 26.184 12.7556C27.0781 13.2419 27.891 13.6096 28.6673 14.0524C29.3478 14.2762 31.4013 15.8266 32.0023 16.6625C32.6128 17.9515 33.0586 19.3439 33.4651 20.6875C33.7566 22.054 34.0123 22.6084 34.0123 22.6084C34.0123 22.6084 33.7646 21.4653 33.8059 21.26C34.0627 21.356 34.6701 21.5456 34.9218 21.5161C34.9218 21.5161 33.7973 20.9348 33.6499 20.4211C33.1771 18.7726 32.7029 16.2064 32.575 16.0726C32.2146 15.6192 30.7118 14.4691 29.79 13.9371C29.4413 13.7359 29.2528 13.611 29.2381 13.5226C29.5326 13.2251 29.8963 12.8315 30.2224 12.5815C30.535 12.3418 30.8196 12.0715 31.2552 11.9097C33.17 11.0473 34.265 12.2415 34.5248 11.9997C34.5248 11.9997 34.1128 11.5275 34.2958 11.6052C34.4832 11.7067 35.0939 11.8264 35.1609 11.8888C35.8588 12.4347 37.6833 14.43 38.783 16.5353C39.0471 17.051 39.1545 17.3905 39.032 18.0115C38.9092 18.633 38.8141 18.9748 38.6802 19.3899C38.5591 19.6674 37.8745 21.5672 37.8771 21.8224C37.7392 22.8648 38.3242 24.1697 38.3242 24.1697C38.3297 23.8155 38.3024 23.6268 38.3345 23.3735L38.3739 22.9208C38.3739 22.9208 38.3489 22.8004 38.3534 22.7527C38.3832 22.4396 38.4599 22.1765 38.4825 21.9972C38.7023 20.6359 39.0845 19.6559 39.518 18.4613C39.6468 18.1598 39.8154 17.9921 39.8068 17.7626C39.8139 17.3553 39.4494 16.8085 39.186 16.2746C38.9204 15.7349 38.6028 15.1334 38.186 14.4993C37.2356 13.1327 36.4255 12.0634 34.942 11.3942C34.5269 11.2121 32.8936 11.034 32.3295 11.1398C31.6453 11.2824 31.0568 11.4229 30.5877 11.7234C29.8495 12.1961 29.2693 12.9281 28.589 13.3594C27.0837 12.6066 26.3572 12.0433 26.2217 11.9656C25.3271 11.4863 24.253 10.93 23.0975 10.4024C22.5435 9.88577 19.103 8.65005 15.9526 8.40357L15.9522 8.40332ZM35.2073 36.4788C34.2795 35.7536 33.4986 35.0071 32.9838 34.2383C32.8157 35.1424 32.2057 35.7864 31.7342 36.4197C31.6404 36.5682 31.5728 36.7708 32.0349 37.4162C32.1594 37.5882 32.6101 37.6175 32.9143 37.6018C32.6048 37.3678 32.1339 37.1204 32.058 36.9059C32.6025 37.2766 33.1067 37.3831 33.5624 37.3234C33.6665 37.3117 33.7958 37.2013 33.8958 37.0313C34.0989 36.5949 34.258 36.4898 34.4187 36.3724L34.789 36.8363L35.2073 36.4788Z" fill="black" stroke="black" stroke-width="0.11397"/>
</g>
<defs>
<clipPath id="clip0">
<rect width="43.5556" height="39.2" fill="white" transform="translate(6.53345 8.40039)"/>
</clipPath>
</defs>
</svg>
