<svg width="56" height="56" viewBox="0 0 127 128" fill="none" xmlns="http://www.w3.org/2000/svg">
<path d="M79.8298 75.7245C81.1903 77.2183 82.6219 78.6321 84.1068 79.9926C84.2935 80.206 84.4714 80.4372 84.6759 80.6417C87.2101 83.1759 89.762 85.6834 92.2873 88.2264C93.4877 89.4446 94.7859 90.5739 95.8441 91.9077H77.4379C77.2512 91.6854 77.0733 91.4542 76.8688 91.2497C73.8515 88.2502 70.8313 85.2417 67.808 82.2244C57.5112 71.9573 47.2115 61.6901 36.9088 51.423C34.508 49.0311 32.1783 46.5769 29.6797 44.3095V36.2446C32.8897 36.2446 36.1085 36.2446 39.3274 36.2446C39.5831 36.2353 39.8379 36.2814 40.0742 36.3796C40.3105 36.4778 40.5229 36.6259 40.6967 36.8137C49.1914 45.2787 57.692 53.7438 66.1986 62.2088C66.365 62.3723 66.5402 62.5266 66.7232 62.6712C69.2218 65.1876 71.7115 67.7218 74.2279 70.2293C76.0775 72.0788 77.9625 73.8927 79.8298 75.7245Z" fill="#472F85"/>
<path opacity="0.7" d="M95.8695 91.9067C94.7847 90.5729 93.4865 89.4436 92.3127 88.2254C89.7874 85.6824 87.2355 83.1749 84.7013 80.6407C84.4968 80.4362 84.3189 80.205 84.1322 79.9916C84.1322 79.6092 84.1322 79.2358 84.1322 78.8534C84.1322 65.8831 84.1322 52.9069 84.1322 39.9248C84.1208 39.2368 84.3756 38.5709 84.8436 38.0664C85.3406 37.3894 86.0108 36.8588 86.7837 36.5303C87.5566 36.2017 88.4038 36.0873 89.2361 36.1991C91.5925 36.3769 93.9755 36.2702 96.3496 36.1991C97.0788 36.1991 97.2388 36.3947 97.2388 37.0883C97.2388 50.106 97.2388 63.1029 97.2388 76.0791C97.2388 81.0052 97.2388 85.9343 97.2388 90.8663C97.2388 91.2131 97.2388 91.5599 97.2922 91.9067H95.8695Z" fill="#13D461"/>
<path d="M29.6611 68.796V50.4165C29.9368 50.4787 30.0791 50.7188 30.2569 50.9056L35.9388 56.5163C46.4075 66.9554 56.8762 77.3944 67.3449 87.8335C68.6787 89.1673 70.0925 90.4388 71.2929 91.906H52.8511C52.8511 91.6392 52.5933 91.5236 52.4332 91.3636C45.9896 84.9259 39.5341 78.4941 33.0667 72.0682C31.9937 70.9145 30.8567 69.8221 29.6611 68.796H29.6611Z" fill="#472F85"/>
<path d="M46.7068 91.9056C41.2206 91.9056 35.7343 91.9056 30.248 91.9056C29.7589 91.9056 29.6611 91.8078 29.6611 91.3276C29.6611 85.868 29.6611 80.3995 29.6611 74.9221C30.0257 74.9221 30.1769 75.2689 30.3992 75.4823C35.6572 80.7048 40.9064 85.9421 46.1467 91.1942C46.3601 91.381 46.6891 91.5321 46.7068 91.9056Z" fill="#472F85"/>
<path opacity="0.7" d="M79.8289 75.7235C77.9616 73.8918 76.0765 72.0779 74.227 70.2284C71.7106 67.7208 69.2209 65.1867 66.7223 62.6703C66.7223 60.7141 66.7223 58.7667 66.7223 56.8105C66.7027 56.6106 66.7277 56.4089 66.7953 56.2198C66.863 56.0307 66.9716 55.8589 67.1135 55.7168L79.3576 43.535C79.4554 43.4372 79.5799 43.3571 79.6688 43.2771C79.9445 43.3749 79.8645 43.5794 79.8645 43.7306C79.8645 54.2526 79.8645 64.7717 79.8645 75.2878C79.8618 75.4337 79.8499 75.5792 79.8289 75.7235V75.7235Z" fill="#13D461"/>
</svg>
