<svg width="56" height="56" viewBox="0 0 56 56" fill="none" xmlns="http://www.w3.org/2000/svg">
<path d="M38.3073 23.2375C35.8487 12.3917 30.7245 9.5044 29.4174 7.46338C28.8784 6.56426 28.4009 5.62967 27.9882 4.66602C27.9191 5.62952 27.7923 6.23652 26.9733 6.96718C25.3289 8.43331 18.3451 14.1244 17.7574 26.4476C17.2098 37.9373 26.2041 45.0223 27.3924 45.7546C28.3061 46.2042 29.419 45.7642 29.9618 45.3515C34.2975 42.3759 40.2214 34.443 38.3121 23.2375" fill="#10AA50"/>
<path d="M28.361 39.6357C28.1345 42.4797 27.9724 44.1321 27.3975 45.7572C27.3975 45.7572 27.7748 48.4646 28.0398 51.3327H28.9776C29.2013 49.313 29.5429 47.3082 30.0005 45.3284C28.7865 44.7311 28.4075 42.1312 28.361 39.6357Z" fill="#B8C4C2"/>
<path d="M29.9986 45.3297C28.7717 44.7628 28.4168 42.1084 28.3622 39.6354C28.6656 35.556 28.7541 31.4635 28.6272 27.3748C28.563 25.2294 28.6577 7.50421 28.0989 4.90918C28.4811 5.78809 28.9216 6.64054 29.4173 7.46085C30.7244 9.50348 35.8502 12.3908 38.3072 23.2366C40.2213 34.4229 34.3295 42.3348 29.9986 45.3297Z" fill="#12924F"/>
</svg>
