<svg width="56" height="56" viewBox="0 0 56 56" fill="none" xmlns="http://www.w3.org/2000/svg">
<path d="M33.3475 26.5146L24.3625 29.4443L16.5455 32.8892L14.3587 33.4656C13.8017 33.9946 13.2177 34.5304 12.5861 35.0729C11.8934 35.6696 11.2482 36.2122 10.7523 36.6055C10.2023 37.0395 9.38729 37.8533 8.97305 38.3686C8.35499 39.1416 7.86602 39.9621 7.65547 40.5929C7.28191 41.7322 7.46537 42.885 8.18525 43.9498C9.10887 45.306 10.9494 46.6893 13.0954 47.632C14.1889 48.1135 16.0294 48.7306 17.4148 49.0764C19.717 49.6596 24.1723 50.2903 26.6239 50.3853C27.1196 50.4056 27.7852 50.4056 27.8123 50.3853C27.8667 50.3513 28.2471 49.6258 28.6886 48.7239C30.1963 45.6518 31.2829 42.7697 31.8737 40.3081C32.2268 38.8163 32.5053 36.8293 32.6886 34.4762C32.7362 33.8184 32.7565 31.6145 32.7157 30.8685C32.6546 29.6478 32.5459 28.6578 32.3763 27.688C32.3491 27.5456 32.3422 27.4167 32.3558 27.41C32.3829 27.3897 32.4644 27.3625 33.5714 27.0437L33.3474 26.5149V26.5147H33.3475V26.5146ZM31.2965 27.715C31.378 27.715 31.5953 29.7969 31.6496 31.1126C31.6632 31.3906 31.6564 31.5737 31.6428 31.5737C31.5886 31.5737 30.4951 30.9295 29.7142 30.4413C29.035 30.014 27.7447 29.1595 27.5409 28.9968C27.4729 28.9493 27.4796 28.9426 28.0366 28.7526C28.9806 28.4338 31.2218 27.715 31.2965 27.715ZM26.7191 29.2205C26.7803 29.2205 26.9363 29.3086 27.3099 29.5392C28.7089 30.414 30.6106 31.472 31.4255 31.8246C31.6768 31.9331 31.7039 31.8924 31.1267 32.2858C29.8907 33.1266 28.3489 33.9539 26.4609 34.7881C26.1282 34.9373 25.8497 35.0525 25.843 35.0525C25.8294 35.0525 25.8701 34.8831 25.9243 34.6796C26.3794 32.9909 26.6375 31.282 26.6512 29.9122C26.6579 29.234 26.6579 29.234 26.7191 29.2138C26.7054 29.2205 26.7122 29.2205 26.7191 29.2205ZM25.7751 29.5799C25.8157 29.6205 25.7886 31.1396 25.7343 31.5533C25.612 32.5434 25.4219 33.4656 25.1096 34.5033C25.0349 34.754 24.9668 34.9644 24.9534 34.9779C24.9261 35.0117 23.9957 34.1031 23.6901 33.7504C23.1603 33.1401 22.7461 32.5298 22.4405 31.933C22.2843 31.6279 22.0398 31.0312 22.0602 31.0108C22.1688 30.9362 25.7479 29.5528 25.7751 29.5799ZM21.3334 31.3227C21.3402 31.3227 21.347 31.3227 21.3538 31.3295C21.3674 31.343 21.415 31.4516 21.4558 31.5736C21.673 32.1636 22.1619 33.0316 22.5831 33.5877C23.0449 34.1981 23.6494 34.849 24.1518 35.2762C24.3149 35.4119 24.4642 35.5407 24.4846 35.5611C24.5254 35.6018 24.539 35.5949 23.4319 36.0154C22.1485 36.5037 20.7493 36.9919 19.1465 37.5073C18.7637 37.6305 18.3811 37.7549 17.9989 37.8803C17.9377 37.9007 17.9581 37.8667 18.1347 37.5887C18.9293 36.3477 20.1381 33.9132 20.8173 32.1907C20.9328 31.8923 21.0482 31.594 21.0686 31.5262C21.0958 31.4312 21.1297 31.3973 21.218 31.3498C21.2655 31.3363 21.3131 31.3227 21.3334 31.3227ZM19.9753 31.8856C19.9956 31.8992 19.6492 32.6247 19.3096 33.2893C18.6508 34.571 17.931 35.8324 16.9666 37.365C16.8036 37.6294 16.6475 37.8736 16.627 37.9007C16.5931 37.9482 16.5795 37.9346 16.4708 37.7244C16.2399 37.27 16.0497 36.6868 15.9478 36.151C15.8459 35.622 15.8664 34.6998 15.9819 34.1302C16.0701 33.7098 16.0633 33.7166 16.2671 33.6148C17.1364 33.1741 19.9481 31.8584 19.9753 31.8856ZM31.6904 32.3603V32.6451C31.6904 34.1574 31.5274 36.2325 31.2897 37.7448C31.2489 38.0092 31.2148 38.2261 31.2082 38.233C31.2082 38.233 31.0112 38.1788 30.7803 38.1109C29.7617 37.7922 28.6546 37.3242 27.6562 36.775C26.9974 36.4156 26.0399 35.8256 26.0671 35.7984C26.0738 35.7917 26.3591 35.6425 26.6918 35.4661C28.0231 34.7745 29.2997 34.0285 30.4068 33.2894C30.8211 33.0113 31.4458 32.5638 31.5818 32.4417L31.6904 32.3603ZM14.8476 34.3675C14.8748 34.3675 14.868 34.4217 14.8272 34.6659C14.8 34.8422 14.7661 35.1678 14.7526 35.3914C14.6982 36.3816 14.8613 37.114 15.3502 38.1176C15.4861 38.3957 15.5948 38.6262 15.5879 38.633C15.5403 38.6737 11.0445 39.9894 9.63179 40.3758C9.21075 40.4911 8.84408 40.5928 8.81677 40.5995C8.76933 40.6132 8.7625 40.6064 8.78285 40.491C8.93904 39.4942 9.69972 38.1922 10.7591 37.0936C11.4655 36.3612 12.0292 35.934 12.9936 35.3846C13.6863 34.9914 14.7525 34.4015 14.834 34.3743C14.8341 34.3675 14.8409 34.3675 14.8476 34.3675ZM25.4423 36.2595C25.4491 36.2528 25.612 36.341 25.809 36.4562C27.2624 37.2971 29.2862 38.077 31.0111 38.4771L31.1674 38.511L30.95 38.633C30.0468 39.1348 27.079 40.369 24.0433 41.5015C23.6017 41.6642 23.1671 41.8271 23.0855 41.8609C23.004 41.8948 22.9293 41.9152 22.9293 41.9084C22.9293 41.9015 23.0516 41.6642 23.2077 41.3727C24.0567 39.7858 24.9125 37.8532 25.3471 36.5104C25.4016 36.3816 25.4354 36.2664 25.4423 36.2595ZM24.3625 36.6122C24.3693 36.6191 24.3149 36.7614 24.247 36.9241C23.6562 38.355 22.8818 39.9148 21.8903 41.6643C21.6391 42.112 21.4285 42.4714 21.4216 42.4714C21.415 42.4714 21.2112 42.3493 20.9667 42.2001C19.5268 41.3185 18.2501 40.2335 17.4148 39.1824L17.2925 39.0332L17.9105 38.8636C20.1245 38.2601 22.0057 37.6091 23.8734 36.8089C24.1383 36.7004 24.3557 36.6122 24.3625 36.6122ZM31.0724 38.9518C31.0724 38.9518 31.0792 38.9586 31.0724 38.9518C31.0792 39.1077 30.7328 40.5047 30.4475 41.5151C30.2098 42.3627 30.006 43.0274 29.6326 44.2005C29.4696 44.716 29.3271 45.1431 29.3202 45.1431C29.3134 45.1431 29.2727 45.1363 29.2319 45.1229C27.2149 44.7565 25.4083 44.248 23.7105 43.5699C23.235 43.3799 22.5559 43.0748 22.5152 43.0409C22.5016 43.0272 22.9092 42.8374 23.4253 42.6136C26.5154 41.2641 29.7209 39.7315 30.8211 39.0738C30.9501 38.9924 31.052 38.9518 31.0724 38.9518ZM15.5811 39.4808C15.5947 39.4943 14.7322 40.7353 13.5233 42.4238C13.1022 43.0138 12.6133 43.7055 12.4299 43.9632C12.2465 44.2209 11.9681 44.6278 11.8119 44.8719L11.5265 45.3127L11.2209 45.0551C10.861 44.7566 10.2362 44.1192 9.95777 43.7665C9.37367 43.041 8.97984 42.2747 8.82363 41.5763C8.74891 41.2507 8.7489 41.0879 8.81674 41.0677C8.91858 41.0405 10.7319 40.6133 12.4299 40.2199C13.3739 40.003 14.4672 39.7453 14.8611 39.6503C15.2551 39.5552 15.5744 39.4808 15.5811 39.4808ZM16.4504 39.813L16.6677 40.0571C17.6457 41.149 18.6441 41.9561 19.8529 42.6612C20.0703 42.7833 20.2333 42.8918 20.2196 42.8987C20.1722 42.9325 16.0225 44.4039 14.1006 45.0686C13.0208 45.4483 12.131 45.7534 12.1243 45.7534C12.1176 45.7534 12.0564 45.7128 11.9884 45.6653L11.8662 45.5771L12.0631 45.2924C12.7015 44.3701 13.503 43.3597 15.2484 41.2575L16.4504 39.813ZM21.8701 43.6851C21.8767 43.6784 22.1756 43.7868 22.5423 43.9226C23.4253 44.2548 24.1247 44.465 25.062 44.7024C26.2165 44.994 27.8872 45.2789 28.872 45.3602C29.0214 45.3737 29.1029 45.3873 29.0757 45.4077C29.0281 45.4348 28.0299 45.7671 27.2964 45.9977C26.1282 46.3638 22.5627 47.4149 19.656 48.2491C19.1195 48.405 18.6576 48.5339 18.6305 48.5406C18.5626 48.5543 18.3384 48.4931 18.3384 48.466C18.3384 48.4525 18.5014 48.2423 18.6984 48.0117C19.6763 46.8453 20.6476 45.5433 21.4558 44.3091C21.6798 43.9699 21.8701 43.6919 21.8701 43.6851ZM20.6747 43.7191C20.6814 43.7259 20.1993 44.4989 19.3572 45.8281C18.9972 46.3909 18.5965 47.0283 18.4538 47.2522C18.318 47.4692 18.1143 47.8083 17.9989 47.9981L17.8019 48.344L17.7001 48.3169C17.4555 48.249 15.7373 47.6454 15.2822 47.4624C14.7185 47.2386 14.1345 46.9674 13.6998 46.7368C13.1565 46.4452 12.4775 46.0111 12.5317 45.9976C12.5453 45.9909 13.4757 45.7399 14.5963 45.4348C17.571 44.6277 19.2212 44.1598 20.3012 43.8208C20.4981 43.7598 20.6679 43.7123 20.6747 43.7191ZM29.13 45.6992H29.1368C29.164 45.7671 28.0638 48.8187 27.663 49.7816C27.5748 49.9986 27.5409 50.0529 27.4933 50.046C27.3778 50.0394 25.7819 49.8155 24.8106 49.6731C23.1196 49.4154 20.2808 48.9203 19.5677 48.7576L19.4047 48.7238L20.4165 48.493C22.5899 48.0048 23.6357 47.7404 24.6951 47.4149C26.0331 47.008 27.3575 46.4994 28.6953 45.8755C28.9059 45.7806 29.0825 45.706 29.13 45.6992Z" fill="url(#paint0_linear)"/>
<path d="M24.0842 5.60093C23.9348 5.5807 21.5237 6.4487 19.9685 7.07929C17.8699 7.93385 16.2401 8.74766 15.2349 9.45277C14.8615 9.71736 14.3927 10.1852 14.3182 10.3683C14.291 10.4361 14.2773 10.5175 14.2773 10.5988L15.1874 11.4601L17.3539 12.1518L22.5086 13.0741L28.4035 14.0845L28.4646 13.5759C28.4443 13.5759 28.4307 13.5692 28.4105 13.5692L27.636 13.447L27.4799 13.169C26.6785 11.7585 25.7956 10.0089 25.2795 8.8289C24.8789 7.9134 24.4985 6.85561 24.2879 6.09605C24.1725 5.63493 24.1589 5.60781 24.0843 5.60106V5.6009H24.0842V5.60093ZM23.9754 5.94689H23.9824C23.989 5.95358 24.0162 6.14359 24.0434 6.36724C24.1588 7.31677 24.3695 8.23212 24.7022 9.22223C24.9534 9.96822 24.9534 9.92756 24.6615 9.83935C23.9687 9.64953 20.8651 9.11378 18.6171 8.80185C18.2572 8.75435 17.9515 8.70691 17.9515 8.70016C17.9244 8.67304 19.5746 7.81173 20.3013 7.47275C21.2318 7.04543 23.7853 5.98076 23.9754 5.94689ZM17.4285 8.98491L17.6935 9.07297C19.1331 9.56131 22.7529 10.253 24.7497 10.4158C24.9737 10.4361 25.164 10.4565 25.1707 10.4565C25.1774 10.4633 24.9874 10.565 24.7428 10.6802C23.7786 11.1617 22.719 11.7517 21.9855 12.2061C21.7683 12.3417 21.5712 12.4502 21.5442 12.4502C21.517 12.4502 21.3744 12.4231 21.225 12.4027L20.9533 12.362L20.2743 11.6974C19.079 10.5378 18.1417 9.64271 17.7817 9.30357L17.4285 8.98491ZM17.1569 9.19509L18.1145 10.3887C18.6374 11.0465 19.1671 11.6906 19.2827 11.833C19.398 11.9755 19.4932 12.0908 19.4864 12.0976C19.4592 12.1179 18.101 11.8534 17.381 11.6907C16.6408 11.5211 16.3352 11.4398 15.8802 11.2974L15.5066 11.1753V11.0803C15.5134 10.6259 16.0907 9.94783 17.0686 9.2562L17.1569 9.19509ZM25.293 10.8226C25.3202 10.8226 25.3541 10.8837 25.4356 11.0668C25.6665 11.5753 26.3865 12.9452 26.5629 13.2097C26.6174 13.2979 26.7123 13.3047 25.7549 13.1487C23.4526 12.7756 22.7123 12.6537 22.7123 12.6401C22.7123 12.6334 22.7802 12.5859 22.8685 12.5384C23.5816 12.1451 24.3015 11.6432 24.9399 11.1075C25.0961 10.9786 25.2387 10.8566 25.2658 10.8362C25.2726 10.8226 25.2863 10.8159 25.293 10.8226Z" fill="url(#paint1_linear)"/>
<path d="M14.3655 10.2725C14.3655 10.2725 14.2162 10.5099 14.3587 10.8626C14.4471 11.0795 14.7051 11.3439 14.9971 11.6152C14.9971 11.6152 18.0193 14.5583 18.3861 14.9788C20.0567 16.9047 20.7834 18.8035 20.8513 21.4211C20.8921 23.1029 20.5728 24.5812 19.7783 26.2969C18.3656 29.3757 15.3842 32.7732 10.7864 36.5437L11.4588 36.3199C11.8935 35.9943 12.4843 35.6486 13.8697 34.889C17.0685 33.1393 20.6679 31.5321 25.0824 29.8775C31.439 27.4904 41.8912 24.6964 47.8403 23.7878L48.4585 23.6928L48.3633 23.5436C47.8201 22.7027 47.4465 22.1806 46.9982 21.6245C45.6943 20.0105 44.112 18.7018 42.1764 17.6167C39.5141 16.1317 36.0707 14.9721 31.7108 14.1108C30.889 13.948 29.0825 13.6361 27.6156 13.4123C24.505 12.9309 22.4948 12.5986 20.2808 12.2188C19.4863 12.0831 18.2977 11.8798 17.5099 11.7103C17.1024 11.622 16.3215 11.4389 15.7102 11.2287C15.2213 11.0388 14.5149 10.8489 14.3655 10.2725ZM16.1178 11.9679C16.1245 11.9612 16.2331 12.0017 16.3758 12.0492C16.6339 12.1373 16.9666 12.2391 17.3607 12.3476C17.6587 12.4295 17.9576 12.5086 18.2571 12.585C18.6646 12.6866 19.0041 12.7816 19.0109 12.7816C19.0585 12.8291 19.7444 15.0193 19.9753 15.8602C20.0635 16.1791 20.1316 16.4502 20.1248 16.4502C20.1178 16.4571 20.0432 16.3418 19.9549 16.1858C19.1603 14.7888 17.9039 13.3715 16.4505 12.2322C16.2604 12.0967 16.1178 11.9746 16.1178 11.9679ZM19.4591 12.8901C19.4931 12.8901 19.6425 12.9105 19.8258 12.9511C20.9804 13.2088 23.0518 13.6022 24.3761 13.826C24.6002 13.8598 24.7768 13.9006 24.7768 13.9141C24.7768 13.9277 24.6953 13.9751 24.5934 14.0294C24.3693 14.1447 23.466 14.6803 23.1673 14.8838C22.4133 15.3856 21.7343 15.9281 21.2453 16.4164C21.0483 16.6131 20.8785 16.7758 20.8785 16.7758C20.8785 16.7758 20.8378 16.6606 20.8037 16.5181C20.5594 15.5754 20.0499 14.1785 19.5881 13.1952C19.5134 13.0393 19.4522 12.8969 19.4522 12.8833C19.4522 12.8969 19.4522 12.8901 19.4591 12.8901ZM25.3405 14.0091C25.3812 14.0226 25.4491 14.2532 25.5849 14.7617C25.8363 15.7451 25.9517 16.8437 25.911 17.8676C25.8973 18.1525 25.8838 18.4169 25.8701 18.4509L25.8498 18.5186L25.4967 18.4034C24.77 18.1728 23.5883 17.8269 22.5765 17.5421C21.9991 17.3862 21.5306 17.2438 21.5306 17.2302C21.5306 17.1895 22.3728 16.3486 22.7327 16.0299C23.4185 15.4263 25.2793 13.9887 25.3405 14.0091ZM25.8091 14.0768C25.8295 14.0566 28.6208 14.5379 29.8908 14.7821C30.8348 14.9652 32.2067 15.25 32.2881 15.284C32.3289 15.2975 32.1862 15.3788 31.7312 15.5823C29.9383 16.3893 28.6071 17.1148 27.2829 17.9965C26.9365 18.2271 26.6445 18.4169 26.6377 18.4169C26.6309 18.4169 26.6241 18.2203 26.6241 17.9829C26.6241 16.6945 26.366 15.3924 25.8905 14.2939C25.843 14.1854 25.8023 14.0837 25.8091 14.0768ZM33.0283 15.501C33.0488 15.5213 32.9604 16.0706 32.8789 16.3961C32.6345 17.4065 31.9757 18.9053 31.1676 20.3157C31.0249 20.5667 30.8959 20.7701 30.8822 20.7769C30.8688 20.7836 30.6854 20.6819 30.4748 20.5598C29.687 20.0987 28.7906 19.6647 27.8125 19.2578C27.541 19.1425 27.3032 19.0475 27.2964 19.0341C27.2488 18.9933 29.4357 17.5489 30.5903 16.8572C31.5071 16.3012 33.0012 15.4738 33.0283 15.501ZM33.5445 15.5823C33.6056 15.5823 34.8417 15.9214 35.4868 16.1113C37.0828 16.586 38.9164 17.2573 40.1118 17.7998L40.6075 18.0237L40.2612 18.105C37.341 18.7763 34.8417 19.5495 32.4307 20.526C32.2337 20.6073 32.0571 20.6752 32.0437 20.6752C32.03 20.6752 32.098 20.5192 32.1862 20.3293C32.9129 18.7899 33.3815 17.1827 33.4969 15.8128C33.5038 15.684 33.524 15.5823 33.5445 15.5823ZM21.2385 18.4034C21.2588 18.383 22.2029 18.6068 22.7122 18.7491C23.4864 18.9662 25.1299 19.5154 25.1299 19.5562C25.1299 19.5629 24.9466 19.7189 24.7293 19.9089C23.8397 20.648 22.9839 21.4278 21.9583 22.4179C21.6527 22.7096 21.3947 22.9469 21.3811 22.9469C21.3675 22.9469 21.3608 22.9061 21.3675 22.8519C21.5237 21.7126 21.4898 20.2479 21.2725 18.7628C21.252 18.5728 21.2317 18.4101 21.2385 18.4034ZM41.0763 18.4238C41.0897 18.4373 40.6415 19.1425 40.3563 19.5426C39.9489 20.1258 39.3511 20.899 37.9996 22.5943C37.2866 23.4894 36.4851 24.4999 36.2204 24.8389C35.9486 25.178 35.7246 25.4627 35.7177 25.4627C35.7109 25.4627 35.6227 25.3407 35.5276 25.1916C34.7669 24.0522 33.8568 23.0554 32.777 22.1603C32.5733 21.9907 32.3493 21.8076 32.2745 21.7533C32.1998 21.6991 32.1386 21.6448 32.1386 21.6381C32.1386 21.6178 33.2931 21.1226 34.1693 20.7701C35.7042 20.1462 37.7957 19.4002 39.3647 18.9187C40.1865 18.6611 41.0626 18.4101 41.0763 18.4238ZM41.5991 18.5593C41.6262 18.5526 41.7893 18.634 41.9863 18.7491C43.6366 19.6917 45.2529 20.9057 46.5298 22.1535C46.8897 22.5061 47.7793 23.4284 47.7657 23.4352C47.7657 23.4352 47.4533 23.4623 47.0866 23.4894C44.2274 23.7064 40.5669 24.3099 37.0489 25.1575C36.8112 25.2117 36.6007 25.2592 36.5871 25.2592C36.5737 25.2592 36.8384 24.9948 37.1713 24.6761C39.2358 22.6892 40.1799 21.4346 41.2936 19.1967C41.4497 18.8645 41.5856 18.5797 41.5991 18.5593C41.5924 18.5593 41.5924 18.5593 41.5991 18.5593ZM26.4746 20.1056C26.5698 20.1258 27.4526 20.5396 28.1182 20.8718C28.7294 21.1769 29.6463 21.6652 29.6938 21.7058C29.7006 21.7126 29.3745 21.8822 28.974 22.0789C27.6971 22.7163 26.6037 23.3198 25.4627 24.0115C25.1367 24.2082 24.8651 24.371 24.8583 24.371C24.8311 24.371 24.8379 24.3438 25.0213 24.0115C25.6326 22.8994 26.1215 21.5703 26.4 20.275C26.4271 20.1733 26.4543 20.1056 26.4746 20.1056ZM25.5917 20.2682C25.6121 20.2886 25.3812 21.1227 25.2387 21.577C24.9601 22.4383 24.4915 23.5165 24.0366 24.3303C23.9278 24.5201 23.7648 24.7981 23.6766 24.9541L23.5068 25.2253L23.1265 24.8592C22.6851 24.432 22.3251 24.1675 21.8633 23.9301C21.6799 23.8352 21.5373 23.7538 21.5373 23.7403C21.5373 23.6861 22.6986 22.635 23.5883 21.8754C24.2267 21.3261 25.5714 20.2479 25.5917 20.2682ZM30.991 22.4858L31.3238 22.7027C32.0843 23.1978 32.9807 23.8556 33.6668 24.432C34.0538 24.7506 34.8008 25.4221 34.9504 25.5848L35.0317 25.6731L34.4818 25.829C31.3713 26.6901 28.9671 27.4565 26.1622 28.4873C25.8498 28.6025 25.5849 28.6975 25.5645 28.6975C25.5239 28.6975 25.4898 28.7313 26.1894 28.0871C27.9824 26.4394 29.5715 24.6218 30.7533 22.8519L30.991 22.4858ZM29.5716 22.8384C29.5851 22.8519 28.6547 24.1607 28.0978 24.8999C27.4322 25.7815 26.2505 27.2598 25.4355 28.2227C25.096 28.6229 24.8041 28.9551 24.7904 28.9619C24.77 28.9687 24.7632 28.867 24.7632 28.711C24.7632 27.8904 24.5527 27.0156 24.1859 26.2697C24.0297 25.9578 24.0025 25.8832 24.0366 25.8493C24.1656 25.734 26.1419 24.6082 27.3915 23.9369C28.2336 23.4894 29.551 22.8248 29.5716 22.8384ZM20.9871 24.9406C21.0076 24.9406 21.1638 25.0219 21.3404 25.1169C21.775 25.3543 22.1621 25.6187 22.5085 25.9036C22.522 25.9171 22.3455 26.0596 22.1146 26.229C21.4694 26.6901 20.4914 27.4294 19.921 27.8838C19.3232 28.3585 19.303 28.372 19.3708 28.2703C19.8191 27.5854 20.0431 27.1988 20.2809 26.7038C20.4914 26.2631 20.7019 25.7409 20.8513 25.2865C20.9056 25.0898 20.9736 24.9406 20.9871 24.9406ZM23.2759 26.7309C23.3098 26.7242 23.3507 26.7851 23.5339 27.0564C23.9211 27.6327 24.2199 28.4059 24.2947 29.0298L24.3081 29.1655L23.3778 29.5249C21.7138 30.1691 20.1791 30.8066 19.1399 31.2812C18.8479 31.4169 18.3385 31.6609 18.0058 31.8238C17.673 31.9932 17.4013 32.1221 17.4013 32.1153C17.4013 32.1086 17.6118 31.9526 17.8699 31.7627C19.9007 30.2912 21.6596 28.6771 22.9771 27.0632C23.1197 26.8936 23.2488 26.7376 23.2623 26.7309L23.2759 26.7309ZM22.2233 26.9886C22.2505 27.0157 21.4763 27.8905 20.9465 28.4262C19.6358 29.7622 18.3386 30.8066 16.729 31.8238C16.5252 31.9526 16.3419 32.0678 16.3215 32.0815C16.2739 32.1086 16.335 32.0407 17.0414 31.2744C17.4897 30.7929 17.8292 30.3861 18.2163 29.8843C18.4743 29.5521 18.5219 29.5046 18.8955 29.24C19.8939 28.5212 22.1961 26.9614 22.2233 26.9886Z" fill="url(#paint2_radial)"/>
<defs>
<linearGradient id="paint0_linear" x1="14.2266" y1="45.9689" x2="17.4731" y2="44.0478" gradientUnits="userSpaceOnUse">
<stop stop-color="#909CA9"/>
<stop offset="1" stop-color="#EDEDEE"/>
</linearGradient>
<linearGradient id="paint1_linear" x1="14.3012" y1="9.82946" x2="16.9154" y2="9.82946" gradientUnits="userSpaceOnUse">
<stop stop-color="#939FAB"/>
<stop offset="1" stop-color="#DCDEE1"/>
</linearGradient>
<radialGradient id="paint2_radial" cx="0" cy="0" r="1" gradientUnits="userSpaceOnUse" gradientTransform="translate(27.4925 21.8005) rotate(-171.47) scale(3.37035 6.73284)">
<stop stop-color="#EE352C"/>
<stop offset="1" stop-color="#A91D22"/>
</radialGradient>
</defs>
</svg>
