<svg width="56" height="56" viewBox="0 0 56 56" fill="none" xmlns="http://www.w3.org/2000/svg">
<path d="M3 38.8397H4.64147V31.9723L7.19345 37.9593C7.4884 38.6907 7.91159 38.9345 8.71951 38.9345C9.52742 38.9345 9.92496 38.6772 10.2199 37.9593L12.7719 31.9723V38.8397H14.4134V31.9859C14.4134 31.3222 14.1569 30.9971 13.6311 30.821C12.3743 30.4147 11.5408 30.7668 11.1561 31.6608L8.66821 37.5665L6.24447 31.6608C5.8854 30.7668 5.02619 30.4147 3.76944 30.821C3.25648 30.9836 3 31.3086 3 31.9723V38.8397Z" fill="#0F758E"/>
<path d="M15.7861 33.2449H17.4276V37.0239C17.4148 37.2271 17.4917 37.7147 18.3894 37.7282C18.8511 37.7418 21.9417 37.7282 21.9673 37.7282V33.2178H23.6216C23.6344 33.2178 23.6216 39.3672 23.6216 39.3942C23.6344 40.9113 21.8391 41.2364 21.0183 41.2634H15.8246V40.0986C15.8374 40.0986 21.0183 40.0986 21.0312 40.0986C22.0955 39.9767 21.9673 39.4213 21.9673 39.2317V38.7712H18.4663C16.8377 38.7576 15.799 37.9991 15.7861 37.1458C15.7861 37.0645 15.8246 33.2855 15.7861 33.2449Z" fill="#0F758E"/>
<path d="M24.9028 38.8396H29.6349C30.1863 38.8396 30.725 38.7177 31.161 38.501C31.8791 38.1488 32.2254 37.6883 32.2254 37.0788V35.8056C32.2254 35.3044 31.8278 34.8303 31.0584 34.5188C30.648 34.3563 30.1351 34.2614 29.6477 34.2614H27.6472C26.9803 34.2614 26.6597 34.0447 26.5828 33.5842C26.57 33.53 26.57 33.4894 26.57 33.4217V32.6361C26.57 32.5954 26.57 32.5412 26.5828 32.4871C26.6597 32.1349 26.8393 32.0265 27.4164 31.9724C27.4677 31.9724 27.5318 31.9588 27.5702 31.9588H32.2767V30.7939H27.6472C26.9803 30.7939 26.6341 30.8346 26.3135 30.9429C25.326 31.268 24.9028 31.7827 24.9028 32.6767V33.6926C24.9028 34.4782 25.7364 35.1419 27.1471 35.3044C27.3009 35.3179 27.4677 35.3315 27.6215 35.3315H29.3271C29.3913 35.3315 29.4554 35.3315 29.5067 35.345C30.0325 35.3857 30.2505 35.494 30.4044 35.6972C30.4941 35.792 30.5326 35.9004 30.5326 36.0087V37.0246C30.5326 37.1465 30.4557 37.309 30.2889 37.4309C30.1479 37.5664 29.9042 37.6477 29.5964 37.6748C29.5323 37.6748 29.481 37.6883 29.4169 37.6883H24.8772V38.8396" fill="#F0902A"/>
<path d="M42.4851 36.8215C42.4851 38.0135 43.3187 38.6772 45.0243 38.8126C45.1782 38.8262 45.3449 38.8397 45.4987 38.8397H49.7948V37.6749H45.4731C44.5113 37.6749 44.1394 37.4175 44.1394 36.808V30.8076H42.4979V36.8215" fill="#F0902A"/>
<path d="M35.0467 36.7812C35.0467 36.8354 35.0595 36.8896 35.0723 36.9573C35.1621 37.4314 35.5981 37.7023 36.2521 37.7023H37.7526L36.3804 36.3884H38.2912L39.4838 37.5262C39.7018 37.4043 39.8557 37.2147 39.907 36.9709C39.9198 36.9167 39.9198 36.8625 39.9198 36.8083V32.8396C39.9198 32.799 39.9198 32.7448 39.907 32.6771C39.8172 32.2301 39.3812 31.9727 38.7528 31.9727H36.265C35.534 31.9727 35.0595 32.3114 35.0595 32.8396V36.7812H35.0467ZM33.2642 36.876V32.7448C33.2642 31.6883 33.9567 31.0517 35.3416 30.8621C35.4827 30.835 35.6494 30.835 35.7905 30.835H38.9195C39.0734 30.835 39.2273 30.8485 39.3812 30.8621C40.7662 31.0652 41.4587 31.7018 41.4587 32.7448V36.876C41.4587 37.7294 41.1637 38.1899 40.4841 38.4879L42.0999 40.032H40.1891L38.8811 38.7859L37.5602 38.8807H35.8033C35.4955 38.8807 35.1878 38.8401 34.8415 38.7317C33.7771 38.4202 33.2642 37.8377 33.2642 36.876Z" fill="#F0902A"/>
<path d="M51.2307 28.8837C50.2176 28.8566 49.4482 28.9514 48.7813 29.2494C48.589 29.3307 48.294 29.3307 48.2684 29.588C48.371 29.6964 48.3838 29.8725 48.4735 30.0079C48.6274 30.2788 48.8967 30.6445 49.1404 30.8342C49.3969 31.0373 49.6662 31.2676 49.9483 31.4437C50.4484 31.7688 50.9999 31.9448 51.4744 32.2699C51.7565 32.4595 52.0386 32.6898 52.3079 32.9065C52.449 33.0149 52.5388 33.1774 52.7055 33.2451C52.7055 33.2316 52.7055 33.2316 52.7055 33.2181C52.6157 33.0961 52.5901 32.9201 52.5003 32.7982C52.372 32.6627 52.2566 32.5408 52.1284 32.4054C51.7565 31.8907 51.2948 31.4437 50.8075 31.0644C50.41 30.7664 49.5379 30.3601 49.3712 29.8725C49.3584 29.8589 49.3584 29.8589 49.3456 29.8454C49.6277 29.8183 49.9483 29.7099 50.2048 29.6287C50.6408 29.5068 51.0255 29.5339 51.4744 29.412C51.6796 29.3578 51.8719 29.2901 52.0771 29.2359C52.0771 29.1952 52.0771 29.1546 52.0771 29.114C51.8463 28.8702 51.6924 28.5451 51.4487 28.3284C50.8075 27.7459 50.1022 27.1635 49.3712 26.6895C48.9737 26.4186 48.4735 26.2425 48.0503 26.0258C47.9093 25.9445 47.6528 25.9039 47.563 25.7819C47.345 25.484 47.2168 25.1047 47.0501 24.7525C46.691 24.0211 46.3319 23.2084 46.0113 22.4364C45.7933 21.9081 45.6523 21.3934 45.383 20.9194C44.0621 18.6167 42.6514 17.2487 40.4713 15.8942C40.0097 15.6098 39.4454 15.5014 38.8555 15.3524C38.5349 15.3389 38.2271 15.3118 37.9065 15.2983C37.7142 15.217 37.509 14.9596 37.3295 14.8377C36.6113 14.3501 34.7518 13.3072 34.226 14.6887C33.8926 15.5556 34.7262 16.4089 35.034 16.8424C35.2391 17.1539 35.5213 17.4925 35.6623 17.8447C35.7649 18.0749 35.7778 18.3052 35.8675 18.549C36.0727 19.145 36.2651 19.7951 36.5344 20.3369C36.6754 20.6214 36.8165 20.9058 36.996 21.1632C37.0986 21.3122 37.2782 21.3799 37.3166 21.6237C37.1371 21.881 37.1243 22.2874 37.0345 22.626C36.5857 24.1295 36.7524 25.9851 37.4064 27.0958C37.6116 27.4344 38.0861 28.1658 38.7273 27.8814C39.2915 27.6376 39.1633 26.8791 39.33 26.2154C39.3685 26.0664 39.3428 25.958 39.4198 25.8497C39.4198 25.8632 39.4198 25.8632 39.4198 25.8768C39.5865 26.2425 39.766 26.6082 39.9327 26.9739C40.3175 27.624 40.9971 28.3013 41.5742 28.7618C41.8692 29.0056 42.1128 29.412 42.4975 29.5474C42.4975 29.5339 42.4975 29.5203 42.4975 29.5203C42.4847 29.5203 42.4847 29.5203 42.4719 29.5203C42.3949 29.3984 42.2795 29.3442 42.1898 29.2494C41.9589 29.0192 41.7153 28.7212 41.5229 28.4638C40.9971 27.7053 40.5355 26.8926 40.1123 26.0258C39.9071 25.6194 39.7404 25.1589 39.5608 24.7525C39.4967 24.59 39.4967 24.3462 39.3557 24.2649C39.1633 24.5765 38.894 24.8203 38.7529 25.1724C38.5221 25.7549 38.4964 26.4456 38.4067 27.1771C38.3554 27.1906 38.381 27.1771 38.3554 27.2042C37.9578 27.0958 37.8168 26.6624 37.6629 26.2967C37.291 25.3485 37.214 23.8315 37.5475 22.7344C37.6372 22.4499 38.022 21.5695 37.8681 21.3122C37.7911 21.0548 37.5475 20.9058 37.4064 20.7026C37.2397 20.4588 37.0602 20.1338 36.9447 19.8493C36.637 19.1179 36.4959 18.2781 36.1625 17.5332C36.0086 17.181 35.7393 16.8153 35.5341 16.5037C35.2904 16.1516 35.034 15.8942 34.8416 15.4743C34.7775 15.3254 34.6877 15.0815 34.7903 14.9326C34.8159 14.8242 34.8672 14.7836 34.957 14.7565C35.1237 14.621 35.5854 14.7971 35.7649 14.8784C36.2266 15.0815 36.6113 15.2712 37.0089 15.5421C37.2012 15.6775 37.3808 15.9213 37.6116 16.0026C37.7014 16.0026 37.7783 16.0026 37.8681 16.0026C38.2784 16.0974 38.7273 16.0297 39.112 16.1516C39.7789 16.3683 40.3816 16.7069 40.9202 17.0591C42.5745 18.1698 43.9338 19.741 44.87 21.6237C45.0239 21.9217 45.088 22.2197 45.2162 22.5312C45.4855 23.1813 45.819 23.845 46.0754 24.4816C46.3448 25.1183 46.6012 25.7549 46.9731 26.2696C47.1655 26.5405 47.9221 26.6895 48.2684 26.852C48.512 26.9603 48.9096 27.0687 49.1276 27.2177C49.5636 27.4886 49.9868 27.8272 50.3971 28.1252C50.5767 28.2742 51.2051 28.6128 51.2307 28.8837Z" fill="#0F758E"/>
<path fill-rule="evenodd" clip-rule="evenodd" d="M38.3672 17.3018C38.162 17.3018 38.0081 17.3289 37.8542 17.3559C37.8542 17.3695 37.8542 17.3695 37.8542 17.383C37.8671 17.383 37.8671 17.383 37.8799 17.383C37.9825 17.5998 38.162 17.7488 38.2774 17.925C38.3672 18.1417 38.4698 18.3449 38.5596 18.5617C38.5724 18.5482 38.5724 18.5482 38.5852 18.5346C38.7647 18.3991 38.8417 18.1959 38.8417 17.8708C38.7647 17.7895 38.7647 17.6946 38.7006 17.5998C38.6365 17.4779 38.4698 17.3966 38.3672 17.3018Z" fill="#0F758E"/>
<path fill-rule="evenodd" clip-rule="evenodd" d="M51.5253 37.5396V37.1197H51.7946C51.9356 37.1197 52.1024 37.1468 52.1024 37.3229C52.1024 37.5261 51.9485 37.5396 51.7818 37.5396H51.5253ZM52.1024 38.3794H52.3717L51.9741 37.7428C52.1921 37.7157 52.346 37.6074 52.346 37.3365C52.346 37.0385 52.1665 36.9166 51.8202 36.9166H51.2816V38.3794H51.5125V37.7428H51.7305L52.1024 38.3794ZM52.7179 37.6345C52.7179 38.2169 52.2947 38.6504 51.7818 38.6504C51.256 38.6504 50.8456 38.2169 50.8456 37.6345C50.8456 37.052 51.256 36.6186 51.7818 36.6186C52.2947 36.6321 52.7179 37.0656 52.7179 37.6345ZM50.5635 37.6345C50.5635 38.4065 51.1406 38.9213 51.7818 38.9213C52.423 38.9213 53 38.4065 53 37.6345C53 36.8624 52.423 36.3477 51.7818 36.3477C51.1277 36.3612 50.5635 36.8759 50.5635 37.6345Z" fill="#F0902A"/>
</svg>
