<svg width="56" height="56" viewBox="0 0 56 56" fill="none" xmlns="http://www.w3.org/2000/svg">
<g clip-path="url(#clip0)">
<path d="M19.9804 42.0692C12.3755 42.0692 6.2915 35.9853 6.2915 28.3803C6.2915 20.7754 12.3755 14.6914 19.9804 14.6914H36.0199C43.6248 14.6914 49.7088 20.7754 49.7088 28.3803C49.7088 35.9853 43.6248 42.0692 36.0199 42.0692H19.9804ZM35.6051 37.2297C40.5829 37.2297 44.4545 33.2198 44.4545 28.3803C44.4545 23.4026 40.4446 19.531 35.6051 19.531H20.3952C15.4174 19.531 11.5458 23.5408 11.5458 28.3803C11.5458 33.2198 15.5557 37.2297 20.3952 37.2297H35.6051Z" fill="#E0252D"/>
</g>
<defs>
<clipPath id="clip0">
<rect width="44.8" height="28.7605" fill="white" transform="translate(5.6001 14)"/>
</clipPath>
</defs>
</svg>
