<svg width="56" height="56" viewBox="0 0 56 56" fill="none" xmlns="http://www.w3.org/2000/svg">
<path d="M50.398 34.455C50.0565 35.6811 49.1426 36.4225 48.1542 37.0959C46.7395 38.0654 45.1522 38.5596 43.4592 38.7096C42.7047 38.7766 41.9426 38.753 41.1843 38.7709C41.156 38.7748 41.128 38.7805 41.1004 38.7879C41.0749 39.1199 41.0381 39.4585 41.0249 39.798C40.9895 41.1113 40.8745 42.4212 40.6807 43.7206C40.4609 45.1145 40.1289 46.4764 39.4866 47.7459C38.6189 49.4562 37.2759 50.6062 35.4575 51.196C34.4314 51.528 33.3882 51.7817 32.2998 51.8071C30.19 51.8552 28.4659 50.7847 27.6011 48.8598C26.9655 47.4835 26.5852 46.0033 26.4787 44.4911C26.3891 43.0566 26.3278 41.6192 26.2542 40.1828C26.2542 40.1394 26.2495 40.096 26.2467 40.0432C25.9317 40.1488 25.6261 40.2658 25.313 40.3535C23.9973 40.7251 22.6721 40.7119 21.3366 40.4554C20.5821 40.3101 19.8625 40.0856 19.2221 39.6565C18.9344 39.4679 18.676 39.2293 18.3912 39.0029C18.2167 39.1227 18.0186 39.2727 17.8083 39.4009C16.3247 40.3092 14.5959 40.2045 13.2114 39.1482C12.2117 38.3851 11.4817 37.4005 10.8535 36.3291C9.82265 34.5635 9.08133 32.6715 8.43622 30.74C7.3371 27.4077 6.48595 23.9986 5.88971 20.5407C5.56211 18.7174 5.51187 16.855 5.74069 15.0167C5.95856 13.3002 6.44806 11.6714 7.41761 10.2151C8.60221 8.4354 10.2574 7.29796 12.2909 6.69152C13.832 6.23126 15.4089 6.13129 17.0066 6.21994C19.108 6.33972 21.1424 6.79715 23.1371 7.43661C23.2349 7.46107 23.3384 7.44865 23.4276 7.40171C24.8428 6.61655 26.4194 6.16705 28.0358 6.0879C29.4486 6.0168 30.8648 6.10061 32.2593 6.33784C32.3571 6.3533 32.4571 6.34784 32.5526 6.3218C34.0022 5.90814 35.4947 5.66319 37.0005 5.59181C37.0557 5.58592 37.1105 5.57678 37.1646 5.56445H38.6972C38.7576 5.57483 38.817 5.58897 38.8783 5.59652C39.5329 5.67197 40.1931 5.71441 40.841 5.82665C43.8346 6.34538 46.3801 7.70163 48.44 9.94822C49.0502 10.6084 49.585 11.3214 49.8547 12.2052C50.149 13.1832 50.232 14.1858 50.2122 15.195C50.1763 17.0982 49.8349 18.9572 49.3633 20.7916C48.3386 24.6943 46.7813 28.4373 44.7353 31.9151C44.6985 31.9774 44.6636 32.0415 44.6155 32.1273C44.6783 32.1307 44.7413 32.1307 44.8041 32.1273C45.2616 32.0755 45.7199 32.0274 46.1755 31.9651C46.7414 31.8887 47.3073 31.7548 47.8731 31.7246C48.8408 31.6746 49.6444 32.017 50.1556 32.8885C50.2481 33.0692 50.3296 33.2554 50.3999 33.4459L50.398 34.455ZM42.4915 32.9649C42.5472 32.8762 42.5962 32.8055 42.6396 32.731C43.3413 31.5134 44.0939 30.3222 44.7343 29.0725C46.6414 25.3546 48.0712 21.4679 48.6956 17.3152C48.8842 16.0372 48.9785 14.7526 48.7899 13.4633C48.6861 12.7418 48.5003 12.0439 48.0354 11.4591C45.8463 8.68251 42.9424 7.23289 39.4612 6.87449C38.4008 6.77027 37.3328 6.77027 36.2724 6.87449C34.9531 6.98699 33.6508 7.24865 32.3904 7.65447C32.3157 7.67966 32.2357 7.68486 32.1584 7.66957C30.7751 7.33988 29.3498 7.22222 27.9312 7.3206C26.3721 7.43849 24.9131 7.87329 23.5927 8.73061C23.5529 8.75427 23.5088 8.76972 23.4629 8.77604C23.4171 8.78236 23.3704 8.77942 23.3258 8.76739C21.562 8.13344 19.7308 7.70585 17.8687 7.4932C16.3596 7.3272 14.8506 7.33003 13.3538 7.65825C10.5442 8.27695 8.58712 9.89257 7.57889 12.6117C7.17318 13.7182 6.94495 14.882 6.90265 16.0598C6.86682 16.9351 6.82815 17.8235 6.93472 18.6884C7.10826 20.1031 7.35914 21.5178 7.64963 22.9175C8.26397 25.9476 9.11123 28.9258 10.1839 31.8255C10.7809 33.4195 11.4666 34.9719 12.4257 36.3866C12.8785 37.0553 13.3981 37.6655 14.0715 38.1286C15.109 38.8416 16.2776 38.8482 17.2858 38.0947C17.6583 37.8039 18.0011 37.4769 18.3091 37.1185C19.4485 35.849 20.5727 34.5644 21.6988 33.2836C21.7115 33.2634 21.7282 33.2461 21.748 33.2328C21.7678 33.2195 21.7901 33.2105 21.8136 33.2064C21.8371 33.2023 21.8612 33.2032 21.8843 33.209C21.9074 33.2149 21.9291 33.2255 21.9478 33.2403C22.4229 33.4885 22.9335 33.6619 23.4616 33.7543C23.7596 33.8024 24.0605 33.8382 24.3774 33.8816C24.3571 33.9258 24.3335 33.9684 24.3066 34.0089C24.0888 34.2815 23.8681 34.5522 23.6464 34.8238C23.4297 35.109 23.1283 35.3183 22.7853 35.4218C22.2119 35.584 21.6328 35.7283 21.0537 35.8717C20.5208 36.0037 19.9898 36.1367 19.5447 36.48C19.0231 36.8808 18.9297 37.5684 19.3702 38.055C19.5904 38.2905 19.847 38.4889 20.1304 38.6426C20.8745 39.0576 21.7026 39.1868 22.5363 39.2528C24.2595 39.3896 25.8213 38.9803 27.1578 37.8381C27.1915 37.813 27.2268 37.79 27.2634 37.7693C27.2634 37.8513 27.2634 37.906 27.2634 37.9579C27.2577 40.3686 27.2936 42.7774 27.519 45.1805C27.6284 46.3585 27.918 47.4667 28.5565 48.474C29.4367 49.8623 30.6968 50.5691 32.3366 50.5942C33.3335 50.6103 34.288 50.3839 35.2245 50.0717C36.1611 49.7595 37.0165 49.2974 37.6871 48.5467C38.2734 47.8875 38.6824 47.0901 38.8755 46.2293C39.0726 45.3805 39.2235 44.5232 39.3471 43.6621C39.5744 42.0587 39.7677 40.4554 39.9714 38.852C40.0403 38.3154 40.0978 37.7778 40.1601 37.2487C40.4911 37.3034 40.8071 37.3713 41.1277 37.4043C41.9351 37.4717 42.7474 37.449 43.5497 37.3364C45.1276 37.1477 46.5678 36.6205 47.8364 35.6481C48.2731 35.3124 48.6852 34.9549 48.9531 34.4598C49.1417 34.1098 49.1841 33.7477 48.9531 33.3968C48.7352 33.0601 48.3928 32.9347 48.0193 32.9498C47.6224 32.9721 47.2274 33.02 46.8366 33.0931C45.8105 33.2695 44.7843 33.4317 43.7374 33.3327C43.3083 33.294 42.8886 33.2186 42.4915 32.9649Z" fill="#141446"/>
<path d="M41.1351 17.592L40.772 17.5712C39.761 17.5108 38.7546 17.5174 37.7926 17.8909C36.5288 18.3804 35.8422 19.3141 35.696 20.6572C35.5734 21.7786 35.8261 22.8453 36.1675 23.8969C36.6514 25.3937 37.3569 26.7924 38.0982 28.1741C38.533 28.9852 38.9574 29.802 39.379 30.6188C39.7188 31.2559 40.1233 31.8564 40.5862 32.4107C40.6805 32.5258 40.7673 32.6446 40.8692 32.7833L40.5277 32.9144C39.6431 33.2605 39.1715 33.933 39.0262 34.8469C38.9725 35.1827 38.98 35.5279 38.9498 35.8683C38.8876 36.5738 38.8253 37.2831 38.7499 37.9838C38.6763 38.6629 38.5858 39.3401 38.5018 40.0182C38.4122 40.7454 38.3283 41.4735 38.2283 42.1988C38.1019 43.1098 37.9841 44.0219 37.8181 44.9254C37.714 45.4862 37.5645 46.0375 37.371 46.574C37.2242 46.9899 36.996 47.3724 36.6996 47.6991C36.4033 48.0257 36.0448 48.29 35.645 48.4764C34.6355 48.9824 33.5258 49.2569 32.3968 49.2799C31.1349 49.2979 30.2125 48.7244 29.5815 47.6436C29.1363 46.8806 28.9213 46.0563 28.8374 45.1857C28.5629 42.461 28.5714 39.7286 28.5827 36.9963C28.5827 36.4852 28.6138 35.9749 28.6167 35.4647C28.6226 34.824 28.3968 34.2027 27.9808 33.7153C27.5649 33.228 26.9868 32.9073 26.3531 32.8125C26.1735 32.7997 25.9932 32.7997 25.8136 32.8125C25.8225 32.7391 25.8377 32.6665 25.8589 32.5956C26.222 31.644 26.5672 30.6848 26.9596 29.7454C27.3642 28.7796 27.7226 27.8044 27.8829 26.7641C28.0273 25.7724 28.062 24.7679 27.9866 23.7686C27.9121 22.6527 27.7455 21.5448 27.4887 20.4563C27.2057 19.2444 26.5295 18.3484 25.3043 17.9494C24.5904 17.7164 23.8585 17.724 23.1266 17.8325C22.058 17.9909 21.0611 18.3653 20.1085 18.8643C20.0764 18.8803 20.0425 18.8926 19.9736 18.9227C19.9916 18.7039 20 18.5087 20.0255 18.3163C20.1649 17.1129 20.4256 15.9267 20.8036 14.7757C21.2469 13.4751 21.8496 12.2603 22.7531 11.2125C23.9103 9.86943 25.36 9.00456 27.1142 8.76029C31.3688 8.16705 34.9952 9.46293 37.9784 12.5329C39.2979 13.8982 40.3319 15.5129 41.0201 17.2826C41.0587 17.375 41.0899 17.4627 41.1351 17.592Z" fill="#36688F"/>
<path d="M20.6913 32.4448C20.4017 32.7617 20.1141 33.0626 19.8425 33.3757C18.9408 34.4065 18.0458 35.444 17.1432 36.4739C16.9956 36.6436 16.8347 36.8013 16.6622 36.9455C16.017 37.4765 15.3757 37.4831 14.7089 36.9766C14.1194 36.5277 13.6884 35.9392 13.2942 35.3242C12.4972 34.068 11.9162 32.707 11.3947 31.3206C10.3515 28.5486 9.58569 25.6947 8.96604 22.802C8.73025 21.6985 8.52653 20.5866 8.3379 19.4727C8.16382 18.3589 8.1214 17.2284 8.21152 16.1047C8.26702 15.022 8.48579 13.954 8.86041 12.9367C9.68567 10.791 11.2541 9.50453 13.4686 8.97542C14.6466 8.69248 15.8426 8.66041 17.047 8.73963C18.7927 8.8547 20.4857 9.22819 22.1485 9.75635C22.1711 9.7639 22.1937 9.77427 22.2305 9.78842C22.2163 9.81631 22.1996 9.84284 22.1805 9.86764C20.8818 11.1956 20.0481 12.7914 19.4822 14.5438C19.0702 15.7965 18.8059 17.0929 18.6946 18.4069C18.6343 19.1615 18.6003 19.9216 18.5918 20.679C18.5852 21.2383 18.6381 21.7976 18.6635 22.3568C18.7118 23.6802 18.6487 25.0053 18.4749 26.3181C18.1825 28.6854 18.8663 30.7151 20.6187 32.3618C20.6432 32.3854 20.6555 32.4042 20.6913 32.4448Z" fill="#36688F"/>
<path d="M41.7218 31.6742C41.5747 31.5666 41.5332 31.461 41.6407 31.2762C42.1783 30.3453 42.4471 29.3351 42.5301 28.2647C42.6065 27.2961 42.499 26.3397 42.3848 25.3833C42.2707 24.427 42.15 23.4772 42.233 22.519C42.2933 21.8201 42.4216 21.1279 42.498 20.4309C42.5565 19.931 42.5829 19.4283 42.6366 18.9284C42.7461 17.9193 42.3924 17.0148 41.9849 16.1329C40.7315 13.4185 38.9291 11.1559 36.4204 9.4988C35.8356 9.11305 35.2084 8.79238 34.5925 8.43681L34.9377 8.37551C35.0669 8.35193 35.1943 8.32647 35.3235 8.30666C36.3808 8.13926 37.452 8.07608 38.5217 8.11803C41.5879 8.25856 44.2796 9.26962 46.4102 11.5586C46.6215 11.7859 46.8233 12.0246 47.0119 12.2717C47.3439 12.7074 47.4458 13.2299 47.509 13.7562C47.6712 15.0964 47.5382 16.4262 47.2996 17.7448C46.4045 22.6973 44.4701 27.2423 41.8567 31.5148C41.8274 31.5619 41.7944 31.6091 41.7623 31.6525C41.7539 31.6628 41.7388 31.6657 41.7218 31.6742Z" fill="#36688F"/>
<path d="M26.6944 24.9594C26.7368 26.3939 26.3633 27.8681 25.7059 29.2809C25.237 30.2897 24.8454 31.3327 24.5346 32.4009C24.4959 32.5329 24.428 32.5452 24.3186 32.5404C23.3277 32.4985 22.3802 32.1221 21.6306 31.4728C21.1042 31.041 20.6694 30.5084 20.3518 29.9062C20.0342 29.304 19.8402 28.6444 19.7811 27.9662C19.7188 27.3607 19.8075 26.7401 19.8452 26.1251C19.8773 25.6234 19.965 25.1235 19.9763 24.6217C19.9971 23.6258 19.9867 22.6298 19.9763 21.6338C19.9763 21.3301 19.9461 21.0255 19.9141 20.7228C19.9065 20.6709 19.9152 20.618 19.9388 20.5713C19.9624 20.5245 19.9999 20.4862 20.0461 20.4615C20.7571 19.9783 21.5393 19.6092 22.3644 19.3675C22.945 19.1795 23.5528 19.0893 24.1629 19.1005C25.2721 19.1354 25.9446 19.6608 26.1907 20.7463C26.4963 22.0847 26.7066 23.4438 26.6944 24.9594ZM24.5298 21.3754C24.8731 21.3601 25.1976 21.2143 25.4371 20.968C25.772 20.6294 25.739 20.2833 25.3174 20.0597C25.0857 19.941 24.8378 19.8571 24.5817 19.8107C24.2455 19.7346 23.8947 19.7552 23.5697 19.8701C23.2792 19.9824 23.1642 20.2144 23.2604 20.4907C23.4197 20.9529 24.0168 21.3726 24.5298 21.3783V21.3754Z" fill="#36688F"/>
<path d="M40.6885 30.2164C40.6688 30.1943 40.6506 30.171 40.6338 30.1466C39.9104 28.7574 39.171 27.3766 38.4646 25.977C37.9091 24.8716 37.4271 23.7304 37.1602 22.5156C37.014 21.8554 36.9178 21.1952 37.0574 20.5218C37.1913 19.8729 37.5516 19.3994 38.1713 19.1806C38.5907 19.0281 39.0288 18.9329 39.4738 18.8977C40.0708 18.859 40.6744 18.9118 41.3016 18.926C41.2827 19.2146 41.2808 19.4551 41.2507 19.6928C41.1384 20.5727 41.0026 21.4508 40.9036 22.3336C40.8225 23.0589 40.8753 23.786 40.947 24.5123C41.0498 25.5629 41.1677 26.6136 41.2129 27.6671C41.2454 28.4658 41.0991 29.2617 40.7847 29.9967C40.7602 30.0618 40.7319 30.1278 40.6885 30.2164ZM39.2814 19.4259C38.873 19.4626 38.4835 19.5305 38.142 19.7588C37.8591 19.9474 37.8383 20.1662 38.0628 20.4124C38.723 21.1405 39.7001 20.8491 40.0878 20.0587C40.2 19.8305 40.1179 19.6324 39.8765 19.5522C39.6809 19.498 39.4821 19.4558 39.2814 19.4259Z" fill="#36688F"/>
<path d="M20.6113 37.344C21.0319 37.244 21.4554 37.1554 21.8732 37.0422C22.3825 36.9054 22.8927 36.7687 23.3907 36.5961C23.933 36.4074 24.3593 36.0462 24.7177 35.6001C24.9903 35.2606 25.2685 34.9248 25.5458 34.5881C25.5968 34.5258 25.6515 34.4664 25.709 34.4089C26.0127 34.1071 26.1862 34.076 26.5748 34.2533C27.0464 34.4674 27.3916 35.1964 27.2511 35.685C27.2217 35.7795 27.1768 35.8684 27.1181 35.9481C26.3419 37.0214 25.3166 37.709 23.9962 37.9042C22.9889 38.0528 21.9604 37.9524 21.0008 37.6118C20.8968 37.5705 20.7957 37.5223 20.698 37.4675C20.667 37.45 20.6374 37.4302 20.6094 37.4081L20.6113 37.344Z" fill="#36688F"/>
<path d="M47.3113 34.4135C47.0283 34.6097 46.7454 34.8134 46.4521 35.0011C45.5623 35.5675 44.5503 35.9135 43.5 36.0103C42.8453 36.0802 42.1873 36.1148 41.5288 36.114C41.1751 36.114 40.8214 36.0046 40.4687 35.9395C40.4404 35.9368 40.4129 35.9281 40.3881 35.9141C40.3633 35.9001 40.3417 35.8811 40.3246 35.8583C40.3076 35.8355 40.2955 35.8094 40.2891 35.7816C40.2828 35.7539 40.2822 35.7251 40.2876 35.6971C40.3084 35.4005 40.3468 35.1054 40.4027 34.8134C40.4384 34.6574 40.5154 34.5138 40.6255 34.3977C40.7357 34.2815 40.875 34.1971 41.0289 34.1532C41.0704 34.139 41.1119 34.1249 41.1516 34.1079C41.2817 34.042 41.4276 34.0133 41.573 34.025C41.7184 34.0366 41.8578 34.0882 41.9759 34.1739C42.4955 34.5116 43.1076 34.6059 43.7188 34.6512C44.8817 34.7389 46.0258 34.5889 47.1622 34.3635C47.204 34.3597 47.246 34.3597 47.2877 34.3635C47.2952 34.3795 47.3028 34.3965 47.3113 34.4135Z" fill="#36688F"/>
</svg>
