<svg width="56" height="56" viewBox="0 0 56 56" fill="none" xmlns="http://www.w3.org/2000/svg">
<path d="M47.5999 28.0923C47.5999 29.4407 46.5067 30.534 45.158 30.534C43.8095 30.534 42.7163 29.4407 42.7163 28.0923C42.7163 26.7436 43.8095 25.6504 45.158 25.6504C46.5067 25.6504 47.5999 26.7436 47.5999 28.0923Z" fill="#669CFE"/>
<path d="M42.5649 33.0679C42.5649 34.4163 41.4717 35.5095 40.123 35.5095C38.7744 35.5095 37.6812 34.4163 37.6812 33.0679C37.6812 31.7192 38.7744 30.626 40.123 30.626C41.4717 30.626 42.5649 31.7192 42.5649 33.0679Z" fill="#3FE7FE"/>
<path d="M37.5217 38.1458C37.5217 39.4945 36.4285 40.5877 35.0801 40.5877C33.7314 40.5877 32.6382 39.4945 32.6382 38.1458C32.6382 36.7973 33.7314 35.7041 35.0801 35.7041C36.4285 35.7041 37.5217 36.7973 37.5217 38.1458Z" fill="black"/>
<path d="M42.4094 23.0797C42.4094 24.342 41.386 25.3652 40.1239 25.3652C38.8615 25.3652 37.8381 24.342 37.8381 23.0797C37.8381 21.8173 38.8615 20.7939 40.1239 20.7939C41.386 20.7939 42.4094 21.8173 42.4094 23.0797Z" fill="#669CFE"/>
<path d="M37.3852 28.0475C37.3852 29.3098 36.3619 30.3332 35.0997 30.3332C33.8373 30.3332 32.814 29.3098 32.814 28.0475C32.814 26.7851 33.8373 25.7617 35.0997 25.7617C36.3619 25.7617 37.3852 26.7851 37.3852 28.0475Z" fill="#3FE7FE"/>
<path d="M32.3779 33.0893C32.3779 34.3516 31.3547 35.375 30.0924 35.375C28.83 35.375 27.8066 34.3516 27.8066 33.0893C27.8066 31.8269 28.83 30.8037 30.0924 30.8037C31.3547 30.8037 32.3779 31.8269 32.3779 33.0893Z" fill="black"/>
<path d="M37.195 18.0848C37.195 19.2312 36.2656 20.1608 35.119 20.1608C33.9724 20.1608 33.043 19.2312 33.043 18.0848C33.043 16.9382 33.9724 16.0088 35.119 16.0088C36.2656 16.0088 37.195 16.9382 37.195 18.0848Z" fill="#669CFE"/>
<path d="M32.1774 23.0518C32.1774 24.1982 31.2478 25.1278 30.1012 25.1278C28.9547 25.1278 28.0251 24.1982 28.0251 23.0518C28.0251 21.9052 28.9547 20.9756 30.1012 20.9756C31.2478 20.9756 32.1774 21.9052 32.1774 23.0518Z" fill="#3FE7FE"/>
<path d="M27.1508 28.1092C27.1508 29.2558 26.2214 30.1852 25.0748 30.1852C23.9282 30.1852 22.9988 29.2558 22.9988 28.1092C22.9988 26.9628 23.9282 26.0332 25.0748 26.0332C26.2214 26.0332 27.1508 26.9628 27.1508 28.1092Z" fill="black"/>
<path d="M32.0044 13.0665C32.0044 14.0971 31.1689 14.9326 30.1383 14.9326C29.1077 14.9326 28.2722 14.0971 28.2722 13.0665C28.2722 12.0357 29.1077 11.2002 30.1383 11.2002C31.1689 11.2002 32.0044 12.0357 32.0044 13.0665Z" fill="#669CFE"/>
<path d="M26.9678 18.0575C26.9678 19.0881 26.1323 19.9238 25.1017 19.9238C24.0711 19.9238 23.2356 19.0881 23.2356 18.0575C23.2356 17.0269 24.0711 16.1914 25.1017 16.1914C26.1323 16.1914 26.9678 17.0269 26.9678 18.0575Z" fill="#3FE7FE"/>
<path d="M21.9472 23.1055C21.9472 24.1362 21.1116 24.9716 20.0809 24.9716C19.0503 24.9716 18.2148 24.1362 18.2148 23.1055C18.2148 22.0749 19.0503 21.2393 20.0809 21.2393C21.1116 21.2393 21.9472 22.0749 21.9472 23.1055Z" fill="black"/>
<path d="M21.7559 33.1042C21.7559 34.0202 21.0131 34.7628 20.0971 34.7628C19.1809 34.7628 18.4382 34.0202 18.4382 33.1042C18.4382 32.188 19.1809 31.4453 20.0971 31.4453C21.0131 31.4453 21.7559 32.188 21.7559 33.1042Z" fill="#6A9EFE"/>
<path d="M26.755 38.1032C26.755 39.0192 26.0121 39.7619 25.0961 39.7619C24.1799 39.7619 23.4373 39.0192 23.4373 38.1032C23.4373 37.187 24.1799 36.4443 25.0961 36.4443C26.0121 36.4443 26.755 37.187 26.755 38.1032Z" fill="#6A9EFE"/>
<path d="M31.7462 43.0944C31.7462 44.0106 31.0035 44.7533 30.0873 44.7533C29.1711 44.7533 28.4285 44.0106 28.4285 43.0944C28.4285 42.1782 29.1711 41.4355 30.0873 41.4355C31.0035 41.4355 31.7462 42.1782 31.7462 43.0944Z" fill="#6A9EFE"/>
<path d="M21.7799 43.0944C21.7799 44.0106 21.037 44.7533 20.121 44.7533C19.2048 44.7533 18.4622 44.0106 18.4622 43.0944C18.4622 42.1782 19.2048 41.4355 20.121 41.4355C21.037 41.4355 21.7799 42.1782 21.7799 43.0944Z" fill="#6A9EFE"/>
<path d="M11.7176 43.0944C11.7176 44.0106 10.975 44.7533 10.0588 44.7533C9.14274 44.7533 8.3999 44.0106 8.3999 43.0944C8.3999 42.1782 9.14274 41.4355 10.0588 41.4355C10.975 41.4355 11.7176 42.1782 11.7176 43.0944Z" fill="#6A9EFE"/>
<path d="M16.7166 38.0954C16.7166 39.0116 15.974 39.7542 15.0578 39.7542C14.1418 39.7542 13.3989 39.0116 13.3989 38.0954C13.3989 37.1792 14.1418 36.4365 15.0578 36.4365C15.974 36.4365 16.7166 37.1792 16.7166 38.0954Z" fill="#6A9EFE"/>
<path d="M21.7773 13.0706C21.7773 14.0279 21.0011 14.8041 20.0438 14.8041C19.0864 14.8041 18.3103 14.0279 18.3103 13.0706C18.3103 12.113 19.0864 11.3369 20.0438 11.3369C21.0011 11.3369 21.7773 12.113 21.7773 13.0706Z" fill="#3FE7FE"/>
<path d="M16.7308 18.1427C16.7308 19.1002 15.9547 19.8763 14.9972 19.8763C14.0398 19.8763 13.2637 19.1002 13.2637 18.1427C13.2637 17.1853 14.0398 16.4092 14.9972 16.4092C15.9547 16.4092 16.7308 17.1853 16.7308 18.1427Z" fill="black"/>
<path d="M11.4446 13.0002C11.4446 13.7727 10.8183 14.399 10.0458 14.399C9.27352 14.399 8.64722 13.7727 8.64722 13.0002C8.64722 12.2279 9.27352 11.6016 10.0458 11.6016C10.8183 11.6016 11.4446 12.2279 11.4446 13.0002Z" fill="black"/>
</svg>
