<svg width="56" height="57" viewBox="0 0 56 57" fill="none" xmlns="http://www.w3.org/2000/svg">
<path d="M44.9206 14.5049L28.5906 18.4903V41.3975L44.9206 45.383V14.5049Z" fill="#245C96"/>
<path d="M48.0448 43.8107L44.9023 45.4013V14.5049L48.0448 16.0954V43.8107Z" fill="#5595CD"/>
<path d="M12.2429 14.5049L28.573 18.4903V41.3975L12.2429 45.383V14.5049Z" fill="#5595CD"/>
<path d="M9.1001 43.8107L12.2426 45.4013V14.5049L9.1001 16.0954V43.8107Z" fill="#245C96"/>
<path d="M38.9626 11.5256L32.7503 8.39941L30.8066 28.9482L32.7503 51.5994L38.9626 48.4915V11.5256Z" fill="#5595CD"/>
<path d="M18.1824 11.5256L24.3947 8.39941L26.3383 28.8751L24.3947 51.5994L18.1824 48.4915V11.5256Z" fill="#245C96"/>
<path d="M24.3945 8.39941H32.7503V51.5812H24.3945V8.39941Z" fill="#3174B6"/>
</svg>
