<svg width="56" height="56" viewBox="0 0 56 56" fill="none" xmlns="http://www.w3.org/2000/svg">
<path d="M39.7948 28.1511C40.1222 28.3582 40.3973 28.5428 40.6854 28.716C41.6321 29.2684 42.582 29.8157 43.5349 30.358C44.201 30.7346 44.6463 31.2581 44.7716 32.0528C44.94 33.1035 44.1112 34.2522 43.0578 34.367C42.5268 34.4375 41.9875 34.3297 41.5236 34.0601C39.2784 32.742 37.0145 31.4238 34.7507 30.1245C34.021 29.7046 33.5832 29.1171 33.5308 28.2697C33.4746 27.3847 33.905 26.7313 34.6197 26.2944C35.8732 25.5318 37.1511 24.8125 38.4196 24.0762L41.3477 22.3814C41.7219 22.163 42.0961 21.9483 42.5545 21.9238C43.008 21.8961 43.4583 22.0157 43.8392 22.2648C44.2202 22.514 44.5116 22.8796 44.6706 23.3079C45.0167 24.2607 44.65 25.2343 43.7894 25.7973C43.2281 26.1739 42.6256 26.4884 42.0419 26.8292C41.387 27.2058 40.7322 27.5824 40.0755 27.9703C39.9969 27.9986 39.9258 28.0588 39.7948 28.1511Z" fill="#32C0F0"/>
<path d="M16.2186 28.1286C15.5769 27.752 14.9856 27.4036 14.3907 27.0571C13.6947 26.6523 13.0005 26.2418 12.2989 25.8482C11.3634 25.3304 10.9892 24.144 11.3223 23.3042C11.8125 22.0482 13.1539 21.5228 14.3345 22.1744C15.2363 22.6734 16.1194 23.2063 17.0119 23.7241C18.3889 24.5263 19.7622 25.336 21.1486 26.125C21.7661 26.4753 22.2394 26.9253 22.4116 27.6315C22.5211 28.0079 22.5158 28.4087 22.3964 28.782C22.2769 29.1554 22.0489 29.484 21.7417 29.7254C21.3465 30.0298 20.9272 30.3012 20.4882 30.537C18.485 31.7146 16.4787 32.8827 14.4692 34.0414C13.7601 34.4575 13.0118 34.531 12.2634 34.1186C11.9857 33.9689 11.7468 33.7558 11.5658 33.4964C11.3847 33.237 11.2667 32.9385 11.221 32.6248C11.1753 32.3112 11.2034 31.9911 11.3028 31.6904C11.4023 31.3896 11.5704 31.1165 11.7937 30.8929C12.1407 30.5823 12.5217 30.3125 12.9294 30.0889C13.9379 29.4844 14.9594 28.9025 15.9754 28.3094C16.0427 28.2717 16.1007 28.2209 16.2186 28.1286Z" fill="#32C0F0"/>
<path d="M22.0258 17.9881V17.3949C22.0258 16.0354 22.0258 14.6739 22.0258 13.3144C22.0302 12.7821 22.2327 12.2709 22.5932 11.8815C22.9538 11.4921 23.4463 11.2529 23.9735 11.211C24.9295 11.1564 26.1438 11.8531 26.1719 13.239C26.1906 14.2747 26.1719 15.3104 26.1719 16.3498C26.1719 18.0822 26.1719 19.8146 26.1719 21.5471C26.1855 22.0133 26.0424 22.4706 25.7657 22.8449C25.4889 23.2191 25.0948 23.4883 24.647 23.609C24.3595 23.6884 24.0591 23.7087 23.7637 23.6686C23.4682 23.6284 23.1839 23.5288 22.9276 23.3755C21.4308 22.5055 19.9396 21.6418 18.4541 20.7844L16.0723 19.4023C15.7006 19.2053 15.3889 18.9105 15.1705 18.5492C14.9318 18.1498 14.8339 17.6811 14.8926 17.2188C14.9513 16.7564 15.1633 16.3276 15.4942 16.0015C15.8227 15.6724 16.2507 15.4627 16.7107 15.4054C17.1708 15.3481 17.6366 15.4465 18.035 15.6851C18.7216 16.073 19.397 16.4835 20.0781 16.879C20.703 17.2311 21.3279 17.5832 22.0258 17.9881Z" fill="#32C0F0"/>
<path d="M22.0263 38.3083L19.957 39.506C19.3302 39.8694 18.7072 40.2422 18.0767 40.5981C17.6375 40.8621 17.119 40.9591 16.6149 40.8717C16.1108 40.7843 15.6544 40.5183 15.3282 40.1217C14.7183 39.3779 14.7108 38.1822 15.3862 37.4949C15.7081 37.1801 16.0691 36.9086 16.4601 36.687C18.5556 35.4536 20.6642 34.2391 22.7653 33.017C23.3734 32.6629 23.9964 32.4765 24.6981 32.7044C25.1285 32.8242 25.5073 33.0841 25.7754 33.4435C26.0435 33.8029 26.1857 34.2416 26.1799 34.691C26.1911 35.7587 26.1799 36.8283 26.1799 37.8922C26.1799 39.5756 26.1799 41.2597 26.1799 42.9444C26.1876 43.4859 25.9843 44.0088 25.6136 44.4012C25.2429 44.7937 24.7343 45.0244 24.1966 45.044C23.9182 45.0559 23.6402 45.0113 23.3792 44.9127C23.1183 44.8142 22.8797 44.6638 22.6777 44.4706C22.4757 44.2773 22.3144 44.045 22.2035 43.7877C22.0925 43.5304 22.0342 43.2532 22.0319 42.9727C22.0095 41.6282 22.0319 40.2837 22.0319 38.9411L22.0263 38.3083Z" fill="#32C0F0"/>
<path d="M34.0115 17.9602L35.57 17.0601C36.3371 16.6182 37.103 16.1738 37.8676 15.7269C38.3877 15.4237 38.9396 15.2674 39.5327 15.4425C40.4402 15.708 40.994 16.3219 41.1119 17.2653C41.2166 18.1183 40.8237 18.7718 40.1352 19.2406C39.5889 19.6173 39.0033 19.9204 38.4326 20.2519C36.6645 21.28 34.8908 22.2987 33.1284 23.3363C32.1929 23.8843 31.0104 23.7581 30.3219 22.9182C30.0231 22.5732 29.8549 22.1331 29.8467 21.6754C29.8467 18.8735 29.8467 16.0715 29.8467 13.2714C29.8497 12.8051 30.0078 12.3533 30.296 11.9882C30.5841 11.6231 30.9856 11.3658 31.4361 11.2574C31.8867 11.1489 32.3604 11.1956 32.7815 11.3901C33.2025 11.5845 33.5467 11.9154 33.7589 12.3298C33.9061 12.6518 33.9833 13.0017 33.9853 13.3561C34.0115 14.6742 33.9965 15.9792 33.9965 17.2917L34.0115 17.9602Z" fill="#32C0F0"/>
<path d="M34.0109 38.3842V42.945C34.009 43.4905 33.795 44.0137 33.4147 44.4025C33.0345 44.7913 32.5182 45.0149 31.9762 45.0255C31.4342 45.0361 30.9097 44.8328 30.5148 44.4591C30.1198 44.0854 29.8858 43.571 29.8629 43.0259C29.833 42.2727 29.8629 41.5026 29.8629 40.7418C29.8629 38.7307 29.8629 36.7196 29.8629 34.716C29.8576 34.431 29.9112 34.148 30.0204 33.885C30.1295 33.6219 30.2918 33.3846 30.4969 33.188C30.7021 32.9915 30.9456 32.84 31.212 32.7432C31.4784 32.6465 31.7619 32.6065 32.0445 32.6258C32.3968 32.6519 32.7395 32.7541 33.0492 32.9253C35.3449 34.2434 37.6256 35.5728 39.9119 36.9004C40.2281 37.0638 40.5011 37.3005 40.7086 37.5908C40.9161 37.8812 41.0522 38.217 41.1056 38.5706C41.2759 39.6402 40.4115 40.7908 39.3357 40.8849C38.7875 40.9378 38.2371 40.8095 37.7678 40.5196C36.6452 39.8474 35.5226 39.2015 34.3851 38.5443C34.2635 38.4837 34.1386 38.4302 34.0109 38.3842Z" fill="#32C0F0"/>
<path d="M31.8694 28.1438C31.9536 28.5977 31.7534 28.9178 31.4447 29.221C30.6383 30.01 29.8506 30.8197 29.0517 31.62C28.9176 31.7578 28.7575 31.8672 28.5808 31.9419C28.4041 32.0167 28.2143 32.0552 28.0227 32.0552C27.831 32.0552 27.6413 32.0167 27.4646 31.9419C27.2879 31.8672 27.1278 31.7578 26.9936 31.62C26.1716 30.799 25.3528 29.9779 24.537 29.1569C24.2692 28.8867 24.1178 28.5212 24.1157 28.1396C24.1136 27.7579 24.261 27.3908 24.5258 27.1176C25.3528 26.2803 26.1829 25.4448 27.0161 24.6112C27.2837 24.3529 27.6397 24.2078 28.0105 24.2061C28.3813 24.2043 28.7387 24.346 29.0087 24.6018C29.8188 25.4097 30.614 26.2363 31.4409 27.0328C31.7609 27.3492 31.9573 27.6863 31.8694 28.1438ZM28.0395 26.7523C27.9214 26.7802 27.8084 26.8266 27.7046 26.8897C27.383 27.1801 27.0776 27.4882 26.7897 27.8124C26.6026 28.0365 26.6232 28.2757 26.8309 28.5167C27.0736 28.7959 27.3336 29.0594 27.6092 29.3057C27.6601 29.3647 27.7231 29.4121 27.7937 29.4446C27.8644 29.477 27.9412 29.4938 28.0189 29.4938C28.0966 29.4938 28.1734 29.477 28.2441 29.4446C28.3148 29.4121 28.3777 29.3647 28.4287 29.3057C28.6939 29.071 28.9438 28.8194 29.1771 28.5525C29.439 28.2531 29.4315 27.997 29.1602 27.6919C28.9355 27.4394 28.6963 27.2005 28.4436 26.9764C28.3181 26.8859 28.1825 26.8107 28.0395 26.7523Z" fill="#32C0F0"/>
</svg>
