<svg width="64" height="64" fill="none" xmlns="http://www.w3.org/2000/svg"><mask id="a" maskUnits="userSpaceOnUse" x="13.933" y="2.197" width="37" height="56" fill="#000"><path fill="#fff" d="M13.933 2.197h37v56h-37z"/><path fill-rule="evenodd" clip-rule="evenodd" d="M37.684 29.077c3.072 1.655 5.322 4.507 6.346 8.209h.167V31.58a2.061 2.061 0 0 1-1.129-.715 2.212 2.212 0 0 1-.485-1.28c.058-.566.315-1.09.722-1.471.407-.38.934-.592 1.481-.592s1.075.211 1.481.592c.407.38.664.905.722 1.471-.02.47-.186.918-.475 1.279-.288.36-.683.612-1.122.716v5.854c.448.125.844.397 1.132.775.288.378.45.842.465 1.324v4.47c-.03.63-.3 1.224-.75 1.649a2.236 2.236 0 0 1-1.65.615h-.835a11.331 11.331 0 0 1-3.002 4.425l1.087 1.037a.707.707 0 0 1 .075.967c-2.45 3.136-6.463 4.878-10.986 4.878-4.524 0-8.529-1.803-10.978-4.878a.688.688 0 0 1-.153-.496.703.703 0 0 1 .228-.463l1.079-1.019a11.335 11.335 0 0 1-3.002-4.451h-.76a2.244 2.244 0 0 1-1.65-.611 2.436 2.436 0 0 1-.759-1.645v-4.478a2.444 2.444 0 0 1 .763-1.636c.45-.42 1.041-.64 1.645-.611h.56c.796-2.953 2.377-5.355 4.531-7.045-.892-2.514-2.425-7.343-2.607-11.274-.26-5.584.125-15.584 3.67-15.767 3.545-.183 2.918 9.13 2.358 15.183a81.19 81.19 0 0 0-.273 10.06c1.625-.643 3.436-.983 5.381-.983 1.333 0 2.6.161 3.788.47.574-2.896 1.89-8.107 4.431-11.785 3.696-5.349 7.525-10.854 10.034-9.295 2.508 1.56-.678 7.134-2.893 10.035-.727.951-1.628 2.058-2.557 3.2-1.905 2.338-3.925 4.819-4.784 6.382a41.86 41.86 0 0 0-1.296 2.61Z"/></mask><path d="m44.03 37.286-.386.107.081.293h.304v-.4Zm-6.346-8.21-.364-.165-.154.34.328.178.19-.352Zm6.513 8.21v.4h.4v-.4h-.4Zm0-5.706h.4v-.316l-.309-.073-.091.39Zm-1.129-.715.311-.251-.31.251Zm-.485-1.28-.398-.04-.003.03.002.03.4-.02Zm.722-1.471.273.292-.273-.292Zm2.962 0-.273.292.273-.292Zm.722 1.471.4.017.001-.029-.003-.028-.398.04Zm-.475 1.279-.312-.25.312.25Zm-1.122.716-.092-.389-.308.073v.316h.4Zm0 5.854h-.4v.304l.293.081.107-.385Zm1.132.775-.319.242.319-.242Zm.465 1.324h.4v-.012l-.4.012Zm0 4.47.4.018v-.019h-.4Zm-.75 1.649.275.29-.275-.29Zm-1.65.615.021-.4h-.02v.4Zm-.835 0v-.4h-.277l-.098.26.375.14Zm-3.002 4.425-.268-.297-.32.29.312.297.276-.29Zm1.087 1.037-.276.29.01.008.266-.298Zm.229.467.399-.03-.4.03Zm-.154.5-.31-.252-.005.005.315.247Zm-21.964 0 .313-.25-.003-.003-.31.253Zm-.124-.232-.382.118.382-.118Zm-.03-.264.4.032-.4-.032Zm.07-.255-.358-.177.359.177Zm.159-.208.265.3.01-.009-.275-.29Zm1.079-1.019.274.291.314-.297-.32-.29-.268.296Zm-3.002-4.451.375-.14-.097-.26h-.278v.4Zm-.76 0v-.4H17.32l.02.4Zm-1.65-.611-.274.291.273-.291Zm-.759-1.645h-.4v.022l.4-.022Zm0-4.478-.4-.024v.024h.4Zm.763-1.636-.273-.292.273.292Zm1.645-.611-.019.4h.02v-.4Zm.56 0v.4h.307l.08-.296-.387-.104Zm4.531-7.045.247.315.226-.177-.096-.271-.377.133Zm-2.607-11.274.399-.019-.4.019ZM23.495 3.2l.02.4-.02-.4Zm2.358 15.183-.399-.037v.002l.399.035Zm-.273 10.06-.4.013.02.567.527-.209-.147-.372Zm9.17-.513-.101.387.41.107.083-.416-.393-.078Zm4.43-11.785.33.227-.33-.227ZM49.214 6.85l.21-.34-.21.34ZM46.32 16.885l-.318-.243.318.243Zm-2.557 3.2-.31-.253.31.252Zm-4.784 6.382-.35-.193-.002.003.352.19Zm5.435 10.712c-1.05-3.8-3.367-6.744-6.541-8.455l-.38.705c2.97 1.6 5.153 4.36 6.15 7.964l.771-.214Zm-.218-.293h-.168v.8h.168v-.8Zm-.4-5.306v5.706h.8V31.58h-.8Zm-1.04-.463c.346.427.819.728 1.348.853l.183-.779a1.661 1.661 0 0 1-.909-.577l-.622.503Zm-.573-1.512c.027.554.228 1.085.573 1.512l.622-.503a1.811 1.811 0 0 1-.396-1.048l-.8.04Zm.848-1.783a2.743 2.743 0 0 0-.847 1.723l.796.081c.048-.473.263-.907.597-1.22l-.546-.584Zm1.754-.7c-.65 0-1.275.251-1.754.7l.547.584a1.766 1.766 0 0 1 1.207-.484v-.8Zm1.755.7a2.566 2.566 0 0 0-1.755-.7v.8c.443 0 .874.171 1.208.484l.547-.584Zm.846 1.723a2.743 2.743 0 0 0-.846-1.723l-.547.584c.335.313.549.748.597 1.22l.796-.081Zm-.56 1.569c.342-.428.539-.96.562-1.512l-.8-.033a1.795 1.795 0 0 1-.387 1.045l.624.5Zm-1.342.855a2.446 2.446 0 0 0 1.341-.855l-.624-.5a1.646 1.646 0 0 1-.902.577l.185.779Zm.307 5.465V31.58h-.8v5.854h.8Zm1.05.533a2.552 2.552 0 0 0-1.342-.918l-.215.77c.36.101.684.322.92.632l.637-.484Zm.547 1.554a2.705 2.705 0 0 0-.547-1.554l-.636.484c.236.31.371.694.383 1.095l.8-.025Zm0 4.481v-4.469h-.8v4.47h.8Zm-.875 1.94c.527-.497.84-1.188.875-1.92l-.8-.039a2.028 2.028 0 0 1-.624 1.378l.549.582Zm-1.945.724a2.636 2.636 0 0 0 1.945-.723l-.55-.582c-.371.351-.859.532-1.354.507l-.04.798Zm-.815.001h.836v-.8h-.836v.8Zm-2.734 4.322a11.733 11.733 0 0 0 3.108-4.581l-.749-.282a10.934 10.934 0 0 1-2.895 4.27l.536.593Zm1.095.45-1.087-1.036-.552.579 1.087 1.036.552-.579Zm.352.726a1.098 1.098 0 0 0-.362-.735l-.532.597c.053.048.09.12.096.2l.798-.062Zm-.242.783c.178-.22.264-.502.242-.783l-.798.062a.308.308 0 0 1-.066.217l.622.504Zm-11.297 5.026c4.623 0 8.762-1.782 11.301-5.032l-.63-.492c-2.36 3.021-6.247 4.724-10.671 4.724v.8Zm-11.291-5.029c2.536 3.184 6.664 5.029 11.29 5.029v-.8c-4.419 0-8.301-1.761-10.664-4.727l-.626.498Zm-.193-.363c.041.133.107.258.196.367l.62-.506a.289.289 0 0 1-.052-.097l-.764.236Zm-.046-.413c-.011.14.005.28.046.413l.764-.236a.307.307 0 0 1-.012-.114l-.798-.063Zm.11-.4a1.1 1.1 0 0 0-.11.4l.797.063a.303.303 0 0 1 .03-.11l-.717-.354Zm.252-.331c-.105.093-.19.205-.252.33l.717.354a.275.275 0 0 1 .065-.085l-.53-.6Zm1.069-1.01-1.079 1.019.55.581 1.078-1.019-.55-.581Zm-3.102-4.021a11.736 11.736 0 0 0 3.108 4.608l.537-.593a10.936 10.936 0 0 1-2.895-4.294l-.75.279Zm-.386.26h.76v-.8h-.76v.8Zm-1.923-.72a2.644 2.644 0 0 0 1.944.72l-.041-.8a1.844 1.844 0 0 1-1.356-.503l-.547.584Zm-.884-1.914c.04.731.356 1.42.884 1.914l.547-.583a2.036 2.036 0 0 1-.633-1.375l-.798.044Zm0-4.5v4.478h.8v-4.478h-.8Zm.89-1.928a2.843 2.843 0 0 0-.89 1.904l.798.05c.033-.53.263-1.02.637-1.37l-.546-.584Zm1.936-.718a2.652 2.652 0 0 0-1.937.718l.546.584c.373-.348.86-.527 1.353-.503l.038-.8Zm.541-.001h-.56v.8h.56v-.8Zm4.284-6.96c-2.227 1.747-3.853 4.226-4.67 7.256l.773.208c.774-2.875 2.309-5.2 4.391-6.834l-.494-.63Zm.624.182c-.891-2.513-2.405-7.293-2.585-11.16l-.8.037c.186 3.996 1.739 8.874 2.631 11.39l.754-.267Zm-2.585-11.16c-.129-2.778-.097-6.644.404-9.828.251-1.595.616-2.989 1.119-3.984.507-1.005 1.099-1.502 1.769-1.536l-.042-.8c-1.103.057-1.888.88-2.442 1.975-.558 1.106-.938 2.595-1.194 4.221-.513 3.258-.543 7.184-.413 9.99l.799-.038ZM23.516 3.6c.347-.018.63.077.876.268.253.196.483.508.682.942.4.875.633 2.153.74 3.671.214 3.025-.08 6.836-.36 9.865l.797.074c.28-3.025.58-6.897.361-9.995-.109-1.545-.349-2.939-.81-3.948-.233-.507-.531-.94-.92-1.241a2.064 2.064 0 0 0-1.408-.435l.042.799Zm1.938 14.748c-.3 3.36-.391 6.737-.274 10.108l.8-.027a80.76 80.76 0 0 1 .271-10.01l-.797-.071Zm5.507 8.712c-1.992 0-3.853.349-5.528 1.01l.294.744c1.575-.622 3.335-.954 5.234-.954v-.8Zm3.889.483a15.43 15.43 0 0 0-3.889-.483v.8c1.3 0 2.534.157 3.688.457l.2-.774Zm.292.465c.572-2.889 1.876-8.03 4.367-11.636l-.658-.455c-2.591 3.75-3.919 9.032-4.494 11.935l.785.156Zm4.367-11.636c1.854-2.682 3.717-5.368 5.425-7.192.856-.913 1.646-1.58 2.35-1.93.694-.342 1.248-.353 1.718-.06l.423-.68c-.784-.487-1.65-.394-2.495.024-.834.412-1.703 1.163-2.58 2.1-1.757 1.876-3.657 4.617-5.499 7.283l.658.455Zm9.493-9.182c.48.298.712.79.73 1.488.017.71-.194 1.586-.566 2.541-.742 1.904-2.069 3.99-3.163 5.423l.636.486c1.12-1.468 2.494-3.62 3.272-5.619.388-.996.642-1.987.62-2.851-.021-.877-.331-1.666-1.106-2.148l-.423.68Zm-3 9.452a140.16 140.16 0 0 1-2.549 3.19l.62.505c.929-1.14 1.834-2.252 2.566-3.21l-.636-.485Zm-2.549 3.19c-1.892 2.323-3.942 4.839-4.824 6.442l.701.386c.838-1.523 2.827-3.968 4.744-6.323l-.62-.505Zm-4.825 6.445c-.466.862-.903 1.74-1.308 2.634l.728.33c.398-.876.826-1.738 1.283-2.584l-.703-.38Z" fill="#E5E5E5" mask="url(#a)"/><g clip-path="url(#b)"><path d="M26.84 51.424c.769-.531-1.246-.331-1.414-.688a12.087 12.087 0 0 1-2.357-.444c-1.447-.384-4.875-2.797-5.235-5.062-.359-2.264 0-6.663 1.53-9.242a14.568 14.568 0 0 1 3.705-4.042s-2.985-7.395-3.244-12.98c-.26-5.583.125-15.583 3.67-15.766 3.545-.183 2.918 9.13 2.358 15.183a81.195 81.195 0 0 0-.176 12.1 15.67 15.67 0 0 1 4.607-.802c1.376-.032 2.751.102 4.097.401 0 0 1.104-8.589 4.8-13.938 3.695-5.348 7.524-10.853 10.033-9.294 2.508 1.56-.678 7.134-2.893 10.035-2.216 2.9-6.062 7.256-7.341 9.582a41.934 41.934 0 0 0-2.216 4.8c2.282 1.221 4.15 3.143 5.351 5.505 1.73 3.728 1.898 8.354.962 10.305a6.967 6.967 0 0 1-1.972 2.288 6.632 6.632 0 0 1-2.719 1.197c-1.104.087-5.778 1.289-5.778 1.289l-5.769-.427Z" fill="#fff"/><path d="M35 30.152s2.784-7.579 5.284-11.847c2.5-4.269 5.852-7.483 6.906-6.83 1.053.654-2.157 4.66-4.95 8.555a98.716 98.716 0 0 0-6.22 10.775L35 30.152ZM23.83 31.458l.794-.653s-.11-7.578 0-12.195c.108-4.617.342-10.375-1.138-10.314-1.48.06-2.508 4.486-1.931 10.784a78.551 78.551 0 0 0 2.274 12.378Z" fill="#DD00A1"/><path d="M21.33 47.722c.895 0 1.621-.757 1.621-1.69 0-.933-.726-1.69-1.622-1.69-.896 0-1.622.757-1.622 1.69 0 .933.726 1.69 1.622 1.69ZM40.493 47.722c.895 0 1.622-.757 1.622-1.69 0-.933-.727-1.69-1.622-1.69-.896 0-1.622.757-1.622 1.69 0 .933.726 1.69 1.622 1.69Z" fill="#F9D8D2"/><path d="M33.603 45.884a.155.155 0 0 0-.209 0s-.476.87-1.179.923a1.706 1.706 0 0 1-.687-.171 1.771 1.771 0 0 1-.567-.439v-1.184c.452-.253 1.179-1.037 1.179-1.307a1.225 1.225 0 0 0-.454-.722 1.137 1.137 0 0 0-.8-.227c-.836 0-1.421.566-1.421 1.036 0 .47.92 1.072 1.178 1.255v1.263a1.497 1.497 0 0 1-.48.428 1.437 1.437 0 0 1-.607.181c-.668 0-1.17-.94-1.17-.95a.16.16 0 0 0-.091-.078.153.153 0 0 0-.118.01.155.155 0 0 0-.071.086.163.163 0 0 0 .004.114c0 .052.594 1.123 1.447 1.123.239-.008.474-.068.69-.176a1.74 1.74 0 0 0 .564-.45c.353.374.826.6 1.329.635h.117c.301-.06.585-.188.833-.377.247-.188.45-.431.597-.712a.16.16 0 0 0 0-.218.197.197 0 0 0-.084-.043Z" fill="#10110E"/><path d="M23.069 31.946s-2.283-6.098-2.768-9.33c-.801-3.116-.836-8.519-.25-12.064.234-1.643.567-3.27.994-4.87 0 0-1.095 8.267-.685 11.882.41 3.615 2.709 14.382 2.709 14.382ZM34.38 30.073S35 23 38.487 17.216c2.433-3.633 5.485-8.005 6.982-9.12l1.521-1.115s-6.137 6.672-8.503 12.195a143.92 143.92 0 0 0-4.105 10.897Z" fill="#E5E5E5"/><path d="M24.632 40.526c-.252 0-.497.078-.706.224a1.314 1.314 0 0 0-.468.594 1.375 1.375 0 0 0-.073.765c.05.257.17.493.348.678.178.185.404.311.65.362.247.051.503.025.735-.075.232-.1.43-.27.57-.488a1.364 1.364 0 0 0-.152-1.666 1.247 1.247 0 0 0-.888-.394h-.016Zm.334 1.229a.341.341 0 0 1-.195-.062.363.363 0 0 1-.13-.164.381.381 0 0 1 .077-.399.338.338 0 0 1 .383-.08c.064.029.119.075.157.136.039.06.06.13.06.203a.379.379 0 0 1-.098.261.352.352 0 0 1-.245.114l-.009-.01ZM37.132 40.526a1.235 1.235 0 0 0-.708.219c-.21.144-.374.35-.471.59a1.375 1.375 0 0 0-.078.765c.048.258.167.494.344.68.176.187.402.315.648.367.247.053.502.029.735-.07.233-.099.432-.267.573-.484a1.363 1.363 0 0 0-.147-1.673 1.27 1.27 0 0 0-.41-.29 1.228 1.228 0 0 0-.486-.104Zm.376 1.229a.34.34 0 0 1-.25-.101.366.366 0 0 1-.11-.256c0-.097.036-.19.1-.26a.354.354 0 0 1 .243-.115.34.34 0 0 1 .251.101.368.368 0 0 1 .109.256.37.37 0 0 1-.095.255.342.342 0 0 1-.24.111l-.008.009Z" fill="#10110E"/><path opacity=".2" d="M31.12 51.206c6.511 0 11.79-3.962 11.79-8.85s-5.279-8.85-11.79-8.85c-6.51 0-11.789 3.962-11.789 8.85s5.278 8.85 11.79 8.85Z" fill="#8ACCCE"/><path d="M45.392 37.434V31.58c.44-.104.834-.356 1.122-.716.288-.36.455-.81.475-1.279a2.343 2.343 0 0 0-.722-1.471 2.166 2.166 0 0 0-1.48-.592c-.548 0-1.075.211-1.482.592-.407.38-.664.905-.722 1.471.024.47.194.92.485 1.28.292.36.688.612 1.129.715v5.706h-.168c-1.672-6.045-6.613-9.826-13.068-9.826-6.454 0-11.421 3.746-13.06 9.826h-.56a2.252 2.252 0 0 0-1.645.611 2.444 2.444 0 0 0-.763 1.636v4.478c.035.63.307 1.222.758 1.645a2.244 2.244 0 0 0 1.65.611h.76a11.335 11.335 0 0 0 3.003 4.451l-1.079 1.02a.677.677 0 0 0-.228.462.707.707 0 0 0 .153.496c2.45 3.075 6.454 4.878 10.978 4.878 4.523 0 8.536-1.742 10.986-4.878a.707.707 0 0 0-.075-.967l-1.087-1.037c1.33-1.2 2.36-2.719 3.002-4.425h.836c.606.03 1.2-.19 1.65-.615.45-.425.72-1.018.75-1.65v-4.469a2.305 2.305 0 0 0-.466-1.324 2.153 2.153 0 0 0-1.132-.775Zm-14.43-3.484c5.969 0 10.818 4.094 10.818 9.12 0 5.444-5.443 7.84-10.819 7.84-5.376 0-10.819-2.413-10.819-7.883 0-4.983 4.824-9.12 10.82-9.12v.043Z" fill="#fff"/><path d="M45.794 42.539h-1.597v-.871c0-1.11-.11-2.216-.326-3.302h.685a1.1 1.1 0 0 1 .818.285c.226.204.365.493.386.804l.034 3.084ZM44.59 45.17h-.837c.16-.624.276-1.259.352-1.9h1.672v.74a1.208 1.208 0 0 1-.34.821 1.081 1.081 0 0 1-.797.33h-.05v.008ZM30.961 56.424c-4.005 0-7.575-1.498-9.816-4.164l1.087-1.054a14.507 14.507 0 0 0 8.696 2.613c3.089.095 6.13-.819 8.695-2.613l1.13 1.054c-2.217 2.666-5.753 4.164-9.792 4.164ZM17.341 38.41h.71a17.515 17.515 0 0 0-.317 3.301 7.58 7.58 0 0 0 0 .871h-1.555v-3.049a1.132 1.132 0 0 1 .296-.784c.194-.21.46-.332.74-.34h.126Z" fill="#515151"/><path d="M30.961 33.157c-1.355.008-2.703.21-4.005.601v-4.556a13.858 13.858 0 0 1 4.005-.557 13.916 13.916 0 0 1 4.013.557v4.582a12.81 12.81 0 0 0-4.013-.627Z" fill="#000"/><path d="M16.137 43.27h1.672c.082.635.203 1.263.36 1.882h-.836a1.1 1.1 0 0 1-.818-.285 1.194 1.194 0 0 1-.386-.804v-.793h.008ZM44.79 30.526c.555 0 1.004-.42 1.004-.94s-.45-.941-1.004-.941-1.003.42-1.003.94.45.941 1.003.941Z" fill="#515151"/></g><defs><clipPath id="b"><path fill="#fff" transform="translate(14.933 3.2)" d="M0 0h35.2v54.4H0z"/></clipPath></defs></svg>