<svg width="130" height="40" fill="none" xmlns="http://www.w3.org/2000/svg"><path d="M35.032 10.054L17.519 0v6.957l17.513 10.01v-6.913z" fill="#FF6492"/><path d="M35.032 16.968L29.778 20l-12.262-7.027-7.006 4-5.255-2.81 12.264-7.206 17.513 10.01z" fill="#141446"/><path d="M10.51 16.973l-5.255-2.81V20l5.254-3.027z" fill="#A14474"/><path d="M0 29.946L17.516 20l17.516 9.946L17.516 40 0 29.946z" fill="#141446"/><path d="M35.032 23.043L17.516 12.865V20l17.516 9.946v-6.903z" fill="#FF6492"/><path d="M5.255 20v-5.838l12.264-7.205V0L0 10.054v19.892L17.516 20v-7.135L5.255 20z" fill="#7A77FF"/><path d="M42.667 20.679c0-3.877 3.101-6.893 7.01-6.893 2.507 0 4.448 1.212 5.58 3.069l-1.994 1.561c-.863-1.212-1.968-2.02-3.558-2.02-2.427 0-4.152 1.886-4.152 4.28 0 2.45 1.725 4.307 4.152 4.307 1.564 0 2.669-.78 3.558-1.991l1.995 1.535c-1.16 1.857-3.102 3.069-5.581 3.069-3.909.001-7.01-3.015-7.01-6.917zM57.711 21.756v-7.672h2.804v7.887c0 1.857 1.32 3.014 2.992 3.014 1.619 0 2.913-1.157 2.913-3.014v-7.887h2.831v7.672c0 3.58-2.507 5.841-5.742 5.841-3.29 0-5.798-2.26-5.798-5.841zM86.427 20.705c0 3.93-2.723 6.893-6.47 6.893-1.943 0-3.641-.78-4.638-2.126v1.83h-2.642V7.112h2.831V15.7c.999-1.212 2.589-1.911 4.422-1.911 3.774-.002 6.497 2.986 6.497 6.916zm-2.912-.026c0-2.558-1.78-4.306-4.046-4.306-1.994 0-3.99 1.346-3.99 4.334 0 3.014 2.022 4.306 3.99 4.306 2.293 0 4.046-1.776 4.046-4.334zM101.067 21.621h-9.868c.378 2.18 2.049 3.473 4.313 3.473 1.538 0 2.75-.593 3.856-1.562l1.349 1.94c-1.403 1.318-3.182 2.125-5.285 2.125-4.098 0-7.119-2.988-7.119-6.892 0-3.876 2.993-6.919 6.849-6.919 3.532 0 6.12 2.585 6.12 6.057 0 .727-.135 1.429-.215 1.778zm-9.814-2.208h7.2c-.055-2.074-1.59-3.231-3.398-3.231-1.861.002-3.37 1.266-3.802 3.23zM103.601 25.524c0-1.212.944-2.1 2.129-2.1 1.16 0 2.077.888 2.077 2.1 0 1.211-.916 2.073-2.077 2.073-1.185 0-2.129-.862-2.129-2.073zM108.912 32.201v-2.395c.431.054.755.08 1.159.08 1.59 0 2.534-.564 2.534-2.288V14.084h2.832v13.757c0 3.203-1.914 4.603-4.691 4.603-.781-.001-1.349-.082-1.834-.243zm3.182-23.044c0-1.05.863-1.885 1.942-1.885 1.051 0 1.914.834 1.914 1.885 0 1.049-.863 1.857-1.914 1.857-1.079.002-1.942-.806-1.942-1.857zM117.756 25.04l1.618-1.777c1.05 1.104 2.212 1.885 3.721 1.885 1.159 0 2.129-.484 2.129-1.48 0-.863-.781-1.212-1.859-1.642l-1.349-.565c-2.129-.888-3.451-1.857-3.451-3.85 0-2.45 2.049-3.822 4.665-3.822 1.914 0 3.478.727 4.583 2.045l-1.538 1.75c-.835-.862-1.942-1.346-3.101-1.346-1.051 0-1.808.404-1.808 1.266 0 .7.54 1.05 1.753 1.561l1.268.513c2.399.996 3.613 2.045 3.613 3.985 0 2.664-2.264 4.037-4.907 4.037-2.345-.002-4.204-1.08-5.337-2.56z" fill="#141446"/></svg>

