<svg width="20" height="20" viewBox="0 0 20 20" fill="none" xmlns="http://www.w3.org/2000/svg">
<path d="M9.86731 0C11.7008 0 13.3896 0.429924 14.9578 1.26589C16.5259 2.10185 17.7322 3.2722 18.6248 4.72917C19.5416 6.25779 20 7.90583 20 9.72107C20 11.9185 19.3727 13.9009 18.1182 15.6445C16.8637 17.3881 15.2473 18.5823 13.2207 19.2511C13.0036 19.2988 12.8347 19.2749 12.7141 19.1794C12.5935 19.0839 12.5211 18.9406 12.5211 18.7734V15.4295C12.5211 14.5697 12.304 13.9725 11.8456 13.5904C12.8347 13.4949 13.5826 13.3515 14.0651 13.1844C14.813 12.9216 15.392 12.5156 15.8022 11.9901C16.2606 11.2975 16.4777 10.3421 16.4777 9.14784C16.4777 8.64626 16.3812 8.19245 16.1882 7.83418C16.0434 7.57145 15.8022 7.23706 15.4162 6.83102C15.5127 6.56829 15.585 6.2339 15.6092 5.87563C15.6333 5.27852 15.5368 4.70528 15.3197 4.10817C15.1025 4.0604 14.7165 4.13205 14.234 4.32313C13.9204 4.46644 13.5344 4.63363 13.1001 4.87248L12.5694 5.23075C11.725 4.9919 10.8806 4.87248 10.0121 4.87248C9.14355 4.87248 8.29916 4.9919 7.50302 5.23075L6.97226 4.87248C6.538 4.63363 6.15199 4.44255 5.81423 4.32313C5.33173 4.13205 4.96984 4.08428 4.72859 4.15594C4.48733 4.75305 4.39083 5.32629 4.43908 5.9234C4.43908 6.30556 4.48733 6.59218 4.60796 6.83102C4.29433 7.23706 4.05308 7.59533 3.90832 7.92972C3.76357 8.2641 3.69119 8.67014 3.69119 9.19561C3.69119 10.3898 3.90832 11.3213 4.34258 11.9901C4.72859 12.5395 5.28347 12.9694 6.03136 13.2321C6.51387 13.3993 7.23764 13.5187 8.20265 13.6382C7.8649 13.9487 7.64777 14.4025 7.55127 14.9996C7.09288 15.2145 6.65862 15.2862 6.22437 15.2384C5.52473 15.1907 4.99397 14.8324 4.60796 14.1636C4.43908 13.877 4.22195 13.6382 3.95657 13.4471C3.76357 13.3515 3.57057 13.256 3.35344 13.1605L3.06393 13.1127C2.77443 13.1127 2.60555 13.1605 2.60555 13.256C2.58142 13.3515 2.6538 13.4471 2.79855 13.5665L2.99156 13.7337C3.18456 13.8292 3.37756 14.0203 3.54644 14.2592C3.71532 14.4502 3.83595 14.6652 3.95657 14.904L4.12545 15.2145C4.27021 15.6206 4.51146 15.9311 4.89747 16.1222C5.2111 16.3132 5.62123 16.4327 6.05549 16.4804C6.36912 16.5043 6.70688 16.5043 7.06876 16.4327L7.50302 16.3849L7.55127 18.8211C7.55127 18.9883 7.47889 19.1078 7.35826 19.2272C7.23764 19.3227 7.06876 19.3705 6.85163 19.2988C4.80096 18.6301 3.16043 17.4358 1.88179 15.6922C0.627262 13.9248 0 11.9423 0 9.74495C0 7.92972 0.434258 6.28167 1.27865 4.80082C2.14717 3.31997 3.32931 2.14962 4.82509 1.28977C6.34499 0.429924 8.03378 0 9.86731 0ZM3.47407 13.4471C3.52232 13.3993 3.59469 13.3754 3.66707 13.4232C3.73944 13.471 3.76357 13.5187 3.73945 13.5904C3.71532 13.662 3.64294 13.662 3.54644 13.6143C3.44994 13.5665 3.44994 13.4949 3.47407 13.4471ZM3.90832 13.7815C3.95657 13.7337 4.02895 13.7337 4.10133 13.8292C4.1737 13.9009 4.19783 13.9725 4.14958 14.0203C4.10133 14.0681 4.02895 14.0681 3.95657 13.9725C3.86007 13.9009 3.86007 13.8292 3.90832 13.7815ZM4.31846 14.283C4.36671 14.2592 4.41496 14.2592 4.46321 14.2592C4.51146 14.283 4.53558 14.3069 4.55971 14.3547C4.63209 14.4502 4.63209 14.5458 4.55971 14.5935C4.53558 14.6174 4.48733 14.6174 4.46321 14.5935C4.43908 14.5697 4.36671 14.5458 4.31846 14.5219C4.27021 14.4025 4.27021 14.3069 4.31846 14.283ZM4.80096 14.8563C4.82509 14.8324 4.87334 14.8324 4.92159 14.8324C4.96984 14.8563 5.01809 14.8802 5.06635 14.904C5.1146 14.9518 5.13872 14.9996 5.13872 15.0474C5.16285 15.0951 5.13872 15.1429 5.1146 15.1668C5.04222 15.2384 4.94572 15.2384 4.82509 15.119C4.77684 15.0712 4.75271 15.0235 4.75271 14.9518C4.75271 14.8802 4.77684 14.8802 4.80096 14.8563ZM5.45235 15.3579C5.47648 15.2623 5.54885 15.2145 5.69361 15.2623C5.83836 15.3101 5.88661 15.3579 5.88661 15.4295C5.86248 15.5012 5.83836 15.5489 5.79011 15.5728C5.74186 15.5967 5.69361 15.5967 5.62123 15.5728C5.54885 15.5489 5.52473 15.5012 5.47648 15.4773C5.42823 15.4295 5.42823 15.4056 5.45235 15.3579ZM6.68275 15.525C6.68275 15.5012 6.65862 15.4773 6.61037 15.4534C6.56212 15.4295 6.51387 15.4056 6.41737 15.4056C6.27262 15.4056 6.22437 15.4534 6.22437 15.5728C6.22437 15.6684 6.29674 15.7161 6.4415 15.7161C6.61037 15.6922 6.68275 15.6445 6.68275 15.525ZM7.21351 15.2862C7.35826 15.2862 7.43064 15.334 7.43064 15.4056C7.45476 15.4773 7.38239 15.5489 7.23764 15.5967C7.18938 15.5967 7.14113 15.5967 7.09288 15.5728C7.04463 15.5489 7.02051 15.5012 7.02051 15.4295C7.02051 15.3579 7.09288 15.3101 7.21351 15.2862Z" fill="#727290"/>
</svg>
