<svg width="15" height="16" viewBox="0 0 15 16" fill="none" xmlns="http://www.w3.org/2000/svg">
<path d="M13.8238 8.38707C14.1238 7.99064 14.2899 7.50492 14.2899 6.99957C14.2899 6.19778 13.8417 5.43885 13.1202 5.01564C12.9345 4.9067 12.723 4.84937 12.5077 4.84957H8.22558L8.33272 2.65492C8.35772 2.12457 8.17022 1.621 7.80594 1.23707C7.62716 1.04783 7.41148 0.897269 7.17221 0.794683C6.93295 0.692098 6.67519 0.63967 6.41486 0.640638C5.48629 0.640638 4.66486 1.26564 4.41844 2.16028L2.88451 7.71385H0.575579C0.259508 7.71385 0.00415039 7.96921 0.00415039 8.28528V14.7853C0.00415039 15.1014 0.259508 15.3567 0.575579 15.3567H11.3131C11.4774 15.3567 11.6381 15.3246 11.7863 15.2603C12.6363 14.8978 13.1845 14.0674 13.1845 13.146C13.1845 12.921 13.1524 12.6996 13.0881 12.4853C13.3881 12.0889 13.5541 11.6031 13.5541 11.0978C13.5541 10.8728 13.522 10.6514 13.4577 10.4371C13.7577 10.0406 13.9238 9.55492 13.9238 9.04957C13.9202 8.82457 13.8881 8.60135 13.8238 8.38707ZM1.28986 14.071V8.99957H2.73629V14.071H1.28986ZM12.6542 7.76742L12.2631 8.10671L12.5113 8.56028C12.5931 8.70969 12.6355 8.87746 12.6345 9.04778C12.6345 9.34242 12.5059 9.62278 12.2845 9.81564L11.8934 10.1549L12.1417 10.6085C12.2234 10.7579 12.2658 10.9257 12.2649 11.096C12.2649 11.3906 12.1363 11.671 11.9149 11.8639L11.5238 12.2031L11.772 12.6567C11.8538 12.8061 11.8962 12.9739 11.8952 13.1442C11.8952 13.5442 11.6595 13.9049 11.2952 14.0692H3.87915V8.94242L5.65594 2.50492C5.70175 2.33992 5.8001 2.19436 5.93608 2.09027C6.07207 1.98619 6.23827 1.92927 6.40951 1.92814C6.54522 1.92814 6.67915 1.96742 6.78629 2.04778C6.96308 2.17992 7.05772 2.37992 7.04701 2.59242L6.87558 6.13528H12.4899C12.8077 6.32992 13.0041 6.6585 13.0041 6.99957C13.0041 7.29421 12.8756 7.57278 12.6542 7.76742Z" fill="currentColor"/>
</svg>
