<svg width="114" height="36" viewBox="0 0 114 36" fill="none" xmlns="http://www.w3.org/2000/svg">
<path d="M31.1996 9.04865L15.6025 0V6.26087L31.1996 15.2707L31.1996 9.04865Z" fill="#FF6492"/>
<path d="M31.1997 15.2708L26.5205 18.0001L15.5997 11.6758L9.35969 15.2758L4.67969 12.7461L15.6026 6.26099L31.1997 15.2708Z" fill="#141446"/>
<path d="M9.35968 15.2756L4.67969 12.7458V17.9999L9.35968 15.2756Z" fill="#A14474"/>
<path d="M0 26.9514L15.6 18L31.2 26.9514L15.6 36L0 26.9514Z" fill="#141446"/>
<path d="M31.1996 20.7391L15.5996 11.5784V18L31.1996 26.9513L31.1996 20.7391Z" fill="#FF6492"/>
<path d="M4.68 18V12.7459L15.6029 6.26087V0L0 9.04865V26.9514L15.6 18V11.5784L4.68 18Z" fill="#7A77FF"/>
<path d="M38 18.6112C38 15.1225 40.7622 12.408 44.2433 12.408C46.4767 12.408 48.2047 13.4985 49.2139 15.1696L47.4375 16.5748C46.6685 15.4843 45.6844 14.7573 44.2683 14.7573C42.1066 14.7573 40.5704 16.4537 40.5704 18.6095C40.5704 20.8141 42.1066 22.4852 44.2683 22.4852C45.661 22.4852 46.6452 21.7834 47.4375 20.6929L49.2139 22.0746C48.1814 23.7457 46.4517 24.8362 44.2433 24.8362C40.7622 24.8379 38 22.1234 38 18.6112Z" fill="white"/>
<path d="M51.3984 19.5805V12.6755H53.8954V19.774C53.8954 21.4452 55.0713 22.4869 56.5608 22.4869C58.002 22.4869 59.1546 21.4452 59.1546 19.774V12.6755H61.6766V19.5805C61.6766 22.8033 59.4431 24.8379 56.5625 24.8379C53.6319 24.8379 51.3984 22.8033 51.3984 19.5805Z" fill="white"/>
<path d="M76.9739 18.6346C76.9739 22.1721 74.5486 24.8378 71.211 24.8378C69.4813 24.8378 67.9684 24.136 67.0811 22.9243V24.5719H64.7275V6.3999H67.2495V14.1295C68.1386 13.039 69.5547 12.4096 71.1876 12.4096C74.5486 12.4079 76.9739 15.0972 76.9739 18.6346ZM74.3802 18.6111C74.3802 16.3088 72.7956 14.7353 70.7773 14.7353C69.0009 14.7353 67.2228 15.947 67.2228 18.6363C67.2228 21.3491 69.0243 22.512 70.7773 22.512C72.8189 22.512 74.3802 20.9133 74.3802 18.6111Z" fill="white"/>
<path d="M90.0123 19.4593H81.2237C81.5606 21.4216 83.0485 22.5845 85.0651 22.5845C86.4345 22.5845 87.5137 22.051 88.4994 21.1793L89.7004 22.9244C88.4511 24.1109 86.8665 24.8379 84.9933 24.8379C81.3438 24.8379 78.6533 22.1486 78.6533 18.6347C78.6533 15.146 81.3188 12.408 84.7531 12.408C87.899 12.408 90.2041 14.7337 90.2041 17.8589C90.2041 18.5135 90.084 19.1446 90.0123 19.4593ZM81.2721 17.4718H87.6838C87.6354 15.6055 86.2677 14.5638 84.6581 14.5638C83.0001 14.5654 81.6557 15.7031 81.2721 17.4718Z" fill="white"/>
<path d="M92.2695 22.9714C92.2695 21.8809 93.1102 21.0815 94.166 21.0815C95.1985 21.0815 96.0158 21.8809 96.0158 22.9714C96.0158 24.062 95.2002 24.8378 94.166 24.8378C93.1102 24.8378 92.2695 24.062 92.2695 22.9714Z" fill="white"/>
<path d="M97 28.9812V26.8254C97.3836 26.8742 97.6722 26.8977 98.0325 26.8977C99.4486 26.8977 100.289 26.3895 100.289 24.8379V12.6755H102.811V25.0566C102.811 27.9394 101.107 29.1999 98.6329 29.1999C97.9374 29.1983 97.432 29.1259 97 28.9812ZM99.8339 8.24105C99.8339 7.29694 100.603 6.54468 101.564 6.54468C102.499 6.54468 103.268 7.29525 103.268 8.24105C103.268 9.18516 102.499 9.91217 101.564 9.91217C100.603 9.91385 99.8339 9.18684 99.8339 8.24105Z" fill="white"/>
<path d="M104.876 22.5355L106.317 20.9367C107.253 21.9296 108.287 22.6331 109.631 22.6331C110.664 22.6331 111.528 22.1972 111.528 21.3002C111.528 20.5244 110.832 20.2097 109.872 19.8226L108.671 19.3144C106.774 18.515 105.597 17.6433 105.597 15.8493C105.597 13.6447 107.421 12.4094 109.752 12.4094C111.456 12.4094 112.849 13.0641 113.833 14.2505L112.464 15.8257C111.72 15.0499 110.734 14.614 109.701 14.614C108.766 14.614 108.092 14.9775 108.092 15.7534C108.092 16.3828 108.572 16.6975 109.653 17.1586L110.782 17.6197C112.919 18.5167 114 19.4608 114 21.206C114 23.6041 111.983 24.8394 109.63 24.8394C107.541 24.8377 105.885 23.8683 104.876 22.5355Z" fill="white"/>
</svg>
