<svg xmlns="http://www.w3.org/2000/svg" width="16" height="16" fill="none"><path fill="#F7DF1E" d="M14 0H2a2 2 0 0 0-2 2v12a2 2 0 0 0 2 2h12a2 2 0 0 0 2-2V2a2 2 0 0 0-2-2Z"/><path fill="#383838" d="M10.198 11.899c.305.492.703.853 1.406.853.591 0 .969-.29.969-.693 0-.482-.388-.653-1.039-.933l-.356-.151c-1.029-.432-1.713-.973-1.713-2.118C9.465 7.803 10.28 7 11.554 7c.906 0 1.558.311 2.028 1.126l-1.11.702c-.245-.432-.509-.602-.918-.602-.418 0-.683.261-.683.602 0 .422.265.593.877.854l.357.15c1.211.513 1.895 1.035 1.895 2.209C14 13.307 12.992 14 11.637 14c-1.324 0-2.18-.622-2.598-1.438l1.159-.663Zm-5.037.122c.224.391.427.723.917.723.469 0 .764-.181.764-.884V7.08h1.426v4.8c0 1.455-.865 2.117-2.129 2.117-1.142 0-1.803-.582-2.139-1.284l1.16-.692Z"/></svg>