<svg xmlns="http://www.w3.org/2000/svg" width="16" height="15" fill="none"><g fill="#61DAFB" clip-path="url(#a)"><path d="M16 7.252c0-1.079-1.327-2.101-3.362-2.735.47-2.11.26-3.79-.66-4.328a1.41 1.41 0 0 0-.73-.186v.74c.15 0 .271.03.372.087.444.259.636 1.244.486 2.512-.036.312-.095.64-.166.976a15.56 15.56 0 0 0-2.071-.362 16.129 16.129 0 0 0-1.357-1.66C9.575 1.292 10.573.74 11.252.74V0c-.897 0-2.071.65-3.259 1.779C6.806.657 5.633.013 4.735.013v.74c.676 0 1.677.548 2.74 1.547a15.619 15.619 0 0 0-1.347 1.656 14.99 14.99 0 0 0-2.074.365c-.075-.332-.13-.654-.17-.962-.153-1.268.036-2.254.476-2.516a.716.716 0 0 1 .375-.086v-.74c-.274 0-.521.06-.737.185C3.082.74 2.876 2.416 3.35 4.52 1.321 5.157 0 6.176 0 7.252c0 1.078 1.327 2.1 3.362 2.734-.47 2.111-.26 3.79.66 4.328.211.126.459.186.733.186.897 0 2.07-.65 3.258-1.779 1.187 1.122 2.361 1.766 3.258 1.766.274 0 .522-.06.737-.186.917-.538 1.122-2.214.65-4.318C14.678 9.35 16 8.327 16 7.252Zm-4.246-2.214c-.12.428-.27.87-.44 1.31a18.105 18.105 0 0 0-.897-1.573c.463.07.91.157 1.337.263ZM10.26 8.573c-.254.448-.515.872-.786 1.267a16.675 16.675 0 0 1-2.942.004 17.394 17.394 0 0 1-1.468-2.582A17.73 17.73 0 0 1 6.526 4.67a16.679 16.679 0 0 1 2.943-.004 17.399 17.399 0 0 1 1.468 2.582c-.206.445-.431.89-.676 1.325Zm1.053-.432c.177.445.327.89.45 1.321a14.41 14.41 0 0 1-1.343.266 18.385 18.385 0 0 0 .893-1.587Zm-3.306 3.541A13.615 13.615 0 0 1 7.1 10.62c.293.014.593.024.897.024.306 0 .61-.007.906-.024-.293.389-.596.744-.896 1.062ZM5.58 9.728c-.463-.07-.91-.156-1.337-.263.12-.428.27-.87.44-1.31.134.265.274.53.427.796.154.265.31.524.47.777ZM7.99 2.82c.304.319.607.674.907 1.062A19.833 19.833 0 0 0 8 3.86c-.307 0-.61.006-.907.023.294-.388.597-.743.897-1.062ZM5.577 4.776a18.396 18.396 0 0 0-.894 1.583c-.176-.445-.326-.89-.45-1.321.427-.103.877-.192 1.344-.262ZM2.625 8.93C1.471 8.43.724 7.773.724 7.251c0-.52.747-1.18 1.901-1.679.28-.122.587-.232.904-.335.186.65.43 1.328.734 2.021-.3.69-.542 1.364-.724 2.012a9.795 9.795 0 0 1-.914-.339Zm1.755 4.743c-.444-.26-.636-1.245-.486-2.513.036-.312.095-.64.166-.976.64.16 1.337.283 2.071.362.44.614.897 1.172 1.357 1.66-1.063 1.005-2.061 1.556-2.74 1.556a.768.768 0 0 1-.368-.09Zm7.736-2.53c.153 1.268-.036 2.254-.476 2.516a.715.715 0 0 1-.375.087c-.676 0-1.677-.548-2.74-1.547.457-.488.913-1.042 1.347-1.656.737-.08 1.435-.203 2.074-.365.075.335.134.657.17.966Zm1.255-2.213c-.28.123-.587.232-.903.335-.186-.65-.43-1.327-.734-2.021.3-.69.542-1.364.724-2.011.323.103.63.216.917.338 1.154.501 1.901 1.159 1.901 1.68-.003.52-.75 1.181-1.905 1.679Z"/><path d="M7.997 8.768c.823 0 1.49-.679 1.49-1.516 0-.838-.667-1.517-1.49-1.517s-1.49.679-1.49 1.517c0 .837.667 1.516 1.49 1.516Z"/></g><defs><clipPath id="a"><path fill="#fff" d="M0 0h16v14.5H0z"/></clipPath></defs></svg>