<svg xmlns="http://www.w3.org/2000/svg" width="16" height="16" fill="none"><g clip-path="url(#a)" opacity=".3"><path fill="#FF3E00" d="M13.578 2.115C12.156-.013 9.325-.637 7.29.705L3.701 3.092a4.247 4.247 0 0 0-1.853 2.86c-.17.99-.026 2.007.43 2.889a4.187 4.187 0 0 0-.613 1.6 4.703 4.703 0 0 0 .744 3.444c1.435 2.129 4.254 2.752 6.29 1.41l3.587-2.373a4.247 4.247 0 0 0 1.853-2.86c.17-.99.026-2.008-.43-2.889.313-.488.522-1.03.613-1.6a4.605 4.605 0 0 0-.744-3.458Z"/><path fill="#fff" d="M6.937 14.088c-1.162.312-2.375-.163-3.054-1.18a2.83 2.83 0 0 1-.456-2.074c.026-.122.052-.23.078-.353l.065-.217.183.136c.43.325.9.57 1.409.732l.13.04-.013.136c-.013.19.04.394.144.556a.848.848 0 0 0 .926.366c.079-.027.157-.054.222-.094l3.575-2.373a.77.77 0 0 0 .34-.516.868.868 0 0 0-.13-.623.84.84 0 0 0-1.15-.258l-1.37.909a2.38 2.38 0 0 1-.73.325c-1.161.312-2.375-.163-3.053-1.18a2.824 2.824 0 0 1-.444-2.074 2.572 2.572 0 0 1 1.122-1.722L8.32 2.25c.221-.15.47-.258.73-.34 1.162-.311 2.375.164 3.053 1.18a2.83 2.83 0 0 1 .457 2.075c-.026.122-.052.23-.091.353l-.065.217-.183-.136c-.43-.325-.9-.57-1.41-.732l-.13-.04.013-.136a.935.935 0 0 0-.143-.556.84.84 0 0 0-1.148-.258L5.827 6.251a.77.77 0 0 0-.339.515.868.868 0 0 0 .13.624.84.84 0 0 0 1.149.257l1.37-.908c.222-.15.47-.258.73-.339 1.162-.312 2.375.163 3.054 1.18a2.83 2.83 0 0 1 .457 2.074 2.572 2.572 0 0 1-1.123 1.722L7.667 13.75c-.222.15-.47.258-.73.34Z"/></g><defs><clipPath id="a"><path fill="#fff" d="M1.6 0h12.8v16H1.6z"/></clipPath></defs></svg>