<svg xmlns="http://www.w3.org/2000/svg" width="16" height="16" fill="none"><path fill="#3178C6" d="M14 0H2a2 2 0 0 0-2 2v12a2 2 0 0 0 2 2h12a2 2 0 0 0 2-2V2a2 2 0 0 0-2-2Z"/><path fill="#fff" fill-rule="evenodd" d="M9.652 12.112v1.51c.23.126.504.22.82.284a5.1 5.1 0 0 0 .998.094c.341 0 .665-.035.972-.104.306-.07.575-.183.807-.342.23-.159.414-.367.549-.623.135-.257.202-.574.202-.951a2.05 2.05 0 0 0-.116-.72 1.695 1.695 0 0 0-.333-.55 2.468 2.468 0 0 0-.523-.432 5.47 5.47 0 0 0-.686-.36 8.416 8.416 0 0 1-.503-.24 2.527 2.527 0 0 1-.378-.235 1.002 1.002 0 0 1-.24-.255.56.56 0 0 1-.084-.305c0-.103.025-.197.075-.28a.671.671 0 0 1 .214-.215c.092-.06.204-.106.338-.14.133-.033.281-.05.444-.05a2.822 2.822 0 0 1 1.163.264c.126.061.242.13.349.209V7.26a3.312 3.312 0 0 0-.71-.196A5.447 5.447 0 0 0 12.129 7c-.338 0-.658.039-.96.116a2.371 2.371 0 0 0-.798.36c-.23.164-.412.373-.545.626-.133.253-.2.556-.2.909 0 .45.122.834.367 1.152.244.317.616.586 1.114.807.195.085.377.168.546.25a3 3 0 0 1 .438.255c.123.088.22.184.292.288a.61.61 0 0 1 .04.625.612.612 0 0 1-.203.217c-.09.062-.203.11-.338.144a1.914 1.914 0 0 1-.473.052 2.56 2.56 0 0 1-.916-.172 2.7 2.7 0 0 1-.84-.517ZM7.26 8.39h1.824V7.15H4v1.24h1.816v5.52H7.26V8.39Z" clip-rule="evenodd"/></svg>