<?xml version="1.0" standalone="no"?>
<!DOCTYPE svg PUBLIC "-//W3C//DTD SVG 20010904//EN"
 "http://www.w3.org/TR/2001/REC-SVG-20010904/DTD/svg10.dtd">
<svg version="1.0" xmlns="http://www.w3.org/2000/svg"
 width="520.000000pt" height="520.000000pt" viewBox="0 0 520.000000 520.000000"
 preserveAspectRatio="xMidYMid meet">
<metadata>
Created by potrace 1.11, written by Peter Selinger 2001-2013
</metadata>
<g transform="translate(0.000000,520.000000) scale(0.100000,-0.100000)"
fill="#000000" stroke="none">
<path d="M2548 5171 c-23 -15 -180 -106 -348 -202 -168 -95 -314 -179 -325
-186 -11 -7 -27 -16 -35 -20 -14 -7 -358 -203 -390 -223 -8 -5 -85 -49 -170
-98 -85 -49 -290 -167 -455 -262 -165 -95 -325 -186 -355 -203 -30 -16 -61
-34 -68 -40 -7 -5 -27 -17 -45 -27 l-32 -17 0 -1293 0 -1293 30 -18 c17 -10
41 -24 55 -32 14 -7 151 -86 305 -174 154 -88 303 -173 330 -188 28 -15 62
-36 77 -46 14 -11 29 -19 32 -19 4 0 23 -11 44 -23 20 -13 57 -35 82 -49 25
-14 64 -36 86 -49 23 -13 202 -116 398 -229 196 -113 378 -218 404 -233 26
-15 56 -32 67 -37 11 -6 36 -20 55 -31 260 -155 309 -179 334 -167 14 6 26 15
26 20 0 4 5 8 11 8 6 0 43 19 82 42 76 45 92 54 228 131 46 26 91 52 99 57 19
12 83 49 600 345 228 131 429 246 445 255 110 64 238 137 285 163 30 16 60 33
65 37 12 9 201 118 313 181 20 12 51 29 67 39 l30 19 -1 443 c-1 244 -2 446
-3 449 0 3 -54 37 -118 74 -65 37 -129 75 -143 84 -14 8 -41 25 -61 36 -172
97 -349 201 -349 205 0 3 86 55 191 115 105 61 210 121 233 134 22 13 84 48
136 78 52 30 100 60 105 67 6 8 10 174 10 456 l0 442 -130 75 c-72 41 -148 85
-170 98 -22 12 -123 70 -224 129 -101 58 -185 106 -188 106 -2 0 -27 15 -56
33 -29 18 -65 40 -82 49 -16 8 -97 54 -178 102 -82 47 -151 86 -153 86 -2 0
-21 11 -42 24 -30 19 -485 282 -612 353 -19 11 -121 69 -225 130 -105 60 -198
112 -207 115 -9 4 -34 -5 -60 -21z"/>
</g>
</svg>
