<svg width="626" height="110" viewBox="0 0 626 110" fill="none" xmlns="http://www.w3.org/2000/svg">
<path d="M369.62 27.5L321.819 0V19.0276L369.62 46.4095L369.62 27.5Z" fill="#FF6492"/>
<path d="M369.62 46.4095L355.279 54.7043L321.81 35.4839L302.686 46.4247L288.343 38.7366L321.819 19.0276L369.62 46.4095Z" fill="#141446"/>
<path d="M302.686 46.4247L288.343 38.7366V54.7043L302.686 46.4247Z" fill="#A14474"/>
<path d="M274 81.9086L321.81 54.7043L369.62 81.9086L321.81 109.409L274 81.9086Z" fill="#141446"/>
<path d="M369.62 63.0289L321.81 35.1882V54.7044L369.62 81.9087L369.62 63.0289Z" fill="#FF6492"/>
<path d="M288.343 54.7043V38.7366L321.819 19.0276V0L274 27.5V81.9086L321.81 54.7043V35.1882L288.343 54.7043Z" fill="#7A77FF"/>
<path d="M391.732 56.5745C391.732 45.9871 400.246 37.749 410.976 37.749C417.861 37.749 423.188 41.0585 426.298 46.1301L420.822 50.3947C418.452 47.0852 415.419 44.8788 411.054 44.8788C404.39 44.8788 399.655 50.027 399.655 56.5694C399.655 63.2599 404.39 68.3315 411.054 68.3315C415.347 68.3315 418.38 66.2017 420.822 62.8922L426.298 67.0853C423.116 72.1568 417.784 75.4664 410.976 75.4664C400.246 75.4715 391.732 67.2334 391.732 56.5745Z" fill="#141446"/>
<path d="M433.034 59.5165V38.5613H440.73V60.1038C440.73 65.1754 444.355 68.3368 448.947 68.3368C453.389 68.3368 456.942 65.1754 456.942 60.1038V38.5613H464.716V59.5165C464.716 69.297 457.831 75.4717 448.952 75.4717C439.918 75.4717 433.034 69.297 433.034 59.5165Z" fill="#141446"/>
<path d="M511.869 56.6461C511.869 67.3816 504.393 75.4716 494.105 75.4716C488.773 75.4716 484.109 73.3418 481.374 69.6646V74.6646H474.119V19.5161H481.893V42.9739C484.634 39.6644 488.999 37.7542 494.033 37.7542C504.393 37.7491 511.869 45.9106 511.869 56.6461ZM503.873 56.5746C503.873 49.5878 498.989 44.8125 492.768 44.8125C487.292 44.8125 481.811 48.4898 481.811 56.6512C481.811 64.8842 487.364 68.4133 492.768 68.4133C499.061 68.4133 503.873 63.5614 503.873 56.5746Z" fill="#141446"/>
<path d="M552.06 59.1486H524.969C526.008 65.1037 530.594 68.6328 536.81 68.6328C541.031 68.6328 544.358 67.0138 547.396 64.3682L551.098 69.6645C547.247 73.2651 542.363 75.4715 536.589 75.4715C525.339 75.4715 517.046 67.31 517.046 56.646C517.046 46.0586 525.262 37.749 535.849 37.749C545.545 37.749 552.651 44.8073 552.651 54.2915C552.651 56.2783 552.281 58.1935 552.06 59.1486ZM525.118 53.1169H544.882C544.733 47.4529 540.517 44.2915 535.555 44.2915C530.445 44.2966 526.301 47.7491 525.118 53.1169Z" fill="#141446"/>
<path d="M559.016 69.8075C559.016 66.498 561.608 64.072 564.862 64.072C568.045 64.072 570.564 66.498 570.564 69.8075C570.564 73.117 568.05 75.4715 564.862 75.4715C561.608 75.4715 559.016 73.117 559.016 69.8075Z" fill="#141446"/>
<path d="M573.598 88.0457V81.5033C574.78 81.6514 575.67 81.7229 576.78 81.7229C581.145 81.7229 583.737 80.1805 583.737 75.4716V38.5612H591.511V76.1355C591.511 84.8843 586.256 88.7097 578.631 88.7097C576.487 88.7046 574.929 88.4849 573.598 88.0457ZM582.333 25.1035C582.333 22.2383 584.703 19.9553 587.665 19.9553C590.549 19.9553 592.919 22.2332 592.919 25.1035C592.919 27.9687 590.549 30.175 587.665 30.175C584.703 30.1801 582.333 27.9738 582.333 25.1035Z" fill="#141446"/>
<path d="M597.876 68.4847L602.318 63.6328C605.203 66.6461 608.39 68.7809 612.534 68.7809C615.717 68.7809 618.38 67.4581 618.38 64.736C618.38 62.3815 616.236 61.4264 613.275 60.2518L609.573 58.7094C603.727 56.2834 600.097 53.6378 600.097 48.1934C600.097 41.5029 605.722 37.7542 612.905 37.7542C618.159 37.7542 622.452 39.7409 625.486 43.3415L621.265 48.1219C618.972 45.7675 615.933 44.4447 612.75 44.4447C609.866 44.4447 607.789 45.5479 607.789 47.9023C607.789 49.8125 609.269 50.7675 612.601 52.1669L616.082 53.5663C622.668 56.2885 626 59.1537 626 64.45C626 71.7278 619.784 75.4766 612.529 75.4766C606.092 75.4715 600.986 72.5297 597.876 68.4847Z" fill="#141446"/>
<path opacity="0.6" d="M14.322 49.084C11.13 49.084 8.19 50.47 6.594 52.822V49.546H3.57V77.56H6.804V67.06C8.484 69.202 11.34 70.462 14.322 70.462C20.16 70.462 24.444 65.8 24.444 59.752C24.444 53.746 20.202 49.084 14.322 49.084ZM13.86 67.48C10.29 67.48 6.762 65.128 6.762 59.752C6.762 54.376 10.332 52.066 13.86 52.066C18.06 52.066 21.126 55.342 21.126 59.794C21.126 64.246 18.018 67.48 13.86 67.48ZM39.3051 70.42C45.3111 70.42 50.0571 65.674 50.0571 59.752C50.0571 53.788 45.3111 49.084 39.3471 49.084C33.3411 49.084 28.6371 53.746 28.6371 59.752C28.6371 65.674 33.3411 70.42 39.3051 70.42ZM39.3051 67.438C35.1051 67.438 31.9551 64.162 31.9551 59.794C31.9551 55.384 35.1051 52.066 39.3471 52.066C43.5471 52.066 46.7391 55.384 46.7391 59.794C46.7391 64.12 43.5051 67.438 39.3051 67.438ZM82.5156 49.546L76.7196 64.582L69.8316 49.084H68.6136L61.8096 64.708L55.8876 49.546H52.4436L61.1376 70.462H62.2716L69.2016 55.006L76.1736 70.462H77.3496L85.9596 49.546H82.5156ZM108.138 58.324C108.138 52.864 104.064 49.084 98.8139 49.084C92.9339 49.084 88.3559 53.83 88.3559 59.794C88.3559 65.8 93.0179 70.462 99.1919 70.462C102.552 70.462 105.324 69.076 107.382 66.892L105.492 64.708C103.812 66.388 101.796 67.48 99.2339 67.48C95.2019 67.48 92.1359 64.834 91.7159 60.76H107.886C107.97 60.34 108.138 59.416 108.138 58.324ZM98.7299 52.024C101.964 52.024 104.778 54.124 104.82 57.904H91.8419C92.5559 54.376 95.2859 52.024 98.7299 52.024ZM123.186 49.378C120.75 49.378 118.356 50.428 116.844 52.444V49.546H113.82V70H117.054V58.408C117.054 54.502 120.162 52.402 123.48 52.402H124.698V49.546C124.278 49.462 123.858 49.378 123.186 49.378ZM146.939 58.324C146.939 52.864 142.865 49.084 137.615 49.084C131.735 49.084 127.157 53.83 127.157 59.794C127.157 65.8 131.819 70.462 137.993 70.462C141.353 70.462 144.125 69.076 146.183 66.892L144.293 64.708C142.613 66.388 140.597 67.48 138.035 67.48C134.003 67.48 130.937 64.834 130.517 60.76H146.687C146.771 60.34 146.939 59.416 146.939 58.324ZM137.531 52.024C140.765 52.024 143.579 54.124 143.621 57.904H130.643C131.357 54.376 134.087 52.024 137.531 52.024ZM168.833 38.5V52.57C167.195 50.386 164.339 49.084 161.273 49.084C155.435 49.084 151.151 53.746 151.151 59.794C151.151 65.8 155.435 70.462 161.273 70.462C164.465 70.462 167.405 69.076 169.001 66.766V70H172.067V38.5H168.833ZM161.735 67.48C157.535 67.48 154.469 64.204 154.469 59.752C154.469 55.3 157.577 52.066 161.735 52.066C165.263 52.066 168.875 54.418 168.875 59.794C168.875 65.17 165.263 67.48 161.735 67.48ZM201.681 49.084C198.615 49.084 195.801 50.386 194.163 52.528V38.5H190.929V70H193.953V66.766C195.549 69.076 198.531 70.462 201.723 70.462C207.561 70.462 211.803 65.8 211.803 59.794C211.803 53.746 207.519 49.084 201.681 49.084ZM201.219 67.48C197.691 67.48 194.121 65.17 194.121 59.794C194.121 54.418 197.649 52.066 201.219 52.066C205.377 52.066 208.485 55.3 208.485 59.752C208.485 64.204 205.419 67.48 201.219 67.48ZM231.547 49.546L224.785 65.842L218.023 49.546H214.537L223.021 69.37L221.929 71.806C220.795 74.41 219.283 75.082 217.309 75.082C216.595 75.082 215.797 74.998 214.831 74.872V77.602C215.797 77.854 216.973 78.022 217.981 78.022C221.089 78.022 223.315 76.51 224.911 72.856L234.991 49.546H231.547Z" fill="#141446"/>
</svg>
