<svg width="16" height="16" viewBox="0 0 16 16" fill="none" xmlns="http://www.w3.org/2000/svg">
<path d="M8.65356 7.73919V5.0913C8.65356 4.91749 8.59659 4.77344 8.48266 4.65914C8.36873 4.54483 8.22515 4.48767 8.05191 4.48767C7.87866 4.48767 7.73442 4.54483 7.61917 4.65914C7.50392 4.77344 7.44629 4.91749 7.44629 5.0913V7.98115C7.44629 8.06665 7.46054 8.14615 7.48906 8.21965C7.51756 8.29315 7.56031 8.36486 7.61731 8.43477L9.90426 10.8051C10.0311 10.935 10.1816 10.9972 10.3559 10.9917C10.5302 10.9861 10.6799 10.9239 10.805 10.8051C10.9301 10.6862 10.9927 10.5389 10.9927 10.363C10.9927 10.1872 10.9301 10.0367 10.805 9.91157L8.65356 7.73919Z" fill="#43436B"/>
<path fill-rule="evenodd" clip-rule="evenodd" d="M8 13.7C11.148 13.7 13.7 11.148 13.7 8C13.7 4.85198 11.148 2.3 8 2.3C4.85198 2.3 2.3 4.85198 2.3 8C2.3 11.148 4.85198 13.7 8 13.7ZM8 15C11.866 15 15 11.866 15 8C15 4.13401 11.866 1 8 1C4.13401 1 1 4.13401 1 8C1 11.866 4.13401 15 8 15Z" fill="#43436B"/>
</svg>
