<svg width="100" height="30" viewBox="0 0 100 30" fill="none" xmlns="http://www.w3.org/2000/svg">
<path d="M22.4 9.03243L12.002 3V7.17391L22.4 13.1804L22.4 9.03243Z" fill="#FF6492"/>
<path d="M22.3999 13.1804L19.2805 14.9999L12 10.7837L7.83997 13.1837L4.71997 11.4972L12.0019 7.17383L22.3999 13.1804Z" fill="#141446"/>
<path d="M7.83997 13.1838L4.71997 11.4973V15L7.83997 13.1838Z" fill="#A14474"/>
<path d="M1.6001 20.9676L12.0001 15L22.4001 20.9676L12.0001 27L1.6001 20.9676Z" fill="#141446"/>
<path d="M22.4 16.8262L12 10.719V15.0001L22.4 20.9676L22.4 16.8262Z" fill="#FF6492"/>
<path d="M4.7201 15V11.4973L12.0021 7.17391V3L1.6001 9.03243V20.9676L12.0001 15V10.7189L4.7201 15Z" fill="#7A77FF"/>
<path d="M33.729 22.242C35.753 22.242 37.337 21.252 38.283 19.734L36.655 18.48C35.929 19.47 35.027 20.108 33.751 20.108C31.771 20.108 30.363 18.59 30.363 16.588C30.363 14.63 31.771 13.09 33.751 13.09C35.049 13.09 35.951 13.75 36.655 14.74L38.283 13.464C37.359 11.946 35.775 10.956 33.729 10.956C30.539 10.956 28.009 13.42 28.009 16.588C28.009 19.778 30.539 22.242 33.729 22.242Z" fill="#141446"/>
<path d="M45.0097 22.242C47.6497 22.242 49.6957 20.394 49.6957 17.468V11.198H47.3857V17.644C47.3857 19.162 46.3297 20.108 45.0097 20.108C43.6457 20.108 42.5677 19.162 42.5677 17.644V11.198H40.2797V17.468C40.2797 20.394 42.3257 22.242 45.0097 22.242Z" fill="#141446"/>
<path d="M58.4146 10.956C56.9186 10.956 55.6206 11.528 54.8066 12.518V5.5H52.4966V22H54.6526V20.504C55.4666 21.604 56.8526 22.242 58.4366 22.242C61.4946 22.242 63.7166 19.822 63.7166 16.61C63.7166 13.398 61.4946 10.956 58.4146 10.956ZM58.0406 20.13C56.4346 20.13 54.7846 19.074 54.7846 16.61C54.7846 14.168 56.4126 13.068 58.0406 13.068C59.8886 13.068 61.3406 14.498 61.3406 16.588C61.3406 18.678 59.9106 20.13 58.0406 20.13Z" fill="#141446"/>
<path d="M75.8355 15.906C75.8355 13.068 73.7235 10.956 70.8415 10.956C67.6955 10.956 65.2535 13.442 65.2535 16.61C65.2535 19.8 67.7175 22.242 71.0615 22.242C72.7775 22.242 74.2295 21.582 75.3735 20.504L74.2735 18.92C73.3715 19.712 72.3815 20.196 71.1275 20.196C69.2795 20.196 67.9155 19.14 67.6075 17.358H75.6595C75.7255 17.072 75.8355 16.5 75.8355 15.906ZM70.7535 12.914C72.2275 12.914 73.4815 13.86 73.5255 15.554H67.6515C68.0035 13.948 69.2355 12.914 70.7535 12.914Z" fill="#141446"/>
<path d="M79.4724 22.242C80.4184 22.242 81.1664 21.538 81.1664 20.548C81.1664 19.558 80.4184 18.832 79.4724 18.832C78.5044 18.832 77.7344 19.558 77.7344 20.548C77.7344 21.538 78.5044 22.242 79.4724 22.242Z" fill="#141446"/>
<path d="M86.2449 8.69C87.1029 8.69 87.8069 8.03 87.8069 7.172C87.8069 6.314 87.1029 5.632 86.2449 5.632C85.3649 5.632 84.6609 6.314 84.6609 7.172C84.6609 8.03 85.3649 8.69 86.2449 8.69ZM83.5609 26.202C85.8269 26.202 87.3889 25.058 87.3889 22.44V11.198H85.0789V22.242C85.0789 23.65 84.3089 24.112 83.0109 24.112C82.6809 24.112 82.4169 24.09 82.0649 24.046V26.004C82.4609 26.136 82.9229 26.202 83.5609 26.202Z" fill="#141446"/>
<path d="M93.6333 22.242C95.7893 22.242 97.6373 21.12 97.6373 18.942C97.6373 17.358 96.6473 16.5 94.6893 15.686L93.6553 15.268C92.6653 14.85 92.2253 14.564 92.2253 13.992C92.2253 13.288 92.8413 12.958 93.6993 12.958C94.6453 12.958 95.5473 13.354 96.2293 14.058L97.4833 12.628C96.5813 11.55 95.3053 10.956 93.7433 10.956C91.6093 10.956 89.9373 12.078 89.9373 14.08C89.9373 15.708 91.0153 16.5 92.7533 17.226L93.8533 17.688C94.7333 18.04 95.3713 18.326 95.3713 19.03C95.3713 19.844 94.5793 20.24 93.6333 20.24C92.4013 20.24 91.4553 19.602 90.5973 18.7L89.2773 20.152C90.2013 21.362 91.7193 22.242 93.6333 22.242Z" fill="#141446"/>
</svg>
