<svg width="99" height="29" viewBox="0 0 99 29" fill="none" xmlns="http://www.w3.org/2000/svg">
<path d="M26.1801 8.03784L14.0273 1V5.86957L26.1801 12.8772L26.1801 8.03784Z" fill="#FF6492"/>
<path d="M26.18 12.8772L22.5341 15.0001L14.025 10.0811L9.16298 12.8811L5.51648 10.9136L14.0272 5.86963L26.18 12.8772Z" fill="#141446"/>
<path d="M9.16297 12.8807L5.51648 10.9131V14.9996L9.16297 12.8807Z" fill="#A14474"/>
<path d="M1.87 21.9622L14.025 15L26.18 21.9622L14.025 29L1.87 21.9622Z" fill="#141446"/>
<path d="M26.18 17.1309L14.025 10.0059V15.0005L26.18 21.9626L26.18 17.1309Z" fill="#FF6492"/>
<path d="M5.51649 15V10.9135L14.0273 5.86956V1L1.87 8.03784V21.9622L14.025 15V10.0054L5.51649 15Z" fill="#7A77FF"/>
<path d="M33.66 15.6277C33.66 11.4184 36.9988 8.14307 41.2065 8.14307C43.9061 8.14307 45.9948 9.45887 47.2146 11.4752L45.0674 13.1707C44.138 11.8549 42.9484 10.9777 41.2367 10.9777C38.6238 10.9777 36.7669 13.0245 36.7669 15.6257C36.7669 18.2857 38.6238 20.3021 41.2367 20.3021C42.9202 20.3021 44.1097 19.4553 45.0674 18.1395L47.2146 19.8066C45.9666 21.8229 43.8759 23.1387 41.2065 23.1387C36.9988 23.1408 33.66 19.8655 33.66 15.6277Z" fill="#141446"/>
<path d="M49.8557 16.7977V8.46631H52.8739V17.0312C52.8739 19.0475 54.2953 20.3045 56.0957 20.3045C57.8376 20.3045 59.2308 19.0475 59.2308 17.0312V8.46631H62.2792V16.7977C62.2792 20.6862 59.5796 23.1411 56.0977 23.1411C52.5553 23.1411 49.8557 20.6862 49.8557 16.7977Z" fill="#141446"/>
<path d="M80.7693 15.6562C80.7693 19.9244 77.8379 23.1408 73.8036 23.1408C71.7128 23.1408 69.8842 22.2941 68.8116 20.8321V22.82H65.9668V0.894043H69.0152V10.2204C70.0898 8.90459 71.8015 8.14517 73.7753 8.14517C77.8379 8.14313 80.7693 11.388 80.7693 15.6562ZM77.6342 15.6278C77.6342 12.85 75.7189 10.9514 73.2794 10.9514C71.1322 10.9514 68.983 12.4134 68.983 15.6582C68.983 18.9315 71.1604 20.3346 73.2794 20.3346C75.7471 20.3346 77.6342 18.4056 77.6342 15.6278Z" fill="#141446"/>
<path d="M96.5297 16.6511H85.9066C86.3138 19.0187 88.1122 20.4219 90.5498 20.4219C92.205 20.4219 93.5095 19.7782 94.701 18.7263L96.1526 20.832C94.6425 22.2636 92.7272 23.1408 90.4631 23.1408C86.0517 23.1408 82.7997 19.8959 82.7997 15.6561C82.7997 11.4468 86.0215 8.14307 90.1727 8.14307C93.9752 8.14307 96.7615 10.9493 96.7615 14.72C96.7615 15.5099 96.6164 16.2714 96.5297 16.6511ZM85.965 14.253H93.7151C93.6566 12.0011 92.0034 10.7442 90.0578 10.7442C88.0538 10.7462 86.4288 12.1189 85.965 14.253Z" fill="#141446"/>
</svg>
