<svg width="136" height="30" viewBox="0 0 136 30" fill="none" xmlns="http://www.w3.org/2000/svg">
<path d="M22.4 9.03243L12.002 3V7.17391L22.4 13.1804L22.4 9.03243Z" fill="#FF6492"/>
<path d="M22.3999 13.1804L19.2805 14.9999L12 10.7837L7.83997 13.1837L4.71997 11.4972L12.0019 7.17383L22.3999 13.1804Z" fill="#141446"/>
<path d="M7.83997 13.1838L4.71997 11.4973V15L7.83997 13.1838Z" fill="#A14474"/>
<path d="M1.6001 20.9676L12.0001 15L22.4001 20.9676L12.0001 27L1.6001 20.9676Z" fill="#141446"/>
<path d="M22.4 16.8262L12 10.719V15.0001L22.4 20.9676L22.4 16.8262Z" fill="#FF6492"/>
<path d="M4.7201 15V11.4973L12.0021 7.17391V3L1.6001 9.03243V20.9676L12.0001 15V10.7189L4.7201 15Z" fill="#7A77FF"/>
<path d="M33.729 22.242C35.753 22.242 37.337 21.252 38.283 19.734L36.655 18.48C35.929 19.47 35.027 20.108 33.751 20.108C31.771 20.108 30.363 18.59 30.363 16.588C30.363 14.63 31.771 13.09 33.751 13.09C35.049 13.09 35.951 13.75 36.655 14.74L38.283 13.464C37.359 11.946 35.775 10.956 33.729 10.956C30.539 10.956 28.009 13.42 28.009 16.588C28.009 19.778 30.539 22.242 33.729 22.242Z" fill="#141446"/>
<path d="M45.0097 22.242C47.6497 22.242 49.6957 20.394 49.6957 17.468V11.198H47.3857V17.644C47.3857 19.162 46.3297 20.108 45.0097 20.108C43.6457 20.108 42.5677 19.162 42.5677 17.644V11.198H40.2797V17.468C40.2797 20.394 42.3257 22.242 45.0097 22.242Z" fill="#141446"/>
<path d="M58.4146 10.956C56.9186 10.956 55.6206 11.528 54.8066 12.518V5.5H52.4966V22H54.6526V20.504C55.4666 21.604 56.8526 22.242 58.4366 22.242C61.4946 22.242 63.7166 19.822 63.7166 16.61C63.7166 13.398 61.4946 10.956 58.4146 10.956ZM58.0406 20.13C56.4346 20.13 54.7846 19.074 54.7846 16.61C54.7846 14.168 56.4126 13.068 58.0406 13.068C59.8886 13.068 61.3406 14.498 61.3406 16.588C61.3406 18.678 59.9106 20.13 58.0406 20.13Z" fill="#141446"/>
<path d="M75.8355 15.906C75.8355 13.068 73.7235 10.956 70.8415 10.956C67.6955 10.956 65.2535 13.442 65.2535 16.61C65.2535 19.8 67.7175 22.242 71.0615 22.242C72.7775 22.242 74.2295 21.582 75.3735 20.504L74.2735 18.92C73.3715 19.712 72.3815 20.196 71.1275 20.196C69.2795 20.196 67.9155 19.14 67.6075 17.358H75.6595C75.7255 17.072 75.8355 16.5 75.8355 15.906ZM70.7535 12.914C72.2275 12.914 73.4815 13.86 73.5255 15.554H67.6515C68.0035 13.948 69.2355 12.914 70.7535 12.914Z" fill="#141446"/>
<path d="M87.0804 22.242C89.1044 22.242 90.6884 21.252 91.6344 19.734L90.0064 18.48C89.2804 19.47 88.3784 20.108 87.1024 20.108C85.1224 20.108 83.7144 18.59 83.7144 16.588C83.7144 14.63 85.1224 13.09 87.1024 13.09C88.4004 13.09 89.3024 13.75 90.0064 14.74L91.6344 13.464C90.7104 11.946 89.1264 10.956 87.0804 10.956C83.8904 10.956 81.3604 13.42 81.3604 16.588C81.3604 19.778 83.8904 22.242 87.0804 22.242Z" fill="#141446"/>
<path d="M93.741 22H96.051V5.5H93.741V22Z" fill="#141446"/>
<path d="M103.967 22.242C107.179 22.242 109.709 19.734 109.709 16.588C109.709 13.442 107.179 10.956 103.967 10.956C100.777 10.956 98.2694 13.42 98.2694 16.588C98.2694 19.734 100.777 22.242 103.967 22.242ZM103.967 20.108C102.053 20.108 100.623 18.612 100.623 16.61C100.623 14.586 102.053 13.068 103.989 13.068C105.881 13.068 107.333 14.586 107.333 16.61C107.333 18.59 105.881 20.108 103.967 20.108Z" fill="#141446"/>
<path d="M116.538 22.242C119.178 22.242 121.224 20.394 121.224 17.468V11.198H118.914V17.644C118.914 19.162 117.858 20.108 116.538 20.108C115.174 20.108 114.096 19.162 114.096 17.644V11.198H111.808V17.468C111.808 20.394 113.854 22.242 116.538 22.242Z" fill="#141446"/>
<path d="M132.231 5.5V12.518C131.417 11.528 130.119 10.956 128.623 10.956C125.565 10.956 123.343 13.398 123.343 16.61C123.343 19.822 125.543 22.242 128.623 22.242C130.229 22.242 131.615 21.582 132.407 20.46V22H134.563V5.5H132.231ZM129.019 20.13C127.127 20.13 125.697 18.678 125.697 16.588C125.697 14.498 127.149 13.068 129.019 13.068C130.625 13.068 132.275 14.168 132.275 16.61C132.275 19.074 130.625 20.13 129.019 20.13Z" fill="#141446"/>
</svg>
