<svg width="84" height="30" viewBox="0 0 84 30" fill="none" xmlns="http://www.w3.org/2000/svg">
<path d="M22.4381 9.03243L12.04 3V7.17391L22.4381 13.1804L22.4381 9.03243Z" fill="#FF6492"/>
<path d="M22.438 13.1804L19.3186 14.9999L12.0381 10.7837L7.87805 13.1837L4.75806 11.4972L12.04 7.17383L22.438 13.1804Z" fill="#141446"/>
<path d="M7.87806 13.1838L4.75806 11.4973V15L7.87806 13.1838Z" fill="#A14474"/>
<path d="M1.63818 20.9676L12.0382 15L22.4382 20.9676L12.0382 27L1.63818 20.9676Z" fill="#141446"/>
<path d="M22.4381 16.8262L12.0381 10.719V15.0001L22.4381 20.9676L22.4381 16.8262Z" fill="#FF6492"/>
<path d="M4.75819 15V11.4973L12.0401 7.17391V3L1.63818 9.03243V20.9676L12.0382 15V10.7189L4.75819 15Z" fill="#7A77FF"/>
<path d="M33.7671 22.242C35.7911 22.242 37.3751 21.252 38.3211 19.734L36.6931 18.48C35.9671 19.47 35.0651 20.108 33.7891 20.108C31.8091 20.108 30.4011 18.59 30.4011 16.588C30.4011 14.63 31.8091 13.09 33.7891 13.09C35.0871 13.09 35.9891 13.75 36.6931 14.74L38.3211 13.464C37.3971 11.946 35.8131 10.956 33.7671 10.956C30.5771 10.956 28.0471 13.42 28.0471 16.588C28.0471 19.778 30.5771 22.242 33.7671 22.242Z" fill="#141446"/>
<path d="M40.4278 22H42.7378V5.5H40.4278V22Z" fill="#141446"/>
<path d="M50.6542 22.242C53.8662 22.242 56.3962 19.734 56.3962 16.588C56.3962 13.442 53.8662 10.956 50.6542 10.956C47.4642 10.956 44.9562 13.42 44.9562 16.588C44.9562 19.734 47.4642 22.242 50.6542 22.242ZM50.6542 20.108C48.7402 20.108 47.3102 18.612 47.3102 16.61C47.3102 14.586 48.7402 13.068 50.6762 13.068C52.5682 13.068 54.0202 14.586 54.0202 16.61C54.0202 18.59 52.5682 20.108 50.6542 20.108Z" fill="#141446"/>
<path d="M63.2244 22.242C65.8644 22.242 67.9104 20.394 67.9104 17.468V11.198H65.6004V17.644C65.6004 19.162 64.5444 20.108 63.2244 20.108C61.8604 20.108 60.7824 19.162 60.7824 17.644V11.198H58.4944V17.468C58.4944 20.394 60.5404 22.242 63.2244 22.242Z" fill="#141446"/>
<path d="M78.9173 5.5V12.518C78.1033 11.528 76.8053 10.956 75.3093 10.956C72.2513 10.956 70.0293 13.398 70.0293 16.61C70.0293 19.822 72.2293 22.242 75.3093 22.242C76.9153 22.242 78.3013 21.582 79.0933 20.46V22H81.2493V5.5H78.9173ZM75.7053 20.13C73.8133 20.13 72.3833 18.678 72.3833 16.588C72.3833 14.498 73.8353 13.068 75.7053 13.068C77.3113 13.068 78.9613 14.168 78.9613 16.61C78.9613 19.074 77.3113 20.13 75.7053 20.13Z" fill="#141446"/>
</svg>
