<svg width="106" height="28" viewBox="0 0 106 28" fill="none" xmlns="http://www.w3.org/2000/svg">
<path d="M26.1336 7.03784L14.0026 0V4.86956L26.1336 11.8772L26.1336 7.03784Z" fill="#FF6492"/>
<path d="M26.1334 11.8772L22.494 14.0001L14 9.08114L9.14671 11.8811L5.50671 9.91357L14.0023 4.86963L26.1334 11.8772Z" fill="#141446"/>
<path d="M9.14669 11.8816L5.50671 9.91406V14.0005L9.14669 11.8816Z" fill="#A14474"/>
<path d="M1.86646 20.9617L13.9998 13.9995L26.1331 20.9617L13.9998 27.9995L1.86646 20.9617Z" fill="#141446"/>
<path d="M26.1331 16.1304L13.9998 9.00537V14L26.1331 20.9621L26.1331 16.1304Z" fill="#FF6492"/>
<path d="M5.50645 14V9.91351L14.0021 4.86956V0L1.86646 7.03783V20.9622L13.9998 14V9.0054L5.50645 14Z" fill="#7A77FF"/>
<path d="M41.5102 22.25C44.1676 22.25 46.2474 20.9343 47.4895 18.9169L45.352 17.2503C44.3987 18.566 43.2144 19.4139 41.5391 19.4139C38.9394 19.4139 37.0907 17.3965 37.0907 14.7359C37.0907 12.1337 38.9394 10.0871 41.5391 10.0871C43.2433 10.0871 44.4276 10.9642 45.352 12.2799L47.4895 10.5841C46.2763 8.56669 44.1965 7.25099 41.5102 7.25099C37.3218 7.25099 34 10.5256 34 14.7359C34 18.9754 37.3218 22.25 41.5102 22.25Z" fill="#141446"/>
<path d="M50.2555 21.9284H53.2884V0H50.2555V21.9284Z" fill="#141446"/>
<path d="M63.6824 22.25C67.8997 22.25 71.2215 18.9169 71.2215 14.7359C71.2215 10.5549 67.8997 7.25099 63.6824 7.25099C59.4941 7.25099 56.2011 10.5256 56.2011 14.7359C56.2011 18.9169 59.4941 22.25 63.6824 22.25ZM63.6824 19.4139C61.1694 19.4139 59.2919 17.4258 59.2919 14.7651C59.2919 12.0752 61.1694 10.0578 63.7113 10.0578C66.1955 10.0578 68.1019 12.0752 68.1019 14.7651C68.1019 17.3965 66.1955 19.4139 63.6824 19.4139Z" fill="#141446"/>
<path d="M80.1868 22.25C83.6531 22.25 86.3394 19.794 86.3394 15.9054V7.5726H83.3064V16.1393C83.3064 18.1567 81.92 19.4139 80.1868 19.4139C78.3959 19.4139 76.9805 18.1567 76.9805 16.1393V7.5726H73.9765V15.9054C73.9765 19.794 76.6628 22.25 80.1868 22.25Z" fill="#141446"/>
<path d="M100.791 0V9.32687C99.7224 8.01117 98.0181 7.25099 96.0539 7.25099C92.0389 7.25099 89.1214 10.4964 89.1214 14.7651C89.1214 19.0338 92.01 22.25 96.0539 22.25C98.1626 22.25 99.9823 21.3729 101.022 19.8817V21.9284H103.853V0H100.791ZM96.5739 19.4432C94.0897 19.4432 92.2122 17.5135 92.2122 14.7359C92.2122 11.9583 94.1186 10.0578 96.5739 10.0578C98.6825 10.0578 100.849 11.5197 100.849 14.7651C100.849 18.0398 98.6825 19.4432 96.5739 19.4432Z" fill="#141446"/>
</svg>
