<svg width="174" height="28" viewBox="0 0 174 28" fill="none" xmlns="http://www.w3.org/2000/svg">
<path d="M26.1336 7.03784L14.0026 0V4.86956L26.1336 11.8772L26.1336 7.03784Z" fill="#FF6492"/>
<path d="M26.1334 11.8772L22.494 14.0001L14 9.08114L9.14671 11.8811L5.50671 9.91357L14.0023 4.86963L26.1334 11.8772Z" fill="#141446"/>
<path d="M9.14669 11.8802L5.50671 9.9126V13.9991L9.14669 11.8802Z" fill="#A14474"/>
<path d="M1.86646 20.9617L13.9998 13.9995L26.1331 20.9617L13.9998 27.9995L1.86646 20.9617Z" fill="#141446"/>
<path d="M26.1331 16.1319L13.9998 9.00684V14.0014L26.1331 20.9636L26.1331 16.1319Z" fill="#FF6492"/>
<path d="M5.50645 14V9.91351L14.0021 4.86956V0L1.86646 7.03783V20.9622L13.9998 14V9.0054L5.50645 14Z" fill="#7A77FF"/>
<path d="M41.1102 22.25C43.7676 22.25 45.8474 20.9343 47.0894 18.9169L44.9519 17.2503C43.9987 18.566 42.8144 19.4139 41.1391 19.4139C38.5394 19.4139 36.6907 17.3965 36.6907 14.7359C36.6907 12.1337 38.5394 10.0871 41.1391 10.0871C42.8433 10.0871 44.0276 10.9642 44.9519 12.2799L47.0894 10.5841C45.8763 8.56669 43.7965 7.25099 41.1102 7.25099C36.9218 7.25099 33.6 10.5256 33.6 14.7359C33.6 18.9754 36.9218 22.25 41.1102 22.25Z" fill="#141446"/>
<path d="M55.9214 22.25C59.3876 22.25 62.074 19.794 62.074 15.9054V7.5726H59.041V16.1393C59.041 18.1567 57.6545 19.4139 55.9214 19.4139C54.1305 19.4139 52.7151 18.1567 52.7151 16.1393V7.5726H49.711V15.9054C49.711 19.794 52.3974 22.25 55.9214 22.25Z" fill="#141446"/>
<path d="M73.5216 7.25099C71.5574 7.25099 69.8532 8.01117 68.7844 9.32687V0H65.7514V21.9284H68.5822V19.9402C69.651 21.4021 71.4707 22.25 73.5505 22.25C77.5656 22.25 80.483 19.0338 80.483 14.7651C80.483 10.4964 77.5656 7.25099 73.5216 7.25099ZM73.0306 19.4432C70.9219 19.4432 68.7555 18.0398 68.7555 14.7651C68.7555 11.5197 70.893 10.0578 73.0306 10.0578C75.4569 10.0578 77.3634 11.9583 77.3634 14.7359C77.3634 17.5135 75.4858 19.4432 73.0306 19.4432Z" fill="#141446"/>
<path d="M96.3948 13.8295C96.3948 10.0578 93.6218 7.25099 89.8378 7.25099C85.7072 7.25099 82.5009 10.5549 82.5009 14.7651C82.5009 19.0046 85.7361 22.25 90.1266 22.25C92.3797 22.25 94.2861 21.3729 95.7882 19.9402L94.3439 17.8351C93.1596 18.8876 91.8598 19.5309 90.2133 19.5309C87.7869 19.5309 85.996 18.1275 85.5916 15.7592H96.1637C96.2503 15.3791 96.3948 14.6189 96.3948 13.8295ZM89.7222 9.85315C91.6576 9.85315 93.304 11.1104 93.3618 13.3617H85.6494C86.1116 11.2273 87.7291 9.85315 89.7222 9.85315Z" fill="#141446"/>
<path d="M111.114 22.25C113.772 22.25 115.852 20.9343 117.094 18.9169L114.956 17.2503C114.003 18.566 112.819 19.4139 111.143 19.4139C108.544 19.4139 106.695 17.3965 106.695 14.7359C106.695 12.1337 108.544 10.0871 111.143 10.0871C112.847 10.0871 114.032 10.9642 114.956 12.2799L117.094 10.5841C115.88 8.56669 113.801 7.25099 111.114 7.25099C106.926 7.25099 103.604 10.5256 103.604 14.7359C103.604 18.9754 106.926 22.25 111.114 22.25Z" fill="#141446"/>
<path d="M119.86 21.9284H122.893V0H119.86V21.9284Z" fill="#141446"/>
<path d="M133.287 22.25C137.504 22.25 140.826 18.9169 140.826 14.7359C140.826 10.5549 137.504 7.25099 133.287 7.25099C129.098 7.25099 125.805 10.5256 125.805 14.7359C125.805 18.9169 129.098 22.25 133.287 22.25ZM133.287 19.4139C130.774 19.4139 128.896 17.4258 128.896 14.7651C128.896 12.0752 130.774 10.0578 133.315 10.0578C135.8 10.0578 137.706 12.0752 137.706 14.7651C137.706 17.3965 135.8 19.4139 133.287 19.4139Z" fill="#141446"/>
<path d="M149.791 22.25C153.257 22.25 155.944 19.794 155.944 15.9054V7.5726H152.911V16.1393C152.911 18.1567 151.524 19.4139 149.791 19.4139C148 19.4139 146.585 18.1567 146.585 16.1393V7.5726H143.581V15.9054C143.581 19.794 146.267 22.25 149.791 22.25Z" fill="#141446"/>
<path d="M170.395 0V9.32687C169.327 8.01117 167.622 7.25099 165.658 7.25099C161.643 7.25099 158.726 10.4964 158.726 14.7651C158.726 19.0338 161.614 22.25 165.658 22.25C167.767 22.25 169.586 21.3729 170.626 19.8817V21.9284H173.457V0H170.395ZM166.178 19.4432C163.694 19.4432 161.816 17.5135 161.816 14.7359C161.816 11.9583 163.723 10.0578 166.178 10.0578C168.287 10.0578 170.453 11.5197 170.453 14.7651C170.453 18.0398 168.287 19.4432 166.178 19.4432Z" fill="#141446"/>
</svg>
