<svg xmlns="http://www.w3.org/2000/svg" fill="none" viewBox="0 0 114 36">
  <path fill="#FF6492" d="M31 9L16 0v6l15 9V9z"/>
  <path fill="#141446" d="M31 15l-4 3-11-6-7 3-4-2 11-7 15 9z"/>
  <path fill="#A14474" d="M9 15l-4-2v5l4-3z"/>
  <path fill="#141446" d="M0 27l16-9 15 9-15 9-16-9z"/>
  <path fill="#FF6492" d="M31 21l-15-9v6l15 9v-6z"/>
  <path fill="#7A77FF" d="M5 18v-5l11-7V0L0 9v18l16-9v-6L5 18z"/>
  <path fill="#fff" d="M38 19c0-4 3-7 6-7 2 0 4 1 5 3l-2 2c0-2-1-2-3-2s-3 1-3 4c0 2 1 3 3 3l3-1 2 1c-1 2-3 3-5 3-3 0-6-3-6-6zM51 20v-7h3v7c0 1 1 2 3 2l2-2v-7h3v7c0 3-3 5-5 5-3 0-6-2-6-5zM77 19c0 3-2 6-6 6l-4-2v2h-2V6h2v8l4-2c4 0 6 3 6 7zm-3 0c0-3-1-4-3-4s-4 1-4 4c0 2 2 4 4 4s3-2 3-4zM90 19h-9c1 2 2 4 4 4l3-2 2 2-5 2c-4 0-6-3-6-6 0-4 2-7 6-7 3 0 5 3 5 6v1zm-9-2h7l-3-2-4 2zM92 23l2-2 2 2-2 2-2-2zM97 29v-2h1l2-2V13h3v12c0 3-2 4-4 4h-2zm3-21l2-1 1 1-1 2-2-2zM105 23l1-2 4 2 2-2-2-1-1-1c-2 0-3-1-3-3s1-4 4-4l4 2-2 2-2-1-2 1 2 1 1 1c2 1 3 1 3 3 0 3-2 4-4 4l-5-2z"/>
</svg>
