<svg width="26" height="25" viewBox="0 0 26 25" fill="none" xmlns="http://www.w3.org/2000/svg">
<path d="M12.8274 0C15.211 0 17.4064 0.555937 19.445 1.63693C21.4836 2.71791 23.0517 4.2313 24.2122 6.1153C25.404 8.09197 25.9999 10.2231 25.9999 12.5703C25.9999 15.4118 25.1844 17.9753 23.5536 20.2299C21.9227 22.4846 19.8213 24.0288 17.1868 24.8936C16.9046 24.9554 16.685 24.9245 16.5282 24.801C16.3714 24.6774 16.2773 24.4921 16.2773 24.2759V19.952C16.2773 18.8401 15.9951 18.0679 15.3992 17.5738C16.685 17.4502 17.6573 17.2649 18.2846 17.0487C19.2568 16.709 20.0095 16.1839 20.5427 15.5045C21.1386 14.6088 21.4209 13.3734 21.4209 11.8291C21.4209 11.1805 21.2954 10.5937 21.0445 10.1304C20.8563 9.79066 20.5427 9.35827 20.0409 8.83322C20.1663 8.49348 20.2604 8.06108 20.2918 7.5978C20.3232 6.82567 20.1977 6.08442 19.9154 5.31228C19.6332 5.25051 19.1314 5.34317 18.5041 5.59025C18.0964 5.77557 17.5946 5.99176 17.03 6.30062L16.34 6.7639C15.2423 6.45504 14.1446 6.30062 13.0156 6.30062C11.8865 6.30062 10.7888 6.45504 9.7538 6.7639L9.06381 6.30062C8.49927 5.99176 7.99747 5.74468 7.55838 5.59025C6.93112 5.34317 6.46067 5.2814 6.14704 5.37406C5.83341 6.14619 5.70796 6.88744 5.77069 7.65957C5.77069 8.15374 5.83341 8.52436 5.99023 8.83322C5.58251 9.35827 5.26888 9.82155 5.0807 10.2539C4.89252 10.6863 4.79843 11.2114 4.79843 11.8909C4.79843 13.4351 5.0807 14.6397 5.64523 15.5045C6.14704 16.2148 6.86839 16.7708 7.84065 17.1105C8.46791 17.3267 9.4088 17.4811 10.6633 17.6355C10.2242 18.0371 9.94198 18.6239 9.81652 19.396C9.22063 19.674 8.65609 19.7666 8.09155 19.7049C7.18202 19.6431 6.49204 19.1798 5.99023 18.315C5.77069 17.9444 5.48842 17.6355 5.14342 17.3885C4.89252 17.2649 4.64161 17.1414 4.35935 17.0178L3.98299 16.9561C3.60663 16.9561 3.38709 17.0178 3.38709 17.1414C3.35573 17.2649 3.44982 17.3885 3.638 17.5429L3.8889 17.7591C4.13981 17.8826 4.39071 18.1297 4.61025 18.4386C4.82979 18.6857 4.98661 18.9636 5.14342 19.2725L5.36297 19.674C5.55114 20.199 5.86478 20.6005 6.36658 20.8476C6.7743 21.0947 7.30748 21.2491 7.87201 21.3109C8.27973 21.3418 8.71882 21.3418 9.18926 21.2491L9.7538 21.1874L9.81652 24.3377C9.81652 24.5539 9.72243 24.7083 9.56562 24.8627C9.4088 24.9863 9.18926 25.048 8.90699 24.9554C6.24113 24.0906 4.10844 22.5463 2.4462 20.2917C0.815318 18.0062 -0.00012207 15.4427 -0.00012207 12.6012C-0.00012207 10.2539 0.564414 8.12285 1.66212 6.20796C2.79119 4.29307 4.32798 2.77968 6.2725 1.66781C8.24837 0.555937 10.4438 0 12.8274 0ZM4.51616 17.3885C4.57889 17.3267 4.67298 17.2958 4.76707 17.3576C4.86116 17.4194 4.89252 17.4811 4.86116 17.5738C4.82979 17.6664 4.7357 17.6664 4.61025 17.6047C4.4848 17.5429 4.4848 17.4502 4.51616 17.3885ZM5.0807 17.8209C5.14342 17.7591 5.23751 17.7591 5.3316 17.8826C5.42569 17.9753 5.45706 18.0679 5.39433 18.1297C5.3316 18.1915 5.23751 18.1915 5.14342 18.0679C5.01797 17.9753 5.01797 17.8826 5.0807 17.8209ZM5.61387 18.4695C5.6766 18.4386 5.73932 18.4386 5.80205 18.4386C5.86478 18.4695 5.89614 18.5003 5.9275 18.5621C6.02159 18.6857 6.02159 18.8092 5.9275 18.871C5.89614 18.9018 5.83341 18.9018 5.80205 18.871C5.77069 18.8401 5.6766 18.8092 5.61387 18.7783C5.55114 18.6239 5.55114 18.5003 5.61387 18.4695ZM6.24113 19.2107C6.2725 19.1798 6.33522 19.1798 6.39795 19.1798C6.46067 19.2107 6.5234 19.2416 6.58613 19.2725C6.64885 19.3342 6.68022 19.396 6.68022 19.4578C6.71158 19.5196 6.68022 19.5813 6.64885 19.6122C6.55476 19.7049 6.42931 19.7049 6.2725 19.5504C6.20977 19.4887 6.17841 19.4269 6.17841 19.3342C6.17841 19.2416 6.20977 19.2416 6.24113 19.2107ZM7.08794 19.8593C7.1193 19.7358 7.21339 19.674 7.40157 19.7358C7.58975 19.7975 7.65247 19.8593 7.65247 19.952C7.62111 20.0446 7.58975 20.1064 7.52702 20.1373C7.46429 20.1681 7.40157 20.1681 7.30748 20.1373C7.21339 20.1064 7.18203 20.0446 7.1193 20.0137C7.05657 19.952 7.05657 19.9211 7.08794 19.8593ZM8.68745 20.0755C8.68745 20.0446 8.65609 20.0137 8.59336 19.9828C8.53064 19.952 8.46791 19.9211 8.34246 19.9211C8.15428 19.9211 8.09155 19.9828 8.09155 20.1373C8.09155 20.2608 8.18564 20.3226 8.37382 20.3226C8.59336 20.2917 8.68745 20.2299 8.68745 20.0755ZM9.37744 19.7666C9.56562 19.7666 9.65971 19.8284 9.65971 19.9211C9.69107 20.0137 9.59698 20.1064 9.4088 20.1682C9.34608 20.1682 9.28335 20.1681 9.22063 20.1373C9.1579 20.1064 9.12654 20.0446 9.12654 19.952C9.12654 19.8593 9.22063 19.7975 9.37744 19.7666Z" fill="white"/>
</svg>
