<svg width="132" height="42" viewBox="0 0 132 42" fill="none" xmlns="http://www.w3.org/2000/svg">
<path d="M35.8574 10.5L17.9321 0V7.26508L35.8574 17.72L35.8574 10.5Z" fill="#FF6492"/>
<path d="M35.8574 17.72L30.4798 20.8872L17.9287 13.5484L10.7572 17.7259L5.37863 14.7904L17.9321 7.26514L35.8574 17.72Z" fill="#141446"/>
<path d="M10.7572 17.7258L5.37863 14.7903V20.8871L10.7572 17.7258Z" fill="#A14474"/>
<path d="M0 31.2741L17.9287 20.887L35.8574 31.2741L17.9287 41.7741L0 31.2741Z" fill="#141446"/>
<path d="M35.8574 24.0656L17.9287 13.4355V20.8872L35.8574 31.2743L35.8574 24.0656Z" fill="#FF6492"/>
<path d="M5.37861 20.8871V14.7903L17.9321 7.26508V0L0 10.5V31.2742L17.9287 20.8871V13.4355L5.37861 20.8871Z" fill="#7A77FF"/>
<path d="M44.1494 21.6012C44.1494 17.5588 47.3423 14.4133 51.3662 14.4133C53.9478 14.4133 55.9453 15.677 57.1118 17.6134L55.0584 19.2417C54.1696 17.978 53.032 17.1356 51.3951 17.1356C48.8963 17.1356 47.1206 19.1013 47.1206 21.5993C47.1206 24.1539 48.8963 26.0903 51.3951 26.0903C53.005 26.0903 54.1426 25.2771 55.0584 24.0135L57.1118 25.6145C55.9183 27.5509 53.9189 28.8145 51.3662 28.8145C47.3423 28.8164 44.1494 25.671 44.1494 21.6012Z" fill="white"/>
<path d="M59.6376 22.7245V14.7234H62.5239V22.9487C62.5239 24.8851 63.8832 26.0922 65.605 26.0922C67.2708 26.0922 68.6031 24.8851 68.6031 22.9487V14.7234H71.5184V22.7245C71.5184 26.4588 68.9367 28.8164 65.6069 28.8164C62.2193 28.8164 59.6376 26.4588 59.6376 22.7245Z" fill="white"/>
<path d="M89.2007 21.6286C89.2007 25.7276 86.3973 28.8165 82.5392 28.8165C80.5398 28.8165 78.791 28.0033 77.7653 26.5993V28.5084H75.0448V7.45166H77.96V16.4083C78.9877 15.1446 80.6246 14.4153 82.5122 14.4153C86.3973 14.4134 89.2007 17.5295 89.2007 21.6286ZM86.2025 21.6013C86.2025 18.9336 84.3709 17.1103 82.0379 17.1103C79.9845 17.1103 77.9292 18.5143 77.9292 21.6305C77.9292 24.774 80.0115 26.1215 82.0379 26.1215C84.3978 26.1215 86.2025 24.2689 86.2025 21.6013Z" fill="white"/>
<path d="M104.272 22.5841H94.1134C94.5029 24.8578 96.2227 26.2053 98.5538 26.2053C100.137 26.2053 101.384 25.5872 102.524 24.577L103.912 26.5992C102.468 27.974 100.636 28.8164 98.4709 28.8164C94.2522 28.8164 91.1423 25.7003 91.1423 21.6285C91.1423 17.5861 94.2233 14.4133 98.1932 14.4133C101.83 14.4133 104.494 17.1083 104.494 20.7296C104.494 21.4881 104.355 22.2194 104.272 22.5841ZM94.1693 20.281H101.581C101.525 18.1184 99.9439 16.9114 98.0833 16.9114C96.1668 16.9133 94.6128 18.2315 94.1693 20.281Z" fill="white"/>
<path d="M106.881 26.6538C106.881 25.3901 107.853 24.4639 109.073 24.4639C110.267 24.4639 111.212 25.3901 111.212 26.6538C111.212 27.9174 110.269 28.8164 109.073 28.8164C107.853 28.8164 106.881 27.9174 106.881 26.6538Z" fill="white"/>
<path d="M112.349 33.6175V31.1195C112.793 31.1761 113.126 31.2034 113.543 31.2034C115.179 31.2034 116.151 30.6144 116.151 28.8165V14.7234H119.066V29.07C119.066 32.4104 117.096 33.871 114.237 33.871C113.433 33.8691 112.848 33.7852 112.349 33.6175ZM115.625 9.58504C115.625 8.49106 116.514 7.61938 117.624 7.61938C118.706 7.61938 119.595 8.48911 119.595 9.58504C119.595 10.679 118.706 11.5214 117.624 11.5214C116.514 11.5234 115.625 10.681 115.625 9.58504Z" fill="white"/>
<path d="M121.453 26.1488L123.119 24.2962C124.201 25.4468 125.396 26.2619 126.95 26.2619C128.144 26.2619 129.143 25.7568 129.143 24.7174C129.143 23.8185 128.339 23.4538 127.228 23.0053L125.84 22.4164C123.648 21.4901 122.286 20.48 122.286 18.4012C122.286 15.8466 124.396 14.4153 127.089 14.4153C129.06 14.4153 130.67 15.1739 131.807 16.5486L130.224 18.3739C129.364 17.4749 128.225 16.9699 127.031 16.9699C125.95 16.9699 125.171 17.3911 125.171 18.29C125.171 19.0194 125.726 19.384 126.975 19.9183L128.281 20.4527C130.751 21.492 132 22.586 132 24.6082C132 27.3871 129.669 28.8184 126.948 28.8184C124.535 28.8164 122.62 27.6932 121.453 26.1488Z" fill="white"/>
</svg>
