<svg width="1360" height="428" viewBox="0 0 1360 428" fill="none" xmlns="http://www.w3.org/2000/svg">
<path d="M369.44 107L184.755 0V74.0346L369.44 180.575L369.44 107Z" fill="#FF6492"/>
<path d="M369.44 180.575L314.034 212.85L184.72 138.065L110.832 180.634L55.416 150.72L184.754 74.0347L369.44 180.575Z" fill="#141446"/>
<path d="M110.832 180.634L55.416 150.72V212.849L110.832 180.634Z" fill="#A14474"/>
<path d="M0 318.699L184.72 212.85L369.44 318.699L184.72 425.699L0 318.699Z" fill="#141446"/>
<path d="M369.439 245.24L184.72 136.914V212.85L369.44 318.699L369.439 245.24Z" fill="#FF6492"/>
<path d="M55.416 212.849V150.72L184.754 74.0346V0L0 107V318.699L184.72 212.849V136.914L55.416 212.849Z" fill="#7A77FF"/>
<path d="M454.873 220.127C454.873 178.932 487.769 146.878 529.228 146.878C555.827 146.878 576.407 159.755 588.425 179.488L567.269 196.081C558.111 183.204 546.391 174.62 529.526 174.62C503.781 174.62 485.485 194.651 485.485 220.107C485.485 246.139 503.781 265.872 529.526 265.872C546.113 265.872 557.833 257.585 567.269 244.708L588.425 261.023C576.129 280.756 555.529 293.633 529.228 293.633C487.769 293.653 454.873 261.599 454.873 220.127Z" fill="white"/>
<path d="M614.448 231.573V150.038H644.186V233.858C644.186 253.591 658.191 265.892 675.93 265.892C693.094 265.892 706.82 253.591 706.82 233.858V150.038H736.856V231.573C736.856 269.628 710.257 293.653 675.95 293.653C641.047 293.653 614.448 269.628 614.448 231.573Z" fill="white"/>
<path d="M919.038 220.405C919.038 262.176 890.154 293.653 850.405 293.653C829.805 293.653 811.787 285.367 801.219 271.059V290.513H773.189V75.9355H803.225V167.208C813.813 154.331 830.679 146.898 850.126 146.898C890.154 146.879 919.038 178.634 919.038 220.405ZM888.148 220.127C888.148 192.942 869.276 174.362 845.24 174.362C824.083 174.362 802.907 188.669 802.907 220.425C802.907 252.459 824.362 266.19 845.24 266.19C869.554 266.19 888.148 247.312 888.148 220.127Z" fill="white"/>
<path d="M1074.32 230.142H969.654C973.667 253.313 991.386 267.044 1015.4 267.044C1031.71 267.044 1044.56 260.745 1056.3 250.451L1070.61 271.059C1055.73 285.068 1036.86 293.653 1014.55 293.653C971.084 293.653 939.042 261.898 939.042 220.405C939.042 179.21 970.786 146.878 1011.69 146.878C1049.15 146.878 1076.61 174.342 1076.61 211.244C1076.61 218.974 1075.18 226.426 1074.32 230.142ZM970.23 206.673H1046.59C1046.01 184.635 1029.73 172.334 1010.56 172.334C990.81 172.354 974.799 185.788 970.23 206.673Z" fill="white"/>
<path d="M1101.2 271.615C1101.2 258.738 1111.21 249.299 1123.79 249.299C1136.08 249.299 1145.82 258.738 1145.82 271.615C1145.82 284.492 1136.1 293.653 1123.79 293.653C1111.21 293.653 1101.2 284.492 1101.2 271.615Z" fill="white"/>
<path d="M1157.54 342.578V317.122C1162.11 317.698 1165.54 317.976 1169.83 317.976C1186.7 317.976 1196.71 311.975 1196.71 293.653V150.038H1226.75V296.237C1226.75 330.277 1206.44 345.161 1176.98 345.161C1168.7 345.142 1162.68 344.287 1157.54 342.578ZM1191.29 97.6755C1191.29 86.5273 1200.44 77.6445 1211.89 77.6445C1223.03 77.6445 1232.19 86.5074 1232.19 97.6755C1232.19 108.824 1223.03 117.408 1211.89 117.408C1200.44 117.428 1191.29 108.844 1191.29 97.6755Z" fill="white"/>
<path d="M1251.34 266.468L1268.5 247.59C1279.65 259.314 1291.96 267.621 1307.97 267.621C1320.27 267.621 1330.56 262.474 1330.56 251.882C1330.56 242.721 1322.28 239.005 1310.83 234.435L1296.53 228.433C1273.95 218.994 1259.92 208.7 1259.92 187.517C1259.92 161.484 1281.65 146.898 1309.4 146.898C1329.71 146.898 1346.29 154.629 1358.01 168.638L1341.7 187.239C1332.84 178.078 1321.1 172.931 1308.81 172.931C1297.66 172.931 1289.64 177.223 1289.64 186.384C1289.64 193.816 1295.36 197.532 1308.23 202.977L1321.68 208.422C1347.13 219.014 1360 230.162 1360 250.769C1360 279.087 1335.98 293.673 1307.95 293.673C1283.08 293.653 1263.36 282.207 1251.34 266.468Z" fill="white"/>
</svg>
