<svg width="64" height="64" fill="none" xmlns="http://www.w3.org/2000/svg"><path fill-rule="evenodd" clip-rule="evenodd" d="M25.138 10c-.78.004-1.123 0-1.123 0L10 29.922h12.897c1.097 0 2.302.039 3.542.158l-3.825 5.229L10 52h17.944s.01-.004.018-.004c-.007 0-.018.004-.018.004s24.95-.749 24.95-22.19c0-18.784-22.259-19.83-27.756-19.81Z" fill="#3793EF"/><path fill-rule="evenodd" clip-rule="evenodd" d="M27.944 52s10.42-1.918 10.42-11.424c0-7.787-6.313-9.964-11.925-10.496l-3.825 5.229L10 52h17.944Zm5.444-4.904a.533.533 0 0 1 .032-.045l-.032.045Z" fill="#1560AB"/><path fill-rule="evenodd" clip-rule="evenodd" d="M22.614 35.309c7.918 0 13.097 3.633 12.05 8.725-1.051 5.093-6.72 7.966-6.72 7.966s10.42-1.918 10.42-11.424c0-7.787-6.313-9.964-11.925-10.496l-3.825 5.229Z" fill="#012447"/><path fill-rule="evenodd" clip-rule="evenodd" d="M10 29.922c5.473-7.78 8.543-12.141 14.02-19.922 0 0 .342.004 1.121 0 5.494-.02 27.753 1.026 27.753 19.81 0 21.445-24.95 22.19-24.95 22.19s10.42-1.914 10.42-11.424-9.412-10.654-15.467-10.654H10Z" fill="#3793EF"/></svg>
