<svg width="64" height="64" fill="none" xmlns="http://www.w3.org/2000/svg"><path d="m38 31-17-3v22.167c0 1.012.82 1.833 1.833 1.833h29.334C53.179 52 54 51.18 54 50.167V42L38 31Z" fill="#185C37"/><path d="M38 12H22.833C21.821 12 21 12.82 21 13.833V22l17 10 9 3 7-3V22L38 12Z" fill="#21A366"/><path d="M21 22h17v10H21V22Z" fill="#107C41"/><path opacity=".1" d="M33.167 20H21v25h12.167A1.839 1.839 0 0 0 35 43.167V21.833A1.839 1.839 0 0 0 33.167 20Z" fill="#000"/><path opacity=".2" d="M32.167 21H21v25h11.167A1.839 1.839 0 0 0 34 44.167V22.833A1.839 1.839 0 0 0 32.167 21Z" fill="#000"/><path opacity=".2" d="M32.167 21H21v23h11.167A1.839 1.839 0 0 0 34 42.167V22.833A1.839 1.839 0 0 0 32.167 21Z" fill="#000"/><path opacity=".2" d="M31.167 21H21v23h10.167A1.839 1.839 0 0 0 33 42.167V22.833A1.839 1.839 0 0 0 31.167 21Z" fill="#000"/><path d="M12.833 21h18.334c1.012 0 1.833.82 1.833 1.833v18.334C33 42.179 32.18 43 31.167 43H12.833A1.833 1.833 0 0 1 11 41.167V22.833c0-1.012.82-1.833 1.833-1.833Z" fill="url(#a)"/><path d="m16.677 37.958 3.856-5.975L17 26.041h2.842l1.928 3.8c.178.361.3.629.366.806h.025c.127-.288.26-.568.4-.839l2.061-3.765h2.609l-3.623 5.907 3.715 6.008h-2.776l-2.227-4.171a3.503 3.503 0 0 1-.266-.557h-.033c-.065.19-.152.37-.258.54l-2.293 4.188h-2.793Z" fill="#fff"/><path d="M52.167 12H38v10h16v-8.167C54 12.821 53.18 12 52.167 12Z" fill="#33C481"/><path d="M38 32h16v10H38V32Z" fill="#107C41"/><defs><linearGradient id="a" x1="14.822" y1="19.568" x2="29.178" y2="44.432" gradientUnits="userSpaceOnUse"><stop stop-color="#18884F"/><stop offset=".5" stop-color="#117E43"/><stop offset="1" stop-color="#0B6631"/></linearGradient></defs></svg>
