<svg width="64" height="64" fill="none" xmlns="http://www.w3.org/2000/svg"><mask id="a" style="mask-type:alpha" maskUnits="userSpaceOnUse" x="14" y="7" width="36" height="49"><path d="M36.347 7.704H17.872a3.27 3.27 0 0 0-3.26 3.26V52.26a3.27 3.27 0 0 0 3.26 3.26h28.256a3.27 3.27 0 0 0 3.26-3.26V20.745L36.347 7.705Z" fill="#fff"/></mask><g mask="url(#a)"><path d="M36.347 7.704H17.872a3.27 3.27 0 0 0-3.26 3.26V52.26a3.27 3.27 0 0 0 3.26 3.26h28.256a3.27 3.27 0 0 0 3.26-3.26V20.745L41.78 15.31l-5.434-7.607Z" fill="#0F9D58"/></g><mask id="b" style="mask-type:alpha" maskUnits="userSpaceOnUse" x="14" y="7" width="36" height="49"><path d="M36.347 7.704H17.872a3.27 3.27 0 0 0-3.26 3.26V52.26a3.27 3.27 0 0 0 3.26 3.26h28.256a3.27 3.27 0 0 0 3.26-3.26V20.745L36.347 7.705Z" fill="#fff"/></mask><g mask="url(#b)"><path d="M23.306 31.069v15.758h17.388V31.069H23.306Zm7.607 13.584H25.48v-2.717h5.433v2.717Zm0-4.347H25.48V37.59h5.433v2.717Zm0-4.347H25.48v-2.717h5.433v2.717Zm7.607 8.694h-5.433v-2.717h5.433v2.717Zm0-4.347h-5.433V37.59h5.433v2.717Zm0-4.347h-5.433v-2.717h5.433v2.717Z" fill="#F1F1F1"/></g><mask id="c" style="mask-type:alpha" maskUnits="userSpaceOnUse" x="14" y="7" width="36" height="49"><path d="M36.347 7.704H17.872a3.27 3.27 0 0 0-3.26 3.26V52.26a3.27 3.27 0 0 0 3.26 3.26h28.256a3.27 3.27 0 0 0 3.26-3.26V20.745L36.347 7.705Z" fill="#fff"/></mask><g mask="url(#c)"><path d="m37.3 19.791 12.088 12.085V20.745L37.3 19.79Z" fill="url(#d)"/></g><mask id="e" style="mask-type:alpha" maskUnits="userSpaceOnUse" x="14" y="7" width="36" height="49"><path d="M36.347 7.704H17.872a3.27 3.27 0 0 0-3.26 3.26V52.26a3.27 3.27 0 0 0 3.26 3.26h28.256a3.27 3.27 0 0 0 3.26-3.26V20.745L36.347 7.705Z" fill="#fff"/></mask><g mask="url(#e)"><path d="M36.347 7.704v9.78a3.26 3.26 0 0 0 3.26 3.26h9.78l-13.04-13.04Z" fill="#87CEAC"/></g><mask id="f" style="mask-type:alpha" maskUnits="userSpaceOnUse" x="14" y="7" width="36" height="49"><path d="M36.347 7.704H17.872a3.27 3.27 0 0 0-3.26 3.26V52.26a3.27 3.27 0 0 0 3.26 3.26h28.256a3.27 3.27 0 0 0 3.26-3.26V20.745L36.347 7.705Z" fill="#fff"/></mask><g mask="url(#f)"><path d="M17.872 7.704a3.27 3.27 0 0 0-3.26 3.26v.272a3.27 3.27 0 0 1 3.26-3.26h18.475v-.272H17.872Z" fill="#fff" fill-opacity=".2"/></g><mask id="g" style="mask-type:alpha" maskUnits="userSpaceOnUse" x="14" y="7" width="36" height="49"><path d="M36.347 7.704H17.872a3.27 3.27 0 0 0-3.26 3.26V52.26a3.27 3.27 0 0 0 3.26 3.26h28.256a3.27 3.27 0 0 0 3.26-3.26V20.745L36.347 7.705Z" fill="#fff"/></mask><g mask="url(#g)"><path d="M46.128 55.249H17.872a3.27 3.27 0 0 1-3.26-3.26v.271a3.27 3.27 0 0 0 3.26 3.26h28.256a3.27 3.27 0 0 0 3.26-3.26v-.271a3.27 3.27 0 0 1-3.26 3.26Z" fill="#263238" fill-opacity=".2"/></g><mask id="h" style="mask-type:alpha" maskUnits="userSpaceOnUse" x="14" y="7" width="36" height="49"><path d="M36.347 7.704H17.872a3.27 3.27 0 0 0-3.26 3.26V52.26a3.27 3.27 0 0 0 3.26 3.26h28.256a3.27 3.27 0 0 0 3.26-3.26V20.745L36.347 7.705Z" fill="#fff"/></mask><g mask="url(#h)"><path d="M39.607 20.745a3.26 3.26 0 0 1-3.26-3.26v.271a3.26 3.26 0 0 0 3.26 3.26h9.78v-.271h-9.78Z" fill="#263238" fill-opacity=".1"/></g><path d="M36.347 7.704H17.872a3.27 3.27 0 0 0-3.26 3.26V52.26a3.27 3.27 0 0 0 3.26 3.26h28.256a3.27 3.27 0 0 0 3.26-3.26V20.745L36.347 7.705Z" fill="url(#i)"/><defs><radialGradient id="i" cx="0" cy="0" r="1" gradientUnits="userSpaceOnUse" gradientTransform="translate(15.714 8.655) scale(56.075)"><stop stop-color="#fff" stop-opacity=".1"/><stop offset="1" stop-color="#fff" stop-opacity="0"/></radialGradient><linearGradient id="d" x1="43.345" y1="20.829" x2="43.345" y2="31.878" gradientUnits="userSpaceOnUse"><stop stop-color="#263238" stop-opacity=".2"/><stop offset="1" stop-color="#263238" stop-opacity=".02"/></linearGradient></defs></svg>
