<svg width="64" height="64" fill="none" xmlns="http://www.w3.org/2000/svg"><g clip-path="url(#a)"><path d="M46.63 41.086H31.015c-3.776 0-5.891 2.644-5.891 5.456 0 2.596 1.794 5.456 5.891 5.456H46.63V41.086Z" fill="#669DF3"/><path d="M46.63 51.99c2.966 0 5.371-2.443 5.371-5.456 0-3.014-2.404-5.456-5.371-5.456-2.967 0-5.372 2.442-5.372 5.456 0 3.013 2.405 5.456 5.372 5.456Z" fill="#1A73E8"/><path d="M30.506 26.538H14.89C11.116 26.538 9 29.182 9 31.996c0 2.595 1.794 5.456 5.891 5.456h15.615V26.538Z" fill="#669DF3"/><path d="M30.506 37.452c2.967 0 5.372-2.443 5.372-5.456 0-3.014-2.405-5.456-5.372-5.456s-5.372 2.442-5.372 5.456c0 3.013 2.405 5.456 5.372 5.456Z" fill="#1A73E8"/><path d="M46.63 12H31.015c-3.776 0-5.891 2.644-5.891 5.456 0 2.596 1.794 5.456 5.891 5.456H46.63V12Z" fill="#669DF3"/><path d="M46.63 22.912c2.966 0 5.371-2.443 5.371-5.456 0-3.013-2.404-5.456-5.371-5.456-2.967 0-5.372 2.443-5.372 5.456 0 3.013 2.405 5.456 5.372 5.456Z" fill="#1A73E8"/></g><defs><clipPath id="a"><path fill="#fff" transform="translate(9 12)" d="M0 0h43.002v40H0z"/></clipPath></defs></svg>
