<svg width="64" height="64" fill="none" xmlns="http://www.w3.org/2000/svg"><path fill-rule="evenodd" clip-rule="evenodd" d="M48.786 52H15.213C13.44 52 12 50.528 12 48.713V15.287C12 13.471 13.44 12 15.213 12h33.574C50.56 12 52 13.471 52 15.287v33.426C52 50.528 50.56 52 48.787 52" fill="#241A47"/><path d="M33.058 40.682h-3.373v-7.794c0-1.776-.93-2.333-2.39-2.333-1.302 0-2.338.742-2.922 1.511v8.616H21V23h3.373v6.548c.823-.981 2.417-1.988 4.515-1.988 2.815 0 4.17 1.537 4.17 4.03v9.092ZM44 40.178c-.505.45-1.408.822-2.815.822-2.364 0-3.639-1.22-3.639-3.5v-6.68h-2.124v-2.942h2.124v-3.5h3.4v3.5h2.602v2.942h-2.602v5.78c0 .795.425 1.404 1.168 1.404.505 0 .983-.185 1.169-.37L44 40.177Z" fill="#fff"/></svg>
