<svg width="64" height="64" fill="none" xmlns="http://www.w3.org/2000/svg"><path d="M11.358 33.203c0 1.64-.131 2.174-.469 2.568a2.045 2.045 0 0 1-1.369.525l.131.937a3.209 3.209 0 0 0 2.139-.778 3.748 3.748 0 0 0 .825-2.811V27.44h-1.257v5.763ZM20.73 32.464c0 .703 0 1.33.057 1.874H19.67l-.075-1.115a2.597 2.597 0 0 1-2.28 1.275c-1.087 0-2.381-.59-2.381-3v-4h1.256v3.748c0 1.302.404 2.174 1.538 2.174a1.755 1.755 0 0 0 1.773-1.771V27.45h1.257v4.976l-.029.038ZM23.112 29.727c0-.872 0-1.584-.056-2.23h1.126l.056 1.17a2.72 2.72 0 0 1 2.457-1.33c1.67 0 2.926 1.396 2.926 3.477 0 2.455-1.51 3.673-3.142 3.673a2.431 2.431 0 0 1-2.129-1.078v3.749h-1.238V29.727Zm1.238 1.827c.004.17.023.34.057.506a1.93 1.93 0 0 0 1.875 1.453c1.323 0 2.101-1.078 2.101-2.643 0-1.368-.731-2.54-2.054-2.54a2.158 2.158 0 0 0-1.979 2.053v1.171ZM31.86 27.49l1.51 4.04c.16.449.329.992.441 1.395.131-.412.272-.937.44-1.424l1.37-4.01h1.322l-1.875 4.872c-.938 2.343-1.51 3.552-2.373 4.283a3.415 3.415 0 0 1-1.538.806l-.31-1.05a3.33 3.33 0 0 0 1.098-.609c.457-.373.82-.848 1.06-1.387a.937.937 0 0 0 .103-.3 1.08 1.08 0 0 0-.085-.328l-2.55-6.307h1.369l.018.02ZM40.28 25.524v1.968h1.8v.937h-1.8v3.692c0 .844.244 1.331.938 1.331.246.004.492-.024.731-.084l.056.937a3.097 3.097 0 0 1-1.116.169 1.747 1.747 0 0 1-1.36-.525 2.52 2.52 0 0 1-.487-1.78v-3.75h-1.07v-.936h1.089v-1.668l1.219-.29ZM44.395 31.134a2.202 2.202 0 0 0 2.373 2.37 4.578 4.578 0 0 0 1.876-.356l.215.937a5.63 5.63 0 0 1-2.297.422 3.19 3.19 0 0 1-3.218-2.097 3.184 3.184 0 0 1-.177-1.351c0-2.062 1.228-3.693 3.235-3.693 2.251 0 2.814 1.968 2.814 3.224.012.194.012.387 0 .581h-4.849l.028-.037Zm3.677-.938a1.768 1.768 0 0 0-1.011-1.86 1.773 1.773 0 0 0-.734-.164 2.074 2.074 0 0 0-1.922 2.024h3.667ZM51.123 29.621c0-.806 0-1.5-.057-2.136h1.126v1.34h.056a2.071 2.071 0 0 1 1.876-1.5c.118-.015.238-.015.356 0v1.172a1.887 1.887 0 0 0-.431 0 1.755 1.755 0 0 0-1.679 1.593 3.465 3.465 0 0 0-.056.58v3.646h-1.238V29.63l.047-.009Z" fill="#4E4E4E"/><path d="M50.572 8.668a3.175 3.175 0 0 1-3.623 3.338 3.181 3.181 0 0 1-2.634-2.37 3.175 3.175 0 0 1 2.946-3.949 3.144 3.144 0 0 1 3.31 2.98Z" fill="#767677"/><path d="M32.027 45.368c-8.44 0-15.859-3.027-19.695-7.497a20.985 20.985 0 0 0 7.695 9.94 21.01 21.01 0 0 0 24 0 20.985 20.985 0 0 0 7.695-9.94c-3.826 4.47-11.217 7.497-19.695 7.497ZM32.027 16.3c8.44 0 15.86 3.027 19.695 7.497a20.986 20.986 0 0 0-7.695-9.94 21.01 21.01 0 0 0-24 0 20.985 20.985 0 0 0-7.695 9.94c3.836-4.48 11.217-7.497 19.695-7.497Z" fill="#F37726"/><path d="M20.408 54.067a3.999 3.999 0 0 1-2.254 3.851 4.008 4.008 0 0 1-5.626-2.623 3.998 3.998 0 0 1 1.506-4.2 4.007 4.007 0 0 1 2.2-.777 3.971 3.971 0 0 1 3.791 2.25c.225.47.355.979.383 1.499Z" fill="#9E9E9E"/><path d="M13.292 15.282a2.308 2.308 0 0 1-2.34-2.68 2.305 2.305 0 0 1 3.078-1.786 2.307 2.307 0 0 1 1.503 2.067 2.333 2.333 0 0 1-2.241 2.399Z" fill="#616262"/></svg>
