<svg width="64" height="64" fill="none" xmlns="http://www.w3.org/2000/svg"><path d="M15.803 23.81c1.549 0 2.804-1.275 2.804-2.848s-1.255-2.848-2.804-2.848c-1.548 0-2.803 1.275-2.803 2.848s1.255 2.848 2.803 2.848ZM15.803 31.785c1.549 0 2.804-1.275 2.804-2.848s-1.255-2.848-2.804-2.848c-1.548 0-2.803 1.275-2.803 2.848s1.255 2.848 2.803 2.848Z" fill="#509EE3"/><path opacity=".2" d="M23.653 23.81c1.548 0 2.803-1.275 2.803-2.848s-1.255-2.848-2.803-2.848-2.803 1.275-2.803 2.848 1.255 2.848 2.803 2.848Z" fill="#509EE3"/><path d="M23.653 31.862c1.548 0 2.803-1.275 2.803-2.848s-1.255-2.848-2.803-2.848-2.803 1.275-2.803 2.848 1.255 2.848 2.803 2.848Z" fill="#509EE3"/><path opacity=".2" d="M31.502 23.81c1.549 0 2.804-1.275 2.804-2.848s-1.255-2.848-2.804-2.848c-1.548 0-2.803 1.275-2.803 2.848s1.255 2.848 2.803 2.848ZM31.502 14.696c1.549 0 2.804-1.275 2.804-2.848S33.05 9 31.502 9c-1.548 0-2.803 1.275-2.803 2.848s1.255 2.848 2.803 2.848ZM31.502 31.862c1.549 0 2.804-1.275 2.804-2.848s-1.255-2.848-2.804-2.848c-1.548 0-2.803 1.275-2.803 2.848s1.255 2.848 2.803 2.848ZM39.352 23.81c1.548 0 2.803-1.275 2.803-2.848s-1.255-2.848-2.803-2.848-2.803 1.275-2.803 2.848 1.255 2.848 2.803 2.848Z" fill="#509EE3"/><path d="M47.197 23.81c1.548 0 2.803-1.275 2.803-2.848s-1.255-2.848-2.803-2.848c-1.549 0-2.804 1.275-2.804 2.848s1.255 2.848 2.804 2.848ZM39.352 31.862c1.548 0 2.803-1.275 2.803-2.848s-1.255-2.848-2.803-2.848-2.803 1.275-2.803 2.848 1.255 2.848 2.803 2.848ZM47.197 31.862c1.548 0 2.803-1.275 2.803-2.848s-1.255-2.848-2.803-2.848c-1.549 0-2.804 1.275-2.804 2.848s1.255 2.848 2.804 2.848ZM15.803 39.76c1.549 0 2.804-1.275 2.804-2.848s-1.255-2.848-2.804-2.848c-1.548 0-2.803 1.275-2.803 2.848s1.255 2.848 2.803 2.848Z" fill="#509EE3"/><path opacity=".2" d="M23.653 39.837c1.548 0 2.803-1.275 2.803-2.848s-1.255-2.848-2.803-2.848-2.803 1.275-2.803 2.848 1.255 2.848 2.803 2.848Z" fill="#509EE3"/><path d="M31.502 39.837c1.549 0 2.804-1.275 2.804-2.848s-1.255-2.848-2.804-2.848c-1.548 0-2.803 1.275-2.803 2.848s1.255 2.848 2.803 2.848Z" fill="#509EE3"/><path opacity=".2" d="M39.352 39.837c1.548 0 2.803-1.275 2.803-2.848S40.9 34.14 39.352 34.14s-2.803 1.275-2.803 2.848 1.255 2.848 2.803 2.848Z" fill="#509EE3"/><path d="M47.197 39.837c1.548 0 2.803-1.275 2.803-2.848s-1.255-2.848-2.803-2.848c-1.549 0-2.804 1.275-2.804 2.848s1.255 2.848 2.804 2.848ZM15.803 47.734c1.549 0 2.804-1.275 2.804-2.848s-1.255-2.848-2.804-2.848c-1.548 0-2.803 1.275-2.803 2.848s1.255 2.848 2.803 2.848Z" fill="#509EE3"/><path opacity=".2" d="M23.653 47.812c1.548 0 2.803-1.276 2.803-2.849 0-1.572-1.255-2.848-2.803-2.848s-2.803 1.276-2.803 2.848c0 1.573 1.255 2.849 2.803 2.849ZM31.502 47.812c1.549 0 2.804-1.276 2.804-2.849 0-1.572-1.255-2.848-2.804-2.848-1.548 0-2.803 1.276-2.803 2.848 0 1.573 1.255 2.849 2.803 2.849ZM31.502 55.787c1.549 0 2.804-1.276 2.804-2.848 0-1.573-1.255-2.849-2.804-2.849-1.548 0-2.803 1.276-2.803 2.849 0 1.572 1.255 2.848 2.803 2.848ZM39.352 47.812c1.548 0 2.803-1.276 2.803-2.849 0-1.572-1.255-2.848-2.803-2.848s-2.803 1.276-2.803 2.848c0 1.573 1.255 2.849 2.803 2.849Z" fill="#509EE3"/><path d="M47.197 47.812c1.548 0 2.803-1.276 2.803-2.849 0-1.572-1.255-2.848-2.803-2.848-1.549 0-2.804 1.276-2.804 2.848 0 1.573 1.255 2.849 2.804 2.849Z" fill="#509EE3"/></svg>
