<svg width="64" height="64" fill="none" xmlns="http://www.w3.org/2000/svg"><path d="M32.192 46c-1.864 0-3.48-.406-4.846-1.218-1.361-.809-2.45-1.955-3.141-3.307a17.451 17.451 0 0 1-1.602-4.429A23.82 23.82 0 0 1 22.096 32c0-1.34.088-2.623.264-3.849.175-1.224.5-2.468.973-3.731s1.082-2.358 1.824-3.287a8.267 8.267 0 0 1 2.92-2.263c1.204-.58 2.574-.87 4.115-.87 1.865 0 3.48.406 4.846 1.218 1.362.809 2.45 1.955 3.142 3.307a17.44 17.44 0 0 1 1.602 4.429c.337 1.558.507 3.242.507 5.046 0 1.34-.088 2.623-.265 3.849a17.168 17.168 0 0 1-.992 3.731c-.488 1.263-1.094 2.358-1.825 3.287-.73.929-1.696 1.683-2.899 2.264-1.203.58-2.574.87-4.116.87Zm3.564-10.294A5.157 5.157 0 0 0 37.24 32c0-1.442-.483-2.677-1.447-3.706-.965-1.03-2.165-1.544-3.6-1.544-1.436 0-2.636.515-3.602 1.544A5.227 5.227 0 0 0 27.144 32c0 1.442.483 2.678 1.447 3.706.966 1.03 2.166 1.544 3.601 1.544 1.436 0 2.624-.514 3.564-1.544ZM32.192 53c11.151 0 20.193-9.403 20.193-21s-9.041-21-20.193-21C21.042 11 12 20.403 12 32s9.041 21 20.192 21Z" fill="#231F20"/></svg>
