<svg width="64" height="64" fill="none" xmlns="http://www.w3.org/2000/svg"><g clip-path="url(#a)"><path d="M51.354 42.038c.989-.676 1.903-1.42 2.244-2.65l.002-1.013a5.094 5.094 0 0 0-.245-.559c-.51-.874-1.314-1.218-2.282-1.168-.566.03-1.132.165-1.698.242-.455.062-.913.11-1.37.162a1.745 1.745 0 0 1-.19 0l.12-.212a44.184 44.184 0 0 0 4.628-11.162c.472-1.84.813-3.705.85-5.615.019-1.013-.064-2.018-.358-3-.27-.887-.805-1.602-1.415-2.264-2.06-2.255-4.605-3.615-7.599-4.136-.648-.113-1.308-.155-1.963-.23-.061-.008-.12-.023-.18-.033h-1.533a1.408 1.408 0 0 1-.165.027 19.53 19.53 0 0 0-4.447.733.699.699 0 0 1-.294.016 19.315 19.315 0 0 0-4.223-.25c-1.617.079-3.193.53-4.608 1.317a.41.41 0 0 1-.29.035c-1.996-.641-4.03-1.1-6.131-1.22-1.598-.09-3.175.011-4.716.473-2.034.608-3.689 1.75-4.873 3.535-.97 1.461-1.46 3.096-1.677 4.818a18.515 18.515 0 0 0 .149 5.543 71.605 71.605 0 0 0 2.546 10.233c.645 1.938 1.387 3.837 2.418 5.608.628 1.075 1.358 2.063 2.357 2.829 1.385 1.06 3.114 1.165 4.597.253.21-.128.409-.279.583-.399.285.227.543.467.831.656.64.43 1.36.656 2.115.801 1.335.258 2.66.271 3.976-.102.313-.088.619-.205.934-.311.003.053.007.096.007.14.074 1.441.135 2.883.225 4.323A12.593 12.593 0 0 0 30.8 53.84c.865 1.932 2.589 3.006 4.699 2.957 1.088-.025 2.131-.28 3.157-.613 1.819-.592 3.162-1.745 4.03-3.461.642-1.274.974-2.64 1.194-4.04.194-1.303.308-2.617.344-3.935.013-.34.05-.68.075-1.014a.706.706 0 0 1 .084-.017c.759-.018 1.52.006 2.275-.061 1.693-.15 3.28-.646 4.695-1.62Z" fill="#fff"/><path d="M53.598 39.388c-.341 1.23-1.255 1.974-2.244 2.65-1.415.973-3.002 1.468-4.695 1.619-.754.067-1.516.043-2.275.061a.706.706 0 0 0-.084.017c-.025.334-.062.673-.075 1.014a32.751 32.751 0 0 1-.344 3.936c-.22 1.398-.552 2.765-1.194 4.039-.868 1.716-2.211 2.87-4.03 3.461-1.026.333-2.069.588-3.157.613-2.11.049-3.834-1.025-4.699-2.957a12.593 12.593 0 0 1-1.122-4.383c-.09-1.44-.151-2.882-.225-4.323 0-.044-.005-.087-.007-.14-.315.106-.621.223-.934.311-1.316.373-2.64.36-3.976.102-.755-.145-1.475-.37-2.115-.801-.288-.19-.546-.429-.83-.656-.175.12-.373.27-.584.4-1.483.91-3.212.806-4.597-.254-1-.766-1.73-1.754-2.358-2.829-1.03-1.771-1.772-3.67-2.417-5.608A71.605 71.605 0 0 1 9.09 25.427a18.515 18.515 0 0 1-.15-5.543c.219-1.722.708-3.357 1.678-4.818 1.184-1.785 2.84-2.927 4.873-3.535 1.54-.462 3.118-.562 4.716-.473 2.1.12 4.135.579 6.13 1.22a.41.41 0 0 0 .29-.035 10.536 10.536 0 0 1 4.609-1.318 19.315 19.315 0 0 1 4.223.251c.098.015.198.01.294-.016a19.53 19.53 0 0 1 4.447-.732c.056-.006.11-.016.165-.028h1.532c.06.01.12.025.181.032.655.076 1.315.118 1.963.231 2.994.52 5.54 1.881 7.599 4.136.61.662 1.145 1.377 1.415 2.264.294.982.377 1.987.357 3-.036 1.91-.377 3.775-.849 5.616a44.184 44.184 0 0 1-4.628 11.16c-.037.063-.071.127-.12.213.063.004.126.004.19 0 .456-.052.915-.1 1.37-.162.566-.077 1.132-.211 1.698-.242.968-.05 1.771.294 2.282 1.168.093.181.175.368.245.56l-.002 1.012Zm-7.907-1.495c.056-.09.105-.16.149-.235.701-1.222 1.454-2.417 2.094-3.67 1.907-3.731 3.337-7.631 3.962-11.798.188-1.282.282-2.57.094-3.864-.104-.724-.29-1.425-.755-2.011-2.189-2.786-5.093-4.24-8.574-4.6a16.241 16.241 0 0 0-3.189 0c-1.319.112-2.621.375-3.882.782a.45.45 0 0 1-.232.015 13.997 13.997 0 0 0-4.227-.35c-1.559.118-3.018.555-4.338 1.415a.344.344 0 0 1-.267.037 24.204 24.204 0 0 0-5.457-1.279c-1.51-.166-3.018-.164-4.515.166-2.81.62-4.767 2.242-5.775 4.97a11.254 11.254 0 0 0-.676 3.46c-.036.878-.075 1.77.032 2.637.173 1.42.424 2.84.715 4.243a60.456 60.456 0 0 0 2.534 8.939c.597 1.599 1.282 3.157 2.242 4.576.452.671.972 1.283 1.646 1.748 1.037.715 2.206.722 3.214-.034.372-.292.715-.62 1.023-.98 1.14-1.273 2.264-2.562 3.39-3.847a.17.17 0 0 1 .249-.044c.475.25.986.423 1.514.516.298.048.598.084.915.128a.946.946 0 0 1-.07.127c-.218.274-.439.545-.66.818a1.697 1.697 0 0 1-.862.6c-.573.163-1.152.308-1.731.451-.533.133-1.064.266-1.51.61-.521.403-.614 1.093-.174 1.581a3 3 0 0 0 .76.59c.744.416 1.573.546 2.406.612 1.723.137 3.285-.274 4.622-1.42a1 1 0 0 1 .105-.069v.19c-.005 2.418.03 4.835.256 7.247.11 1.181.399 2.294 1.037 3.304.88 1.393 2.14 2.102 3.78 2.127.997.017 1.952-.21 2.889-.524.936-.313 1.792-.777 2.462-1.53a5.223 5.223 0 0 0 1.188-2.325 30.61 30.61 0 0 0 .472-2.576c.227-1.609.42-3.218.624-4.826.07-.539.127-1.078.189-1.609.331.055.647.123.968.156.807.068 1.62.045 2.422-.068 1.578-.19 3.018-.718 4.286-1.694.437-.337.85-.696 1.117-1.192.189-.351.231-.715 0-1.067-.218-.338-.56-.464-.934-.448-.397.022-.792.07-1.182.143-1.027.177-2.053.34-3.1.24-.429-.038-.848-.114-1.245-.368Z" fill="#141446"/><path d="m44.335 22.468-.363-.02c-1.01-.06-2.017-.054-2.98.32-1.263.492-1.95 1.428-2.096 2.776-.122 1.125.13 2.195.472 3.25.484 1.503 1.19 2.906 1.93 4.292.435.814.86 1.634 1.281 2.453.34.64.745 1.242 1.207 1.798.095.116.181.235.283.374l-.341.132c-.885.347-1.356 1.022-1.502 1.939-.053.337-.046.683-.076 1.024-.062.708-.124 1.42-.2 2.123-.074.681-.164 1.36-.248 2.041-.09.73-.173 1.46-.273 2.188-.127.914-.245 1.83-.41 2.736a10.58 10.58 0 0 1-.448 1.654 3.33 3.33 0 0 1-1.726 1.909 7.574 7.574 0 0 1-3.248.806c-1.262.018-2.184-.557-2.815-1.642-.445-.765-.66-1.592-.744-2.466-.275-2.734-.266-5.475-.255-8.217 0-.513.031-1.025.034-1.537a2.671 2.671 0 0 0-.636-1.755 2.655 2.655 0 0 0-1.628-.906 3.765 3.765 0 0 0-.54 0c.01-.073.025-.146.046-.217.363-.955.708-1.918 1.1-2.86.405-.97.764-1.948.924-2.991.144-.995.18-2.003.104-3.006a20.454 20.454 0 0 0-.498-3.323c-.283-1.216-.96-2.116-2.184-2.516-.714-.234-1.446-.226-2.178-.117-1.069.159-2.066.534-3.018 1.035-.032.016-.066.028-.135.059.018-.22.026-.416.052-.609.14-1.207.4-2.397.778-3.552.443-1.305 1.046-2.524 1.95-3.576 1.156-1.347 2.606-2.215 4.36-2.46 4.255-.595 7.881.705 10.865 3.785a14.339 14.339 0 0 1 3.156 5.076Z" fill="#36688F"/><path d="M23.892 37.37c-.29.319-.578.62-.85.935-.901 1.034-1.796 2.075-2.699 3.108-.147.17-.308.329-.48.473-.646.533-1.287.54-1.954.032-.59-.45-1.02-1.041-1.415-1.658-.797-1.26-1.378-2.626-1.9-4.017-1.042-2.782-1.808-5.645-2.428-8.548a79.733 79.733 0 0 1-.628-3.34 14.467 14.467 0 0 1-.126-3.38 10.83 10.83 0 0 1 .649-3.178c.825-2.153 2.393-3.444 4.608-3.975 1.178-.284 2.374-.316 3.578-.236 1.746.115 3.439.49 5.102 1.02.022.007.045.018.082.032a.508.508 0 0 1-.05.08c-1.299 1.332-2.133 2.933-2.699 4.691a17.049 17.049 0 0 0-.787 3.876 33.47 33.47 0 0 0-.103 2.28c-.007.561.046 1.122.072 1.684a23.777 23.777 0 0 1-.189 3.974c-.292 2.376.392 4.412 2.144 6.064.024.024.037.043.073.084ZM44.922 36.598c-.147-.108-.189-.214-.081-.4.537-.933.806-1.947.889-3.02.076-.973-.031-1.932-.145-2.892-.114-.96-.235-1.912-.152-2.874.06-.701.189-1.396.265-2.095.058-.502.085-1.006.139-1.508.109-1.012-.245-1.92-.652-2.805-1.254-2.723-3.056-4.993-5.565-6.656-.584-.387-1.212-.709-1.828-1.066l.346-.061c.129-.024.256-.05.385-.07a16.297 16.297 0 0 1 3.199-.188c3.066.14 5.758 1.155 7.888 3.452.211.228.413.467.602.715.332.437.434.962.497 1.49.162 1.345.03 2.679-.21 4.002-.895 4.969-2.829 9.53-5.442 13.816-.03.047-.063.095-.095.138-.008.01-.023.014-.04.022Z" fill="#36688F"/><path d="M29.894 29.86c.043 1.44-.33 2.919-.988 4.336a22.064 22.064 0 0 0-1.171 3.13c-.04.133-.107.146-.216.14a4.38 4.38 0 0 1-2.688-1.07 5.123 5.123 0 0 1-1.85-3.519c-.062-.607.026-1.23.064-1.847.032-.504.12-1.005.131-1.509.021-.999.01-1.998 0-2.998 0-.304-.03-.61-.062-.914a.257.257 0 0 1 .132-.262 8.24 8.24 0 0 1 2.318-1.098 5.498 5.498 0 0 1 1.799-.267c1.109.035 1.782.562 2.028 1.651.305 1.343.516 2.707.503 4.227Zm-2.164-3.596c.343-.015.668-.161.907-.409.335-.34.302-.687-.12-.91a2.64 2.64 0 0 0-.735-.25 1.82 1.82 0 0 0-1.012.059c-.29.112-.406.345-.31.623.16.463.757.884 1.27.89v-.003ZM43.889 35.135a.697.697 0 0 1-.055-.07c-.724-1.394-1.463-2.779-2.17-4.183-.555-1.11-1.037-2.255-1.304-3.473-.146-.663-.242-1.325-.103-2 .134-.652.495-1.127 1.114-1.347.42-.153.858-.248 1.303-.284.597-.038 1.2.015 1.828.029-.02.29-.021.53-.051.77-.113.882-.248 1.763-.348 2.649-.08.728-.028 1.457.044 2.186.103 1.054.22 2.108.266 3.166.032.8-.114 1.6-.428 2.337a2.428 2.428 0 0 1-.096.22ZM42.48 24.31c-.408.036-.798.104-1.139.333-.283.19-.304.41-.08.656.661.73 1.638.439 2.026-.354.112-.23.03-.428-.212-.509a4.951 4.951 0 0 0-.595-.127ZM23.811 42.286c.42-.1.844-.19 1.262-.303.51-.137 1.02-.274 1.517-.447.543-.19.97-.552 1.328-1 .272-.34.55-.677.828-1.015.05-.062.105-.122.163-.18.303-.303.477-.334.866-.156.471.215.816.946.676 1.437a.892.892 0 0 1-.133.264c-.776 1.076-1.802 1.766-3.122 1.962a6.215 6.215 0 0 1-2.995-.293 2.524 2.524 0 0 1-.303-.145.683.683 0 0 1-.089-.06l.002-.064ZM50.511 39.346c-.283.197-.566.402-.859.59a6.617 6.617 0 0 1-2.952 1.012c-.655.07-1.313.105-1.971.105-.354 0-.708-.11-1.06-.176a.205.205 0 0 1-.181-.243c.02-.297.059-.593.115-.886a.898.898 0 0 1 .626-.663c.041-.014.083-.028.123-.045a.79.79 0 0 1 .824.066c.52.339 1.132.433 1.743.479 1.163.088 2.307-.063 3.443-.289a.71.71 0 0 1 .126 0l.023.05Z" fill="#36688F"/></g><defs><clipPath id="a"><path fill="#fff" transform="translate(8.8 10.4)" d="M0 0h44.8v46.4H0z"/></clipPath></defs></svg>
