<svg width="64" height="64" fill="none" xmlns="http://www.w3.org/2000/svg"><path d="M24.393 45.293c0 1.43-1.17 2.73-2.73 2.73s-2.731-1.17-2.731-2.73V33.598c0-1.43 1.17-2.729 2.73-2.729 1.561 0 2.731 1.17 2.731 2.729v11.695Zm7.932 3.12c0 1.429-1.102 2.728-2.663 2.728-1.56 0-2.798-1.17-2.798-2.729V30.61c0-1.43 1.17-2.729 2.73-2.729s2.731 1.17 2.731 2.73v17.802Zm-15.864-5.719c0 1.43-1.17 2.73-2.73 2.73S11 44.253 11 42.693v-6.367c0-1.43 1.17-2.729 2.73-2.729 1.561 0 2.731 1.3 2.731 2.729v6.367Zm23.666 8.577c0 1.43-1.098 2.729-2.658 2.729-1.43 0-2.803-1.3-2.803-2.729v-23.65c0-1.43 1.17-2.73 2.73-2.73 1.43 0 2.731 1.17 2.731 2.73v23.65Z" fill="#231F20"/><path d="M48.579 50.102c-.52 0-.91-.13-1.43-.26l-3.251-1.04c-.52-.13-.91-.78-.65-1.3.13-.52.78-.91 1.3-.65l3.38 1.04c.65.26 1.431.13 2.081-.39.65-.39.91-1.169.91-1.819V23.982c0-1.04-.65-1.95-1.56-2.21l-31.858-9.616c-.65-.26-1.43-.13-2.08.26-.52.52-.91 1.17-.91 1.95V29.31c0 .65-.52 1.04-1.04 1.04-.65 0-1.04-.52-1.04-1.04V14.366c0-1.43.65-2.73 1.82-3.509 1.17-.91 2.6-1.04 3.9-.65l31.728 9.616c1.82.52 3.121 2.34 3.121 4.289v21.701c0 1.43-.588 2.707-1.82 3.639-.821.498-1.69.65-2.601.65Z" fill="#231F20"/></svg>
