<svg width="64" height="64" fill="none" xmlns="http://www.w3.org/2000/svg"><path d="M31.66 36.05 22.31 31.11 6.084 22.532c-.015-.015-.045-.015-.06-.015-.592-.281-1.2.311-.977.904l8.268 21.089.002.004.025.063c.34.786 1.08 1.272 1.886 1.463.068.015.117.028.198.044.082.019.196.043.294.05l.047.004h.012c.012.001.024.001.035.003h.017l.032.001h.02a145.353 145.353 0 0 0 31.544.002c.125 0 .248-.006.367-.018l.112-.013.015-.003.076-.012c.036-.005.074-.012.11-.02.075-.016.108-.028.209-.062.1-.035.267-.095.372-.145.104-.05.176-.1.264-.154.108-.068.213-.14.315-.216.045-.034.076-.056.109-.088l-.018-.01L31.66 36.05Z" fill="#FF4B4B"/><path d="M57.258 22.533h-.015L41.009 31.11l9.024 13.44 8.248-21.128v-.03a.712.712 0 0 0-1.023-.859Z" fill="#7D353B"/><path d="M32.528 18.454c-.415-.605-1.319-.605-1.718 0L22.315 31.11l9.348 4.942 17.716 9.362c.111-.108.2-.215.295-.327.138-.168.26-.348.367-.537l-9.024-13.44-8.49-12.655Z" fill="#BD4043"/></svg>
