<svg width="64" height="64" fill="none" xmlns="http://www.w3.org/2000/svg"><path d="M44.638 19c-4.458 0-8.565 2.526-12.535 6.94-3.9-4.483-8.076-6.94-12.741-6.94C11.637 19 6 24.553 6 32.028c0 7.475 5.637 12.958 13.362 12.958 4.748 0 8.428-2.242 12.535-6.712C35.866 42.758 39.904 45 44.638 45 52.363 44.986 58 39.524 58 32.028 58 24.532 52.363 19 44.638 19ZM19.417 37.143c-3.273 0-5.224-2.172-5.224-5.046 0-2.873 1.95-5.108 5.224-5.108 2.756 0 5.01 2.235 7.45 5.247-2.303 2.804-4.735 4.907-7.45 4.907Zm24.987 0c-2.715 0-5.01-2.172-7.45-5.046 2.509-3.012 4.666-5.108 7.45-5.108 3.273 0 5.203 2.262 5.203 5.108 0 2.846-1.93 5.046-5.203 5.046Z" fill="#484848"/><path d="m37.772 43.132 5.196-6.246c-2.067-.625-3.976-2.5-5.954-4.824l-5.058 6.212a22.764 22.764 0 0 0 5.816 4.858ZM32.11 25.933a23.43 23.43 0 0 0-5.781-4.97l-5.203 6.317c1.978.694 3.728 2.484 5.589 4.768l.206.146 5.19-6.26Z" fill="#20A7C9"/></svg>
