<svg width="64" height="64" fill="none" xmlns="http://www.w3.org/2000/svg"><g clip-path="url(#a)"><path d="M30.73 39.867h2.54v-6.776h6.387v-2.41H33.27v-6.776h-2.54v6.777h-6.31v2.41h6.31v6.776Z" fill="#E8762D"/><path d="M18.956 49.655h2.155V43.63h5.694V41.75h-5.694V35.65h-2.155v6.099h-5.694v1.882h5.694v6.024Z" fill="#C72037"/><path d="M42.888 27.896h2.155v-6.023h5.77v-1.807h-5.77v-6.099h-2.155v6.099h-5.694v1.807h5.694v6.023Z" fill="#5B879B"/><path d="M31.115 54.4h1.846v-4.292h3.925v-1.58H32.96v-4.293h-1.846v4.292h-3.848v1.581h3.848V54.4Z" fill="#5C6692"/><path d="M19.033 27.896h2.001v-6.099h5.771v-1.731h-5.77v-6.099h-2.002v6.099h-5.77v1.732h5.77v6.098Z" fill="#EB9129"/><path d="M49.428 36.933h1.847v-4.217H55.2V31.06h-3.925v-4.217H49.43v4.217H45.58v1.656h3.847v4.217Z" fill="#5C6692"/><path fill-rule="evenodd" clip-rule="evenodd" d="M42.888 49.655h2.155V43.63h5.77V41.75h-5.77V35.65h-2.155v6.099h-5.694v1.882h5.694v6.024Z" fill="#1F457E"/><path d="M36.579 15.021v-1.28H32.73V9.6h-1.385v4.141h-3.847v1.28h3.847v4.141h1.385v-4.14h3.848Zm-23.932 21.61h1.385v-4.142h3.848v-1.28h-3.848v-4.066h-1.385v4.066H8.8v1.355l3.847-.075v4.141Z" fill="#7199A6"/></g><defs><clipPath id="a"><path fill="#fff" transform="translate(8.8 9.6)" d="M0 0h46.4v44.8H0z"/></clipPath></defs></svg>
