<svg width="222" height="58" viewBox="0 0 222 58" fill="none" xmlns="http://www.w3.org/2000/svg">
<g clip-path="url(#clip0)">
<path d="M104.107 16.6155C102.941 16.5771 101.964 17.4917 101.925 18.6585C101.924 18.705 101.924 18.7514 101.925 18.7978V29.2914C96.8621 25.2253 89.4614 26.0336 85.3954 31.0965C83.718 33.1852 82.8041 35.7839 82.8049 38.4627C82.694 44.9535 87.8659 50.3052 94.3568 50.4162C100.848 50.5271 106.199 45.3552 106.31 38.8644C106.313 38.7305 106.313 38.5966 106.31 38.4628V18.8082C106.328 18.2191 106.095 17.6502 105.67 17.2425C105.253 16.8352 104.69 16.6128 104.107 16.6258V16.6155ZM101.346 41.2926C100.596 43.0581 99.1947 44.4675 97.4337 45.2291C95.5888 46.0102 93.506 46.0102 91.6609 45.2291C89.9036 44.4747 88.5081 43.0669 87.7691 41.3029C86.9969 39.4786 86.9969 37.4194 87.7691 35.5953C88.5097 33.8372 89.9056 32.4365 91.6609 31.6897C93.5059 30.9086 95.5887 30.9086 97.4337 31.6897C99.1946 32.4512 100.596 33.8605 101.346 35.6261C102.118 37.4433 102.118 39.4961 101.346 41.3132" fill="#4F94E6"/>
<path d="M128.648 30.1411C124.056 25.5528 116.613 25.5562 112.025 30.1486C109.824 32.3516 108.587 35.3382 108.586 38.4524C108.475 44.9433 113.647 50.295 120.138 50.406C126.628 50.5169 131.98 45.3449 132.091 38.8541C132.093 38.7203 132.093 38.5865 132.091 38.4525C132.092 36.9067 131.797 35.3751 131.221 33.9405C130.628 32.5138 129.753 31.2215 128.648 30.1411ZM127.13 41.2823C126.755 42.1534 126.221 42.947 125.554 43.6224C124.882 44.2975 124.088 44.8393 123.214 45.2188C121.371 46.0001 119.289 46.0001 117.445 45.2188C115.686 44.4661 114.289 43.0579 113.55 41.2927C112.778 39.4685 112.778 37.4093 113.55 35.585C114.293 33.8296 115.69 32.4325 117.445 31.6898C119.289 30.9084 121.371 30.9084 123.214 31.6898C124.088 32.0693 124.882 32.611 125.554 33.2863C126.221 33.9614 126.755 34.755 127.13 35.6262C127.898 37.4442 127.898 39.4953 127.13 41.3133" fill="#4F94E6"/>
<path d="M177.241 28.8803C177.243 28.5913 177.183 28.3054 177.067 28.0409C176.948 27.7872 176.787 27.5554 176.591 27.3557C176.397 27.1535 176.163 26.9926 175.905 26.8829C175.633 26.7704 175.341 26.7134 175.045 26.715C174.629 26.7122 174.22 26.8312 173.87 27.0576L161.321 35.2217V18.8286C161.332 18.2418 161.1 17.6765 160.681 17.2664C160.277 16.8421 159.714 16.6062 159.129 16.6154C157.92 16.6078 156.933 17.5818 156.926 18.7909C156.926 18.8001 156.926 18.8092 156.926 18.8184V47.9902C156.919 48.5732 157.15 49.1338 157.566 49.5421C157.973 49.9678 158.54 50.2039 159.129 50.1931C159.712 50.2026 160.273 49.9663 160.674 49.5421C161.09 49.1338 161.321 48.5732 161.314 47.9902V40.4257L163.873 38.747L173.572 49.6381C173.965 50.0159 174.494 50.2197 175.039 50.2033C175.334 50.2067 175.626 50.1496 175.899 50.0354C176.157 49.9283 176.391 49.7685 176.584 49.5661C176.783 49.3611 176.945 49.1221 177.06 48.8604C177.177 48.5959 177.236 48.31 177.235 48.021C177.236 47.4518 177.019 46.9036 176.628 46.4896L167.611 36.3316L176.402 30.624C176.97 30.2317 177.289 29.569 177.241 28.8803Z" fill="#4F94E6"/>
<path d="M140.83 33.2383C141.507 32.5684 142.306 32.0337 143.184 31.6624C144.092 31.2757 145.07 31.08 146.058 31.0868C146.932 31.0788 147.8 31.2344 148.617 31.5459C149.436 31.8751 150.194 32.3383 150.861 32.9163C151.266 33.2392 151.771 33.4112 152.29 33.4028C152.88 33.4276 153.454 33.2039 153.872 32.7861C154.284 32.3665 154.508 31.7978 154.492 31.2102C154.5 30.5722 154.222 29.9644 153.735 29.5519C151.632 27.6698 148.897 26.6506 146.075 26.6982C139.583 26.6982 134.32 31.9608 134.32 38.4525C134.304 44.9348 139.546 50.2029 146.028 50.2193C148.858 50.2263 151.595 49.2109 153.735 47.3599C154.177 46.9398 154.425 46.3556 154.42 45.7463C154.459 44.5795 153.544 43.6025 152.377 43.564C152.331 43.5624 152.285 43.5624 152.238 43.564C151.739 43.5662 151.253 43.7269 150.851 44.0231C150.194 44.6009 149.442 45.0591 148.627 45.3762C147.809 45.6838 146.942 45.8371 146.068 45.8285C145.081 45.8354 144.102 45.6396 143.194 45.253C142.317 44.8804 141.518 44.3458 140.84 43.6771C137.96 40.8145 137.946 36.1594 140.809 33.2797C140.819 33.2692 140.83 33.2589 140.84 33.2485" fill="#4F94E6"/>
<path d="M220.836 28.1681C220.411 27.7697 219.907 27.4661 219.356 27.2773C218.726 27.0511 218.072 26.8994 217.407 26.8251C216.748 26.7442 216.086 26.703 215.423 26.7017C214.077 26.6976 212.742 26.9294 211.476 27.387C210.236 27.8391 209.079 28.4919 208.05 29.3192V28.8807C208.002 27.6689 206.981 26.7253 205.769 26.7732C204.625 26.8184 203.707 27.736 203.662 28.8807V48.0214C203.71 49.2334 204.731 50.1768 205.943 50.1291C207.087 50.0839 208.005 49.1662 208.05 48.0214V38.4527C208.044 37.4642 208.24 36.4848 208.626 35.575C208.995 34.7024 209.529 33.9092 210.198 33.2385C210.872 32.5701 211.666 32.0353 212.538 31.6626C213.448 31.276 214.428 31.0802 215.416 31.087C216.399 31.0773 217.374 31.2553 218.29 31.6111C218.58 31.7504 218.895 31.8286 219.216 31.8407C219.511 31.8434 219.803 31.7863 220.075 31.6728C220.334 31.5637 220.567 31.4028 220.761 31.2001C220.956 31.0005 221.116 30.7688 221.233 30.515C221.352 30.244 221.413 29.951 221.412 29.655C221.433 29.1036 221.219 28.5693 220.822 28.1852" fill="#4F94E6"/>
<path d="M200.442 33.9576C198.575 29.594 194.297 26.7543 189.55 26.7288C183.061 26.727 177.798 31.9865 177.796 38.4764C177.796 38.4775 177.796 38.4787 177.796 38.4797C177.795 44.9734 183.058 50.2387 189.552 50.2398C192.371 50.2404 195.096 49.228 197.231 47.3871C197.262 47.3564 197.31 47.3152 197.317 47.305C197.509 47.15 197.676 46.9677 197.814 46.7637C198.519 45.7476 198.268 44.3521 197.252 43.6461C196.401 43.0931 195.282 43.1935 194.542 43.8894C194.47 43.9546 194.265 44.1464 194.23 44.1738L194.2 44.2012C193.574 44.7331 192.86 45.1506 192.089 45.4345C191.274 45.7218 190.415 45.8633 189.551 45.8525C188.754 45.8564 187.962 45.7292 187.207 45.4756C186.472 45.2299 185.779 44.8729 185.152 44.417C184.527 43.9599 183.978 43.4073 183.524 42.7794C183.061 42.1383 182.707 41.4254 182.476 40.6691H199.095C199.679 40.6823 200.242 40.4585 200.657 40.049C201.085 39.644 201.318 39.0752 201.298 38.4867C201.312 36.9375 201.019 35.4008 200.438 33.9646L200.442 33.9576ZM182.472 36.3043C182.692 35.5473 183.04 34.8336 183.5 34.194C183.956 33.5651 184.509 33.0123 185.138 32.5563C185.774 32.1009 186.475 31.744 187.217 31.4977C187.969 31.2475 188.755 31.1203 189.547 31.1208C190.334 31.1199 191.116 31.2473 191.863 31.4977C193.345 31.9901 194.636 32.9327 195.556 34.194C196.026 34.8328 196.385 35.5463 196.618 36.3043H182.472Z" fill="#4F94E6"/>
<path d="M213.34 47.0277C212.5 47.0409 211.83 47.7326 211.843 48.5726C211.856 49.4127 212.548 50.0828 213.388 50.0695C214.223 50.0564 214.891 49.3731 214.885 48.5385C214.876 47.6946 214.184 47.0183 213.34 47.0277C213.34 47.0277 213.34 47.0277 213.34 47.0277ZM213.34 49.7444C212.675 49.7747 212.111 49.2598 212.08 48.5946C212.05 47.9292 212.565 47.3653 213.23 47.335C213.896 47.3048 214.46 47.8196 214.49 48.4849C214.491 48.5061 214.491 48.5274 214.491 48.5487C214.514 49.186 214.016 49.7209 213.378 49.7436C213.366 49.7442 213.353 49.7444 213.34 49.7444Z" fill="#4F94E6"/>
<path d="M213.69 48.5864V48.5658C213.858 48.5333 213.985 48.3938 214.001 48.2233C214.008 48.0924 213.953 47.9659 213.854 47.8806C213.693 47.7954 213.512 47.7575 213.33 47.7711C213.136 47.7684 212.942 47.7844 212.751 47.8191V49.3265H213.094V48.7201H213.258C213.453 48.7201 213.542 48.792 213.573 48.9599C213.594 49.0872 213.633 49.2107 213.69 49.3265H214.07C214.011 49.2083 213.973 49.0808 213.957 48.9496C213.942 48.7856 213.836 48.644 213.683 48.583L213.69 48.5864ZM213.268 48.4733H213.1V48.0382C213.165 48.0305 213.231 48.0305 213.296 48.0382C213.515 48.0382 213.618 48.1307 213.618 48.2678C213.618 48.4049 213.46 48.4905 213.275 48.4905" fill="#4F94E6"/>
<path d="M78.7794 21.5523C78.5636 21.3809 76.5492 19.8599 72.3009 19.8599C71.1792 19.8648 70.0598 19.961 68.9537 20.1476C68.1315 14.512 63.4721 11.7643 63.2632 11.641L62.1225 10.9832L61.3722 12.0658C60.4326 13.5202 59.7467 15.1234 59.3441 16.8073C58.5834 20.0243 59.046 23.0459 60.6801 25.6291C58.7068 26.7288 55.5412 26.9995 54.9006 27.0235H2.49057C1.12163 27.0254 0.0108028 28.1316 0.00334236 29.5004C-0.0577887 34.0919 0.720102 38.6559 2.29871 42.9678C4.10414 47.7025 6.79012 51.1901 10.2846 53.3244C14.2005 55.7226 20.5624 57.093 27.774 57.093C31.0319 57.1032 34.2836 56.8083 37.4866 56.2125C41.9391 55.395 46.2235 53.8388 50.1626 51.608C53.4083 49.7284 56.3295 47.3373 58.8131 44.5266C62.9654 39.8261 65.439 34.5913 67.2786 29.9389C67.5253 29.9389 67.772 29.9389 68.0118 29.9389C72.558 29.9389 75.3536 28.1197 76.8952 26.5952C77.9198 25.6229 78.7196 24.4385 79.2386 23.1248L79.5641 22.1724L78.7794 21.5523Z" fill="#4F94E6"/>
<path d="M7.34911 25.4886H14.3723C14.711 25.4886 14.9855 25.214 14.9855 24.8754V18.6195C14.9874 18.2808 14.7143 18.0048 14.3757 18.0029C14.3746 18.0029 14.3734 18.0029 14.3723 18.0029H7.34911C7.01038 18.0029 6.7359 18.2774 6.7359 18.6161C6.7359 18.6172 6.7359 18.6184 6.7359 18.6195V24.8753C6.7359 25.214 7.01038 25.4886 7.34911 25.4886Z" fill="#4F94E6"/>
<path d="M17.0272 25.4886H24.0503C24.3891 25.4886 24.6635 25.214 24.6635 24.8754V18.6195C24.6654 18.2808 24.3924 18.0048 24.0537 18.0029C24.0526 18.0029 24.0513 18.0029 24.0502 18.0029H17.0271C16.6864 18.0029 16.4104 18.2789 16.4104 18.6195V24.8753C16.4124 25.2145 16.6879 25.4886 17.0272 25.4886Z" fill="#4F94E6"/>
<path d="M26.8528 25.4886H33.876C34.2147 25.4886 34.4892 25.214 34.4892 24.8754V18.6195C34.4911 18.2808 34.2181 18.0048 33.8793 18.0029C33.8782 18.0029 33.877 18.0029 33.8759 18.0029H26.8527C26.514 18.0029 26.2395 18.2774 26.2395 18.6161C26.2395 18.6172 26.2395 18.6184 26.2395 18.6195V24.8753C26.2396 25.214 26.5142 25.4886 26.8528 25.4886Z" fill="#4F94E6"/>
<path d="M36.5621 25.4886H43.5852C43.9245 25.4886 44.2 25.2147 44.2019 24.8754V18.6195C44.2019 18.2789 43.9258 18.0029 43.5852 18.0029H36.5621C36.2233 18.0029 35.9489 18.2774 35.9489 18.6161C35.9489 18.6172 35.9489 18.6184 35.9489 18.6195V24.8753C35.9489 25.214 36.2234 25.4886 36.5621 25.4886Z" fill="#4F94E6"/>
<path d="M17.0271 16.489H24.0502C24.3894 16.4871 24.6634 16.2115 24.6634 15.8723V9.61655C24.6634 9.27782 24.3888 9.00334 24.0502 9.00334H17.0271C16.6879 9.00334 16.4123 9.27726 16.4104 9.61655V15.8723C16.4123 16.2121 16.6872 16.4871 17.0271 16.489Z" fill="#4F94E6"/>
<path d="M26.8527 16.489H33.8759C34.2151 16.4871 34.4891 16.2115 34.4891 15.8723V9.61655C34.4891 9.27782 34.2145 9.00334 33.8759 9.00334H26.8527C26.514 9.00334 26.2395 9.27793 26.2395 9.61655V15.8723C26.2395 16.2115 26.5135 16.4871 26.8527 16.489Z" fill="#4F94E6"/>
<path d="M36.5621 16.489H43.5852C43.9251 16.4871 44.2 16.2121 44.2019 15.8723V9.61655C44.2 9.27726 43.9245 9.00334 43.5852 9.00334H36.5621C36.2233 9.00334 35.9489 9.27793 35.9489 9.61655V15.8723C35.9489 16.2115 36.2229 16.4871 36.5621 16.489Z" fill="#4F94E6"/>
<path d="M36.5621 7.48572H43.5852C43.9245 7.48572 44.2 7.21169 44.2019 6.87252V0.613204C44.2 0.273921 43.9245 0 43.5852 0H36.5621C36.2233 0 35.9489 0.274478 35.9489 0.613204V6.87241C35.9489 7.21113 36.2234 7.48572 36.5621 7.48572Z" fill="#4F94E6"/>
<path d="M46.3562 25.4886H53.3794C53.7187 25.4886 53.9942 25.2147 53.9961 24.8754V18.6195C53.9961 18.2789 53.72 18.0029 53.3794 18.0029H46.3562C46.0176 18.0029 45.743 18.2774 45.743 18.6161C45.743 18.6172 45.743 18.6184 45.743 18.6195V24.8753C45.743 25.214 46.0176 25.4886 46.3562 25.4886Z" fill="#4F94E6"/>
</g>
<defs>
<clipPath id="clip0">
<rect width="221.413" height="57.0932" fill="white"/>
</clipPath>
</defs>
</svg>
