<svg width="174" height="46" fill="none" xmlns="http://www.w3.org/2000/svg"><path d="M81.597 13.023a1.657 1.657 0 0 0-1.71 1.71v8.225a9.216 9.216 0 0 0-14.986 7.188 9.213 9.213 0 1 0 18.423 0V14.742a1.632 1.632 0 0 0-.502-1.228 1.699 1.699 0 0 0-1.225-.483v-.008Zm-2.164 19.341a5.858 5.858 0 0 1-3.066 3.086 5.802 5.802 0 0 1-4.525 0 5.779 5.779 0 0 1-3.05-3.078 5.738 5.738 0 0 1 0-4.473 5.755 5.755 0 0 1 3.05-3.061 5.803 5.803 0 0 1 4.525 0 5.857 5.857 0 0 1 3.066 3.085 5.7 5.7 0 0 1 0 4.458M100.832 23.624a9.212 9.212 0 0 0-15.724 6.514 9.213 9.213 0 1 0 18.423 0 9.48 9.48 0 0 0-.682-3.536 8.996 8.996 0 0 0-2.017-2.978Zm-1.19 8.732a5.966 5.966 0 0 1-1.235 1.834 5.907 5.907 0 0 1-1.834 1.252 5.795 5.795 0 0 1-4.521 0 5.772 5.772 0 0 1-3.053-3.077 5.74 5.74 0 0 1 3.053-7.527 5.793 5.793 0 0 1 4.521 0 5.904 5.904 0 0 1 1.834 1.251c.523.53.942 1.151 1.235 1.834a5.73 5.73 0 0 1 0 4.458M138.919 22.636a1.62 1.62 0 0 0-.137-.658 1.936 1.936 0 0 0-.373-.537 1.623 1.623 0 0 0-.538-.37 1.735 1.735 0 0 0-.674-.132 1.678 1.678 0 0 0-.921.268l-9.835 6.4v-12.85a1.67 1.67 0 0 0-.502-1.224 1.643 1.643 0 0 0-1.216-.51 1.716 1.716 0 0 0-1.727 1.705v22.886c-.005.457.176.896.502 1.216.319.334.763.519 1.225.51.457.008.896-.177 1.211-.51.326-.32.507-.76.501-1.216v-5.929l2.006-1.316 7.602 8.537c.308.296.723.455 1.15.443.231.002.46-.043.674-.132.202-.084.385-.21.537-.368a1.88 1.88 0 0 0 .373-.553 1.62 1.62 0 0 0 .137-.658 1.74 1.74 0 0 0-.476-1.2l-7.067-7.962 6.89-4.473c.445-.308.695-.827.658-1.367ZM110.38 26.052a5.884 5.884 0 0 1 1.845-1.235 5.653 5.653 0 0 1 2.253-.452 5.494 5.494 0 0 1 2.006.36 6.22 6.22 0 0 1 1.758 1.074c.318.253.714.388 1.12.382.463.019.913-.156 1.24-.484.323-.329.499-.774.486-1.235.007-.5-.211-.976-.593-1.3a8.78 8.78 0 0 0-6.004-2.236 9.213 9.213 0 0 0-9.213 9.212 9.2 9.2 0 0 0 15.217 6.982c.346-.33.541-.787.537-1.265a1.657 1.657 0 0 0-1.71-1.71 1.846 1.846 0 0 0-1.087.36 5.854 5.854 0 0 1-1.744 1.06 5.536 5.536 0 0 1-2.005.355 5.653 5.653 0 0 1-2.253-.451 5.942 5.942 0 0 1-1.845-1.236 5.762 5.762 0 0 1-.024-8.149l.024-.024M173.088 22.078a3.221 3.221 0 0 0-1.16-.698 6.739 6.739 0 0 0-1.528-.355 12.952 12.952 0 0 0-1.555-.097 9.019 9.019 0 0 0-3.094.537 9.47 9.47 0 0 0-2.685 1.515v-.344a1.72 1.72 0 0 0-3.439 0v15.002a1.722 1.722 0 0 0 3.439 0v-7.5a5.692 5.692 0 0 1 .452-2.255 5.769 5.769 0 0 1 1.232-1.831 5.885 5.885 0 0 1 1.834-1.235 5.67 5.67 0 0 1 2.256-.451 6.053 6.053 0 0 1 2.252.41c.227.11.474.17.726.18.231.002.46-.042.673-.131.203-.086.386-.212.538-.37a1.92 1.92 0 0 0 .37-.538c.093-.212.141-.442.14-.674a1.52 1.52 0 0 0-.462-1.152M157.103 26.615a9.339 9.339 0 0 0-8.537-5.665 9.21 9.21 0 0 0-9.212 9.207v.003a9.215 9.215 0 0 0 15.232 6.981c.025-.024.062-.056.068-.064.15-.122.281-.264.389-.424a1.756 1.756 0 0 0-.44-2.444 1.727 1.727 0 0 0-2.124.19c-.057.052-.217.202-.245.224l-.023.021a5.476 5.476 0 0 1-1.655.967 5.765 5.765 0 0 1-1.989.327 5.679 5.679 0 0 1-1.837-.295 5.8 5.8 0 0 1-2.887-2.113 5.632 5.632 0 0 1-.821-1.654h13.025a1.69 1.69 0 0 0 1.225-.486 1.61 1.61 0 0 0 .502-1.225 9.236 9.236 0 0 0-.674-3.544l.003-.006Zm-14.084 1.84a5.428 5.428 0 0 1 .805-1.654 5.78 5.78 0 0 1 1.284-1.284 6.104 6.104 0 0 1 1.63-.83 5.766 5.766 0 0 1 3.641 0 5.874 5.874 0 0 1 2.895 2.114c.368.5.649 1.06.832 1.654h-11.087ZM167.212 36.86a1.192 1.192 0 1 0 .038 2.384 1.192 1.192 0 0 0-.038-2.384Zm0 2.129a.946.946 0 1 1 .903-.937.905.905 0 0 1-.903.937Z" fill="#4F94E6"/><path d="M167.487 38.081v-.016a.304.304 0 0 0 .244-.268.333.333 0 0 0-.116-.269.756.756 0 0 0-.41-.086 2.355 2.355 0 0 0-.454.038v1.181h.269v-.475h.128c.153 0 .223.056.247.188.017.1.047.197.092.287h.298a.9.9 0 0 1-.089-.295.344.344 0 0 0-.215-.287l.006.002Zm-.331-.088h-.132v-.341a.65.65 0 0 1 .154 0c.172 0 .252.072.252.18 0 .107-.124.174-.269.174M61.746 16.892c-.17-.134-1.748-1.326-5.078-1.326-.879.004-1.756.08-2.623.225-.645-4.417-4.297-6.57-4.46-6.667l-.894-.516-.589.849a11.986 11.986 0 0 0-1.59 3.716c-.595 2.522-.233 4.89 1.048 6.915-1.547.862-4.028 1.074-4.53 1.093H1.952a1.952 1.952 0 0 0-1.95 1.94 29.559 29.559 0 0 0 1.8 10.557c1.415 3.71 3.52 6.444 6.259 8.117 3.07 1.88 8.055 2.954 13.708 2.954a40.925 40.925 0 0 0 7.612-.69 31.82 31.82 0 0 0 9.936-3.61 27.314 27.314 0 0 0 6.78-5.55c3.254-3.684 5.193-7.787 6.635-11.433h.575c3.563 0 5.754-1.426 6.962-2.621a7.599 7.599 0 0 0 1.837-2.72l.255-.747-.615-.486Z" fill="#4F94E6"/><path d="M5.76 19.978h5.505a.48.48 0 0 0 .48-.481v-4.903a.48.48 0 0 0-.478-.484H5.76a.48.48 0 0 0-.48.481v4.906c0 .265.215.48.48.48ZM13.346 19.978h5.504a.48.48 0 0 0 .48-.481v-4.903a.48.48 0 0 0-.477-.484h-5.507a.483.483 0 0 0-.484.484v4.903c.002.266.218.48.484.48ZM21.047 19.978h5.505a.48.48 0 0 0 .48-.481v-4.903a.48.48 0 0 0-.478-.484h-5.507a.48.48 0 0 0-.48.481v4.906c0 .265.214.48.48.48ZM28.657 19.978h5.504a.483.483 0 0 0 .484-.481v-4.903a.483.483 0 0 0-.484-.484h-5.504a.48.48 0 0 0-.48.481v4.906c0 .265.214.48.48.48ZM13.346 12.924h5.504a.483.483 0 0 0 .48-.483V7.537a.48.48 0 0 0-.48-.48h-5.504a.483.483 0 0 0-.484.48v4.904a.486.486 0 0 0 .484.483ZM21.047 12.924h5.504a.483.483 0 0 0 .481-.483V7.537a.48.48 0 0 0-.48-.48h-5.505a.48.48 0 0 0-.48.48v4.904c0 .265.214.481.48.483ZM28.657 12.924h5.504a.486.486 0 0 0 .484-.483V7.537a.483.483 0 0 0-.484-.48h-5.504a.48.48 0 0 0-.48.48v4.904c0 .265.214.481.48.483ZM28.657 5.867h5.504a.483.483 0 0 0 .484-.48V.48A.483.483 0 0 0 34.16 0h-5.504a.48.48 0 0 0-.48.48v4.906c0 .266.214.481.48.481ZM36.333 19.978h5.505a.483.483 0 0 0 .483-.481v-4.903a.483.483 0 0 0-.483-.484h-5.505a.48.48 0 0 0-.48.481v4.906c0 .265.215.48.48.48Z" fill="#4F94E6"/></svg>