<svg width="220" height="60" viewBox="0 0 220 60" fill="none" xmlns="http://www.w3.org/2000/svg">
<g clip-path="url(#clip0)">
<path fill-rule="evenodd" clip-rule="evenodd" d="M111.136 0.000110849C110.984 0.00199735 110.83 0.03887 110.693 0.119744C110.422 0.281368 110.251 0.578196 110.251 0.897385V23.7778C110.251 24.0026 110.148 24.2035 109.956 24.3163C109.763 24.4293 109.529 24.4293 109.336 24.3163L105.647 22.1628C105.098 21.8416 104.426 21.8418 103.877 22.1628L89.1509 30.7767C88.6003 31.0985 88.2656 31.7178 88.2656 32.3618V49.5895C88.2656 50.233 88.6008 50.8223 89.1509 51.1447L103.877 59.7586C104.427 60.0805 105.097 60.0805 105.647 59.7586L120.373 51.1447C120.923 50.8223 121.258 50.233 121.258 49.5895V6.63995C121.258 5.98661 120.906 5.37347 120.343 5.05476L111.579 0.0898417C111.441 0.0120311 111.289 -0.00155584 111.136 0.000168421V0.000110849ZM16.4078 21.5047C16.127 21.5162 15.8631 21.566 15.611 21.7141L0.885312 30.328C0.336608 30.6495 0 31.235 0 31.8833L0.0294471 55.0029C0.0294471 55.3245 0.193138 55.6232 0.472106 55.7807C0.745534 55.9466 1.08491 55.9466 1.35742 55.7807L10.0925 50.6961C10.6458 50.3629 11.0073 49.7834 11.0073 49.1408V38.3436C11.0073 37.6996 11.3416 37.1085 11.8926 36.7883L15.6109 34.605C15.8885 34.4424 16.1864 34.3658 16.4962 34.3658C16.7997 34.3658 17.1117 34.4423 17.3816 34.605L21.0999 36.7883C21.6509 37.1085 21.9852 37.6996 21.9852 38.3436V49.1408C21.9852 49.7834 22.3503 50.3666 22.9 50.6961L31.6351 55.7807C31.9094 55.9466 32.2483 55.9466 32.5204 55.7807C32.7915 55.6232 32.963 55.3245 32.963 55.0029L32.9925 31.8833C32.9925 31.235 32.6596 30.6495 32.1072 30.328L17.3815 21.7141C17.1325 21.566 16.8675 21.5164 16.5847 21.5047H16.4077H16.4078ZM148.732 21.7141C148.425 21.7138 148.123 21.7926 147.847 21.9534L133.121 30.5672C132.571 30.8892 132.236 31.4785 132.236 32.1225V49.3502C132.236 49.9979 132.596 50.5853 133.151 50.9055L147.759 59.3398C148.298 59.652 148.957 59.6754 149.5 59.3695L158.353 54.3746C158.634 54.2167 158.824 53.9217 158.825 53.597C158.827 53.2721 158.66 52.981 158.382 52.8193L143.568 44.2055C143.291 44.0452 143.096 43.7204 143.096 43.3979V38.0143C143.096 37.6924 143.293 37.3974 143.568 37.2367L148.172 34.5448C148.446 34.3842 148.782 34.3842 149.057 34.5448L153.661 37.2367C153.936 37.3974 154.103 37.6924 154.103 38.0143V42.2615C154.103 42.5838 154.271 42.8783 154.546 43.039C154.822 43.2002 155.156 43.2008 155.431 43.039L164.255 37.8349C164.803 37.5125 165.14 36.9216 165.14 36.2796V32.1222C165.14 31.4801 164.804 30.8894 164.255 30.5669L149.618 21.9531C149.342 21.7912 149.04 21.7142 148.732 21.7138V21.7141ZM104.703 34.5751C104.78 34.5751 104.87 34.5942 104.939 34.6344L109.985 37.5955C110.122 37.6759 110.221 37.8239 110.221 37.9842V43.9062C110.221 44.067 110.123 44.2152 109.985 44.2951L104.939 47.2561C104.802 47.3355 104.634 47.3355 104.496 47.2561L99.45 44.2951C99.3126 44.2147 99.2139 44.067 99.2139 43.9062V37.9842C99.2139 37.8239 99.3131 37.6762 99.45 37.5955L104.496 34.6349C104.565 34.5947 104.626 34.5755 104.703 34.5755V34.5751Z" fill="#404137"/>
<path fill-rule="evenodd" clip-rule="evenodd" d="M192.85 21.2954C192.34 21.2954 191.844 21.4024 191.404 21.6543L177.505 29.7896C176.606 30.3145 176.059 31.3066 176.059 32.3618V48.6025C176.059 49.6571 176.606 50.6481 177.505 51.1746L181.135 53.2982C182.898 54.1791 183.549 54.1655 184.351 54.1655C186.963 54.1655 188.453 52.5598 188.453 49.7689V33.7376C188.453 33.5109 188.26 33.3487 188.04 33.3487H186.299C186.076 33.3487 185.886 33.5109 185.886 33.7376V49.7689C185.886 51.0059 184.615 52.25 182.551 51.2045L178.774 48.9614C178.641 48.8877 178.538 48.7576 178.538 48.6025V32.3618C178.538 32.2076 178.639 32.051 178.774 31.973L192.644 23.8676C192.774 23.792 192.928 23.792 193.057 23.8676L206.927 31.973C207.059 32.0534 207.163 32.2029 207.163 32.3618V48.6025C207.163 48.7576 207.086 48.9165 206.956 48.9913L193.057 57.0967C192.938 57.1684 192.774 57.1684 192.644 57.0967L189.073 54.9432C188.967 54.88 188.822 54.8848 188.719 54.9432C187.733 55.5095 187.548 55.5754 186.624 55.9003C186.396 55.9807 186.05 56.1058 186.742 56.4985L191.404 59.28C191.848 59.5403 192.343 59.6688 192.85 59.6688C193.365 59.6688 193.853 59.5403 194.296 59.28L208.196 51.1746C209.095 50.6443 209.642 49.6571 209.642 48.6025V32.3618C209.642 31.3066 209.095 30.3167 208.196 29.7896L194.296 21.6543C193.861 21.4024 193.361 21.2954 192.85 21.2954ZM60.6439 21.6243C60.337 21.6243 60.0334 21.7028 59.7586 21.8636L45.0329 30.4476C44.4824 30.7692 44.1476 31.3893 44.1476 32.0327V49.2604C44.1476 49.9046 44.4827 50.4934 45.0329 50.8157L59.7586 59.4295C60.3091 59.7517 60.9787 59.7517 61.5292 59.4295L76.2549 50.8157C76.8045 50.4934 77.1402 49.9046 77.1402 49.2604V32.0327C77.1402 31.3883 76.8054 30.7692 76.2549 30.4476L61.5292 21.8636C61.2544 21.7028 60.9507 21.6243 60.6439 21.6243ZM213.478 21.7143V22.133H214.629V25.2136H215.101V22.133H216.282V21.7143H213.478ZM216.695 21.7143V25.2136H217.137V23.1499C217.137 23.0657 217.141 22.9355 217.137 22.7612C217.132 22.5836 217.137 22.4289 217.137 22.3424V22.2524L218.111 25.2133H218.583L219.587 22.2524C219.587 22.4407 219.562 22.6226 219.557 22.7907C219.556 22.9544 219.557 23.0773 219.557 23.1497V25.2133H220V21.714H219.351L218.347 24.6751L217.374 21.714H216.695L216.695 21.7143ZM196.569 32.9003C192.611 32.9003 190.254 34.6075 190.254 37.4465C190.254 40.5263 192.593 41.3725 196.392 41.7534C200.936 42.2043 201.29 42.8806 201.29 43.7873C201.29 45.3599 200.053 46.0304 197.129 46.0304C193.456 46.0304 192.649 45.101 192.378 43.2489C192.346 43.0503 192.195 42.89 191.995 42.89H190.195C189.973 42.89 189.781 43.0834 189.781 43.3087C189.781 45.6794 191.054 48.483 197.129 48.483C201.528 48.483 204.064 46.7333 204.064 43.6676C204.064 40.6285 202.015 39.8127 197.749 39.2411C193.438 38.663 193.028 38.3801 193.028 37.3568C193.028 36.5122 193.376 35.3827 196.569 35.3827C199.421 35.3827 200.475 36.0061 200.907 37.955C200.945 38.1382 201.104 38.284 201.29 38.284H203.091C203.202 38.284 203.309 38.2151 203.386 38.1344C203.461 38.0482 203.514 37.9512 203.504 37.8354C203.225 34.4789 201.017 32.9003 196.569 32.9003ZM148.703 36.9979C148.644 36.9979 148.579 36.9979 148.526 37.0276L145.693 38.7025C145.587 38.7638 145.516 38.8777 145.516 39.0016V42.2916C145.516 42.4154 145.587 42.529 145.693 42.5907L148.526 44.2356C148.632 44.2979 148.745 44.2979 148.85 44.2356L151.683 42.5907C151.789 42.5294 151.861 42.4154 151.861 42.2916V39.0016C151.861 38.8777 151.789 38.7641 151.683 38.7025L148.85 37.0276C148.798 36.996 148.762 36.9979 148.703 36.9979Z" fill="#83CD29"/>
</g>
<defs>
<clipPath id="clip0">
<rect width="220" height="60" fill="white"/>
</clipPath>
</defs>
</svg>
